<svg width="63" height="22" fill="none" xmlns="http://www.w3.org/2000/svg"><path d="M3.557 0C1.591 0 0 1.577 0 3.525v14.95C0 20.423 1.59 22 3.557 22H18.65c1.965 0 3.557-1.578 3.557-3.524v-.153c-.067-.028-5.772-2.385-8.671-3.767-1.957 2.386-4.48 3.833-7.1 3.833-4.43 0-5.935-3.842-3.837-6.37.457-.552 1.235-1.078 2.443-1.373 1.89-.46 4.896.287 7.713 1.208.507-.925.933-1.943 1.251-3.028H5.323v-.871H9.8V6.392H4.377V5.52H9.8V3.292s0-.375.384-.375h2.19V5.52h5.36v.872h-5.36v1.563h4.375a17.635 17.635 0 01-1.852 4.637c1.328.476 2.52.927 3.408 1.222 2.964.983 3.795 1.103 3.902 1.115V3.525C22.207 1.578 20.615 0 18.65 0H3.558zm2.435 11.92a6.94 6.94 0 00-.573.03c-.555.056-1.596.299-2.166.798-1.707 1.474-.685 4.17 2.77 4.17 2.007 0 4.014-1.272 5.59-3.308-2.032-.982-3.782-1.711-5.62-1.69z" fill="#00A1E9"/><path d="M60.83 15.292l-.992 2.14-1.006-2.14h-.983l1.531 2.957v2.063h.902V18.25l.005-.011 1.525-2.946h-.982zm-7.258 1.294l.699 2.082h-1.423l.724-2.082zm.914 2.715l.337 1.01h.945l-1.86-5.019h-.723l-1.855 5.02h.946l.352-1.011h1.858zm-7.052-1.609H46.43v-1.717h1.004c.504 0 .806.438.806.862 0 .414-.282.855-.806.855zm.05-2.4h-1.963v5.02h.909v-1.93h1.055c.98 0 1.664-.636 1.664-1.545 0-.91-.685-1.545-1.664-1.545zm-6.556 5.02h.91v-5.02h-.91v5.02zm-6.392-5.02v5.02h3.059v-.684h-2.15v-4.335h-.909zm-5.176 1.294l.698 2.082h-1.422l.724-2.082zm.914 2.715l.337 1.01h.944l-1.86-5.019h-.722l-1.855 5.02h.945l.352-1.011h1.859zM36.67 5.48h-3.898V4.092h4.52v-.865h-4.52V1.47h-2.015c-.221 0-.4.184-.4.41v1.348H25.87v.865h4.488V5.48H26.57v.863h7.545s-.418 1.622-2.488 3.366c-1.854-1.395-2.473-2.506-2.473-2.506h-2.025c.82 1.41 1.983 2.54 3.236 3.435-1.151.743-2.644 1.46-4.574 2.033v1.035s2.978-.558 5.856-2.243c2.883 1.672 5.778 2.243 5.778 2.243v-.98c-1.853-.67-3.321-1.407-4.474-2.118 1.67-1.229 3.133-2.897 3.72-5.128zm12.661-3.838h-2.029v2.106h-5v.848h5v7.574a.35.35 0 01-.327.317h-1.032v.878h2.63a.797.797 0 00.758-.786V4.596h.824v-.848h-.824V1.642zm-4.279 4.383a.453.453 0 00-.401-.255h-1.69l1.317 4.12h2l-1.226-3.865zM40.06 1.542l-2.327 5.47h1.785v6.508h1.953V4.887h-.708l1.47-3.345H40.06zm22.64 11.68l-.713-2.394a.37.37 0 00-.352-.264h-1.89l.548 1.839H58.07V8.84h4.365v-.848H58.07V6.317h4.365v-.848H51.543v.848h4.364v1.676h-4.364v.848h4.364v3.562h-4.364v.847h11.158l-.01-.029h.01zm-8.888-9.775h6.357v1.25h2.27v-1.49a.603.603 0 00-.588-.607h-3.675V1.434H55.8V2.6h-4.258v2.098h2.27v-1.25z" fill="#3F3B3A"/></svg>