<svg width="48" height="12" fill="none" xmlns="http://www.w3.org/2000/svg"><path d="M5.416 0L0 11.985h6.483l.804-1.911h1.837l.804 1.91h7.136v-1.458l.636 1.459h3.691l.636-1.49v1.49H36.87l1.804-1.862 1.69 1.862 7.623.015-5.433-5.974L47.986 0h-7.505l-1.756 1.827L37.088 0H20.943l-1.387 3.093L18.137 0h-6.47v1.409L10.947 0h-5.53zM6.67 1.702h3.16l3.592 8.127V1.702h3.462l2.775 5.827 2.557-5.827h3.445v8.6h-2.096l-.017-6.74-3.056 6.74h-1.875l-3.073-6.74v6.74h-4.312l-.817-1.928H5.998L5.183 10.3h-2.31L6.67 1.702zm20.908 0h8.523l2.607 2.816 2.69-2.816h2.607l-3.96 4.322 3.96 4.272H41.28l-2.607-2.848-2.704 2.848h-8.39V1.703zM8.208 3.157L6.751 6.59H9.66L8.207 3.157zm21.475.325v1.57h4.65v1.75h-4.65v1.714h5.215l2.423-2.524-2.32-2.511h-5.318v.001z" fill="#26A6D1"/></svg>