<svg width="34" height="40" viewBox="0 0 34 40" fill="none" xmlns="http://www.w3.org/2000/svg">
<path d="M6.66667 30C6.66667 30.9167 7.41667 31.6667 8.33333 31.6667H10V37.5C10 38.8833 11.1167 40 12.5 40C13.8833 40 15 38.8833 15 37.5V31.6667H18.3333V37.5C18.3333 38.8833 19.45 40 20.8333 40C22.2167 40 23.3333 38.8833 23.3333 37.5V31.6667H25C25.9167 31.6667 26.6667 30.9167 26.6667 30V13.3333H6.66667V30ZM2.5 13.3333C1.11667 13.3333 0 14.45 0 15.8333V27.5C0 28.8833 1.11667 30 2.5 30C3.88333 30 5 28.8833 5 27.5V15.8333C5 14.45 3.88333 13.3333 2.5 13.3333ZM30.8333 13.3333C29.45 13.3333 28.3333 14.45 28.3333 15.8333V27.5C28.3333 28.8833 29.45 30 30.8333 30C32.2167 30 33.3333 28.8833 33.3333 27.5V15.8333C33.3333 14.45 32.2167 13.3333 30.8333 13.3333ZM22.55 3.6L24.7167 1.43333C25.05 1.1 25.05 0.583333 24.7167 0.25C24.3833 -0.0833333 23.8667 -0.0833333 23.5333 0.25L21.0667 2.71667C19.75 2.05 18.25 1.66667 16.6667 1.66667C15.0667 1.66667 13.5667 2.05 12.2333 2.71667L9.75 0.25C9.41667 -0.0833333 8.9 -0.0833333 8.56667 0.25C8.23333 0.583333 8.23333 1.1 8.56667 1.43333L10.75 3.61667C8.28333 5.43333 6.66667 8.35 6.66667 11.6667H26.6667C26.6667 8.35 25.05 5.41667 22.55 3.6ZM13.3333 8.33333H11.6667V6.66667H13.3333V8.33333ZM21.6667 8.33333H20V6.66667H21.6667V8.33333Z" fill="#FD3E72"/>
</svg>
