<svg width="21" height="24" viewBox="0 0 21 24" fill="none" xmlns="http://www.w3.org/2000/svg">
<path d="M4.35352 18C4.35352 18.55 4.80352 19 5.35352 19H6.35352V22.5C6.35352 23.33 7.02352 24 7.85352 24C8.68352 24 9.35352 23.33 9.35352 22.5V19H11.3535V22.5C11.3535 23.33 12.0235 24 12.8535 24C13.6835 24 14.3535 23.33 14.3535 22.5V19H15.3535C15.9035 19 16.3535 18.55 16.3535 18V8H4.35352V18ZM1.85352 8C1.02352 8 0.353516 8.67 0.353516 9.5V16.5C0.353516 17.33 1.02352 18 1.85352 18C2.68352 18 3.35352 17.33 3.35352 16.5V9.5C3.35352 8.67 2.68352 8 1.85352 8ZM18.8535 8C18.0235 8 17.3535 8.67 17.3535 9.5V16.5C17.3535 17.33 18.0235 18 18.8535 18C19.6835 18 20.3535 17.33 20.3535 16.5V9.5C20.3535 8.67 19.6835 8 18.8535 8ZM13.8835 2.16L15.1835 0.86C15.3835 0.66 15.3835 0.35 15.1835 0.15C14.9835 -0.05 14.6735 -0.05 14.4735 0.15L12.9935 1.63C12.2035 1.23 11.3035 1 10.3535 1C9.39352 1 8.49352 1.23 7.69352 1.63L6.20352 0.15C6.00352 -0.05 5.69352 -0.05 5.49352 0.15C5.29352 0.35 5.29352 0.66 5.49352 0.86L6.80352 2.17C5.32352 3.26 4.35352 5.01 4.35352 7H16.3535C16.3535 5.01 15.3835 3.25 13.8835 2.16ZM8.35352 5H7.35352V4H8.35352V5ZM13.3535 5H12.3535V4H13.3535V5Z" fill="#AFADB2"/>
</svg>
