<svg width="90" height="30" fill="none" xmlns="http://www.w3.org/2000/svg"><path d="M9.495 22.343h-5.63L2.515 26.3H.13l5.33-14.636h2.477l5.332 14.635h-2.425l-1.35-3.956zm-5.046-1.825H8.91l-2.2-6.42h-.06l-2.201 6.42zm20.335.446c0 3.316-1.79 5.447-4.493 5.447a3.657 3.657 0 01-3.387-1.867h-.051v5.285h-2.21v-14.2h2.139v1.774h.04a3.827 3.827 0 013.429-1.886c2.732 0 4.533 2.14 4.533 5.447zm-2.271 0c0-2.16-1.127-3.58-2.845-3.58-1.689 0-2.825 1.45-2.825 3.58 0 2.15 1.136 3.59 2.825 3.59 1.718 0 2.845-1.41 2.845-3.59zm14.122 0c0 3.316-1.791 5.447-4.494 5.447a3.657 3.657 0 01-3.387-1.867h-.051v5.285h-2.21v-14.2h2.139v1.774h.04a3.827 3.827 0 013.429-1.886c2.732 0 4.534 2.14 4.534 5.447zm-2.272 0c0-2.16-1.127-3.58-2.845-3.58-1.689 0-2.825 1.45-2.825 3.58 0 2.15 1.136 3.59 2.825 3.59 1.718 0 2.845-1.41 2.845-3.59zm10.103 1.257c.164 1.451 1.587 2.404 3.53 2.404 1.864 0 3.204-.953 3.204-2.261 0-1.136-.809-1.816-2.722-2.283l-1.914-.456c-2.712-.65-3.97-1.906-3.97-3.946 0-2.525 2.22-4.26 5.373-4.26 3.12 0 5.26 1.735 5.331 4.26h-2.23c-.134-1.46-1.352-2.342-3.133-2.342-1.78 0-2.998.892-2.998 2.19 0 1.035.778 1.644 2.681 2.11l1.627.396c3.03.71 4.289 1.916 4.289 4.057 0 2.738-2.2 4.453-5.701 4.453-3.275 0-5.486-1.675-5.629-4.322h2.262zm13.837-9.118v2.526h2.048v1.734h-2.047v5.883c0 .913.41 1.34 1.31 1.34a7.4 7.4 0 00.727-.051v1.724a6.132 6.132 0 01-1.228.101c-2.18 0-3.03-.811-3.03-2.88v-6.117h-1.565v-1.734h1.565v-2.526h2.22zm3.234 7.861c0-3.357 1.995-5.467 5.106-5.467 3.122 0 5.108 2.11 5.108 5.467 0 3.367-1.976 5.467-5.108 5.467-3.131 0-5.106-2.1-5.106-5.467zm7.962 0c0-2.303-1.065-3.662-2.856-3.662-1.79 0-2.855 1.37-2.855 3.662 0 2.313 1.064 3.662 2.855 3.662 1.79 0 2.856-1.35 2.856-3.662zm4.074-5.335h2.107v1.816h.051a2.565 2.565 0 012.59-1.928c.255-.001.509.026.757.082v2.048a3.116 3.116 0 00-.993-.132 2.237 2.237 0 00-1.72.702 2.194 2.194 0 00-.582 1.753v6.329h-2.21v-10.67zm15.695 7.536c-.298 1.937-2.201 3.266-4.636 3.266-3.132 0-5.076-2.08-5.076-5.416 0-3.347 1.954-5.518 4.983-5.518 2.979 0 4.852 2.028 4.852 5.264v.75h-7.605v.132a2.77 2.77 0 00.76 2.16 2.817 2.817 0 002.137.863 2.438 2.438 0 002.486-1.501h2.099zm-7.471-3.185h5.383a2.553 2.553 0 00-.724-1.926 2.601 2.601 0 00-1.917-.782 2.739 2.739 0 00-1.94.788 2.69 2.69 0 00-.802 1.92zM4.172.647a3.154 3.154 0 012.504.964c.646.677.953 1.606.834 2.53 0 2.247-1.225 3.539-3.338 3.539H1.609V.647h2.563zM2.71 6.685h1.337a2.24 2.24 0 001.778-.713 2.2 2.2 0 00.563-1.816 2.204 2.204 0 00-.572-1.804 2.247 2.247 0 00-1.769-.71H2.711v5.043zm6.044-1.661a2.507 2.507 0 011.188-2.376 2.556 2.556 0 012.675 0 2.507 2.507 0 011.188 2.376 2.507 2.507 0 01-1.186 2.38 2.557 2.557 0 01-2.678 0 2.507 2.507 0 01-1.187-2.38zm3.964 0c0-1.15-.522-1.823-1.437-1.823-.918 0-1.435.672-1.435 1.823 0 1.16.517 1.827 1.435 1.827.915 0 1.437-.672 1.437-1.827zm7.8 2.656h-1.096l-1.106-3.91h-.084L17.13 7.68h-1.086l-1.476-5.307h1.072l.959 4.05h.079l1.1-4.05h1.015l1.1 4.05h.084l.955-4.05h1.057L20.52 7.68zm2.712-5.307h1.017v.843h.08c.274-.621.916-1 1.597-.946a1.75 1.75 0 011.406.545c.36.384.525.91.448 1.429v3.435h-1.057V4.507c0-.853-.374-1.277-1.155-1.277a1.234 1.234 0 00-.952.381 1.21 1.21 0 00-.327.964V7.68H23.23V2.373zM29.463.3h1.057v7.38h-1.057V.3zm2.526 4.723a2.508 2.508 0 011.187-2.376 2.557 2.557 0 012.676 0 2.508 2.508 0 011.188 2.376 2.508 2.508 0 01-1.187 2.38 2.557 2.557 0 01-2.678 0 2.508 2.508 0 01-1.186-2.38zm3.963 0c0-1.15-.521-1.823-1.436-1.823-.919 0-1.436.672-1.436 1.823 0 1.16.517 1.827 1.436 1.827.915 0 1.436-.672 1.436-1.827zm2.2 1.155c0-.956.718-1.506 1.992-1.585l1.45-.082v-.459c0-.56-.373-.877-1.096-.877-.59 0-.998.215-1.116.59H38.36c.108-.911.973-1.496 2.188-1.496 1.343 0 2.1.662 2.1 1.783V7.68H41.63v-.746h-.083c-.346.544-.96.863-1.609.833a1.627 1.627 0 01-1.248-.402 1.597 1.597 0 01-.537-1.186zm3.442-.454v-.443l-1.307.082c-.738.05-1.072.298-1.072.766 0 .477.418.755.993.755.34.035.68-.07.941-.288.262-.22.422-.534.445-.872zm2.442-.701c0-1.677.87-2.74 2.222-2.74a1.768 1.768 0 011.642.932h.08V.3h1.056v7.38h-1.013v-.84h-.083a1.862 1.862 0 01-1.682.926c-1.362 0-2.222-1.062-2.222-2.743zm1.091 0c0 1.125.536 1.803 1.431 1.803.89 0 1.441-.687 1.441-1.799 0-1.106-.556-1.803-1.441-1.803-.89 0-1.43.682-1.43 1.799zm8.282 0a2.507 2.507 0 011.187-2.376 2.556 2.556 0 012.675 0 2.507 2.507 0 011.188 2.376 2.507 2.507 0 01-1.186 2.38 2.557 2.557 0 01-2.678 0 2.507 2.507 0 01-1.186-2.38zm3.963 0c0-1.15-.521-1.823-1.436-1.823-.919 0-1.436.672-1.436 1.823 0 1.16.517 1.827 1.436 1.827.915 0 1.436-.672 1.436-1.827zm2.505-2.651h1.017v.843h.08c.274-.621.916-1 1.597-.946a1.75 1.75 0 011.406.545c.36.384.525.91.448 1.429v3.435h-1.057V4.507c0-.853-.374-1.277-1.156-1.277a1.234 1.234 0 00-.95.381 1.21 1.21 0 00-.328.964V7.68h-1.057V2.373zm10.52-1.322v1.346h1.16v.882h-1.16v2.729c0 .556.23.8.756.8.135-.001.27-.01.403-.025v.872c-.19.034-.382.052-.574.054-1.176 0-1.644-.41-1.644-1.433V3.279h-.85v-.882h.85V1.05h1.058zM73 .301h1.047v2.924h.084a1.65 1.65 0 011.633-.95 1.772 1.772 0 011.392.559c.356.383.522.903.452 1.42V7.68H76.55V4.512c0-.848-.398-1.277-1.145-1.277-.368-.03-.73.102-.99.362-.26.259-.39.619-.358.983v3.1H73V.3zm10.77 5.946a2.174 2.174 0 01-2.32 1.535 2.443 2.443 0 01-1.877-.802 2.397 2.397 0 01-.597-1.937 2.433 2.433 0 01.596-1.945 2.48 2.48 0 011.873-.828c1.49 0 2.389 1.009 2.389 2.675v.366h-3.781v.059c-.034.393.102.783.373 1.072.272.29.654.452 1.053.448a1.287 1.287 0 001.274-.643h1.017zm-3.717-1.71h2.704a1.27 1.27 0 00-.352-.977 1.298 1.298 0 00-.966-.399 1.376 1.376 0 00-.985.398 1.35 1.35 0 00-.401.977z" fill="#fff"/></svg>