<svg width="22" height="27" fill="none" xmlns="http://www.w3.org/2000/svg"><path fill-rule="evenodd" clip-rule="evenodd" d="M17.644 14.283a5.635 5.635 0 003.472 5.185 12.872 12.872 0 01-1.806 3.645c-1.064 1.576-2.179 3.117-3.949 3.145-1.72.04-2.298-1.003-4.27-1.003-1.991 0-2.607.975-4.257 1.043-1.685.062-2.974-1.683-4.076-3.245-2.203-3.19-3.919-8.99-1.619-12.937a6.328 6.328 0 015.32-3.214c1.687-.035 3.253 1.129 4.29 1.129 1.018 0 2.954-1.392 4.951-1.185a6.038 6.038 0 014.746 2.543 5.822 5.822 0 00-2.802 4.894zm-3.248-9.534a4.892 4.892 0 01-3.85 1.803 5.434 5.434 0 011.36-3.961A5.913 5.913 0 0115.722.635a5.709 5.709 0 01-1.325 4.114z" fill="#fff"/></svg>