<svg width="26" height="32" viewBox="0 0 26 32" fill="none" xmlns="http://www.w3.org/2000/svg">
<path d="M25.8926 24.0103C25.1876 25.5723 24.8506 26.2683 23.9426 27.6483C22.6776 29.5753 20.8926 31.9753 18.6806 31.9953C16.7156 32.0133 16.2106 30.7173 13.5436 30.7323C10.8766 30.7473 10.3206 32.0193 8.35561 32.0003C6.14361 31.9803 4.45361 29.8133 3.18761 27.8853C-0.35239 22.4973 -0.72239 16.1733 1.46061 12.8123C3.01261 10.4223 5.46061 9.02525 7.76261 9.02525C10.1056 9.02525 11.5796 10.3103 13.5176 10.3103C15.3976 10.3103 16.5426 9.02325 19.2526 9.02325C21.3006 9.02325 23.4706 10.1383 25.0176 12.0653C19.9516 14.8423 20.7746 22.0753 25.8926 24.0103Z" fill="black"/>
<path d="M17.4836 5.65125C18.4686 4.38825 19.2156 2.60425 18.9436 0.78125C17.3356 0.89125 15.4556 1.91425 14.3566 3.24825C13.3596 4.45825 12.5366 6.25325 12.8566 7.99825C14.6116 8.05325 16.4286 7.00525 17.4836 5.65125Z" fill="black"/>
</svg>
