<svg width="26" height="32" fill="none" xmlns="http://www.w3.org/2000/svg"><path d="M25.893 24.01c-.705 1.562-1.042 2.258-1.95 3.638-1.265 1.927-3.05 4.327-5.262 4.347-1.965.018-2.47-1.278-5.137-1.263-2.667.015-3.223 1.287-5.188 1.268-2.212-.02-3.902-2.187-5.168-4.115-3.54-5.388-3.91-11.712-1.727-15.073 1.552-2.39 4-3.787 6.302-3.787 2.343 0 3.817 1.285 5.755 1.285 1.88 0 3.025-1.287 5.735-1.287 2.048 0 4.218 1.115 5.765 3.042-5.066 2.777-4.243 10.01.875 11.945zM17.484 5.651c.985-1.263 1.732-3.047 1.46-4.87-1.608.11-3.488 1.133-4.587 2.467-.997 1.21-1.82 3.005-1.5 4.75 1.755.055 3.572-.993 4.627-2.347z" fill="#000"/></svg>