<svg width="21" height="24" viewBox="0 0 21 24" fill="none" xmlns="http://www.w3.org/2000/svg">
<path d="M19.3562 16.4872C18.0182 15.9812 17.1232 14.7662 17.0222 13.3172C16.9232 11.9052 17.6152 10.6512 18.8732 9.96216L19.9192 9.38916L19.1722 8.45916C17.9172 6.89616 16.1212 5.96216 14.3682 5.96216C13.1532 5.96216 12.3102 6.28016 11.6332 6.53616C11.1552 6.71716 10.7782 6.85916 10.3642 6.85916C9.89217 6.85916 9.42617 6.69316 8.88617 6.50116C8.17817 6.24916 7.37617 5.96316 6.34617 5.96316C4.35617 5.96316 2.34917 7.15116 1.10917 9.06116C-0.741827 11.9102 -0.233827 16.7952 2.31717 20.6772C3.32817 22.2152 4.74517 23.9822 6.75217 24.0002C6.76517 24.0002 6.77817 24.0002 6.79117 24.0002C8.43417 24.0002 8.79417 23.1242 10.3892 23.1142C12.1312 23.1962 12.3512 24.0072 13.9782 23.9962C15.9392 23.9782 17.3532 22.2252 18.4772 20.5122C19.1412 19.5052 19.3982 18.9782 19.9152 17.8342L20.3532 16.8642L19.3562 16.4872Z" fill="#AFADB2"/>
<path d="M13.1021 3.45008C13.7521 2.61608 14.2451 1.43908 14.0661 0.236084C13.0041 0.309084 11.7641 0.984084 11.0391 1.86408C10.3811 2.66308 9.83814 3.84708 10.0491 4.99908C11.2071 5.03508 12.4061 4.34308 13.1021 3.45008Z" fill="#AFADB2"/>
</svg>
