<svg width="25" height="18" fill="none" xmlns="http://www.w3.org/2000/svg"><path d="M.007 0h24v18h-24V0z" fill="#006"/><path d="M.007 0v1.05l11.512 8.325h1.452v-1.05L1.458 0H.007zM12.97 0v1.05L1.458 9.375H.007v-1.05L11.519 0h1.452z" fill="#fff"/><path d="M5.407 0v9.375h2.16V0h-2.16zm-5.4 3.124V6.25H12.97V3.124H.007z" fill="#fff"/><path d="M.007 3.75v1.875H12.97V3.75H.007zM5.842 0v9.375h1.29V0H5.838h.004zM.007 9.375l4.32-3.124h.967L.974 9.375H.007zM.007 0l4.32 3.124h-.964L.007.698V0zm7.676 3.124L12.003 0h.968L8.65 3.124h-.968zm5.288 6.251L8.65 6.251h.963l3.357 2.426v.698z" fill="#C00"/><path fill-rule="evenodd" clip-rule="evenodd" d="M11.25 14.719l-1.64.142.225 1.628L8.707 15.3l-1.13 1.189.226-1.628-1.639-.142 1.414-.836-.911-1.37 1.537.582.503-1.564.506 1.564 1.537-.581-.91 1.369 1.41.836zm7.004 1.5l-.397-.593.667.252.218-.68.217.68.668-.252-.394.593.615.363-.713.064.098.709-.488-.521-.495.521.098-.709-.713-.06.62-.367zM18.25 5.64l-.393-.592.667.25.218-.678.217.679.668-.252-.394.593.615.368-.713.06.098.708-.488-.517-.495.513.098-.705-.713-.06.615-.367zm-3.963 4.298l-.394-.593.667.251.218-.678.221.678.668-.251-.398.592.615.364-.712.064.1.709-.494-.521-.488.52.094-.708-.712-.06.615-.367zm7.496-1.058l-.401-.593.667.252.218-.679.22.679.668-.252-.393.593.61.364-.712.063.098.705-.488-.517-.495.518.098-.706-.713-.063.623-.364zM20.332 12l-.387.244.11-.447-.35-.292.454-.038.173-.42.176.424.454.034-.35.292.11.447" fill="#fff"/></svg>