<svg width="15" height="15" fill="none" xmlns="http://www.w3.org/2000/svg"><path d="M9.741 8.811a6.2 6.2 0 011.795.967c.537.41.99.886 1.362 1.428.376.542.664 1.135.864 1.78.2.644.3 1.316.3 2.014h-.937c0-.8-.144-1.543-.432-2.227a5.405 5.405 0 00-1.18-1.787 5.405 5.405 0 00-1.786-1.179A5.675 5.675 0 007.5 9.375a5.71 5.71 0 00-2.864.762 5.522 5.522 0 00-2.563 3.354A5.709 5.709 0 001.875 15H.937c0-.703.103-1.374.308-2.014a6.515 6.515 0 01.872-1.773c.376-.537.83-1.01 1.362-1.42a6.706 6.706 0 011.794-.975 4.606 4.606 0 01-1.025-.747 4.796 4.796 0 01-.776-.974 5.098 5.098 0 01-.491-1.15 4.749 4.749 0 01-.168-1.26c0-.649.122-1.257.366-1.823A4.704 4.704 0 014.182 1.37C4.607.945 5.102.61 5.67.366A4.61 4.61 0 017.5 0a4.694 4.694 0 013.318 1.37c.425.424.76.922 1.003 1.494.244.566.367 1.174.367 1.824 0 .43-.06.847-.176 1.252a4.565 4.565 0 01-.491 1.143 4.77 4.77 0 01-.769.981 4.52 4.52 0 01-1.01.747zM3.75 4.688c0 .517.098 1.003.293 1.457.2.454.469.852.806 1.194.341.337.74.605 1.193.806.455.195.94.293 1.458.293a3.65 3.65 0 001.458-.293 3.787 3.787 0 001.992-2c.2-.454.3-.94.3-1.458 0-.517-.1-1.003-.3-1.457a3.7 3.7 0 00-.806-1.187 3.7 3.7 0 00-1.186-.805c-.455-.2-.94-.3-1.458-.3s-1.003.1-1.458.3A3.788 3.788 0 004.043 3.23a3.65 3.65 0 00-.293 1.458z" fill="#5B5863"/></svg>