<svg width="28" height="28" fill="none" xmlns="http://www.w3.org/2000/svg"><path d="M14 28c7.732 0 14-6.268 14-14S21.732 0 14 0 0 6.268 0 14s6.268 14 14 14z" fill="#0B1624"/><path d="M14 16.8h4.013L14 9.893v-4.2l7.84 13.347H14V16.8z" fill="#0B76FF"/><path d="M14.002 16.8H9.99l4.013-6.907v-4.2L6.162 19.04h7.84V16.8z" fill="#24C1FF"/><path d="M8.401 22.4v-1.68h.467c.373 0 .56.187.56.374s-.093.28-.187.373c.094 0 .28.187.28.374 0 .373-.28.466-.653.466-.093.094-.373.094-.467.094zm.56-.653h-.093v.28h.093c.187 0 .187-.093.187-.186 0-.094-.093-.094-.187-.094zm0-.653h-.093v.28h.093c.094 0 .187 0 .187-.187 0 0-.093-.093-.187-.093zm2.52 1.307v-1.68h1.027v.373h-.653v.28h.56v.373h-.56v.28h.653v.374h-1.027zm2.8 0l.654-1.68h.373l.653 1.68h-.373l-.093-.374h-.654l-.186.374h-.374zm.84-1.214l-.186.467h.373l-.187-.467zm2.707 1.214v-1.68h.373l.56.653.467-.653h.373v1.68h-.373v-1.027l-.467.653h-.093l-.467-.653v1.027h-.373z" fill="#25C1FF"/><path d="M14 11.666v4.48h-2.426l2.427-4.48z" fill="#39FFF2"/><path d="M14 11.666v4.48h2.427L14 11.666z" fill="#00E2C2"/><path d="M4.388 9.895L14 14.28v.467l-9.613-2.053v-2.8z" fill="url(#paint0_linear)"/><path d="M23.613 8.588L14 14.28v.187l9.613-4.013V8.588z" fill="url(#paint1_linear)"/><path d="M23.613 14.094L14 14.747v-.093l9.613-2.334v1.774z" fill="url(#paint2_linear)"/><path d="M23.613 10.453L14 14.467v.186l9.613-2.333v-1.867z" fill="url(#paint3_linear)"/><defs><linearGradient id="paint0_linear" x1="4.475" y1="12.32" x2="9.679" y2="12.32" gradientUnits="userSpaceOnUse"><stop stop-color="#fff" stop-opacity="0"/><stop offset="1" stop-color="#fff"/></linearGradient><linearGradient id="paint1_linear" x1="23.544" y1="11.53" x2="17.444" y2="11.53" gradientUnits="userSpaceOnUse"><stop stop-color="#FD76FD" stop-opacity="0"/><stop offset="1" stop-color="#FF51FF"/></linearGradient><linearGradient id="paint2_linear" x1="23.645" y1="13.533" x2="18.706" y2="13.533" gradientUnits="userSpaceOnUse"><stop stop-color="#9D6EFF" stop-opacity="0"/><stop offset="1" stop-color="#A18CFF"/></linearGradient><linearGradient id="paint3_linear" x1="23.59" y1="12.553" x2="17.947" y2="12.553" gradientUnits="userSpaceOnUse"><stop stop-color="#AE60D6" stop-opacity="0"/><stop offset="1" stop-color="#AB38E6"/></linearGradient></defs></svg>