<svg width="28" height="28" fill="none" xmlns="http://www.w3.org/2000/svg"><path d="M14 28c7.732 0 14-6.268 14-14S21.732 0 14 0 0 6.268 0 14s6.268 14 14 14z" fill="#4BCF51"/><path d="M18.72 9.39c-.618-1.748-2.315-1.963-4.31-1.647l-.62-2.485-1.511.377.603 2.42c-.398.1-.802.208-1.204.317l-.607-2.436-1.512.377.62 2.485c-.327.088-.646.174-.96.252l-.002-.008-2.086.52.402 1.615s1.112-.3 1.098-.275c.613-.152.902.154 1.036.447l.706 2.83c.043-.01.098-.022.163-.03l-.16.04.988 3.966c.021.2-.016.535-.444.643.024.012-1.099.273-1.099.273l.15 1.882 1.968-.491c.367-.091.729-.175 1.083-.26l.627 2.512 1.51-.376-.62-2.487c.405-.092.809-.188 1.212-.289l.616 2.475 1.512-.377-.624-2.509c2.506-.78 4.126-1.864 3.752-4.307-.301-1.968-1.42-2.6-2.95-2.586.766-.665 1.118-1.59.663-2.868zm-.776 5.901c.47 1.878-2.8 2.466-3.824 2.723l-.83-3.33c1.025-.255 4.165-1.352 4.654.607zM16.07 10.77c.426 1.708-2.306 2.178-3.159 2.39l-.753-3.019c.854-.213 3.467-1.153 3.912.63z" fill="#fff"/></svg>