<svg width="25" height="24" viewBox="0 0 25 24" fill="none" xmlns="http://www.w3.org/2000/svg">
<path d="M1.35059 12C1.35059 5.925 6.27559 1 12.3506 1C18.4256 1 23.3506 5.925 23.3506 12" stroke="#AFADB2" stroke-width="2" stroke-miterlimit="10" stroke-linecap="square"/>
<path d="M19.9817 2.7371C22.9647 12.2051 15.9907 21.1681 8.90173 15.9901C8.91173 15.9921 11.6157 16.0221 12.5797 15.5041C13.1877 15.1771 13.9647 14.5311 14.3397 14.5921C14.9477 14.6821 15.0907 14.1931 14.7847 13.8421C14.4337 13.4391 13.5037 12.6751 12.4247 13.1871C9.46073 14.5911 7.48373 12.5161 7.82673 11.2991C7.89073 11.0701 8.13573 10.7681 8.23873 10.7481C8.73973 10.2611 11.6417 8.3521 12.0047 7.4661C12.0907 7.2561 12.1877 6.7631 11.9067 6.6601C11.4397 6.5491 10.3307 6.5451 9.92073 6.5481C9.13973 6.5551 8.61573 6.0681 8.65073 5.5831C8.69473 4.9781 9.11673 4.2241 10.3147 3.2361C8.25773 2.9361 7.07073 4.5771 7.06973 4.5791C5.96173 4.3041 4.23273 4.6211 4.23173 4.6201C3.09273 3.9541 2.84973 2.2771 2.84973 2.2771C2.84973 2.2771 1.14973 3.5451 1.60573 6.6241C1.60573 6.6241 -1.37827 11.8751 1.89173 17.8891C1.89173 17.8881 4.91273 24.0001 12.3507 24.0001C19.8507 24.0001 24.3507 17.7831 24.3507 12.0001C24.3507 7.7651 22.2217 4.5411 19.9817 2.7371Z" fill="#AFADB2"/>
</svg>
