<svg width="25" height="24" viewBox="0 0 25 24" fill="none" xmlns="http://www.w3.org/2000/svg">
<path d="M12.4756 16C14.6847 16 16.4756 14.2091 16.4756 12C16.4756 9.79086 14.6847 8 12.4756 8C10.2664 8 8.47559 9.79086 8.47559 12C8.47559 14.2091 10.2664 16 12.4756 16Z" fill="#AFADB2"/>
<path d="M6.77748 10.131C7.56548 7.735 9.81948 6 12.4755 6H22.7275C20.6485 2.419 16.7815 0 12.3505 0C8.74548 0 5.51448 1.605 3.31348 4.13L6.77748 10.131Z" fill="#AFADB2"/>
<path d="M13.7036 17.873C13.3066 17.956 12.8966 18 12.4756 18C10.2586 18 8.32459 16.789 7.28559 14.997L7.27959 15L2.02959 5.90796C0.970586 7.69596 0.350586 9.77496 0.350586 12C0.350586 17.909 4.64659 22.821 10.2766 23.808L13.7036 17.873Z" fill="#AFADB2"/>
<path d="M16.9355 8C17.8895 9.063 18.4755 10.462 18.4755 12C18.4755 13.092 18.1775 14.114 17.6655 14.997L17.6715 15L12.4795 23.993C19.0365 23.923 24.3505 18.573 24.3505 12C24.3505 10.596 24.0955 9.253 23.6505 8H16.9355Z" fill="#AFADB2"/>
</svg>
