<svg width="28" height="28" fill="none" xmlns="http://www.w3.org/2000/svg"><path d="M14 28c7.732 0 14-6.268 14-14S21.732 0 14 0 0 6.268 0 14s6.268 14 14 14z" fill="#F7931A"/><path d="M20.29 12.268c.275-1.835-1.122-2.82-3.031-3.479l.62-2.485-1.513-.376-.603 2.42c-.398-.1-.805-.193-1.212-.286l.608-2.435-1.512-.377-.62 2.484a51.67 51.67 0 01-.966-.227l.002-.008-2.086-.52-.402 1.614s1.122.258 1.099.273c.612.154.722.559.704.88l-.705 2.831c.042.01.096.027.157.05l-.16-.04-.989 3.966c-.075.186-.265.465-.694.359.016.022-1.099-.274-1.099-.274l-.75 1.73 1.968.492c.366.092.725.188 1.078.278l-.626 2.513 1.511.376.62-2.485c.413.111.813.215 1.205.313l-.617 2.474 1.512.376.625-2.507c2.58.488 4.519.291 5.335-2.042.658-1.877-.032-2.962-1.39-3.668.99-.227 1.733-.877 1.932-2.22zm-3.456 4.845c-.466 1.879-3.63.863-4.655.608l.832-3.329c1.025.256 4.313.763 3.823 2.721zm.469-4.873c-.427 1.71-3.059.84-3.912.628l.753-3.019c.853.213 3.603.609 3.159 2.391z" fill="#fff"/></svg>