<svg width="28" height="28" fill="none" xmlns="http://www.w3.org/2000/svg"><path d="M14 28C6.268 28 0 21.732 0 14S6.268 0 14 0s14 6.268 14 14-6.268 14-14 14zm10.275-16.153a10.398 10.398 0 00-.61-1.961 10.384 10.384 0 00-2.24-3.321 10.388 10.388 0 00-3.321-2.24 10.4 10.4 0 00-8.122 0 10.381 10.381 0 00-3.321 2.24c-.474.472-.901.988-1.275 1.542a10.953 10.953 0 00-.965 1.779 10.4 10.4 0 000 8.122 10.396 10.396 0 002.24 3.322 10.384 10.384 0 003.321 2.238 10.4 10.4 0 008.122 0c.621-.257 1.21-.59 1.778-.964a10.392 10.392 0 001.543-1.275 10.38 10.38 0 002.24-3.322 10.4 10.4 0 00.61-6.16zM14.053 23.086c-5.047 0-9.129-4.093-9.129-9.129s4.094-9.129 9.128-9.129c5.036 0 9.13 4.093 9.13 9.13 0 5.035-4.093 9.128-9.13 9.128zm.16-.793h.248c.043 0 .085 0 .128-.011h.011c.043 0 .075 0 .117-.01h.033c.032 0 .065 0 .096-.011h.033c.032 0 .064-.01.107-.01h.021c.043 0 .086-.012.129-.012.043 0 .075-.01.118-.021h.02c.033 0 .066-.01.097-.01h.022c.043-.012.075-.012.118-.022.085-.01.17-.033.246-.054h.022c.031-.01.074-.01.107-.022h.01c.086-.02.161-.043.247-.063a9.58 9.58 0 01-2.389-.225c-1.18-.258-2.304-.718-3.258-1.511a6.601 6.601 0 01-2.378-5.132 6.236 6.236 0 011.468-3.986 6.364 6.364 0 014.735-2.25h.247V7.518h-.278a7.727 7.727 0 00-3.15.718 7.896 7.896 0 00-1.415.857c-.454.345-.867.74-1.232 1.179a7.291 7.291 0 00-.89 1.317 7.573 7.573 0 00-.589 1.425 7.788 7.788 0 00-.289 1.49l-.032.47v.279a7.736 7.736 0 00.718 3.15c.268.59.75 1.458 1.468 2.111a8.286 8.286 0 005.142 1.78h.193zm2.337-1.372a10.886 10.886 0 01-1.575-.171c-2.208-.397-4.104-1.747-4.8-3.782-.848-2.475.45-5.154 2.913-5.967.47-.158.962-.238 1.457-.237.633 0 1.264.129 1.844.364l.6-1.275a11.97 11.97 0 00-.547-.203 6.31 6.31 0 00-1.897-.29 6.011 6.011 0 00-1.896.311 5.959 5.959 0 00-2.11 1.222 6.144 6.144 0 00-.804.868c-.236.31-.44.645-.61.997a6.091 6.091 0 00-.28 4.66c.273.794.712 1.52 1.287 2.132.525.568 1.135.997 1.874 1.393.772.407 1.725.621 2.721.761.643.085 1.5.107 2.004.107.44-.16.621-.236.857-.332.204-.097.407-.193.611-.311.204-.118.236-.14.578-.364a.6.6 0 00.086-.065c-1.178.204-1.479.193-2.314.182zm2.635-1.596c-.332.021-.804.053-1.34.053-.953 0-2.121-.085-3.117-.418-1.543-.513-3-1.831-3-3.46a2.934 2.934 0 012.935-2.936c1.104 0 2.057.61 2.561 1.5l1.275-.632c-.2-.376-.456-.72-.761-1.018a4.346 4.346 0 00-7.094 1.411 4.344 4.344 0 00-.331 1.664 4.29 4.29 0 00.376 1.736c.224.493.536.954.932 1.383.696.749 1.65 1.349 2.668 1.692.975.321 2.41.44 3.803.343a7.983 7.983 0 001.168-.172 8.04 8.04 0 001.286-1.274c-.333.032-.943.096-1.36.128z" fill="#000"/></svg>