<svg width="24" height="18" fill="none" xmlns="http://www.w3.org/2000/svg"><path d="M.469.469H23.53V17.53H.47V.47z" fill="#fff" stroke="#F5F2E9"/><path d="M1.001 1h5v16H1V1zm17 0h5v16h-4.996l-.003-16zM7.8 8.698l-.47.168 2.17 2.022c.165.517-.057.668-.2.942l2.353-.316-.057 2.513.49-.014-.109-2.496 2.359.299c-.146-.327-.275-.5-.143-1.02L16.36 8.88l-.378-.147c-.311-.253.133-1.22.199-1.832 0 0-1.262.46-1.345.218l-.325-.657-1.15 1.343c-.125.031-.178-.021-.208-.134l.53-2.805-.841.502c-.07.036-.14.007-.186-.08l-.811-1.723-.835 1.79c-.063.063-.126.07-.179.027l-.802-.478.484 2.781c-.04.113-.133.14-.239.081L9.17 6.441c-.142.246-.238.643-.43.734-.19.085-.828-.168-1.256-.267.146.56.603 1.487.315 1.793v-.003z" fill="red"/></svg>