<svg width="108" height="102" fill="none" xmlns="http://www.w3.org/2000/svg"><path d="M100.036 46.435C95.301 65.617 74.119 80.13 48.774 80.13a64.628 64.628 0 01-12.126-1.16l-.242.115c6.726 9.123 19.398 14.98 33.271 14.98a48.573 48.573 0 0011.671-1.42l13.57 8.141c.269.16.575.245.888.248a1.742 1.742 0 001.742-1.742V84.778C104.296 79.258 108 72.073 108 64.452a25.345 25.345 0 00-7.964-18.017z" fill="#65E0BD"/><path fill-rule="evenodd" clip-rule="evenodd" d="M10.962 86.587c.327.326.77.51 1.232.51.27.003.536-.057.778-.174l23.189-11.605a61.276 61.276 0 0012.613 1.327c26.894 0 48.774-17.191 48.774-38.322C97.548 17.19 75.668 0 48.774 0 21.881 0 0 17.191 0 38.323a33.586 33.586 0 0010.452 23.69v23.342c0 .462.183.905.51 1.232zM40 39.517a4 4 0 11-8 0 4 4 0 018 0zm12 0a4 4 0 11-8 0 4 4 0 018 0zm8 4a4 4 0 100-8 4 4 0 000 8z" fill="#08AE7E"/></svg>