<svg width="29" height="24" fill="none" xmlns="http://www.w3.org/2000/svg"><mask id="a" maskUnits="userSpaceOnUse" x="0" y="0" width="29" height="24"><path d="M0 0v21.918c.003 1.036.858 1.875 1.915 1.88h24.27c1.057-.005 1.912-.844 1.915-1.88V0H0zm17.243 5H10.87c-.704 0-1.275-.56-1.275-1.25s.571-1.25 1.275-1.25h6.374c.705 0 1.275.56 1.275 1.25S17.949 5 17.244 5h-.001z" fill="#fff"/></mask><g mask="url(#a)"><mask id="b" maskUnits="userSpaceOnUse" x="1" y="10" width="26" height="24"><path d="M14.052 33.815c6.702 0 12.134-5.327 12.134-11.898s-5.432-11.898-12.134-11.898c-6.701 0-12.134 5.327-12.134 11.898s5.433 11.898 12.134 11.898z" fill="#fff"/></mask><g mask="url(#b)"><path d="M3.845 10.02v14.6h5.431l4.776-8.11h12.136v-6.5l-22.343.01zm0 0v14.6h5.431l4.776-8.11h12.136v-6.5l-22.343.01z" fill="#DB4437"/><path d="M1.918 33.815h11.55l5.354-5.25V24.62H9.276L1.918 12.25v21.565zm0 0h11.55l5.354-5.25V24.62H9.276L1.918 12.25v21.565z" fill="#0F9D58"/><path d="M14.052 16.51l4.778 8.11-5.355 9.192h12.718V16.51h-12.14zm0 0l4.778 8.11-5.355 9.192h12.718V16.51h-12.14z" fill="#FFCD40"/><path d="M14.052 27.327c3.048 0 5.518-2.422 5.518-5.41s-2.47-5.41-5.518-5.41c-3.047 0-5.518 2.422-5.518 5.41s2.47 5.41 5.518 5.41z" fill="#F1F1F1"/><path d="M14.052 26.244c2.437 0 4.413-1.937 4.413-4.327 0-2.39-1.976-4.327-4.413-4.327-2.437 0-4.413 1.937-4.413 4.327 0 2.39 1.976 4.327 4.413 4.327z" fill="#4285F4"/></g><mask id="c" maskUnits="userSpaceOnUse" x="0" y="0" width="29" height="24"><path d="M0 0v21.918c.003 1.036.858 1.875 1.915 1.88h24.27c1.057-.005 1.912-.844 1.915-1.88V0H0zm17.243 5H10.87c-.704 0-1.275-.56-1.275-1.25s.571-1.25 1.275-1.25h6.374c.705 0 1.275.56 1.275 1.25S17.949 5 17.244 5h-.001z" fill="#fff"/></mask><g mask="url(#c)"><path d="M0 0h28.103v11.897H0V0z" fill="#212121" fill-opacity=".05"/></g><path d="M0 11.743h28.103v.155H0v-.155z" fill="#212121" fill-opacity=".02"/><path d="M0 11.897h28.103v.158H0v-.158z" fill="#fff" fill-opacity=".05"/><path d="M17.246 5.01h-6.374a1.265 1.265 0 01-1.275-1.172 1.263 1.263 0 001.275 1.327h6.374a1.263 1.263 0 001.275-1.327c-.042.66-.6 1.173-1.275 1.172zM0 0v.158h28.103V0H0z" fill="#212121" fill-opacity=".02"/><path d="M10.86 2.505h6.373a1.264 1.264 0 011.275 1.175v-.078c0-.69-.57-1.25-1.275-1.25H10.86c-.704 0-1.275.56-1.275 1.25v.078c.04-.66.6-1.176 1.275-1.175zM26.187 23.64H1.918C.86 23.639.002 22.8 0 21.762v.155c.003 1.037.858 1.876 1.915 1.88h24.27c1.057-.004 1.912-.843 1.915-1.88v-.155c-.003 1.035-.857 1.874-1.912 1.878h-.001z" fill="#231F20" fill-opacity=".1"/><path d="M0 0v21.918c.003 1.036.858 1.875 1.915 1.88h24.27c1.057-.005 1.912-.844 1.915-1.88V0H0zm17.243 5h-6.374c-.704 0-1.275-.56-1.275-1.25s.571-1.25 1.275-1.25h6.374c.704 0 1.275.56 1.275 1.25S17.948 5 17.243 5z" fill="url(#paint0_radial)"/></g><defs><radialGradient id="paint0_radial" cx="0" cy="0" r="1" gradientUnits="userSpaceOnUse" gradientTransform="matrix(36.3378 0 0 36.3388 -.26 -.103)"><stop stop-color="#fff" stop-opacity=".1"/><stop offset="1" stop-color="#fff" stop-opacity="0"/></radialGradient></defs></svg>