<svg width="40" height="40" viewBox="0 0 40 40" fill="none" xmlns="http://www.w3.org/2000/svg">
<path d="M20.2083 26.6667C23.8902 26.6667 26.875 23.6819 26.875 20C26.875 16.3181 23.8902 13.3333 20.2083 13.3333C16.5264 13.3333 13.5417 16.3181 13.5417 20C13.5417 23.6819 16.5264 26.6667 20.2083 26.6667Z" fill="#FD3E72"/>
<path d="M10.7115 16.885C12.0248 12.8917 15.7815 10 20.2082 10H37.2948C33.8298 4.03167 27.3848 0 19.9998 0C13.9915 0 8.60648 2.675 4.93815 6.88333L10.7115 16.885Z" fill="#FD3E72"/>
<path d="M22.255 29.7887C21.5933 29.927 20.91 30.0003 20.2083 30.0003C16.5133 30.0003 13.29 27.982 11.5583 24.9953L11.5483 25.0003L2.79833 9.847C1.03333 12.827 0 16.292 0 20.0003C0 29.8487 7.16 38.0353 16.5433 39.6803L22.255 29.7887Z" fill="#FD3E72"/>
<path d="M27.6415 13.3333C29.2315 15.105 30.2082 17.4367 30.2082 20C30.2082 21.82 29.7115 23.5233 28.8582 24.995L28.8682 25L20.2148 39.9883C31.1432 39.8717 39.9998 30.955 39.9998 20C39.9998 17.66 39.5748 15.4217 38.8332 13.3333H27.6415Z" fill="#FD3E72"/>
</svg>
