<svg width="12" height="12" viewBox="0 0 12 12" fill="none" xmlns="http://www.w3.org/2000/svg">
<path d="M11.6068 1.70696L1.70726 11.6065C1.31693 11.9968 0.683367 11.9968 0.293044 11.6065C-0.097279 11.2161 -0.097279 10.5826 0.293044 10.1922L10.1925 0.292742C10.5829 -0.0975807 11.2164 -0.0975807 11.6068 0.292742C11.9971 0.683065 11.9971 1.31663 11.6068 1.70696Z" fill="#EF4273"/>
<path d="M0.292742 1.70714L10.1922 11.6066C10.5826 11.997 11.2161 11.997 11.6065 11.6066C11.9968 11.2163 11.9968 10.5827 11.6065 10.1924L1.70696 0.292929C1.31663 -0.0973938 0.683065 -0.0973938 0.292742 0.292929C-0.0975807 0.683252 -0.0975807 1.31682 0.292742 1.70714Z" fill="#EF4273"/>
</svg>
