<svg width="101" height="134" fill="none" xmlns="http://www.w3.org/2000/svg"><path d="M16.437 83.657L.179 117.797a1.852 1.852 0 00.165 1.869 1.837 1.837 0 001.713.766l15.51-1.722 8.642 13.826c.337.545.932.872 1.569.872l.089-.001a1.855 1.855 0 001.568-1.023L45.7 99.858c-11.862-1.195-22.292-7.284-29.262-16.2zm67.128 0L99.822 117.8a1.852 1.852 0 01-.164 1.868 1.835 1.835 0 01-1.713.767l-15.51-1.722-8.643 13.826c-.337.543-.931.87-1.568.87l-.09-.001a1.855 1.855 0 01-1.568-1.023L54.303 99.858c11.861-1.195 22.291-7.284 29.262-16.2z" fill="#65E0BD"/><path fill-rule="evenodd" clip-rule="evenodd" d="M15 58c0-19.3 15.702-35 35-35 19.298 0 35 15.7 35 35S69.298 93 50 93c-19.298 0-35-15.7-35-35zm25.239-1.26c1.804 0 2.904-.792 2.904-3.256v-1.716c0-2.772-.968-3.52-2.508-3.52s-2.508.836-2.508 3.036v1.98H33.55v-1.672c0-4.928 2.464-7.744 7.216-7.744 4.752 0 7.216 2.816 7.216 7.744v.792c0 3.3-1.056 5.324-3.388 6.292v.088c2.42 1.056 3.388 3.3 3.388 6.424v2.42c0 4.928-2.464 7.744-7.216 7.744-4.752 0-7.216-2.816-7.216-7.744v-2.552h4.576v2.86c0 2.2.968 3.036 2.508 3.036s2.508-.748 2.508-3.476v-2.42c0-2.86-.968-3.916-3.168-3.916h-1.628v-4.4h1.892zm17.973-8.492c-1.54 0-2.508.836-2.508 3.036v16.632c0 2.2.968 3.036 2.508 3.036s2.508-.836 2.508-3.036V51.284c0-2.2-.968-3.036-2.508-3.036zm0 27.104c-4.752 0-7.348-2.816-7.348-7.744V51.592c0-4.928 2.596-7.744 7.348-7.744s7.348 2.816 7.348 7.744v16.016c0 4.928-2.596 7.744-7.348 7.744z" fill="#08AE7E"/><path d="M28.25 13.59L27 10l-1.25 3.59H22l3.056 2.393-1.201 3.697L27 17.395l3.145 2.285-1.201-3.697L32 13.59h-3.75zM52 5.744L50 0l-2 5.744h-6l4.89 3.828-1.922 5.916L50 11.832l5.032 3.656-1.922-5.916L58 5.744h-6zm21.25 8.965L72 11l-1.25 3.709H67l3.056 2.471L68.855 21 72 18.64 75.145 21l-1.201-3.82L77 14.71h-3.75z" fill="#65E0BD"/></svg>