<svg width="100" height="134" viewBox="0 0 100 134" fill="none" xmlns="http://www.w3.org/2000/svg">
<path d="M16.4357 83.6572L0.177837 117.797C-0.109207 118.404 -0.0480952 119.119 0.342655 119.666C0.729702 120.212 1.37602 120.508 2.05566 120.432L17.5653 118.71L26.2081 132.536C26.5452 133.081 27.1396 133.408 27.7767 133.408C27.8063 133.408 27.8341 133.408 27.8656 133.407C28.5341 133.375 29.1341 132.983 29.4341 132.384L45.6975 99.8576C33.8361 98.6632 23.4062 92.5741 16.4357 83.6572Z" fill="#93E7CF"/>
<path d="M83.5631 83.6572L99.8209 117.799C100.108 118.406 100.047 119.121 99.6561 119.667C99.2691 120.214 98.6228 120.51 97.9431 120.434L82.4335 118.712L73.7906 132.538C73.4536 133.081 72.8591 133.408 72.2221 133.408C72.1925 133.408 72.1647 133.408 72.1332 133.407C71.4647 133.375 70.8646 132.983 70.5646 132.384L54.3013 99.8576C66.1627 98.6632 76.5926 92.5741 83.5631 83.6572Z" fill="#93E7CF"/>
<path fill-rule="evenodd" clip-rule="evenodd" d="M15 58C15 38.7 30.7017 23 50 23C69.2983 23 85 38.7 85 58C85 77.3 69.2983 93 50 93C30.7017 93 15 77.3 15 58ZM40.2388 56.7401C42.0428 56.7401 43.1428 55.9481 43.1428 53.4841V51.7681C43.1428 48.9961 42.1748 48.2481 40.6348 48.2481C39.0948 48.2481 38.1268 49.0841 38.1268 51.2841V53.2641H33.5508V51.5921C33.5508 46.6641 36.0148 43.8481 40.7668 43.8481C45.5188 43.8481 47.9828 46.6641 47.9828 51.5921V52.3841C47.9828 55.6841 46.9268 57.7081 44.5948 58.6761V58.7641C47.0148 59.8201 47.9828 62.0641 47.9828 65.1881V67.6081C47.9828 72.5361 45.5188 75.3521 40.7668 75.3521C36.0148 75.3521 33.5508 72.5361 33.5508 67.6081V65.0561H38.1268V67.9161C38.1268 70.1161 39.0948 70.9521 40.6348 70.9521C42.1748 70.9521 43.1428 70.2041 43.1428 67.4761V65.0561C43.1428 62.1961 42.1748 61.1401 39.9748 61.1401H38.3468V56.7401H40.2388ZM58.2121 48.2481C56.6721 48.2481 55.7041 49.0841 55.7041 51.2841V67.9161C55.7041 70.1161 56.6721 70.9521 58.2121 70.9521C59.7521 70.9521 60.7201 70.1161 60.7201 67.9161V51.2841C60.7201 49.0841 59.7521 48.2481 58.2121 48.2481ZM58.2121 75.3521C53.4601 75.3521 50.8641 72.5361 50.8641 67.6081V51.5921C50.8641 46.6641 53.4601 43.8481 58.2121 43.8481C62.9641 43.8481 65.5601 46.6641 65.5601 51.5921V67.6081C65.5601 72.5361 62.9641 75.3521 58.2121 75.3521Z" fill="#62D5B4"/>
<path d="M28.25 13.59L27 10L25.75 13.59H22L25.0562 15.9825L23.855 19.68L27 17.395L30.145 19.68L28.9437 15.9825L32 13.59H28.25Z" fill="#93E7CF"/>
<path d="M52 5.744L50 0L48 5.744H42L46.89 9.572L44.968 15.488L50 11.832L55.032 15.488L53.11 9.572L58 5.744H52Z" fill="#93E7CF"/>
<path d="M73.25 14.7087L72 11L70.75 14.7087H67L70.0562 17.1803L68.855 21L72 18.6395L75.145 21L73.9437 17.1803L77 14.7087H73.25Z" fill="#93E7CF"/>
</svg>
