<svg width="149" height="34" fill="none" xmlns="http://www.w3.org/2000/svg"><path d="M.014 20.095c.08-.478.367-.724.849-.696 1.625.086 3.25.18 4.874.27 1.123.062 2.249.121 3.372.187 1.562.086 3.125.177 4.684.267 1.095.062 2.19.121 3.284.183.617.035 1.234.066 1.85.108.444.027.773.402.776.883.004 1.04 0 2.079 0 3.118 0 .115-.003.233 0 .347.004.083-.024.104-.11.1-1.106-.059-2.214-.104-3.32-.176-.564-.035-1.09.024-1.559.374a1.957 1.957 0 00-.727 2.061c.208.776.863 1.365 1.663 1.435.769.069 1.545.093 2.318.135.53.027 1.06.055 1.59.076.104.003.149.028.149.149-.004 1.351 0 2.702-.004 4.054 0 .401-.232.668-.627.755-.114.031-.235-.017-.35.028h-.104c-.152-.038-.308-.028-.46-.032-.835-.013-1.67-.072-2.505-.117-.72-.035-1.438-.08-2.159-.118-.713-.038-1.427-.08-2.14-.121-.496-.032-.992-.052-1.487-.084-.523-.03-1.047-.059-1.57-.09a99.53 99.53 0 00-1.451-.08c-.548-.03-1.095-.062-1.64-.093-.477-.028-.955-.052-1.434-.08-.564-.03-1.129-.059-1.69-.093-.433-.028-.863-.038-1.296-.08-.475-.048-.783-.38-.79-.866V20.303c.003-.07-.007-.139.014-.208z" fill="#116BB5"/><path d="M18.73 33.747c.111-.077.233-.018.35-.028 0 .01-.003.017-.003.028h-.347z" fill="#fff"/><path d="M36.77 25.136c.406.512.786 1.005 1.176 1.484.089.108.06.165-.025.254-.889.963-2.03 1.531-3.303 1.86-2.025.517-3.956.3-5.709-.831-1.644-1.062-2.533-2.594-2.82-4.445-.227-1.46-.034-2.88.722-4.186 1.14-1.987 2.928-3.054 5.293-3.246 1.26-.104 2.474.108 3.64.568.395.155.765.362 1.09.63.534.437.835.977.83 1.658-.004.4-.005.799.005 1.198.005.146-.044.188-.192.184a54.49 54.49 0 00-1.753 0c-.173.004-.208-.057-.198-.203.01-.188-.01-.375.005-.563.035-.4-.168-.672-.503-.879-.49-.296-1.038-.427-1.6-.507-1.408-.202-2.667.089-3.714 1.043-.74.672-1.136 1.512-1.284 2.461-.212 1.391.084 2.674 1.018 3.773 1.18 1.396 2.735 1.795 4.533 1.372 1.096-.254 2.054-.752 2.79-1.625zM.055 19.095c-.08-.142-.017-.295-.034-.444-.007-.073-.004-.145-.007-.218.073-.496.374-.818.862-.904.215-.039.434-.073.645-.122.11-.024.125.018.125.111-.004.218.003.44-.004.658-.003.1.031.125.128.125a384.35 384.35 0 012.841 0c.104 0 .125-.034.125-.128-.003-.391.007-.786-.007-1.178-.003-.132.049-.166.16-.184.194-.027.388-.058.578-.104.142-.03.177.014.17.153-.01.194.003.391-.004.589-.003.107.021.149.142.149 1.144-.004 2.287-.004 3.43 0 .118 0 .143-.042.143-.15-.007-.425 0-.855-.004-1.281 0-.104.02-.146.135-.166.752-.129 1.5-.264 2.249-.399.066-.01.138-.01.208-.01 1.16 0 2.32-.004 3.482.003.149 0 .183-.041.176-.183-.007-.16-.069-.36.024-.472.101-.114.312-.076.475-.114.108-.024.215-.042.322-.059.447-.073.797.212.797.662.004 1.403 0 2.806.004 4.21 0 .114-.028.145-.146.138a126.32 126.32 0 00-2.214-.128c-.124-.007-.121-.066-.121-.152 0-.548-.003-1.099.004-1.646.003-.142-.042-.174-.177-.174-.596.008-1.189 0-1.784.008-.122 0-.156-.035-.153-.156.007-.382 0-.763.004-1.144 0-.1-.021-.138-.132-.138-.821.003-1.639.003-2.46 0-.121 0-.142.041-.142.149a331.3 331.3 0 010 2.442c0 .118.038.146.149.142.374-.007.752 0 1.126-.003.104 0 .152.014.152.138-.003.33.004.336-.322.32-1.555-.087-3.111-.178-4.667-.264-1.095-.063-2.19-.122-3.284-.184-.728-.041-1.452-.08-2.18-.118-.297-.014-.571.045-.814.226z" fill="#116BB5"/><path d="M100.794 22.946c.459-.82 1.113-1.402 2.002-1.733.776-.29 1.563-.275 2.339-.01.757.26 1.187.82 1.416 1.549.025.076.044.152.069.227.093-.028.102-.109.132-.17.835-1.445 2.627-2.141 4.258-1.649 1.079.327 1.563 1.118 1.748 2.132.069.379.093.767.093 1.156v3.623c0 .374.088.46.469.47.21.004.478-.09.61.042.132.128.035.388.044.592.005.223 0 .44.005.663 0 .09-.014.151-.132.151-.635-.018-1.269.043-1.899-.033-.489-.056-.738-.303-.801-.776a3.349 3.349 0 01-.03-.45v-4.003c0-.417-.014-.834-.151-1.24-.2-.593-.596-.891-1.235-.939-.855-.061-1.514.29-2.042.91-.591.691-.825 1.51-.83 2.397-.01 1.293-.01 2.59 0 3.883 0 .214-.059.266-.273.256a14.975 14.975 0 00-1.221 0c-.191.005-.249-.047-.249-.237.009-1.515.004-3.031.004-4.547 0-.436 0-.867-.053-1.298-.157-1.245-1.04-1.558-2.159-1.269-.571.147-.996.516-1.338.976-.498.677-.718 1.444-.718 2.269-.005 1.288-.005 2.572.005 3.86 0 .194-.049.256-.254.251a17.495 17.495 0 00-1.22 0c-.2.01-.26-.047-.26-.246.005-2.084.005-4.169.005-6.253 0-.156.005-.317-.004-.473-.02-.247-.132-.356-.391-.36a7.406 7.406 0 00-.562 0c-.122.004-.176-.024-.17-.157.01-.37.004-.743 0-1.113 0-.118.029-.17.16-.165.572.009 1.138-.005 1.71.014.6.023.918.355.928.938-.005.246-.005.502-.005.762z" fill="#05AAE7"/><path d="M58.369 20.485c.069-.09.118-.165.177-.23 1.214-1.294 3.132-1.535 4.543-.963.954.386 1.426 1.178 1.642 2.156.109.482.133.978.133 1.47.005 1.253.005 2.507-.005 3.76 0 .226.054.322.285.302.222-.02.443 0 .664-.005.133-.005.192.03.192.18a93.155 93.155 0 000 1.655c0 .115-.02.19-.157.186-.704-.015-1.412.035-2.115-.03-.629-.056-.993-.437-1.067-1.074-.044-.38-.024-.767-.024-1.153-.005-1.189 0-2.372 0-3.56 0-.377-.005-.753-.108-1.119-.168-.582-.546-.892-1.136-.928-1.485-.095-2.68.893-2.95 2.428-.054.3-.06.596-.06.897 0 1.42-.004 2.839.005 4.263 0 .23-.068.28-.275.27a32.915 32.915 0 00-1.72 0c-.202.006-.247-.065-.242-.255.005-2.387.005-4.78.005-7.166 0-.336 0-.331-.34-.341-.26-.01-.604.12-.747-.056-.127-.15-.039-.49-.044-.752-.005-.336.005-.667-.005-1.003-.005-.145.03-.205.187-.2.605.01 1.215 0 1.82.005.717.005 1.268.39 1.293 1.138-.005.035.014.055.049.125z" fill="#116BB5"/><path d="M92.626 28.231c.394-1.548.981-2.968 1.464-4.422.202-.615.423-1.226.638-1.836.268-.76.535-.953 1.29-.958.273 0 .55.005.822-.005.122-.005.164.045.16.169-.005.387-.005.78 0 1.166 0 .134-.043.179-.165.164-.351-.035-.534.159-.661.491-1.108 2.909-2.224 5.817-3.332 8.725-.356.933-.877 1.708-1.802 2.065-1.07.412-2.06.213-2.937-.556-.103-.09-.14-.164-.056-.308.206-.352.389-.714.596-1.092.262.249.53.467.868.566.61.184 1.107-.02 1.51-.51.4-.487.55-1.108.793-1.673.038-.085-.009-.16-.037-.234-.962-2.357-1.924-4.715-2.881-7.072-.113-.278-.296-.422-.577-.402-.15.01-.207-.03-.202-.204.014-.362.01-.729 0-1.091-.005-.154.033-.219.192-.214.296.015.596.01.892.005.525-.015.873.243 1.07.755l.746 1.95 1.253 3.286c.14.392.239.789.356 1.235zm35.062-5.221c.416-.792.978-1.356 1.746-1.688.871-.38 1.769-.413 2.678-.157.983.285 1.484 1.01 1.699 1.978.094.426.112.858.112 1.294v3.58c0 .436.085.521.52.521.557 0 .557 0 .557.57v.71c0 .096 0 .171-.131.171-.562-.004-1.124.02-1.685-.018-.646-.048-.913-.36-.918-1.02-.005-1.057 0-2.12-.005-3.177-.004-.593.024-1.185-.042-1.773-.098-.868-.543-1.361-1.315-1.442a2.791 2.791 0 00-2.758 1.503c-.304.588-.407 1.22-.407 1.878 0 1.27-.005 2.546.005 3.817 0 .185-.047.247-.234.242a13.176 13.176 0 00-1.147 0c-.22.01-.286-.043-.286-.28.01-2.171.005-4.348.005-6.52 0-.469-.075-.545-.548-.545-.534 0-.534 0-.534-.536 0-.246.005-.488 0-.734-.004-.12.029-.166.155-.166.538.009 1.077-.005 1.615.009.59.019.899.35.913.944.009.26.005.516.005.839zm15.165 4.391a4.6 4.6 0 00.979.763c.736.413 1.521.613 2.375.441.487-.097.88-.32 1.004-.818.079-.316-.02-.58-.264-.804-.253-.232-.561-.381-.879-.511-.576-.237-1.158-.456-1.734-.693a4.942 4.942 0 01-1.267-.72c-1.267-1.009-1.098-2.798.348-3.575.765-.409 1.605-.51 2.469-.478a4.913 4.913 0 011.595.302 2.5 2.5 0 01.661.362c.328.26.512.581.512.99 0 .21-.01.419.005.628.009.144-.03.209-.204.204-.398-.014-.795-.004-1.193-.004-.109 0-.193-.005-.193-.144 0-.224.049-.456-.149-.637-.249-.228-.567-.316-.9-.358a2.892 2.892 0 00-1.321.12c-.383.136-.656.368-.706.763-.049.372.149.637.452.85.368.256.795.41 1.218.568.491.181.988.348 1.465.562.323.144.631.307.914.511 1.277.92 1.282 2.66 0 3.584-.77.558-1.669.725-2.618.688-1.287-.046-2.395-.474-3.314-1.334-.129-.12-.149-.205-.025-.344.269-.288.512-.6.77-.916zM10.342 11.159c-.589 0-1.178-.004-1.767.003-.121 0-.152-.035-.152-.156.003-1.185.003-2.366 0-3.551 0-.122.031-.156.152-.156 1.189.003 2.377.003 3.569 0 .118 0 .142.041.142.149-.003 1.188-.003 2.38 0 3.568 0 .132-.049.146-.16.146-.592-.007-1.188-.004-1.784-.004zM137.128 25.06c0-.825-.005-1.506.004-2.182 0-.162-.046-.213-.209-.209-.247.014-.499 0-.746.005-.125.005-.181-.028-.177-.167.01-.333.01-.662 0-.996-.004-.125.047-.157.163-.153.243.005.485-.014.723.005.218.018.293-.037.284-.269-.019-.63 0-1.264-.01-1.9 0-.147.033-.198.191-.194.42.01.839.01 1.258 0 .145-.004.182.047.182.186-.005.648.005 1.297-.005 1.945-.004.176.038.241.229.237.549-.014 1.104 0 1.654-.01.139 0 .186.037.181.181-.009.324-.009.649 0 .973.005.134-.046.167-.172.167-.559-.005-1.118.004-1.677-.005-.159-.005-.215.032-.215.2.01 1.273.005 2.547.005 3.817 0 .204.023.403.07.597.242.955 1.006 1.297 1.915 1.242.205-.014.228.042.223.213-.009.357-.004.709 0 1.066 0 .106-.018.171-.149.18-.745.037-1.477-.009-2.157-.338-.969-.463-1.416-1.274-1.523-2.302-.089-.816-.019-1.627-.042-2.289z" fill="#05AAE7"/><path d="M51.264 24.99c0-.954-.006-1.905.005-2.86.006-.222-.077-.3-.34-.282-.253.018-.511 0-.77.005-.115.004-.159-.028-.159-.13.005-.53.005-1.061 0-1.592 0-.102.05-.13.165-.13.758.005 1.522-.013 2.28.015.764.027 1.203.406 1.258 1.052.028.328.028.66.028.992 0 1.602.005 3.199-.006 4.8 0 .226.083.3.34.282.248-.019.495 0 .743-.005.142-.005.192.042.192.162a72.44 72.44 0 000 1.546c0 .106-.038.157-.17.152-.77-.014-1.539.028-2.308-.023-.775-.055-1.225-.439-1.242-1.094-.022-.96-.005-1.92-.005-2.884-.006-.005-.011-.005-.011-.005z" fill="#116BB5"/><path d="M7.487 17.07c-.391 0-.786-.003-1.178.004-.121.003-.156-.035-.156-.156.004-.786.007-1.57 0-2.356 0-.125.035-.152.156-.152.665.007 1.327-.004 1.992.007.16.003.191-.049.188-.194-.01-.34 0-.683-.007-1.022-.004-.115.024-.163.152-.16.398.007.797.007 1.195 0 .115 0 .15.031.146.15-.007.398-.007.796 0 1.194.003.125-.042.156-.16.153-.284-.007-.564.003-.848-.004-.125-.003-.153.039-.153.156.004.738 0 1.48.007 2.218 0 .138-.041.176-.173.173-.388-.017-.776-.01-1.16-.01z" fill="#05AAE7"/><path d="M7.079 5.182c0 .433-.004.866.003 1.3 0 .11-.028.148-.142.145-.877-.004-1.753-.004-2.63 0-.11 0-.131-.035-.131-.139.003-.87.003-1.743 0-2.612 0-.128.045-.153.16-.15.858.004 1.718.008 2.577 0 .142 0 .173.05.17.178-.01.422-.007.852-.007 1.278zm6.606 9.886c-.41 0-.822-.003-1.23.003-.108 0-.15-.02-.15-.142.004-.824.004-1.652 0-2.477 0-.114.035-.145.146-.145.821.003 1.639.003 2.46 0 .111 0 .15.024.15.142-.008.824-.004 1.652 0 2.477 0 .114-.032.145-.146.142-.41-.003-.818 0-1.23 0z" fill="#116BB5"/><path d="M10.425 17.602c0-.226.003-.45-.004-.676-.003-.104.018-.156.142-.152.475.006.946.006 1.42 0 .101 0 .129.034.125.131-.003.388.004.773-.003 1.16-.003.122.038.157.156.153.592-.006 1.188.004 1.78-.006.143-.004.174.044.17.176a28.77 28.77 0 000 1.091c0 .108-.027.14-.135.136-.689-.042-1.382-.08-2.071-.115-.122-.007-.17-.045-.163-.176.01-.243 0-.485.007-.728.003-.107-.031-.139-.139-.139-.374.007-.748-.003-1.126.007-.135.004-.166-.041-.163-.17.007-.228.004-.46.004-.692zm-7.238-1.869c.295 0 .59.004.884-.003.097 0 .142.014.142.128-.007.6-.004 1.199 0 1.798 0 .09-.025.118-.118.118-.606-.003-1.213-.003-1.816 0-.093 0-.114-.034-.114-.121.003-.6.003-1.199 0-1.798 0-.118.049-.128.142-.128.295.01.59.006.88.006zm13.098-9.881c0 .294-.004.589.003.883.003.104-.028.139-.135.139-.593-.004-1.189-.004-1.781 0-.104 0-.139-.025-.139-.136.004-.592.004-1.188 0-1.78 0-.108.032-.139.135-.135.593.003 1.189.006 1.781 0 .125 0 .139.048.139.152-.007.288-.003.582-.003.877z" fill="#05AAE7"/><path d="M16.085 27.627a.98.98 0 01-.956-.984.986.986 0 011.012-.967.987.987 0 01.946.998.972.972 0 01-1.002.953zM11.184 3.631c.18 0 .357.004.537 0 .086-.003.121.021.121.115-.003.363-.007.727 0 1.09.003.108-.045.122-.135.122-.288-.003-.579.007-.866-.003-.146-.007-.208.02-.19.183.017.16 0 .323.003.485.003.08-.021.111-.108.111-.232-.003-.46-.003-.693 0-.086.004-.107-.034-.104-.114.004-.225.007-.45 0-.676-.003-.093.035-.118.122-.114.173.003.346-.004.52.003.096.004.127-.027.127-.124-.006-.305.004-.61-.003-.918-.003-.118.024-.167.149-.156.173.007.347-.004.52-.004zm41.811 12.896c0 .402-.005.81.005 1.212.004.184-.025.267-.203.26a36.353 36.353 0 00-1.604 0c-.153 0-.198-.058-.193-.236.005-.84.005-1.674 0-2.514 0-.201.055-.249.213-.249a34.95 34.95 0 001.58 0c.162-.006.211.065.206.255-.014.42-.004.846-.004 1.272zM5.18 12.162c0-.198.004-.392 0-.59-.003-.09.014-.134.121-.134.406.006.808.003 1.213 0 .09 0 .121.03.121.12a70.83 70.83 0 000 1.213c0 .087-.02.122-.114.122a72.037 72.037 0 00-1.23 0c-.083 0-.11-.025-.107-.108 0-.208-.004-.415-.004-.623z" fill="#116BB5"/><path d="M7.882 0h1.42c.004.437.004.877.01 1.313 0 .087-.024.121-.117.121a70.226 70.226 0 00-1.21 0c-.076 0-.117-.017-.114-.104.007-.443.007-.887.01-1.33z" fill="#05AAE7"/><path d="M44.012 19c-2.796-.034-5.002 2.148-5.012 4.968-.014 2.81 2.15 5.017 4.93 5.032 2.863.02 5.056-2.138 5.07-4.988.019-2.83-2.12-4.977-4.988-5.012zm.574 7.946c-1.632.354-3.173-.806-3.355-2.511-.115-1.115.158-2.088 1.02-2.81.866-.728 1.857-.836 2.872-.394 1.02.447 1.531 1.302 1.66 2.418.015.113.015.23.015.29 0 1.538-.89 2.722-2.212 3.007z" fill="#116BB5"/><path d="M77.991 21.416c-.103-1.88-1.681-3.344-3.764-3.39-2.01-.047-4.026-.014-6.042-.023-.123 0-.185.018-.185.148.01.386.01.776 0 1.161-.005.135.067.149.185.149.268-.005.535.014.797-.005.211-.014.252.056.252.233-.005 1.672-.005 3.344-.005 5.016 0 1.686.005 3.376-.005 5.063 0 .185.057.236.257.232.453-.014.91-.014 1.363 0 .2.004.262-.042.257-.228-.01-1.3-.005-2.6-.005-3.901 0-.358-.047-.312.334-.316.915-.005 1.836.023 2.75-.014 1.184-.051 2.191-.474 2.937-1.329.725-.822.93-1.774.874-2.796zm-1.938.623c-.083.836-.473 1.495-1.353 1.858-.34.139-.704.2-1.074.204-.772.005-1.543-.005-2.314.005-.196.004-.221-.065-.221-.219.005-.706.005-1.407.005-2.113s.005-1.407-.005-2.113c0-.163.046-.21.226-.21.745.01 1.491.005 2.237.005 1.861.01 2.638 1.175 2.499 2.583zM87 28.552c.004-.134-.045-.176-.17-.171-.171.009-.346.004-.517 0-.242-.01-.336-.107-.35-.353-.004-.093 0-.186 0-.279-.017-1.328.045-2.66-.035-3.989-.081-1.37-.799-2.275-2.064-2.605-.69-.18-1.39-.19-2.09-.097-.476.065-.942.167-1.368.413-.476.274-.758.664-.723 1.254.01.186.01.371 0 .557-.009.149.05.181.18.181.35-.01.704-.018 1.054.005.229.014.27-.07.265-.283-.018-.46.103-.618.534-.753.497-.153 1-.153 1.507-.05.552.11.897.464 1.045 1.02.072.28.094.563.103.85.005.168-.045.21-.202.205-.619-.01-1.238.01-1.857.107-.794.12-1.57.315-2.247.784-1.332.929-1.431 2.898-.202 3.97 1.01.878 2.71.91 3.755.084.358-.283.628-.65.874-1.045-.009.135-.022.27-.027.404-.022.613.242.952.83 1.017.52.06 1.045.01 1.566.023.116.005.134-.06.134-.157 0-.363 0-.73.005-1.092zm-3.741-.241c-.552.422-1.176.478-1.813.232-.475-.186-.767-.553-.82-1.091-.054-.553.147-.985.6-1.277.422-.274.898-.372 1.378-.441.327-.047.655-.056.982-.065.215 0 .435.004.65 0 .104 0 .148.032.148.144-.004 1.003-.314 1.88-1.125 2.498zm39.703-3.926c-.153-1.198-.63-2.215-1.696-2.87-.737-.456-1.553-.576-2.406-.488-1.567.162-2.726.924-3.412 2.355-.399.836-.515 1.728-.413 2.648.13 1.208.63 2.23 1.586 2.987 1.112.882 2.401 1.129 3.778.906a4.876 4.876 0 002.332-1.064c.069-.056.153-.098.074-.223-.223-.344-.427-.697-.649-1.06-.519.433-1.09.749-1.739.902-1.803.432-3.375-.604-3.681-2.43-.055-.343-.055-.343.283-.343 1.892 0 3.788-.005 5.679.004.209 0 .269-.06.283-.264a5.003 5.003 0 00-.019-1.06zm-1.859.121h-2.063c-.695 0-1.39-.004-2.086.005-.148 0-.185-.042-.157-.186.245-1.361 1.65-2.276 2.99-1.946 1.066.26 1.46 1.221 1.511 1.992.014.163-.097.135-.195.135z" fill="#05AAE7"/></svg>