<svg width="28" height="28" fill="none" xmlns="http://www.w3.org/2000/svg"><path d="M14 28c7.732 0 14-6.268 14-14S21.732 0 14 0 0 6.268 0 14s6.268 14 14 14z" fill="#008DE4"/><path d="M16.994 6.158H9.962l-.583 3.258 6.349.009c3.127 0 4.051 1.135 4.025 3.017-.015.966-.431 2.598-.613 3.127-.481 1.409-1.471 3.02-5.18 3.014l-6.174-.003-.586 3.26h7.018c2.476 0 3.528-.288 4.643-.802 2.473-1.141 3.944-3.582 4.533-6.765.88-4.741-.214-8.115-6.4-8.115z" fill="#fff"/><path d="M6.924 12.361c-1.843 0-2.108 1.201-2.28 1.926-.229.952-.303 1.335-.303 1.335h7.202c1.843 0 2.107-1.2 2.28-1.926.229-.951.303-1.335.303-1.335H6.924z" fill="#fff"/></svg>