<svg width="22" height="16" fill="none" xmlns="http://www.w3.org/2000/svg"><path d="M12.455 16c4.603.02 8.805-3.566 8.805-7.93 0-4.773-4.202-8.072-8.805-8.07H8.493C3.834-.002 0 3.298 0 8.07c0 4.365 3.834 7.95 8.493 7.93h3.962z" fill="#0079BE"/><path d="M8.512.662C4.255.663.806 3.942.805 7.987c0 4.044 3.45 7.322 7.707 7.323 4.258-.001 7.708-3.279 7.709-7.323C16.22 3.94 12.77.663 8.512.662zM3.627 7.987C3.63 6.01 4.93 4.324 6.763 3.654v8.664c-1.833-.67-3.132-2.354-3.136-4.331zm6.634 4.333V3.654c1.833.668 3.135 2.355 3.138 4.333-.003 1.978-1.305 3.663-3.138 4.333z" fill="#fff"/><path d="M12.455 16c4.603.02 8.805-3.566 8.805-7.93 0-4.773-4.202-8.072-8.805-8.07H8.493C3.834-.002 0 3.298 0 8.07c0 4.365 3.834 7.95 8.493 7.93h3.962z" fill="#0079BE"/><path d="M8.512.662C4.255.663.806 3.942.805 7.987c0 4.044 3.45 7.322 7.707 7.323 4.258-.001 7.708-3.279 7.709-7.323C16.22 3.94 12.77.663 8.512.662zM3.627 7.987C3.63 6.01 4.93 4.324 6.763 3.654v8.664c-1.833-.67-3.132-2.354-3.136-4.331zm6.634 4.333V3.654c1.833.668 3.135 2.355 3.138 4.333-.003 1.978-1.305 3.663-3.138 4.333z" fill="#fff"/></svg>