<svg width="65" height="12" fill="none" xmlns="http://www.w3.org/2000/svg"><path d="M2.976.3H0v10.343h2.976c1.573 0 2.71-.376 3.715-1.185a5.156 5.156 0 001.896-3.967C8.587 2.426 6.274.3 2.977.3zm2.389 7.767c-.645.564-1.46.827-2.787.827h-.55V2.049h.55c1.308 0 2.104.226 2.787.828.7.62 1.118 1.58 1.118 2.576s-.417 1.993-1.118 2.614zM11.544.3H9.516v10.343h2.028V.3zm4.986 3.968c-1.214-.45-1.574-.752-1.574-1.297 0-.658.645-1.147 1.517-1.147.606 0 1.118.244 1.63.846l1.061-1.373A4.606 4.606 0 0016.094.15c-1.84 0-3.26 1.279-3.26 2.971 0 1.43.663 2.163 2.558 2.84.796.282 1.194.47 1.403.583.398.263.606.639.606 1.071 0 .846-.663 1.467-1.573 1.467-.967 0-1.744-.489-2.218-1.373l-1.289 1.204c.93 1.372 2.066 1.974 3.602 1.974 2.104 0 3.602-1.391 3.602-3.403 0-1.636-.683-2.388-2.995-3.216zm3.639 1.204c0 3.046 2.407 5.397 5.497 5.397.872 0 1.63-.17 2.54-.602v-2.37c-.815.81-1.535 1.129-2.445 1.129-2.047 0-3.507-1.467-3.507-3.573 0-1.993 1.498-3.554 3.412-3.554.967 0 1.706.339 2.54 1.166V.696c-.89-.451-1.63-.64-2.502-.64-3.07 0-5.535 2.407-5.535 5.416zM44.338 7.24L41.552.3h-2.218l4.417 10.606h1.1L49.342.3h-2.2l-2.805 6.938zm5.934 3.403h5.762V8.875H52.3V6.092h3.6V4.344h-3.6V2.049h3.734V.302h-5.762v10.342zM64.09 3.347C64.09 1.41 62.744.3 60.394.3H57.38v10.342h2.028V6.487h.265l2.806 4.156h2.502l-3.28-4.363c1.536-.32 2.39-1.354 2.39-2.933zm-4.075 1.711h-.588v-3.14h.626c1.27 0 1.952.526 1.952 1.542-.019 1.034-.701 1.598-1.99 1.598z" fill="#231F20"/><path d="M34.424 11.019c3.068 0 5.554-2.467 5.554-5.51C39.978 2.467 37.492 0 34.424 0c-3.067 0-5.554 2.467-5.554 5.51 0 3.042 2.487 5.509 5.554 5.509z" fill="url(#paint0_linear)"/><defs><linearGradient id="paint0_linear" x1="37.258" y1="9.908" x2="33.463" y2="3.918" gradientUnits="userSpaceOnUse"><stop stop-color="#F89F20"/><stop offset=".25" stop-color="#F79A20"/><stop offset=".533" stop-color="#F68D20"/><stop offset=".62" stop-color="#F58720"/><stop offset=".723" stop-color="#F48120"/><stop offset="1" stop-color="#F37521"/></linearGradient></defs></svg>