<svg width="62" height="62" viewBox="0 0 62 62" fill="none" xmlns="http://www.w3.org/2000/svg">
<path d="M41 14H21C20.447 14 20 13.553 20 13C20 12.447 20.447 12 21 12H41C41.553 12 42 12.447 42 13C42 13.553 41.553 14 41 14Z" fill="#FD3E72"/>
<path d="M41 24H21C20.447 24 20 23.553 20 23C20 22.447 20.447 22 21 22H41C41.553 22 42 22.447 42 23C42 23.553 41.553 24 41 24Z" fill="#FD3E72"/>
<path d="M12.0004 31.3V21V2H50.0004V21V31.3L60.5004 25.4L52.0004 20.4V1C52.0004 0.4 51.6004 0 51.0004 0H11.0004C10.4004 0 10.0004 0.4 10.0004 1V20.4L1.40039 25.4L12.0004 31.3Z" fill="#FD3E72"/>
<path d="M31.5 43.9C31.3 44 31.2 44 31 44C30.8 44 30.7 44 30.5 43.9L0 26.9V60C0 61.105 0.895 62 2 62H60C61.105 62 62 61.105 62 60V26.9L31.5 43.9Z" fill="#FD3E72"/>
</svg>
