<svg width="28" height="28" fill="none" xmlns="http://www.w3.org/2000/svg"><path d="M14 28c7.732 0 14-6.268 14-14S21.732 0 14 0 0 6.268 0 14s6.268 14 14 14z" fill="#627EEA"/><path d="M14.435 3.5v7.761l6.56 2.932L14.435 3.5z" fill="#fff" fill-opacity=".602"/><path d="M14.436 3.5L7.875 14.193l6.56-2.932V3.5z" fill="#fff"/><path d="M14.435 19.22v5.274L21 15.412l-6.565 3.808z" fill="#fff" fill-opacity=".602"/><path d="M14.436 24.494v-5.275l-6.561-3.807 6.56 9.082z" fill="#fff"/><path d="M14.435 18l6.56-3.809-6.56-2.93v6.74z" fill="#fff" fill-opacity=".2"/><path d="M7.875 14.191l6.56 3.81v-6.74l-6.56 2.93z" fill="#fff" fill-opacity=".602"/></svg>