<svg width="62" height="46" viewBox="0 0 62 46" fill="none" xmlns="http://www.w3.org/2000/svg">
<path d="M60.985 16C61.1171 16.002 61.2482 15.9778 61.3709 15.9288C61.4936 15.8798 61.6053 15.807 61.6997 15.7146C61.7941 15.6222 61.8692 15.5119 61.9207 15.3903C61.9723 15.2687 61.9992 15.1381 62 15.006V2C62 1.46957 61.7893 0.96086 61.4142 0.585787C61.0391 0.210714 60.5304 0 60 0H2C1.46957 0 0.960859 0.210714 0.585787 0.585787C0.210714 0.96086 1.10423e-07 1.46957 1.10423e-07 2V15C0.00185092 15.2666 0.109311 15.5215 0.298825 15.7089C0.488339 15.8964 0.744443 16.0011 1.011 16C6.619 16.009 10.702 22.646 5.828 28.48C5.23391 29.1078 4.49181 29.5766 3.66965 29.8434C2.84748 30.1102 1.97153 30.1664 1.122 30.007C0.981398 29.9897 0.838728 30.0025 0.703441 30.0445C0.568153 30.0865 0.443335 30.1568 0.337253 30.2507C0.231172 30.3446 0.146248 30.4599 0.0881067 30.5891C0.0299654 30.7183 -6.64577e-05 30.8583 1.10423e-07 31V44C1.10423e-07 44.5304 0.210714 45.0391 0.585787 45.4142C0.960859 45.7893 1.46957 46 2 46H60C60.5304 46 61.0391 45.7893 61.4142 45.4142C61.7893 45.0391 62 44.5304 62 44V31C61.9991 30.8677 61.9721 30.7368 61.9206 30.6149C61.8691 30.493 61.794 30.3825 61.6998 30.2896C61.6055 30.1968 61.4938 30.1234 61.3712 30.0737C61.2486 30.024 61.1173 29.9989 60.985 30C59.1285 30 57.348 29.2625 56.0353 27.9497C54.7225 26.637 53.985 24.8565 53.985 23C53.985 21.1435 54.7225 19.363 56.0353 18.0503C57.348 16.7375 59.1285 16 60.985 16ZM43 30H19C18.7348 30 18.4804 29.8946 18.2929 29.7071C18.1054 29.5196 18 29.2652 18 29C18 28.7348 18.1054 28.4804 18.2929 28.2929C18.4804 28.1054 18.7348 28 19 28H43C43.2652 28 43.5196 28.1054 43.7071 28.2929C43.8946 28.4804 44 28.7348 44 29C44 29.2652 43.8946 29.5196 43.7071 29.7071C43.5196 29.8946 43.2652 30 43 30ZM43 18H19C18.7348 18 18.4804 17.8946 18.2929 17.7071C18.1054 17.5196 18 17.2652 18 17C18 16.7348 18.1054 16.4804 18.2929 16.2929C18.4804 16.1054 18.7348 16 19 16H43C43.2652 16 43.5196 16.1054 43.7071 16.2929C43.8946 16.4804 44 16.7348 44 17C44 17.2652 43.8946 17.5196 43.7071 17.7071C43.5196 17.8946 43.2652 18 43 18Z" fill="#FD3E72"/>
</svg>
