<svg width="42" height="41" viewBox="0 0 42 41" fill="none" xmlns="http://www.w3.org/2000/svg">
<path d="M2.31738 20.3257C2.31738 10.014 10.6771 1.6543 20.9888 1.6543C31.3004 1.6543 39.6601 10.014 39.6601 20.3257" stroke="#FD3E72" stroke-width="2" stroke-miterlimit="10" stroke-linecap="square"/>
<path d="M33.942 4.60258C39.0053 20.6735 27.1677 35.8873 15.1348 27.0982C15.1518 27.1016 19.7416 27.1525 21.3779 26.2732C22.4099 25.7182 23.7287 24.6217 24.3653 24.7252C25.3973 24.878 25.64 24.048 25.1206 23.4522C24.5248 22.7681 22.9462 21.4713 21.1148 22.3404C16.0837 24.7235 12.7279 21.2014 13.3101 19.1357C13.4188 18.747 13.8346 18.2344 14.0095 18.2004C14.8598 17.3738 19.7857 14.1335 20.4018 12.6296C20.5478 12.2731 20.7125 11.4363 20.2355 11.2615C19.4428 11.0731 17.5604 11.0663 16.8645 11.0714C15.5388 11.0832 14.6494 10.2566 14.7088 9.43337C14.7835 8.40645 15.4998 7.12661 17.5332 5.44958C14.0417 4.94036 12.0269 7.72579 12.0252 7.72919C10.1445 7.2624 7.20968 7.80048 7.20798 7.79878C5.27465 6.66831 4.86218 3.82178 4.86218 3.82178C4.86218 3.82178 1.9766 5.97408 2.75062 11.2004C2.75062 11.2004 -2.31442 20.1134 3.23607 30.3215C3.23607 30.3198 8.36391 40.6943 20.9891 40.6943C33.7196 40.6943 41.3579 30.1416 41.3579 20.3256C41.3579 13.1371 37.7442 7.66468 33.942 4.60258Z" fill="#FD3E72"/>
</svg>
