<svg width="32" height="33" fill="none" xmlns="http://www.w3.org/2000/svg"><path d="M25.838 3.07c-.804.936-1.178 3.04-.363 5.174.814 2.133 2.063 1.67 2.84 3.845 1.028 2.871.55 6.728.55 6.728s1.235 3.575 2.095-.223c1.905-7.133-5.122-13.767-5.122-15.523z" fill="url(#paint0_radial)"/><path d="M16.036 32.686c8.226 0 14.89-6.699 14.89-14.958 0-8.26-6.664-14.958-14.882-14.958S1.162 9.468 1.162 17.728c-.016 8.267 6.656 14.958 14.874 14.958z" fill="url(#paint1_radial)"/><path d="M27.193 26.951c-.322.227-.66.431-1.01.61.464-.68.893-1.386 1.284-2.111.317-.352.608-.693.845-1.062a9.91 9.91 0 00.383-.665c.836-1.505 1.757-3.942 1.784-6.445v-.191a8.638 8.638 0 00-.192-1.87l.02.144-.022-.111c.012.068.022.134.032.2.171 1.45.05 2.864-.56 3.906l-.029.044c.316-1.584.422-3.333.07-5.084 0 0-.14-.851-1.186-3.436-.602-1.487-1.672-2.706-2.616-3.595-.829-1.024-1.58-1.712-1.995-2.148-.867-.912-1.23-1.596-1.379-2.042-.129-.064-1.782-1.67-1.913-1.731-.722 1.118-2.991 4.617-1.912 7.886.49 1.481 1.727 3.019 3.022 3.881.056.065.77.84 1.11 2.588.35 1.806.166 3.215-.556 5.298-.848 1.828-3.02 3.635-5.055 3.82-4.35.395-5.943-2.184-5.943-2.184 1.555.622 3.273.492 4.318-.152 1.054-.652 1.69-1.135 2.208-.944.51.19.916-.361.551-.931a2.633 2.633 0 00-2.663-1.16c-1.054.171-2.02 1.006-3.402.198a2.88 2.88 0 01-.259-.17c-.091-.06.296.091.206.023-.269-.146-.745-.464-.868-.577-.02-.02.208.073.188.054-1.292-1.064-1.13-1.782-1.09-2.233.032-.36.267-.822.662-1.01.191.105.31.184.31.184l-.125-.254c.015-.007.03-.005.046-.011.156.075.502.271.684.39.237.168.313.317.313.317s.062-.034.016-.18c-.017-.06-.089-.25-.324-.442l.015.002c.14.08.274.173.398.276.066-.24.185-.492.16-.942-.017-.316-.01-.398-.065-.52-.05-.105.028-.146.114-.037a1.104 1.104 0 00-.074-.248l.001-.008c.108-.377 2.29-1.357 2.448-1.472.261-.184.48-.422.642-.697.121-.194.213-.465.235-.876.012-.297-.126-.494-2.332-.725-.603-.06-.957-.496-1.158-.9a5.797 5.797 0 00-.111-.244 1.95 1.95 0 01-.086-.283c.36-1.035.966-1.91 1.857-2.572.049-.044-.194.011-.145-.033.056-.051.426-.2.496-.234.085-.04-.366-.231-.763-.185-.405.046-.49.094-.707.186.09-.09.375-.206.308-.206-.436.067-.979.321-1.442.608a.349.349 0 01.028-.146c-.216.092-.747.463-.901.777a1.5 1.5 0 00.009-.182 2.832 2.832 0 00-.443.464l-.008.007c-1.253-.504-2.356-.537-3.29-.31-.203-.206-.303-.056-.767-1.076-.032-.062.024.06 0 0-.077-.198.046.264 0 0-.781.616-1.81 1.314-2.302 1.807-.006.02.575-.164 0 0-.202.058-.188.177-.219 1.258-.007.082 0 .173-.007.247-.394.502-.663.927-.764 1.147-.51.878-1.071 2.247-1.615 4.412.24-.587.53-1.152.865-1.69-.453 1.149-.89 2.954-.978 5.733.11-.574.25-1.14.42-1.7a15.861 15.861 0 001.166 6.744c.313.765.83 1.927 1.712 3.2A15.13 15.13 0 0015.84 32.06c4.514 0 8.567-1.974 11.353-5.11z" fill="url(#paint2_linear)"/><path d="M23.852 29.066c5.463-.632 7.882-6.26 4.776-6.371-2.805-.09-7.363 6.67-4.776 6.371z" fill="url(#paint3_radial)"/><path d="M29.022 21.545c3.759-2.187 2.779-6.912 2.779-6.912s-1.451 1.685-2.437 4.371c-.973 2.66-2.602 3.862-.342 2.54z" fill="url(#paint4_radial)"/><path d="M17.09 31.862c5.24 1.672 9.744-2.456 6.967-3.834-2.524-1.243-9.455 3.043-6.968 3.834z" fill="url(#paint5_radial)"/><path d="M29.412 23.55c.128-.18.3-.755.452-1.013.925-1.493.932-2.683.932-2.71.559-2.792.508-3.931.164-6.039-.276-1.697-1.486-4.128-2.535-5.298-1.08-1.207-.319-.814-1.364-1.695-.917-1.016-1.806-2.022-2.29-2.426C21.273 1.445 21.352.824 21.42.719l-.05.054C21.33.608 21.3.47 21.3.47s-1.912 1.912-2.315 5.098c-.262 2.08.516 4.248 1.644 5.634.587.718 1.25 1.37 1.979 1.945.852 1.223 1.32 2.732 1.32 4.356a7.365 7.365 0 01-9.015 7.177c-1.92-.365-3.029-1.334-3.581-1.991a3.606 3.606 0 01-.452-.651c1.72.616 3.622.487 4.779-.152 1.165-.646 1.87-1.125 2.443-.936.564.188 1.013-.358.61-.924-.394-.565-1.422-1.374-2.947-1.15-1.167.17-2.236.999-3.765.197a3.256 3.256 0 01-.287-.169c-.1-.06.328.09.228.023-.298-.145-.825-.46-.961-.572-.023-.02.23.072.208.053-1.43-1.055-1.251-1.767-1.206-2.214.036-.357.295-.816.733-1.001.211.103.343.182.343.182s-.09-.165-.14-.252c.018-.007.034-.005.051-.011.173.074.556.269.758.388.262.165.346.313.346.313s.07-.034.018-.178c-.019-.06-.098-.248-.358-.439l.016.002c.154.079.302.17.44.274.074-.239.206-.488.177-.934-.018-.314-.01-.395-.072-.516-.055-.104.031-.145.127-.037a1.009 1.009 0 00-.082-.246l.001-.008c.12-.374 2.534-1.346 2.71-1.46.283-.177.525-.413.71-.691.134-.192.235-.46.26-.869.008-.183-.049-.329-.688-.468-.384-.083-.977-.165-1.893-.25-.667-.06-1.059-.493-1.281-.893a5.618 5.618 0 00-.124-.242 1.776 1.776 0 01-.095-.28 5.314 5.314 0 012.056-2.551c.053-.044-.215.011-.161-.033.062-.05.471-.198.549-.232.094-.04-.404-.229-.844-.183-.448.045-.544.093-.783.184.1-.088.415-.205.341-.204-.483.067-1.083.318-1.596.603-.002-.05.01-.1.03-.145-.239.091-.826.46-.997.77.007-.06.01-.12.01-.18a3.05 3.05 0 00-.49.46l-.009.007c-1.387-.5-2.607-.533-3.64-.308-.226-.203-.59-.51-1.103-1.523-.035-.06-.054.126-.08.066-.2-.463-.321-1.222-.301-1.745 0 0-.413.188-.755.974a5.46 5.46 0 01-.145.297c-.02.023.042-.258.032-.242-.06.1-.213.24-.28.423-.047.135-.112.21-.154.378l-.01.016c-.003-.05.013-.204.002-.173-.16.324-.299.659-.413 1.001a9.328 9.328 0 00-.433 2.5c-.008.082 0 .173-.008.246-.436.498-.733.92-.845 1.138-.564.871-1.185 2.228-1.788 4.375.268-.586.589-1.147.958-1.676C.58 13.96.097 15.75 0 18.506c.122-.57.277-1.134.465-1.685-.086 1.837.128 4.116 1.29 6.686.69 1.513 2.278 4.583 6.16 6.98h-.001s1.32.982 3.59 1.719c.167.06.337.12.51.179a3.287 3.287 0 01-.158-.07c1.51.453 3.08.684 4.656.685 5.876.005 7.61-2.354 7.61-2.354l-.018.012a4.47 4.47 0 00.24-.243c-.928.875-3.043.933-3.834.87 1.349-.396 2.237-.731 3.964-1.392.202-.075.408-.16.62-.256l.068-.032.126-.058a11.709 11.709 0 002.357-1.476c1.734-1.385 2.111-2.735 2.308-3.625a4.988 4.988 0 01-.173.413c-.447.955-1.437 1.542-2.513 2.044.512-.671.987-1.37 1.422-2.094.351-.348.461-.893.723-1.259z" fill="url(#paint6_radial)"/><path d="M27.301 26.862c.707-.78 1.342-1.67 1.823-2.682 1.238-2.602 3.152-6.928 1.645-11.446-1.192-3.571-2.827-5.524-4.904-7.431C22.493 2.205 21.551.823 21.551 0c0 0-3.894 4.34-2.205 8.866 1.688 4.527 5.147 4.361 7.435 9.085 2.693 5.558-2.178 11.624-6.207 13.322.247-.055 8.955-2.025 9.413-7.006-.01.092-.207 1.47-2.686 2.595z" fill="url(#paint7_radial)"/><path d="M16.02 10.71c.013-.293-.14-.49-2.572-.72-1.001-.091-1.385-1.016-1.501-1.406-.356.925-.503 1.895-.424 3.068.054.769.57 1.594.817 2.078 0 0 .055-.071.08-.097.465-.484 2.413-1.222 2.596-1.326.202-.128.97-.689 1.004-1.596z" fill="url(#paint8_linear)"/><path d="M5.31 5.247c-.034-.06-.053.126-.08.066-.2-.463-.321-1.214-.292-1.744 0 0-.414.188-.756.974-.063.142-.104.22-.145.297-.018.023.043-.258.033-.242-.06.1-.213.24-.28.415-.055.142-.112.218-.155.394-.013.048.014-.212.002-.18-.795 1.537-.947 3.86-.863 3.762 1.693-1.807 3.633-2.236 3.633-2.236-.206-.152-.655-.591-1.096-1.506z" fill="url(#paint9_linear)"/><path d="M11.735 24.15c-2.339-.999-4.998-2.407-4.897-5.606.136-4.212 3.93-3.38 3.93-3.38-.144.035-.527.308-.662.598-.144.363-.405 1.183.387 2.042 1.244 1.348-2.556 3.198 3.31 6.693.147.08-1.375-.048-2.068-.347z" fill="url(#paint10_linear)"/><path d="M10.904 22.05c1.658.577 3.59.476 4.747-.163.774-.43 1.768-1.12 2.379-.95-.53-.21-.93-.307-1.412-.331a3.16 3.16 0 01-.27-.01 4.252 4.252 0 00-.529.028c-.298.027-.63.216-.93.186-.016-.002.292-.127.267-.121-.16.033-.333.04-.516.063-.116.013-.216.027-.332.032-3.454.293-6.373-1.872-6.373-1.872-.249.837 1.112 2.492 2.969 3.138z" fill="url(#paint11_linear)"/><path d="M27.295 26.884c3.494-3.43 5.262-7.598 4.515-12.275 0 0 .298 2.398-.834 4.85.544-2.393.607-5.369-.838-8.45-1.928-4.113-5.1-6.277-6.31-7.18-1.835-1.367-2.596-2.76-2.61-3.048-.548 1.123-2.206 4.97-.178 8.284 1.9 3.104 4.893 4.026 6.988 6.873 3.86 5.246-.733 10.946-.733 10.946z" fill="url(#paint12_linear)"/><path d="M26.795 17.96c-1.221-2.521-2.745-3.621-4.187-4.814.168.235.21.318.302.47 1.269 1.352 3.14 4.65 1.781 8.79-2.556 7.793-12.784 4.123-13.856 3.093.433 4.51 7.984 6.668 12.9 3.743 2.798-2.648 5.06-7.149 3.06-11.281z" fill="url(#paint13_linear)"/><defs><radialGradient id="paint7_radial" cx="0" cy="0" r="1" gradientUnits="userSpaceOnUse" gradientTransform="translate(22.015 .018) scale(30.9808)"><stop offset=".279" stop-color="#FFEA00"/><stop offset=".402" stop-color="#FD0"/><stop offset=".63" stop-color="#FFBA00"/><stop offset=".856" stop-color="#FF9100"/><stop offset=".933" stop-color="#FF6711"/><stop offset=".994" stop-color="#FF4A1D"/></radialGradient><radialGradient id="paint3_radial" cx="0" cy="0" r="1" gradientUnits="userSpaceOnUse" gradientTransform="rotate(6.237 -209.55 275.693) scale(10.9776 10.9585)"><stop offset=".003" stop-color="#FFEA00"/><stop offset=".497" stop-color="#FF272D"/><stop offset="1" stop-color="#C42482"/></radialGradient><radialGradient id="paint4_radial" cx="0" cy="0" r="1" gradientUnits="userSpaceOnUse" gradientTransform="matrix(18.22333 .99555 -1.00269 18.35393 32.07 7.29)"><stop offset=".003" stop-color="#FFE900"/><stop offset=".157" stop-color="#FFAF0E"/><stop offset=".316" stop-color="#FF7A1B"/><stop offset=".472" stop-color="#FF4E26"/><stop offset=".621" stop-color="#FF2C2E"/><stop offset=".762" stop-color="#FF1434"/><stop offset=".892" stop-color="#FF0538"/><stop offset="1" stop-color="#FF0039"/></radialGradient><radialGradient id="paint5_radial" cx="0" cy="0" r="1" gradientUnits="userSpaceOnUse" gradientTransform="matrix(16.72181 3.16282 -3.08466 16.30854 17.672 30.982)"><stop offset=".003" stop-color="#FF272D"/><stop offset=".497" stop-color="#C42482"/><stop offset=".986" stop-color="#620700"/></radialGradient><radialGradient id="paint6_radial" cx="0" cy="0" r="1" gradientUnits="userSpaceOnUse" gradientTransform="matrix(33.1701 0 0 33.1585 28.082 12.693)"><stop stop-color="#FFEA00"/><stop offset=".231" stop-color="#FFDE00"/><stop offset=".365" stop-color="#FFBF00"/><stop offset=".541" stop-color="#FF8E00"/><stop offset=".763" stop-color="#FF272D"/><stop offset=".796" stop-color="#F92433"/><stop offset=".841" stop-color="#E91C45"/><stop offset=".893" stop-color="#CF0E62"/><stop offset="1" stop-color="#B5007F"/></radialGradient><radialGradient id="paint0_radial" cx="0" cy="0" r="1" gradientUnits="userSpaceOnUse" gradientTransform="matrix(11.52429 .1866 -.18692 11.54419 30.08 3.664)"><stop offset=".045" stop-color="#FFEA00"/><stop offset=".12" stop-color="#FFDE00"/><stop offset=".254" stop-color="#FFBF00"/><stop offset=".429" stop-color="#FF8E00"/><stop offset=".769" stop-color="#FF272D"/><stop offset=".872" stop-color="#E0255A"/><stop offset=".953" stop-color="#CC2477"/><stop offset="1" stop-color="#C42482"/></radialGradient><radialGradient id="paint1_radial" cx="0" cy="0" r="1" gradientUnits="userSpaceOnUse" gradientTransform="translate(22.243 6.445) scale(30.5096)"><stop stop-color="#00CCDA"/><stop offset=".22" stop-color="#0083FF"/><stop offset=".261" stop-color="#007AF9"/><stop offset=".33" stop-color="#0060E8"/><stop offset=".333" stop-color="#005FE7"/><stop offset=".438" stop-color="#2639AD"/><stop offset=".522" stop-color="#401E84"/><stop offset="1" stop-color="#4A1475"/></radialGradient><linearGradient id="paint2_linear" x1="17.899" y1="24.454" x2="11.539" y2="3.653" gradientUnits="userSpaceOnUse"><stop stop-color="#000F43" stop-opacity=".4"/><stop offset=".485" stop-color="#001962" stop-opacity=".173"/><stop offset="1" stop-color="#002079" stop-opacity="0"/></linearGradient><linearGradient id="paint8_linear" x1="7.783" y1="11.901" x2="17.038" y2="10.512" gradientUnits="userSpaceOnUse"><stop stop-color="#C42482" stop-opacity=".5"/><stop offset=".474" stop-color="#FF272D" stop-opacity=".5"/><stop offset=".486" stop-color="#FF2C2C" stop-opacity=".513"/><stop offset=".675" stop-color="#FF7A1A" stop-opacity=".72"/><stop offset=".829" stop-color="#FFB20D" stop-opacity=".871"/><stop offset=".942" stop-color="#FFD605" stop-opacity=".964"/><stop offset="1" stop-color="#FFE302"/></linearGradient><linearGradient id="paint9_linear" x1="4.688" y1="8.715" x2="3.389" y2="4.057" gradientUnits="userSpaceOnUse"><stop stop-color="#891551" stop-opacity=".6"/><stop offset="1" stop-color="#C42482" stop-opacity="0"/></linearGradient><linearGradient id="paint10_linear" x1="8.718" y1="15.727" x2="11.074" y2="19.015" gradientUnits="userSpaceOnUse"><stop offset=".005" stop-color="#891551" stop-opacity=".5"/><stop offset=".484" stop-color="#FF272D" stop-opacity=".5"/><stop offset="1" stop-color="#FF272D" stop-opacity="0"/></linearGradient><linearGradient id="paint11_linear" x1="12.715" y1="20.895" x2="12.748" y2="20.571" gradientUnits="userSpaceOnUse"><stop stop-color="#C42482"/><stop offset=".083" stop-color="#C42482" stop-opacity=".81"/><stop offset=".206" stop-color="#C42482" stop-opacity=".565"/><stop offset=".328" stop-color="#C42482" stop-opacity=".362"/><stop offset=".447" stop-color="#C42482" stop-opacity=".204"/><stop offset=".562" stop-color="#C42482" stop-opacity=".091"/><stop offset=".673" stop-color="#C42482" stop-opacity=".023"/><stop offset=".773" stop-color="#C42482" stop-opacity="0"/></linearGradient><linearGradient id="paint12_linear" x1="24.934" y1="1.211" x2="33.834" y2="21.109" gradientUnits="userSpaceOnUse"><stop stop-color="#FFF14F"/><stop offset=".268" stop-color="#FFEE4C"/><stop offset=".452" stop-color="#FFE643"/><stop offset=".612" stop-color="#FFD834"/><stop offset=".757" stop-color="#FFC41E"/><stop offset=".892" stop-color="#FFAB02"/><stop offset=".902" stop-color="#FFA900"/><stop offset=".949" stop-color="#FFA000"/><stop offset="1" stop-color="#FF9100"/></linearGradient><linearGradient id="paint13_linear" x1="22.548" y1="14.394" x2="17.739" y2="27.305" gradientUnits="userSpaceOnUse"><stop stop-color="#FF8E00"/><stop offset=".04" stop-color="#FF8E00" stop-opacity=".858"/><stop offset=".084" stop-color="#FF8E00" stop-opacity=".729"/><stop offset=".13" stop-color="#FF8E00" stop-opacity=".628"/><stop offset=".178" stop-color="#FF8E00" stop-opacity=".557"/><stop offset=".227" stop-color="#FF8E00" stop-opacity=".514"/><stop offset=".282" stop-color="#FF8E00" stop-opacity=".5"/><stop offset=".389" stop-color="#FF8E00" stop-opacity=".478"/><stop offset=".524" stop-color="#FF8E00" stop-opacity=".416"/><stop offset=".676" stop-color="#FF8E00" stop-opacity=".314"/><stop offset=".838" stop-color="#FF8E00" stop-opacity=".172"/><stop offset="1" stop-color="#FF8E00" stop-opacity="0"/></linearGradient></defs></svg>