<svg width="150" height="48" fill="none" xmlns="http://www.w3.org/2000/svg"><path d="M69.63 26.684H53.162c-.748 0-1.315.657-1.18 1.382l.069.476c.113.634.295 1.246.544 1.857.386.93.998 1.745 1.837 2.47.817.724 1.974 1.064 3.448 1.064s2.608-.362 3.447-1.065a7.034 7.034 0 001.542-1.88 1.19 1.19 0 011.021-.589h4.604c.84 0 1.406.838 1.134 1.609a9.168 9.168 0 01-.748 1.653c-.522.929-1.089 1.745-1.724 2.424-.635.68-1.293 1.246-2.019 1.699-.725.453-1.406.816-2.086 1.11-1.656.634-3.38.974-5.217.974-2.404-.045-4.536-.544-6.396-1.495a13.646 13.646 0 01-2.336-1.631c-.77-.657-1.451-1.495-2.04-2.492-.59-.996-1.067-2.197-1.43-3.602-.363-1.404-.544-3.012-.544-4.892 0-1.858.181-3.489.544-4.893.363-1.405.84-2.605 1.43-3.625.589-1.019 1.27-1.857 2.04-2.537a12.642 12.642 0 012.336-1.653c1.838-.997 3.947-1.518 6.328-1.608h.136c1.95.09 3.765.498 5.466 1.223a12.03 12.03 0 012.178 1.268 10.815 10.815 0 012.041 1.926c.635.77 1.18 1.676 1.656 2.74a13.968 13.968 0 011.043 3.67c.068.544.136 1.088.181 1.654.046.566.091 1.178.091 1.835.023-.046.159.928-.93.928zm-7.848-4.462c.862 0 1.474-.906 1.089-1.676 0 0 0-.023-.023-.023a5.642 5.642 0 00-1.112-1.563 5.588 5.588 0 00-1.655-1.11c-.635-.272-1.406-.408-2.246-.408-.861 0-1.61.136-2.245.408-.635.272-1.202.634-1.656 1.11a5.88 5.88 0 00-1.134 1.563v.023c-.385.793.227 1.699 1.089 1.699h7.893v-.023zM41.8 0a6.54 6.54 0 00-6.554 6.546v18.96c0 .793-.046 1.586-.136 2.424a6.158 6.158 0 01-.68 2.243c-.364.68-.908 1.246-1.634 1.699-.726.453-1.769.68-3.084.68-1.316 0-2.36-.227-3.085-.68-.726-.453-1.27-1.02-1.633-1.7a6.16 6.16 0 01-.68-2.242 22.017 22.017 0 01-.137-2.424V5.958a6.54 6.54 0 00-6.554 6.546v12.98c0 .793-.046 1.585-.136 2.423a6.16 6.16 0 01-.68 2.243c-.363.68-.908 1.246-1.634 1.699-.725.453-1.769.68-3.084.68-1.316 0-2.359-.227-3.085-.68-.726-.453-1.27-1.02-1.633-1.699a6.16 6.16 0 01-.68-2.242 22.01 22.01 0 01-.136-2.424V11.915A6.554 6.554 0 000 18.462v7.022c0 1.857.181 3.488.544 4.893.363 1.404.817 2.605 1.361 3.624.567 1.02 1.202 1.858 1.928 2.537a12.01 12.01 0 002.223 1.654c1.746.996 3.765 1.54 6.01 1.608 2.29-.068 4.31-.612 6.079-1.608a11.18 11.18 0 002.744-2.22c.181.204.363.385.544.566.726.68 1.474 1.223 2.223 1.654 1.746.996 3.765 1.54 6.01 1.608 2.291-.068 4.31-.612 6.079-1.608.748-.43 1.497-.974 2.2-1.654.725-.68 1.36-1.518 1.928-2.537.567-1.02 1.02-2.22 1.36-3.624.34-1.405.5-3.013.5-4.893L41.8 0z" fill="#A12B52"/><path d="M90.428 38.146a1.294 1.294 0 01-1.225.883h-6.895a1.316 1.316 0 01-1.225-.883l-8.006-24.532a1.274 1.274 0 011.225-1.677h3.878c.544 0 1.043.363 1.225.884l5.126 15.653c.385 1.177 2.04 1.177 2.426 0l2.949-9.016L94.85 4.326c1.089-3.284 4.627-5.096 7.916-4.01l-12.338 37.83zm31.616-21.089c-.59-1.02-1.27-1.858-2.041-2.537a12.633 12.633 0 00-2.336-1.654c-1.86-.997-3.969-1.54-6.305-1.608-2.246 0-4.151.34-5.716.997-1.565.656-2.858 1.608-3.878 2.831-1.021 1.223-1.747 2.718-2.223 4.485-.454 1.767-.703 3.76-.703 6.003v20.84c0 .883.703 1.586 1.587 1.586h3.176c.884 0 1.587-.703 1.587-1.586V35.926c.341.476.726.883 1.134 1.246.93.793 1.838 1.36 2.722 1.699.998.385 2.019.611 3.085.68h.249c2.155-.046 4.083-.544 5.761-1.496a11.89 11.89 0 002.177-1.63c.703-.657 1.316-1.496 1.883-2.492.544-.997.998-2.198 1.338-3.58.34-1.381.499-3.012.499-4.87 0-1.857-.181-3.465-.567-4.87-.363-1.359-.839-2.56-1.429-3.556zm-4.786 11.031a7.71 7.71 0 01-.861 2.583 5.516 5.516 0 01-1.838 1.993c-.793.544-1.859.793-3.175.793-1.315 0-2.381-.272-3.175-.793-.794-.544-1.429-1.2-1.883-1.993a7.285 7.285 0 01-.884-2.583 17.852 17.852 0 01-.204-2.56c0-.95.068-1.902.181-2.854.136-.95.386-1.789.794-2.56.408-.77 1.021-1.381 1.837-1.834.817-.453 1.928-.702 3.312-.702 1.315 0 2.381.272 3.175.793.794.543 1.429 1.2 1.837 1.993.431.793.703 1.676.862 2.582.136.93.204 1.79.204 2.56.023.793-.045 1.654-.182 2.582zm31.686-8.585c-.545-1.63-1.248-2.967-2.11-4.032-.861-1.065-1.791-1.88-2.789-2.447-.998-.566-1.951-.996-2.835-1.245a10.503 10.503 0 00-2.337-.453c-.657-.046-1.043-.046-1.156-.046-.136 0-.545.023-1.18.046a10.39 10.39 0 00-2.29.453c-.885.271-1.838.68-2.835 1.245-.998.567-1.928 1.382-2.79 2.447-.862 1.065-1.565 2.424-2.109 4.032-.545 1.631-.84 3.624-.84 6.003v12.096c0 .793.635 1.427 1.429 1.427h3.652c.794 0 1.429-.634 1.429-1.427V25.53c0-.793.068-1.586.204-2.402a6.765 6.765 0 01.794-2.242c.385-.68.952-1.246 1.655-1.677.703-.452 1.656-.656 2.835-.656 1.18 0 2.132.226 2.835.657.704.453 1.271.996 1.656 1.676.386.68.658 1.427.794 2.242.136.816.204 1.631.204 2.402v12.073c0 .793.635 1.427 1.429 1.427h3.742c.794 0 1.429-.634 1.429-1.427V25.53c0-2.402-.272-4.395-.816-6.026z" fill="#EF4273"/></svg>