<svg width="92" height="18" fill="none" xmlns="http://www.w3.org/2000/svg"><path d="M17.147 0H0v17.147h17.147V0zm18.576 0H18.576v17.147h17.147V0zm18.575 0H37.151v17.147h17.147V0zm18.577 0H55.727v17.147h17.148V0zM91.45 0H74.303v17.147H91.45V0z" fill="#00B67A"/><path d="M8.574 11.556l2.607-.661 1.09 3.358-3.697-2.697zm6-4.34h-4.59L8.573 2.894 7.162 7.216h-4.59l3.715 2.679-1.41 4.322L8.59 11.54l2.287-1.643 3.696-2.681zm12.575 4.34l2.608-.661 1.09 3.358-3.698-2.697zm6.001-4.34h-4.59l-1.41-4.322-1.411 4.322h-4.59l3.715 2.679-1.412 4.322 3.716-2.677 2.286-1.643 3.697-2.68v-.001zm12.574 4.34l2.608-.661 1.09 3.358-3.698-2.697zm6.002-4.34h-4.59l-1.412-4.322-1.411 4.322h-4.59l3.716 2.679-1.411 4.322 3.715-2.677 2.286-1.643 3.698-2.68-.001-.001zm12.574 4.34l2.612-.661L68 14.253l-3.7-2.697zm5.999-4.34H65.71L64.3 2.894l-1.412 4.322h-4.59l3.715 2.679-1.411 4.322 3.715-2.677 2.286-1.643L70.3 7.216zm12.581 4.34l2.605-.661 1.089 3.358-3.694-2.697zm6.001-4.34h-4.59L82.88 2.894l-1.412 4.322h-4.593l3.715 2.679-1.411 4.322 3.715-2.677 2.286-1.643 3.698-2.68.003-.001z" fill="#fff"/></svg>