<svg width="92" height="18" viewBox="0 0 92 18" fill="none" xmlns="http://www.w3.org/2000/svg">
<path d="M17.1471 0H0V17.1471H17.1471V0Z" fill="#00B67A"/>
<path d="M35.7233 0H18.5762V17.1471H35.7233V0Z" fill="#00B67A"/>
<path d="M54.2985 0H37.1514V17.1471H54.2985V0Z" fill="#00B67A"/>
<path d="M72.8747 0H55.7275V17.1471H72.8747V0Z" fill="#00B67A"/>
<path d="M91.4499 0H74.3027V17.1471H91.4499V0Z" fill="#00B67A"/>
<path d="M8.57372 11.5562L11.1809 10.895L12.2704 14.2529L8.57372 11.5562ZM14.5744 7.21603H9.98417L8.57292 2.89355L7.16166 7.21603H2.57227L6.28749 9.89499L4.87624 14.2175L8.59147 11.5401L10.8777 9.8966L14.5744 7.21603Z" fill="white"/>
<path d="M27.1489 11.5562L29.7569 10.895L30.8464 14.2529L27.1489 11.5562ZM33.1504 7.21603H28.5602L27.1489 2.89355L25.7377 7.21603H21.1475L24.8627 9.89499L23.4514 14.2175L27.1667 11.5401L29.4529 9.8966L33.1504 7.21764V7.21603Z" fill="white"/>
<path d="M45.7243 11.5562L48.3323 10.895L49.4218 14.2529L45.7243 11.5562ZM51.7257 7.21603H47.1355L45.7243 2.89355L44.313 7.21603H39.7236L43.4389 9.89499L42.0276 14.2175L45.7428 11.5401L48.0291 9.8966L51.7266 7.21764L51.7257 7.21603Z" fill="white"/>
<path d="M64.3003 11.5562L66.9115 10.895L68.001 14.2529L64.3003 11.5562ZM70.2985 7.21603H65.7115L64.3003 2.89355L62.889 7.21603H58.2988L62.0141 9.89499L60.6028 14.2175L64.318 11.5401L66.6043 9.8966L70.2985 7.21603Z" fill="white"/>
<path d="M82.8797 11.5562L85.4845 10.895L86.574 14.2529L82.8797 11.5562ZM88.8812 7.21603H84.2909L82.8797 2.89355L81.4684 7.21603H76.875L80.5902 9.89499L79.179 14.2175L82.8942 11.5401L85.1804 9.8966L88.8779 7.21764L88.8812 7.21603Z" fill="white"/>
</svg>
