<svg width="25" height="26" viewBox="0 0 25 26" fill="none" xmlns="http://www.w3.org/2000/svg">
<path d="M17.985 17L23.544 13.957C24.172 13.613 24.831 12.736 23.544 12.034L17.982 9L14 13.012L17.985 17Z" fill="#F49C71"/>
<path d="M13.735 13L1 25.833C1.288 25.869 1.634 25.793 2.031 25.575L17.721 16.987L13.735 13Z" fill="#D54A6D"/>
<path d="M13.745 12.777L17.726 8.76497L2.041 0.206975C1.7 0.020975 1.329 -0.0430245 1 0.0289755L13.745 12.777Z" fill="#ADD69E"/>
<path d="M13.703 12.748L0.958 0C0.431 0.117 0 0.573 0 1.489V24.05C0 24.912 0.339999 25.519 0.966999 25.58L13.703 12.747V12.748Z" fill="#24B9C2"/>
</svg>
