<svg width="200" height="200" fill="none" xmlns="http://www.w3.org/2000/svg"><path d="M184.486 152.139l-8.088 3.438c-2.466.982-4.242 3.242-4.735 5.894l-1.578 8.645c-.592 3.536-3.65 6.189-7.2 6.483l-8.779.59c-2.663.196-5.03 1.67-6.313 4.027l-4.241 7.663c-1.775 3.143-5.425 4.715-8.976 3.732l-8.483-2.259c-2.564-.688-5.326 0-7.299 1.768l-6.51 5.894c-2.663 2.358-6.707 2.653-9.666.688l-7.299-4.912a7.83 7.83 0 00-7.496-.687l-8.088 3.438c-3.354 1.375-7.2.393-9.37-2.456l-5.327-6.975c-1.578-2.161-4.143-3.241-6.806-3.143l-8.778.589c-3.65.295-6.905-1.964-8.089-5.403l-2.761-8.35c-.79-2.554-2.86-4.42-5.425-5.108l-8.483-2.259c-3.452-.884-5.918-4.126-5.82-7.663l.1-8.742c0-2.653-1.283-5.109-3.453-6.68l-7.3-4.912c-2.958-1.965-4.24-5.796-3.057-9.136l2.96-8.252c.887-2.456.492-5.304-1.184-7.367l-5.327-6.975c-2.17-2.849-2.17-6.876.099-9.627l5.524-6.876c1.676-2.063 2.17-4.814 1.38-7.368l-2.761-8.35c-1.184-3.831.098-7.564 3.156-9.529l7.398-4.715c2.268-1.375 3.65-3.831 3.65-6.582l.098-8.743c0-3.634 2.564-6.68 6.017-7.564l8.58-2.063c2.565-.59 4.735-2.456 5.623-5.01l2.96-8.251c1.183-3.439 4.635-5.501 8.186-5.207l8.779.884c2.663.295 5.227-.884 6.904-2.947l5.524-6.876C75 2.036 78.847 1.152 82.2 2.625l7.99 3.635c2.465 1.375 5.325 1.179 7.594-.295l7.398-4.715c3.057-1.965 7.003-1.572 9.666.884l6.411 5.993c1.973 1.866 4.636 2.554 7.299 1.964l8.582-2.063c3.551-.884 7.2.786 8.778 4.028l4.044 7.76c1.283 2.358 3.551 3.93 6.214 4.225l8.779.785c3.551.295 6.51 3.046 7.003 6.68l1.282 8.645c.395 2.652 2.072 4.912 4.537 5.992l7.99 3.635c3.255 1.474 5.129 5.01 4.537 8.547l-1.578 8.644c-.493 2.653.395 5.305 2.367 7.073l6.412 5.992c2.663 2.456 3.255 6.386 1.479 9.53l-4.34 7.662c-1.282 2.357-1.381 5.108-.098 7.465l4.142 7.761c1.677 3.143.987 7.073-1.775 9.529l-6.609 5.796a7.937 7.937 0 00-2.564 7.072l1.381 8.645c.591 3.733-1.283 7.171-4.636 8.645z" fill="#FD3E72"/><path d="M99.955 155.381c30.288 0 54.842-24.454 54.842-54.619s-24.554-54.618-54.842-54.618-54.841 24.453-54.841 54.618c0 30.165 24.553 54.619 54.841 54.619z" fill="#F9F8F4"/><path d="M41.76 44.475l11.54 9.037-1.775 2.26-7.2-5.6 2.761 6.68-1.183 1.474-7.2-1.08 7.2 5.598-1.776 2.26-11.639-8.94 1.776-2.259 9.37 1.572-3.847-8.645 1.973-2.357zm16.176 4.715c-.986.294-1.874.294-2.86.196-.986-.098-1.776-.491-2.663-.982-.888-.491-1.578-1.179-2.269-2.063-.69-.884-1.085-1.768-1.38-2.75-.297-.983-.395-1.867-.198-2.85a5.85 5.85 0 01.986-2.652 6.482 6.482 0 012.072-2.26c.887-.687 1.775-1.08 2.663-1.375.986-.294 1.874-.294 2.86-.196a5.903 5.903 0 012.663.982 6.49 6.49 0 012.27 2.063c.69.884 1.183 1.769 1.38 2.75.296.983.296 1.966.197 2.85-.098.884-.493 1.768-.986 2.652-.493.884-1.184 1.572-2.072 2.26-.69.589-1.676 1.08-2.663 1.375zm2.368-4.912c.295-.491.493-1.08.493-1.67 0-.59 0-1.179-.197-1.768a7.421 7.421 0 00-.888-1.769c-.592-.687-1.184-1.277-1.973-1.571-.789-.393-1.48-.492-2.268-.393-.79.098-1.48.393-2.17.884s-1.184 1.179-1.48 1.965c-.296.785-.395 1.571-.197 2.357.098.786.493 1.572.986 2.26.493.687 1.184 1.277 1.973 1.571.789.393 1.48.492 2.367.393.888-.098 1.578-.393 2.269-.884a7.455 7.455 0 001.085-1.375zm13.414-20.433l6.017 13.36-2.762 1.178-9.864-6.287 3.946 8.842-2.663 1.178-6.017-13.36 2.663-1.178L75.1 33.963l-4.044-9.038 2.663-1.08zm5.326-1.67l9.174-2.063.591 2.554-6.411 1.376.79 3.438 5.128-1.08.592 2.455-5.13 1.179.691 3.34 6.806-1.474.592 2.555-9.666 2.16-3.157-14.44zm25.744-3.046l-4.636 8.35.197 6.483-2.959.099-.197-6.484-5.129-8.055 3.354-.098 3.156 5.304 2.762-5.403 3.452-.196zm18.149 11.69c.394.785.394 1.571.197 2.554-.099.59-.394 1.08-.69 1.473a4.204 4.204 0 01-1.184 1.08c-.493.295-.986.394-1.677.492-.69.098-1.381 0-2.071-.197l-5.918-1.473 3.452-14.244 5.228 1.179c1.479.393 2.564.982 3.255 1.768.69.786.887 1.768.591 2.849a3.248 3.248 0 01-.493 1.179c-.197.393-.592.687-.986.982-.395.295-.888.393-1.48.491.888.491 1.48 1.08 1.776 1.867zm-4.241 2.75c.394 0 .789-.196 1.085-.393.295-.196.493-.491.591-.884.099-.59 0-1.08-.296-1.473-.394-.393-.887-.786-1.775-.983l-2.269-.59-.887 3.636 2.17.589c.493.098.986.098 1.381.098zm-2.269-6.68l2.071.491c.395.099.789.099 1.085.099.296 0 .691-.197.888-.393.296-.197.493-.491.493-.884.099-.295.099-.688 0-.885-.099-.294-.296-.49-.592-.785-.296-.197-.789-.393-1.282-.492l-1.874-.49-.789 3.34zm16.275 11.789l-5.129-2.357-2.17 2.26-2.761-1.278 11.145-11.002 2.565 1.179-1.184 15.619-2.761-1.277.295-3.144zm.296-2.652l.592-6.09-4.241 4.42 3.649 1.67zm6.411 9.921c-.493-.59-.887-1.277-1.085-1.965-.296-.687-.394-1.473-.394-2.16 0-.787.098-1.474.394-2.358a9.273 9.273 0 011.283-2.358 9.594 9.594 0 011.676-1.768c.592-.491 1.283-.884 1.973-1.08.69-.296 1.48-.394 2.17-.394s1.48.099 2.367.393c.888.295 1.578.688 2.368 1.277a5.275 5.275 0 011.479 1.474c.395.59.789 1.179 1.085 1.964.296.786.493 1.572.493 2.358l-2.762.197c0-.688-.197-1.376-.493-2.063-.296-.688-.789-1.18-1.381-1.67-.296-.197-.591-.393-.887-.491a12.39 12.39 0 00-.987-.295c-.296-.099-.69-.099-.986-.099-.296 0-.691.099-.986.197-.296.098-.592.197-.888.393-.296.196-.592.393-.888.688-.296.294-.592.589-.789.884-.493.687-.888 1.473-.986 2.26-.099.785 0 1.57.296 2.258a4.458 4.458 0 001.479 1.867c.592.393 1.282.688 1.973.786.69.098 1.479.098 2.17-.098l.592 2.75c-1.085.295-2.072.295-3.255.098-1.184-.196-2.17-.589-3.157-1.375-.789-.491-1.381-1.08-1.874-1.67zm14.894 5.599l-2.269.099-3.156 2.75-1.973-2.161 11.047-9.725 1.973 2.161-4.833 4.322 8.285-.49 2.466 2.75-8.482.294-2.368 9.627-2.367-2.652 1.677-6.975zM45.41 159.408c-.494-.884-.69-1.769-.79-2.653-.098-.884 0-1.866.395-2.75.296-.983.888-1.867 1.677-2.751.69-.786 1.48-1.375 2.367-1.866.888-.491 1.776-.688 2.663-.786.888-.098 1.874 0 2.762.393.986.294 1.874.884 2.663 1.572a8.44 8.44 0 011.973 2.554c.493.982.69 2.063.79 3.143l-2.664-.098c-.099-1.474-.69-2.652-1.776-3.635a5.906 5.906 0 00-1.48-.884 3.175 3.175 0 00-1.676-.196c-.592 0-1.085.196-1.677.491-.592.295-1.085.687-1.578 1.277-.592.688-.986 1.375-1.183 2.161a4.77 4.77 0 000 2.358c.197.786.69 1.473 1.38 2.063a6.124 6.124 0 002.762 1.375l1.381-1.572-2.466-2.161 1.677-1.866 4.537 4.027-4.142 4.715c-.888 0-1.776-.294-2.762-.687-.987-.393-1.874-.983-2.762-1.768-1.085-.885-1.677-1.67-2.071-2.456zm13.217 10.118c-.493-.589-.79-1.277-.986-1.964-.198-.688-.198-1.474-.1-2.26.1-.786.494-1.67.987-2.554l4.242-7.466 2.564 1.474-4.241 7.367c-.395.59-.592 1.179-.592 1.769-.099.589 0 1.178.197 1.67.197.491.592.884 1.184 1.178.789.492 1.578.492 2.367.197.79-.295 1.48-.982 2.071-1.965l4.143-7.269 2.565 1.473-4.242 7.466c-.591 1.081-1.38 1.965-2.268 2.554-.888.59-1.776.884-2.86.884-.987 0-2.072-.294-3.157-.884-.69-.491-1.381-1.08-1.874-1.67zm20.023 5.992l-5.327-1.768-1.874 2.456-2.86-.982 9.765-12.083 2.663.884.493 15.521-2.86-.983v-3.045zm-.099-2.652v-6.091l-3.65 4.814 3.65 1.277zm14.499 8.35l-2.564-5.403-1.677-.196-.69 4.912-2.86-.393 1.873-14.441 5.524.688c.888.098 1.578.295 2.17.688a4.355 4.355 0 011.48 1.178c.295.492.591 1.081.69 1.67.099.59.099 1.277.099 1.965a5.755 5.755 0 01-.592 1.965 2.99 2.99 0 01-1.184 1.277c-.493.295-1.085.589-1.677.687l2.86 5.698-3.451-.295zm-3.945-8.055l1.973.295c.888.098 1.578 0 2.071-.295.493-.295.79-.884.888-1.572.098-.687-.099-1.277-.493-1.67-.395-.491-.987-.785-1.874-.884l-2.17-.294-.395 4.42zm19.629 5.206l-5.623.393-.789 2.947-3.057.197 4.438-14.834 2.762-.196 6.313 14.244-3.058.197-.986-2.948zm-.987-2.455l-2.367-5.6-1.578 5.796 3.945-.196zm17.163-12.968l3.846 14.048-2.86.786-8.779-7.564 2.565 9.332-2.762.786-3.847-14.048 2.762-.786 8.877 7.761-2.663-9.529 2.861-.786zm5.918 0l-3.649 1.768-1.184-2.358 9.864-4.912 1.183 2.358-3.649 1.768 5.326 10.708-2.564 1.277-5.327-10.609zm6.115-6.188l7.497-5.501 1.578 2.063-5.228 3.831 2.071 2.849 4.242-3.045 1.479 2.062-4.241 3.046 1.973 2.75 5.622-4.126 1.578 2.063-7.891 5.796-8.68-11.788zm9.174-6.877l6.51-6.68 1.874 1.768-4.538 4.716 2.565 2.456 3.65-3.733 1.874 1.768-3.65 3.733 2.466 2.357 4.833-5.01 1.874 1.769-6.806 7.073-10.652-10.217z" fill="#fff"/><path d="M93.84 103.415c1.183 1.769 1.775 3.832 1.775 6.189 0 2.358-.592 4.519-1.874 6.287-1.282 1.867-2.96 3.242-5.129 4.224-2.17.983-4.636 1.474-7.3 1.474-3.649 0-6.805-.884-9.468-2.554-2.663-1.67-4.537-3.93-5.622-6.68l7.299-3.045c1.183 3.143 3.65 4.715 7.299 4.715 1.775 0 3.255-.491 4.438-1.572 1.184-1.08 1.776-2.358 1.776-4.028 0-1.571-.592-2.947-1.776-4.027-1.183-1.081-2.959-1.572-5.129-1.572h-3.057v-6.778h3.748c1.775 0 3.156-.491 4.044-1.375.887-.885 1.38-2.162 1.38-3.537 0-1.473-.493-2.75-1.578-3.733-1.084-.982-2.367-1.473-3.945-1.473-2.762 0-4.833 1.178-6.214 3.536L67.8 85.93c.986-2.26 2.663-4.028 4.932-5.403 2.367-1.376 5.03-2.063 8.088-2.063 1.874 0 3.65.295 5.326.786 1.677.49 3.058 1.179 4.34 2.16 1.184.983 2.17 2.162 2.86 3.537a11.126 11.126 0 011.085 4.814c0 2.063-.493 3.831-1.38 5.501-.888 1.67-2.269 2.947-4.044 4.028v.196c1.972.884 3.649 2.161 4.833 3.929zm17.064 16.7c-2.072-.983-3.749-2.358-5.228-4.224-1.48-1.867-2.565-4.126-3.354-6.779-.789-2.652-1.183-5.796-1.183-9.135 0-3.242.394-6.091 1.183-8.842.789-2.75 1.874-4.911 3.255-6.876 1.381-1.867 3.157-3.34 5.228-4.42 2.071-1.081 4.34-1.572 6.904-1.572 2.466 0 4.735.49 6.708 1.473 2.071.983 3.748 2.358 5.227 4.224 1.48 1.867 2.565 4.126 3.354 6.778.789 2.653 1.184 5.796 1.184 9.136 0 4.323-.691 8.056-1.973 11.297-1.282 3.242-3.255 5.796-5.721 7.564-2.466 1.769-5.425 2.751-8.779 2.751-2.564.098-4.734-.393-6.805-1.375zm12.625-9.824c1.381-2.357 2.071-5.796 2.071-10.216 0-4.323-.69-7.663-2.071-10.118-1.381-2.456-3.354-3.733-5.82-3.733-2.465 0-4.438 1.178-5.819 3.634-1.381 2.358-2.17 5.796-2.17 10.217 0 2.849.296 5.304.888 7.367.592 2.063 1.578 3.635 2.761 4.814 1.184 1.08 2.664 1.67 4.242 1.67 2.564-.098 4.438-1.277 5.918-3.635z" fill="#353438"/><path d="M99.955 50.467l2.17 6.581h7.003l-5.721 3.733 2.17 6.386-5.622-4.126-5.721 4.028 2.17-6.288-5.622-3.733h7.003l2.17-6.581zm17.754 8.743l1.48 4.715h5.03l-4.044 2.456 1.578 4.519-4.044-3.045-4.143 2.848 1.579-4.322-4.044-2.456h5.03l1.578-4.715zm-35.509 0l1.48 4.715h5.03l-4.044 2.456 1.578 4.519-4.044-3.045-4.142 2.848 1.578-4.322-4.044-2.456h5.03L82.2 59.21z" fill="#FD3E72"/><path d="M81.549 141h3.804c.899 0 1.72-.133 2.454-.414.734-.274 1.343-.656 1.843-1.156.5-.5.883-1.094 1.149-1.797a6.386 6.386 0 00.406-2.297 6.17 6.17 0 00-.422-2.305 5.205 5.205 0 00-1.18-1.804c-.507-.5-1.132-.891-1.867-1.172-.734-.282-1.547-.422-2.43-.422H81.55V141zm2.219-2.008v-7.344h1.585c.672 0 1.274.164 1.813.477.531.313.953.75 1.25 1.313.297.562.453 1.195.453 1.898 0 .516-.094 1-.266 1.445a3.436 3.436 0 01-.734 1.164 3.334 3.334 0 01-1.156.766 3.953 3.953 0 01-1.5.281h-1.445zM99.932 141h2.351l-4.226-11.367h-2.172L91.674 141h2.351l.774-2.273h4.36l.773 2.273zm-4.485-4.195l1.516-4.461h.016l1.523 4.461h-3.055zm13.227-7.172l-2.289 4.148h-.031l-2.313-4.148h-2.578l3.758 6.375V141h2.273v-4.992l3.781-6.375h-2.601zm7.258 11.5c.382 0 .757-.039 1.132-.117a4.077 4.077 0 001.079-.399 3.85 3.85 0 00.929-.672c.266-.265.477-.593.641-.992.156-.398.242-.836.242-1.32 0-.469-.078-.875-.219-1.235-.234-.562-.711-1.039-1.414-1.429-.312-.164-.937-.43-1.883-.805a11.141 11.141 0 01-.71-.281 7.924 7.924 0 01-.524-.258 1.531 1.531 0 01-.391-.281.923.923 0 01-.21-.313.855.855 0 01-.079-.383c0-.351.133-.632.383-.836.25-.203.578-.304.985-.304.734 0 1.562.375 2.476 1.117l1.297-1.695c-1.18-.969-2.453-1.446-3.828-1.43a4.26 4.26 0 00-1.844.445 3.31 3.31 0 00-1.32 1.164 2.925 2.925 0 00-.485 1.641 3.157 3.157 0 00.375 1.539c.11.203.258.391.438.57.18.18.359.336.547.461.18.125.398.258.648.383s.477.235.696.313c.211.086.453.179.734.273.305.109.555.195.742.273.188.079.367.165.539.258.172.094.305.196.399.289.093.102.164.219.218.344.047.133.079.281.079.445 0 .243-.063.454-.18.625-.125.18-.305.321-.555.422-.25.11-.547.157-.898.157-.235 0-.469-.024-.703-.086a3.385 3.385 0 01-.727-.258 3.684 3.684 0 01-.727-.446 3.914 3.914 0 01-.671-.632l-1.352 1.664a5.753 5.753 0 001.938 1.344c.71.296 1.445.445 2.203.445z" fill="#353438"/><path d="M27.458 104.79c2.56 0 4.636-2.067 4.636-4.617s-2.076-4.617-4.636-4.617-4.636 2.067-4.636 4.617 2.076 4.617 4.636 4.617zm146.967 0c2.56 0 4.636-2.067 4.636-4.617s-2.076-4.617-4.636-4.617-4.636 2.067-4.636 4.617 2.076 4.617 4.636 4.617z" fill="#fff"/></svg>