<svg width="200" height="200" viewBox="0 0 200 200" fill="none" xmlns="http://www.w3.org/2000/svg">
<path d="M184.486 152.139L176.398 155.577C173.932 156.559 172.156 158.819 171.663 161.471L170.085 170.116C169.493 173.652 166.435 176.305 162.885 176.599L154.106 177.189C151.443 177.385 149.076 178.859 147.793 181.216L143.552 188.879C141.777 192.022 138.127 193.594 134.576 192.611L126.093 190.352C123.529 189.664 120.767 190.352 118.794 192.12L112.284 198.014C109.621 200.372 105.577 200.667 102.618 198.702L95.3191 193.79C93.1492 192.317 90.2887 192.022 87.8228 193.103L79.7347 196.541C76.3811 197.916 72.5343 196.934 70.3643 194.085L65.038 187.11C63.4599 184.949 60.8953 183.869 58.2322 183.967L49.4536 184.556C45.8041 184.851 42.5491 182.592 41.3655 179.153L38.6037 170.803C37.8146 168.249 35.7433 166.383 33.1787 165.695L24.6961 163.436C21.2438 162.552 18.778 159.31 18.8766 155.773L18.9752 147.031C18.9752 144.378 17.693 141.922 15.523 140.351L8.22394 135.439C5.26488 133.474 3.98262 129.643 5.16624 126.303L8.12531 118.051C9.01303 115.595 8.61849 112.747 6.94168 110.684L1.61536 103.709C-0.55462 100.86 -0.55462 96.8326 1.714 94.082L7.23759 87.2056C8.9144 85.1426 9.40757 82.3921 8.61849 79.838L5.85669 71.488C4.67307 67.6568 5.95533 63.9239 9.01303 61.9592L16.4107 57.244C18.6793 55.8687 20.0602 53.4128 20.0602 50.6622L20.1588 41.9193C20.1588 38.2846 22.7234 35.2394 26.1756 34.3553L34.7569 32.2923C37.3214 31.7029 39.4914 29.8365 40.3791 27.2824L43.3382 19.0306C44.5218 15.5924 47.9741 13.5295 51.525 13.8242L60.3035 14.7083C62.9667 15.003 65.5312 13.8242 67.208 11.7613L72.7316 4.88482C75.0002 2.03601 78.847 1.1519 82.2006 2.62542L90.1901 6.26011C92.656 7.63539 95.5164 7.43892 97.785 5.9654L105.183 1.25013C108.24 -0.714563 112.186 -0.321625 114.849 2.13424L121.26 8.12657C123.233 9.99303 125.896 10.6807 128.559 10.0913L137.141 8.02833C140.692 7.14422 144.341 8.81421 145.919 12.056L149.963 19.8165C151.246 22.1741 153.514 23.7459 156.177 24.0406L164.956 24.8265C168.507 25.1212 171.466 27.8718 171.959 31.5064L173.241 40.1511C173.636 42.8034 175.313 45.0628 177.778 46.1434L185.768 49.7781C189.023 51.2516 190.897 54.7881 190.305 58.3245L188.727 66.9692C188.234 69.6215 189.122 72.2739 191.094 74.0421L197.506 80.0344C200.169 82.4903 200.761 86.4197 198.985 89.5632L194.645 97.2255C193.363 99.5832 193.264 102.334 194.547 104.691L198.689 112.452C200.366 115.595 199.676 119.525 196.914 121.981L190.305 127.777C188.332 129.545 187.346 132.197 187.741 134.849L189.122 143.494C189.713 147.227 187.839 150.665 184.486 152.139Z" fill="#FD3E72"/>
<path d="M99.9551 155.381C130.243 155.381 154.797 130.927 154.797 100.762C154.797 70.5971 130.243 46.1436 99.9551 46.1436C69.6671 46.1436 45.1138 70.5971 45.1138 100.762C45.1138 130.927 69.6671 155.381 99.9551 155.381Z" fill="#F9F8F4"/>
<path d="M41.76 44.4746L53.3004 53.5122L51.5249 55.7716L44.3246 50.1722L47.0863 56.8522L45.9027 58.3257L38.7023 57.2451L45.9027 62.8445L44.1273 65.1039L32.4883 56.1645L34.2637 53.9051L43.6341 55.4769L39.7873 46.8322L41.76 44.4746Z" fill="white"/>
<path d="M57.9364 49.1897C56.95 49.4844 56.0623 49.4844 55.076 49.3861C54.0896 49.2879 53.3005 48.895 52.4128 48.4038C51.5251 47.9126 50.8346 47.225 50.1442 46.3409C49.4537 45.4567 49.0592 44.5726 48.7633 43.5903C48.4674 42.6079 48.3687 41.7238 48.566 40.7415C48.6646 39.8574 48.9606 38.9732 49.5524 38.0891C50.0455 37.205 50.736 36.4191 51.6237 35.8297C52.5114 35.1421 53.3992 34.7491 54.2869 34.4544C55.2732 34.1597 56.1609 34.1597 57.1473 34.258C58.035 34.3562 58.9227 34.6509 59.8105 35.2403C60.6982 35.7315 61.4873 36.4191 62.0791 37.3033C62.7695 38.1874 63.2627 39.0715 63.46 40.0538C63.7559 41.0362 63.7559 42.0185 63.6572 42.9026C63.5586 43.7867 63.1641 44.6709 62.6709 45.555C62.1777 46.4391 61.4873 47.1267 60.5995 47.8144C59.9091 48.4038 58.9227 48.895 57.9364 49.1897ZM60.3036 44.2779C60.5995 43.7867 60.7968 43.1973 60.7968 42.6079C60.7968 42.0185 60.7968 41.4291 60.5995 40.8397C60.4023 40.2503 60.1064 39.6609 59.7118 39.0715C59.12 38.3838 58.5282 37.7944 57.7391 37.4997C56.95 37.1068 56.2596 37.0085 55.4705 37.1068C54.6814 37.205 53.991 37.4997 53.3005 37.9909C52.6101 38.4821 52.1169 39.1697 51.821 39.9556C51.5251 40.7415 51.4264 41.5273 51.6237 42.3132C51.7224 43.0991 52.1169 43.885 52.6101 44.5726C53.1032 45.2603 53.7937 45.8497 54.5828 46.1444C55.3719 46.5373 56.0623 46.6356 56.95 46.5373C57.8378 46.4391 58.5282 46.1444 59.2186 45.6532C59.6132 45.2603 60.0077 44.7691 60.3036 44.2779Z" fill="white"/>
<path d="M73.7181 23.8447L79.7349 37.2047L76.9731 38.3835L67.1095 32.0964L71.0549 40.9376L68.3918 42.1164L62.375 28.7565L65.0382 27.5776L75.099 33.9629L71.0549 24.9253L73.7181 23.8447Z" fill="white"/>
<path d="M79.0444 22.1752L88.2175 20.1123L88.8094 22.6664L82.398 24.0417L83.1871 27.4799L88.3162 26.3993L88.908 28.8552L83.7789 30.034L84.4694 33.374L91.2752 31.9005L91.8671 34.4546L82.2008 36.6157L79.0444 22.1752Z" fill="white"/>
<path d="M104.788 19.1289L100.152 27.4789L100.349 33.9624L97.3903 34.0606L97.193 27.5771L92.064 19.5218L95.4176 19.4236L98.5739 24.7283L101.336 19.3254L104.788 19.1289Z" fill="white"/>
<path d="M122.937 30.8186C123.331 31.6044 123.331 32.3903 123.134 33.3727C123.035 33.9621 122.74 34.4532 122.444 34.8462C122.148 35.2391 121.753 35.6321 121.26 35.9268C120.767 36.2215 120.274 36.3197 119.583 36.4179C118.893 36.5162 118.202 36.4179 117.512 36.2215L111.594 34.748L115.046 20.5039L120.274 21.6827C121.753 22.0757 122.838 22.6651 123.529 23.4509C124.219 24.2368 124.416 25.2192 124.12 26.2998C124.022 26.7909 123.825 27.1839 123.627 27.4786C123.43 27.8715 123.035 28.1662 122.641 28.4609C122.246 28.7556 121.753 28.8539 121.161 28.9521C122.049 29.4433 122.641 30.0327 122.937 30.8186ZM118.696 33.5691C119.09 33.5691 119.485 33.3727 119.781 33.1762C120.076 32.9797 120.274 32.685 120.372 32.2921C120.471 31.7027 120.372 31.2115 120.076 30.8186C119.682 30.4256 119.189 30.0327 118.301 29.8362L116.032 29.2468L115.145 32.8815L117.315 33.4709C117.808 33.5691 118.301 33.5691 118.696 33.5691ZM116.427 26.8892L118.498 27.3803C118.893 27.4786 119.287 27.4786 119.583 27.4786C119.879 27.4786 120.274 27.2821 120.471 27.0856C120.767 26.8892 120.964 26.5945 120.964 26.2015C121.063 25.9068 121.063 25.5139 120.964 25.3174C120.865 25.0227 120.668 24.8262 120.372 24.5315C120.076 24.3351 119.583 24.1386 119.09 24.0404L117.216 23.5492L116.427 26.8892Z" fill="white"/>
<path d="M132.702 38.6784L127.573 36.3207L125.403 38.5801L122.642 37.3031L133.787 26.3008L136.352 27.4796L135.168 43.0989L132.407 41.8219L132.702 38.6784ZM132.998 36.026L133.59 29.9355L129.349 34.356L132.998 36.026Z" fill="white"/>
<path d="M139.409 45.9471C138.916 45.3577 138.522 44.6701 138.324 43.9824C138.028 43.2948 137.93 42.5089 137.93 41.8213C137.93 41.0354 138.028 40.3477 138.324 39.4636C138.62 38.6778 139.015 37.8919 139.607 37.106C140.1 36.4184 140.691 35.829 141.283 35.3378C141.875 34.8466 142.566 34.4537 143.256 34.2572C143.946 33.9625 144.736 33.8643 145.426 33.8643C146.116 33.8643 146.906 33.9625 147.793 34.2572C148.681 34.5519 149.371 34.9448 150.161 35.5342C150.752 35.9272 151.246 36.4184 151.64 37.0078C152.035 37.5972 152.429 38.1866 152.725 38.9725C153.021 39.7583 153.218 40.5442 153.218 41.3301L150.456 41.5266C150.456 40.8389 150.259 40.1513 149.963 39.4636C149.667 38.776 149.174 38.2848 148.582 37.7936C148.286 37.5972 147.991 37.4007 147.695 37.3025C147.399 37.2042 147.103 37.106 146.708 37.0078C146.412 36.9095 146.018 36.9095 145.722 36.9095C145.426 36.9095 145.031 37.0078 144.736 37.106C144.44 37.2042 144.144 37.3025 143.848 37.4989C143.552 37.6954 143.256 37.8919 142.96 38.1866C142.664 38.4813 142.368 38.776 142.171 39.0707C141.678 39.7583 141.283 40.5442 141.185 41.3301C141.086 42.116 141.185 42.9019 141.481 43.5895C141.776 44.2771 142.27 44.9648 142.96 45.456C143.552 45.8489 144.242 46.1436 144.933 46.2418C145.623 46.3401 146.412 46.3401 147.103 46.1436L147.695 48.8942C146.61 49.1889 145.623 49.1889 144.44 48.9924C143.256 48.7959 142.27 48.403 141.283 47.6171C140.494 47.126 139.902 46.5365 139.409 45.9471Z" fill="white"/>
<path d="M154.303 51.5464L152.034 51.6446L148.878 54.3952L146.905 52.234L157.952 42.5088L159.925 44.67L155.092 48.9923L163.377 48.5011L165.843 51.2517L157.361 51.5464L154.993 61.1734L152.626 58.5211L154.303 51.5464Z" fill="white"/>
<path d="M45.4096 159.408C44.9164 158.524 44.7192 157.639 44.6205 156.755C44.5219 155.871 44.6205 154.889 45.0151 154.005C45.311 153.022 45.9028 152.138 46.6919 151.254C47.3823 150.468 48.1714 149.879 49.0591 149.388C49.9469 148.897 50.8346 148.7 51.7223 148.602C52.61 148.504 53.5964 148.602 54.4841 148.995C55.4705 149.289 56.3582 149.879 57.1473 150.567C57.9363 151.254 58.6268 152.138 59.12 153.121C59.6131 154.103 59.8104 155.184 59.9091 156.264L57.2459 156.166C57.1473 154.692 56.5554 153.514 55.4705 152.531C54.9773 152.138 54.4841 151.844 53.9909 151.647C53.4977 151.451 52.9059 151.352 52.3141 151.451C51.7223 151.451 51.2291 151.647 50.6373 151.942C50.0455 152.237 49.5523 152.629 49.0591 153.219C48.4673 153.907 48.0728 154.594 47.8755 155.38C47.6782 156.166 47.6782 156.952 47.8755 157.738C48.0728 158.524 48.566 159.211 49.2564 159.801C50.0455 160.488 51.0319 160.979 52.0182 161.176L53.3991 159.604L50.9332 157.443L52.61 155.577L57.1473 159.604L53.0046 164.319C52.1168 164.319 51.2291 164.025 50.2428 163.632C49.2564 163.239 48.3687 162.649 47.481 161.864C46.396 160.979 45.8042 160.194 45.4096 159.408Z" fill="white"/>
<path d="M58.6268 169.526C58.1337 168.937 57.8377 168.249 57.6405 167.562C57.4432 166.874 57.4432 166.088 57.5418 165.302C57.6405 164.516 58.035 163.632 58.5282 162.748L62.7695 155.282L65.3341 156.756L61.0927 164.123C60.6982 164.713 60.5009 165.302 60.5009 165.892C60.4023 166.481 60.5009 167.07 60.6982 167.562C60.8954 168.053 61.29 168.446 61.8818 168.74C62.6709 169.232 63.46 169.232 64.2491 168.937C65.0381 168.642 65.7286 167.955 66.3204 166.972L70.4631 159.703L73.0276 161.176L68.7863 168.642C68.1945 169.723 67.4054 170.607 66.5177 171.196C65.63 171.786 64.7422 172.08 63.6572 172.08C62.6709 172.08 61.5859 171.786 60.5009 171.196C59.8105 170.705 59.12 170.116 58.6268 169.526Z" fill="white"/>
<path d="M78.6497 175.518L73.3234 173.75L71.4493 176.206L68.5889 175.224L78.3538 163.141L81.017 164.025L81.5101 179.546L78.6497 178.563V175.518ZM78.5511 172.866V166.775L74.9015 171.589L78.5511 172.866Z" fill="white"/>
<path d="M93.0505 181.216L90.486 175.813L88.8092 175.617L88.1187 180.529L85.2583 180.136L87.1324 165.695L92.656 166.383C93.5437 166.481 94.2341 166.678 94.8259 167.071C95.4178 167.365 95.9109 167.758 96.3055 168.249C96.6014 168.741 96.8973 169.33 96.9959 169.919C97.0946 170.509 97.0946 171.196 97.0946 171.884C96.9959 172.67 96.7987 173.259 96.5028 173.849C96.2069 174.438 95.8123 174.831 95.3191 175.126C94.8259 175.421 94.2341 175.715 93.6423 175.813L96.5028 181.511L93.0505 181.216ZM89.1051 173.161L91.0778 173.456C91.9655 173.554 92.656 173.456 93.1491 173.161C93.6423 172.866 93.9382 172.277 94.0369 171.589C94.1355 170.902 93.9382 170.312 93.5437 169.919C93.1491 169.428 92.5573 169.134 91.6696 169.035L89.4996 168.741L89.1051 173.161Z" fill="white"/>
<path d="M108.734 178.367L103.111 178.76L102.322 181.707L99.2646 181.904L103.703 167.07L106.465 166.874L112.778 181.118L109.72 181.315L108.734 178.367ZM107.747 175.912L105.38 170.312L103.802 176.108L107.747 175.912Z" fill="white"/>
<path d="M124.91 162.944L128.756 176.992L125.896 177.778L117.117 170.214L119.682 179.546L116.92 180.332L113.073 166.284L115.835 165.498L124.712 173.259L122.049 163.73L124.91 162.944Z" fill="white"/>
<path d="M130.828 162.944L127.179 164.712L125.995 162.354L135.859 157.442L137.042 159.8L133.393 161.568L138.719 172.276L136.155 173.553L130.828 162.944Z" fill="white"/>
<path d="M136.943 156.756L144.44 151.255L146.018 153.318L140.79 157.149L142.861 159.998L147.103 156.953L148.582 159.015L144.341 162.061L146.314 164.811L151.936 160.685L153.514 162.748L145.623 168.544L136.943 156.756Z" fill="white"/>
<path d="M146.117 149.879L152.627 143.199L154.501 144.967L149.963 149.683L152.528 152.139L156.178 148.406L158.052 150.174L154.402 153.907L156.868 156.264L161.701 151.254L163.575 153.023L156.769 160.096L146.117 149.879Z" fill="white"/>
<path d="M93.8396 103.415C95.0233 105.184 95.6151 107.247 95.6151 109.604C95.6151 111.962 95.0233 114.123 93.741 115.891C92.4588 117.758 90.7819 119.133 88.612 120.115C86.442 121.098 83.9761 121.589 81.3129 121.589C77.6634 121.589 74.5071 120.705 71.8439 119.035C69.1808 117.365 67.3067 115.105 66.2217 112.355L73.5207 109.31C74.7043 112.453 77.1702 114.025 80.8198 114.025C82.5952 114.025 84.0747 113.534 85.2584 112.453C86.442 111.373 87.0338 110.095 87.0338 108.425C87.0338 106.854 86.442 105.478 85.2584 104.398C84.0747 103.317 82.2993 102.826 80.1293 102.826H77.0716V96.0479H80.8198C82.5952 96.0479 83.9761 95.5567 84.8638 94.6726C85.7515 93.7885 86.2447 92.5114 86.2447 91.1361C86.2447 89.6626 85.7515 88.3856 84.6665 87.4032C83.5816 86.4209 82.2993 85.9297 80.7211 85.9297C77.9593 85.9297 75.888 87.1085 74.5071 89.4662L67.7999 85.9297C68.7862 83.6703 70.463 81.9021 72.7316 80.5268C75.0989 79.1515 77.762 78.4639 80.8198 78.4639C82.6938 78.4639 84.4693 78.7586 86.1461 79.2497C87.8229 79.7409 89.2038 80.4286 90.486 81.4109C91.6697 82.3933 92.656 83.5721 93.3465 84.9474C94.0369 86.4209 94.4315 87.9926 94.4315 89.7609C94.4315 91.8238 93.9383 93.592 93.0506 95.262C92.1628 96.932 90.782 98.2091 89.0065 99.2896V99.4861C90.9792 100.37 92.656 101.647 93.8396 103.415Z" fill="#353438"/>
<path d="M110.904 120.115C108.832 119.132 107.155 117.757 105.676 115.891C104.196 114.024 103.111 111.765 102.322 109.112C101.533 106.46 101.139 103.316 101.139 99.9765C101.139 96.7347 101.533 93.8859 102.322 91.1354C103.111 88.3848 104.196 86.2236 105.577 84.2589C106.958 82.3925 108.734 80.9189 110.805 79.8384C112.876 78.7578 115.145 78.2666 117.709 78.2666C120.175 78.2666 122.444 78.7578 124.417 79.7401C126.488 80.7225 128.165 82.0978 129.644 83.9642C131.124 85.8307 132.209 88.0901 132.998 90.7424C133.787 93.3948 134.182 96.5383 134.182 99.8783C134.182 104.201 133.491 107.934 132.209 111.175C130.927 114.417 128.954 116.971 126.488 118.739C124.022 120.508 121.063 121.49 117.709 121.49C115.145 121.588 112.975 121.097 110.904 120.115ZM123.529 110.291C124.91 107.934 125.6 104.495 125.6 100.075C125.6 95.7524 124.91 92.4124 123.529 89.9565C122.148 87.5007 120.175 86.2236 117.709 86.2236C115.244 86.2236 113.271 87.4024 111.89 89.8583C110.509 92.2159 109.72 95.6542 109.72 100.075C109.72 102.924 110.016 105.379 110.608 107.442C111.2 109.505 112.186 111.077 113.369 112.256C114.553 113.336 116.033 113.926 117.611 113.926C120.175 113.828 122.049 112.649 123.529 110.291Z" fill="#353438"/>
<path d="M99.9548 50.4668L102.125 57.0485H109.128L103.407 60.7814L105.577 67.1667L99.9548 63.0408L94.234 67.0685L96.404 60.7814L90.7817 57.0485H97.7849L99.9548 50.4668Z" fill="#FD3E72"/>
<path d="M117.709 59.21L119.189 63.9252H124.219L120.175 66.3811L121.753 70.8999L117.709 67.8546L113.566 70.7034L115.145 66.3811L111.101 63.9252H116.131L117.709 59.21Z" fill="#FD3E72"/>
<path d="M82.2004 59.21L83.6799 63.9252H88.7103L84.6663 66.3811L86.2444 70.8999L82.2004 67.8546L78.0577 70.7034L79.6359 66.3811L75.5918 63.9252H80.6222L82.2004 59.21Z" fill="#FD3E72"/>
<path d="M81.5488 141H85.3535C86.252 141 87.0723 140.867 87.8066 140.586C88.541 140.312 89.1504 139.93 89.6504 139.43C90.1504 138.93 90.5332 138.336 90.7988 137.633C91.0645 136.938 91.2051 136.172 91.2051 135.336C91.2051 134.508 91.0645 133.734 90.7832 133.031C90.502 132.328 90.1113 131.727 89.6035 131.227C89.0957 130.727 88.4707 130.336 87.7363 130.055C87.002 129.773 86.1895 129.633 85.3066 129.633H81.5488V141ZM83.7676 138.992V131.648H85.3535C86.0254 131.648 86.627 131.812 87.166 132.125C87.6973 132.438 88.1191 132.875 88.416 133.438C88.7129 134 88.8691 134.633 88.8691 135.336C88.8691 135.852 88.7754 136.336 88.6035 136.781C88.4316 137.234 88.1816 137.617 87.8691 137.945C87.5566 138.273 87.166 138.523 86.7129 138.711C86.252 138.898 85.752 138.992 85.2129 138.992H83.7676ZM99.9316 141H102.283L98.0566 129.633H95.8848L91.6738 141H94.0254L94.7988 138.727H99.1582L99.9316 141ZM95.4473 136.805L96.9629 132.344H96.9785L98.502 136.805H95.4473ZM108.674 129.633L106.385 133.781H106.354L104.041 129.633H101.463L105.221 136.008V141H107.494V136.008L111.275 129.633H108.674ZM115.932 141.133C116.314 141.133 116.689 141.094 117.064 141.016C117.432 140.938 117.791 140.805 118.143 140.617C118.494 140.43 118.807 140.211 119.072 139.945C119.338 139.68 119.549 139.352 119.713 138.953C119.869 138.555 119.955 138.117 119.955 137.633C119.955 137.164 119.877 136.758 119.736 136.398C119.502 135.836 119.025 135.359 118.322 134.969C118.01 134.805 117.385 134.539 116.439 134.164C116.143 134.055 115.9 133.961 115.729 133.883C115.557 133.805 115.377 133.719 115.205 133.625C115.033 133.531 114.9 133.438 114.814 133.344C114.721 133.25 114.65 133.148 114.604 133.031C114.549 132.922 114.525 132.789 114.525 132.648C114.525 132.297 114.658 132.016 114.908 131.812C115.158 131.609 115.486 131.508 115.893 131.508C116.627 131.508 117.455 131.883 118.369 132.625L119.666 130.93C118.486 129.961 117.213 129.484 115.838 129.5C115.166 129.516 114.549 129.664 113.994 129.945C113.432 130.227 112.994 130.617 112.674 131.109C112.346 131.609 112.189 132.156 112.189 132.75C112.189 133.047 112.221 133.328 112.291 133.594C112.361 133.859 112.455 134.086 112.564 134.289C112.674 134.492 112.822 134.68 113.002 134.859C113.182 135.039 113.361 135.195 113.549 135.32C113.729 135.445 113.947 135.578 114.197 135.703C114.447 135.828 114.674 135.938 114.893 136.016C115.104 136.102 115.346 136.195 115.627 136.289C115.932 136.398 116.182 136.484 116.369 136.562C116.557 136.641 116.736 136.727 116.908 136.82C117.08 136.914 117.213 137.016 117.307 137.109C117.4 137.211 117.471 137.328 117.525 137.453C117.572 137.586 117.604 137.734 117.604 137.898C117.604 138.141 117.541 138.352 117.424 138.523C117.299 138.703 117.119 138.844 116.869 138.945C116.619 139.055 116.322 139.102 115.971 139.102C115.736 139.102 115.502 139.078 115.268 139.016C115.025 138.961 114.783 138.875 114.541 138.758C114.299 138.648 114.057 138.5 113.814 138.312C113.572 138.133 113.346 137.922 113.143 137.68L111.791 139.344C112.369 139.945 113.018 140.391 113.729 140.688C114.439 140.984 115.174 141.133 115.932 141.133Z" fill="#353438"/>
<path d="M27.4581 104.79C30.0185 104.79 32.094 102.723 32.094 100.173C32.094 97.6228 30.0185 95.5557 27.4581 95.5557C24.8978 95.5557 22.8223 97.6228 22.8223 100.173C22.8223 102.723 24.8978 104.79 27.4581 104.79Z" fill="white"/>
<path d="M174.425 104.79C176.985 104.79 179.061 102.723 179.061 100.173C179.061 97.6228 176.985 95.5557 174.425 95.5557C171.865 95.5557 169.789 97.6228 169.789 100.173C169.789 102.723 171.865 104.79 174.425 104.79Z" fill="white"/>
</svg>
