<svg width="1138" height="1145" fill="none" xmlns="http://www.w3.org/2000/svg"><path fill-rule="evenodd" clip-rule="evenodd" d="M594.49 996.878c69.876-24.599 146.065-16.995 211.51-51.706 73.283-38.867 138.228-90.243 185.133-158.664 56.277-82.098 127.077-173.271 109.597-271.264-17.49-98.055-130.417-142.477-196.67-216.847-70.637-79.292-108.275-192.46-205.665-234.784-103.27-44.88-224.295-34.518-330.951 1.58-107.994 36.552-231.948 92.993-268.028 201.151-36.752 110.17 99.536 213.114 91.191 328.952C182.38 709.508 31.989 790.243 53.576 902.698c20.971 109.252 129.3 204.172 238.894 223.252 110.088 19.17 196.616-91.97 302.02-129.072z" fill="#fff"/></svg>