<svg width="1138" height="1145" viewBox="0 0 1138 1145" fill="none" xmlns="http://www.w3.org/2000/svg">
<path fill-rule="evenodd" clip-rule="evenodd" d="M594.49 996.878C664.366 972.279 740.555 979.883 806 945.172C879.283 906.305 944.228 854.929 991.133 786.508C1047.41 704.41 1118.21 613.237 1100.73 515.244C1083.24 417.189 970.313 372.767 904.06 298.397C833.423 219.105 795.785 105.937 698.395 63.613C595.125 18.7338 474.1 29.0947 367.444 65.1936C259.45 101.745 135.496 158.186 99.4157 266.344C62.6644 376.514 198.952 479.458 190.607 595.296C182.38 709.508 31.9891 790.243 53.5755 902.698C74.5474 1011.95 182.877 1106.87 292.47 1125.95C402.558 1145.12 489.086 1033.98 594.49 996.878Z" fill="#FD3E72"/>
</svg>
