<svg width="1446" height="1487" fill="none" xmlns="http://www.w3.org/2000/svg"><path fill-rule="evenodd" clip-rule="evenodd" d="M345.326 510.379c-22.012 70.735-73.619 127.295-84.874 200.516-12.602 81.99-10.192 164.763 16.663 243.25 32.224 94.175 63.054 205.415 152.085 249.935 89.089 44.54 192.17-19.49 291.39-28.2 105.785-9.29 219.028 28.12 311.15-24.7 97.67-56.02 161.66-159.269 196.41-266.369 35.2-108.444 63.97-241.569-1.22-335.111-66.4-95.282-230.369-47.471-318.287-123.357-86.683-74.82-61.6-243.659-164.682-293.519-100.148-48.44-240.981-18.258-321.746 58.237-81.131 76.841-43.687 212.62-76.889 319.318z" fill="#FD3E72"/></svg>