<svg width="24" height="18" fill="none" xmlns="http://www.w3.org/2000/svg"><path fill-rule="evenodd" clip-rule="evenodd" d="M24 18H0V0h24v18z" fill="#BA0000"/><path fill-rule="evenodd" clip-rule="evenodd" d="M11.748 9.22s-1.82-.783-1.558-2.814c.25-.976.698-1.642 1.505-2.005.38-.117.768-.17 1.163-.201a.869.869 0 00-.236.317c-.085.226-.021.437.095.652.145.247.233.5.26.832a1.29 1.29 0 01-.514 1.188c-.232.18-.507.243-.733.448a.958.958 0 00-.317.638c-.007.567.144.648.335.944z" fill="#fff"/><path fill-rule="evenodd" clip-rule="evenodd" d="M11.398 6.283v-.01.01z" fill="#BA0000"/><path d="M11.398 6.283v-.01" stroke="#000" stroke-width="2.1"/><path d="M11.515 9.008c-.705-.624-.645-2.2-.106-2.725" stroke="#BA0000" stroke-width=".5"/><path fill-rule="evenodd" clip-rule="evenodd" d="M11.843 5.93l.116.194-.212-.088-.165.176.028-.229-.212-.088.23-.053.028-.225.116.194.233-.053" fill="#BA0000"/><path fill-rule="evenodd" clip-rule="evenodd" d="M11.902 9.085s.212-1.97 2.232-2.315c1.008-.043 1.776.186 2.361.856.223.328.385.684.53 1.05a.835.835 0 00-.374-.13c-.237-.018-.424.106-.593.279a1.875 1.875 0 01-.719.493 1.29 1.29 0 01-1.286-.14c-.24-.174-.381-.417-.642-.572a.994.994 0 00-.705-.12c-.546.162-.574.332-.804.6z" fill="#fff"/><path fill-rule="evenodd" clip-rule="evenodd" d="M14.606 7.894h.011-.01z" fill="#BA0000"/><path d="M14.606 7.894h.011" stroke="#000" stroke-width="2.1"/><path d="M12.033 8.803c.395-.86 1.918-1.262 2.577-.902" stroke="#BA0000" stroke-width=".5"/><path fill-rule="evenodd" clip-rule="evenodd" d="M15.075 8.215l-.151.165.02-.229-.21-.106.222-.035.02-.236.12.211.226-.042-.151.166.116.211" fill="#BA0000"/><path fill-rule="evenodd" clip-rule="evenodd" d="M12.036 9.226s1.939-.423 2.905 1.386c.363.94.387 1.741-.06 2.506-.24.317-.529.582-.829.839a.833.833 0 00.004-.395c-.056-.233-.233-.37-.451-.476a1.87 1.87 0 01-.698-.529 1.29 1.29 0 01-.272-1.261c.085-.282.272-.494.335-.79a.988.988 0 00-.109-.705c-.328-.465-.497-.44-.825-.575z" fill="#fff"/><path fill-rule="evenodd" clip-rule="evenodd" d="M14.024 11.415l.008.008-.008-.008z" fill="#BA0000"/><path d="M14.024 11.415l.008.008" stroke="#000" stroke-width="2.1"/><path d="M12.35 9.261c.938.103 1.802 1.418 1.671 2.161" stroke="#BA0000" stroke-width=".5"/><path fill-rule="evenodd" clip-rule="evenodd" d="M13.87 11.962l-.209-.092.23-.053.027-.236.11.201.229-.053-.159.176.106.201-.205-.091-.158.18" fill="#BA0000"/><path fill-rule="evenodd" clip-rule="evenodd" d="M11.994 9.427s.948 1.742-.511 3.173c-.804.613-1.565.864-2.426.649-.37-.142-.705-.343-1.04-.561a.823.823 0 00.385-.106c.204-.12.285-.328.328-.564.036-.294.143-.576.31-.821a1.29 1.29 0 011.135-.617c.296.004.55.127.853.106.243-.032.433-.099.649-.31.352-.441.282-.6.317-.952v.003z" fill="#fff"/><path fill-rule="evenodd" clip-rule="evenodd" d="M10.45 11.951l-.004.007.004-.007z" fill="#BA0000"/><path d="M10.45 11.951l-.004.007" stroke="#000" stroke-width="2.1"/><path d="M12.044 9.734c.172.93-.85 2.133-1.6 2.21" stroke="#BA0000" stroke-width=".5"/><path fill-rule="evenodd" clip-rule="evenodd" d="M9.882 11.955l.032-.226.117.201.232-.035-.162.162.116.201-.215-.102-.162.162.028-.226-.215-.102" fill="#BA0000"/><path fill-rule="evenodd" clip-rule="evenodd" d="M11.78 9.389s-1.326 1.473-3.166.578C7.768 9.413 7.28 8.775 7.2 7.894c.01-.398.085-.78.18-1.163.06.127.127.24.23.324.179.152.404.159.644.12.288-.063.587-.056.87.021a1.29 1.29 0 01.963.867c.095.279.064.56.187.84a.992.992 0 00.504.507c.536.187.66.067 1.001-.018V9.39z" fill="#fff"/><path fill-rule="evenodd" clip-rule="evenodd" d="M8.885 8.775l-.007-.003.007.003z" fill="#BA0000"/><path d="M8.885 8.775l-.007-.003" stroke="#000" stroke-width="2.1"/><path d="M11.504 9.54c-.818.469-2.291-.095-2.615-.775" stroke="#BA0000" stroke-width=".5"/><path fill-rule="evenodd" clip-rule="evenodd" d="M8.695 8.24l.222-.046-.152.176.11.208-.205-.099-.152.176.025-.24-.208-.098.222-.046.025-.24" fill="#BA0000"/></svg>