<svg width="24" height="18" fill="none" xmlns="http://www.w3.org/2000/svg"><path d="M.5.5h23v17H.5V.5z" fill="#fff" stroke="#F5F2E9"/><path d="M1 1h22v5H1V1z" fill="#F93"/><path d="M1 12h22v5H1v-5z" fill="#128807"/><path d="M11.999 11.4a2.4 2.4 0 100-4.8 2.4 2.4 0 000 4.8z" fill="#008"/><path d="M11.998 11.1a2.1 2.1 0 100-4.2 2.1 2.1 0 000 4.2z" fill="#fff"/><path d="M11.998 9.42a.42.42 0 100-.84.42.42 0 000 .84zm2.068-.038a.108.108 0 10.028-.215.108.108 0 00-.028.215z" fill="#008"/><path d="M11.999 11.1l.072-1.26-.072-.6-.072.6.072 1.26z" fill="#008"/></svg>