<svg width="91" height="84" viewBox="0 0 91 84" fill="none" xmlns="http://www.w3.org/2000/svg">
<path d="M68.5717 14.429C66.6963 12.5537 64.1528 11.5001 61.5007 11.5001C58.8486 11.5001 56.305 12.5537 54.4297 14.429" stroke="#62D5B4" stroke-width="3" stroke-miterlimit="10" stroke-linecap="square"/>
<path d="M75.6414 7.35797C71.8907 3.60733 66.8037 1.50024 61.4994 1.50024C56.1952 1.50024 51.1081 3.60733 47.3574 7.35797" stroke="#62D5B4" stroke-width="3" stroke-miterlimit="10" stroke-linecap="square"/>
<path d="M33.5 13.5C37.7435 13.5 41.8131 15.1857 44.8137 18.1863C47.8143 21.1869 49.5 25.2565 49.5 29.5V31.5L53.5 40.5L49.5 42.5V45.5C49.5 47.0913 48.8679 48.6174 47.7426 49.7426C46.6174 50.8679 45.0913 51.5 43.5 51.5H37.5V57.5" stroke="#62D5B4" stroke-width="3" stroke-miterlimit="10" stroke-linecap="square"/>
<path d="M89.5 13.5C85.2565 13.5 81.1869 15.1857 78.1863 18.1863C75.1857 21.1869 73.5 25.2565 73.5 29.5V31.5L69.5 40.5L73.5 42.5V45.5C73.5 47.0913 74.1321 48.6174 75.2574 49.7426C76.3826 50.8679 77.9087 51.5 79.5 51.5H85.5V57.5" stroke="#62D5B4" stroke-width="3" stroke-miterlimit="10" stroke-linecap="square"/>
<path d="M61.5 23.5C62.0523 23.5 62.5 23.0523 62.5 22.5C62.5 21.9477 62.0523 21.5 61.5 21.5C60.9477 21.5 60.5 21.9477 60.5 22.5C60.5 23.0523 60.9477 23.5 61.5 23.5Z" stroke="#62D5B4" stroke-width="3" stroke-miterlimit="10" stroke-linecap="square"/>
<path d="M66.5717 21.429C64.6963 19.5537 62.1528 18.5001 59.5007 18.5001C56.8486 18.5001 54.305 19.5537 52.4297 21.429" stroke="#494949" stroke-width="3" stroke-miterlimit="10" stroke-linecap="square"/>
<path d="M73.6414 14.358C69.8907 10.6073 64.8037 8.50024 59.4994 8.50024C54.1952 8.50024 49.1081 10.6073 45.3574 14.358" stroke="#494949" stroke-width="3" stroke-miterlimit="10" stroke-linecap="square"/>
<path d="M31.5 20.5C35.7435 20.5 39.8131 22.1857 42.8137 25.1863C45.8143 28.1869 47.5 32.2565 47.5 36.5V38.5L51.5 47.5L47.5 49.5V52.5C47.5 54.0913 46.8679 55.6174 45.7426 56.7426C44.6174 57.8679 43.0913 58.5 41.5 58.5H35.5V64.5" stroke="#494949" stroke-width="3" stroke-miterlimit="10" stroke-linecap="square"/>
<path d="M87.5 20.5C83.2565 20.5 79.1869 22.1857 76.1863 25.1863C73.1857 28.1869 71.5 32.2565 71.5 36.5V38.5L67.5 47.5L71.5 49.5V52.5C71.5 54.0913 72.1321 55.6174 73.2574 56.7426C74.3826 57.8679 75.9087 58.5 77.5 58.5H83.5V64.5" stroke="#494949" stroke-width="3" stroke-miterlimit="10" stroke-linecap="square"/>
<path d="M59.5 30.5C60.0523 30.5 60.5 30.0523 60.5 29.5C60.5 28.9477 60.0523 28.5 59.5 28.5C58.9477 28.5 58.5 28.9477 58.5 29.5C58.5 30.0523 58.9477 30.5 59.5 30.5Z" stroke="#494949" stroke-width="3" stroke-miterlimit="10" stroke-linecap="square"/>
<path d="M2.5 48.5C5.6826 48.5 8.73484 49.7643 10.9853 52.0147C13.2357 54.2652 14.5 57.3174 14.5 60.5V62.58L17.5 69.5L14.5 70.5V73.5C14.5 74.5609 14.0786 75.5783 13.3284 76.3284C12.5783 77.0786 11.5609 77.5 10.5 77.5H6.5V81.5" stroke="#494949" stroke-width="3" stroke-miterlimit="10" stroke-linecap="square"/>
<path d="M42.5 81.5V77.5H38.5C37.4391 77.5 36.4217 77.0786 35.6716 76.3284C34.9214 75.5783 34.5 74.5609 34.5 73.5V70.5L31.5 69.5L34.5 62.58V60.5C34.5 57.3174 35.7643 54.2652 38.0147 52.0147C40.2652 49.7643 43.3174 48.5 46.5 48.5" stroke="#494949" stroke-width="3" stroke-miterlimit="10" stroke-linecap="square"/>
<path d="M24.5 57.5C25.0523 57.5 25.5 57.0523 25.5 56.5C25.5 55.9477 25.0523 55.5 24.5 55.5C23.9477 55.5 23.5 55.9477 23.5 56.5C23.5 57.0523 23.9477 57.5 24.5 57.5Z" stroke="#494949" stroke-width="3" stroke-miterlimit="10" stroke-linecap="square"/>
<path d="M31.0287 50.316C30.2032 49.442 29.2107 48.7425 28.1101 48.259C27.0094 47.7754 25.8229 47.5176 24.6208 47.5008C23.4187 47.484 22.2254 47.7086 21.1117 48.1612C19.9979 48.6139 18.9863 49.2854 18.1367 50.136" stroke="#494949" stroke-width="3" stroke-miterlimit="10" stroke-linecap="square"/>
<path d="M36.8295 44.819C35.2703 43.1681 33.3956 41.8469 31.3166 40.9336C29.2376 40.0202 26.9965 39.5332 24.7259 39.5015C22.4553 39.4698 20.2014 39.894 18.0977 40.749C15.994 41.604 14.0832 42.8723 12.4785 44.479" stroke="#494949" stroke-width="3" stroke-miterlimit="10" stroke-linecap="square"/>
</svg>
