<svg width="22" height="16" fill="none" xmlns="http://www.w3.org/2000/svg"><path d="M16.752 9.53h1.508c.045 0 .141-.014.186-.014a.674.674 0 00.535-.676.695.695 0 00-.535-.677c-.045-.013-.129-.013-.187-.013h-1.507v1.38z" fill="#007940"/><path d="M18.092 0a2.617 2.617 0 00-2.616 2.616v2.718h3.692c.084 0 .187 0 .258.013.83.045 1.449.477 1.449 1.224 0 .586-.419 1.095-1.192 1.192v.026c.85.058 1.495.535 1.495 1.263 0 .792-.722 1.307-1.669 1.307h-4.052v5.315h3.84a2.617 2.617 0 002.615-2.615V0h-3.82z" fill="#007940"/><path d="M18.794 6.739a.612.612 0 00-.535-.619c-.025 0-.103-.013-.141-.013h-1.366V7.37h1.366c.045 0 .129 0 .142-.013a.607.607 0 00.534-.618z" fill="#007940"/><path d="M3.63 0a2.617 2.617 0 00-2.617 2.616V9.07c.735.36 1.495.586 2.255.586.909 0 1.392-.548 1.392-1.295V5.315h2.242v3.034c0 1.18-.735 2.14-3.221 2.14-1.508 0-2.687-.33-2.687-.33v5.502h3.84a2.617 2.617 0 002.615-2.615V0H3.63z" fill="#0066B1"/><path d="M10.864 0a2.617 2.617 0 00-2.616 2.616v3.42c.664-.56 1.81-.92 3.666-.83.992.045 2.055.315 2.055.315V6.63c-.535-.27-1.166-.515-1.984-.573-1.411-.103-2.255.586-2.255 1.797 0 1.224.85 1.914 2.255 1.798.818-.058 1.45-.316 1.984-.574v1.102s-1.05.27-2.055.316c-1.856.083-3.002-.271-3.666-.831V15.7h3.833a2.617 2.617 0 002.616-2.616V0h-3.833z" fill="#BE1833"/></svg>