<svg width="21" height="24" viewBox="0 0 21 24" fill="none" xmlns="http://www.w3.org/2000/svg">
<path d="M14.9455 15.3589C15.288 15.4631 15.6167 15.6082 15.9245 15.7909C15.9915 15.8279 16.0545 15.8669 16.1165 15.8989C16.2765 15.8839 16.5355 15.8299 16.7495 15.7849C17.1333 15.691 17.5257 15.6367 17.9205 15.6229C18.0546 15.6234 18.1884 15.6352 18.3205 15.6579C18.3392 15.3029 18.3319 14.9469 18.2985 14.5929C18.1103 13.0029 17.4708 11.5 16.4555 10.2619C15.5135 9.22691 14.0645 7.73891 14.0645 6.60891V3.47391C14.049 2.56263 13.6762 1.69389 13.0263 1.05491C12.3764 0.415932 11.5014 0.0578613 10.59 0.0578613C9.67858 0.0578613 8.80365 0.415932 8.15373 1.05491C7.50382 1.69389 7.13096 2.56263 7.1155 3.47391V8.04091C6.9645 8.83091 6.5695 8.90691 5.9485 9.77291C5.33571 10.5877 4.84707 11.4888 4.4985 12.4469C4.2085 13.3169 3.5935 14.2349 3.3125 14.9579C3.38799 14.9345 3.46479 14.9154 3.5425 14.9009C3.65496 14.8831 3.76864 14.874 3.8825 14.8739C4.28299 14.877 4.67568 14.9849 5.0215 15.1869C5.45278 13.4556 6.1609 11.8054 7.1185 10.2999C7.67814 9.4357 7.92516 8.40597 7.8185 7.38191C8.1825 7.67191 8.5455 8.57391 9.5375 8.57391C10.5295 8.57391 11.1925 7.79991 11.7445 7.51991C11.8854 7.44923 12.0144 7.35676 12.1265 7.24591L12.2215 7.26791C13.0825 8.86045 13.8504 10.5015 14.5215 12.1829C14.8157 13.2155 14.9585 14.2853 14.9455 15.3589ZM9.2955 5.27391C9.13525 5.30615 8.97899 5.35578 8.8295 5.42191L8.7525 5.45791C8.6211 5.51879 8.49528 5.59106 8.3765 5.67391C8.17025 5.44652 8.04937 5.15455 8.0345 4.84791C7.9855 4.26791 8.2395 3.77191 8.6005 3.74191C8.9615 3.71191 9.2935 4.15791 9.3425 4.74191C9.35731 4.92063 9.34142 5.10056 9.2955 5.27391ZM11.6955 4.85591C11.6761 5.14281 11.5797 5.41916 11.4165 5.65591C11.3595 5.62591 11.2965 5.59491 11.2315 5.56391L11.1825 5.53991C11.1045 5.50391 11.0205 5.46991 10.9305 5.43991H10.9205C10.7013 5.35968 10.4739 5.30368 10.2425 5.27291C10.2025 5.0969 10.1897 4.9158 10.2045 4.73591C10.2595 4.08191 10.6375 3.57991 11.0495 3.61491C11.4615 3.64991 11.7555 4.19991 11.6955 4.85591Z" fill="#AFADB2"/>
<path d="M5.05542 17.286C4.71642 16.772 4.25542 16.307 3.78742 16.386C3.31942 16.465 2.99642 17.303 2.69542 17.554C2.39442 17.805 1.23942 17.579 0.887421 17.954C0.535421 18.329 0.862421 19.673 0.799421 20.314C0.736421 20.955 0.399421 21.293 0.360421 21.594C0.321421 21.895 0.423421 22.234 0.988421 22.435C1.55342 22.636 3.66242 23.163 4.38842 23.326C5.11442 23.489 6.82342 24.569 7.62742 23.264C7.8796 22.8215 7.96991 22.3051 7.88288 21.8033C7.79584 21.3015 7.53687 20.8457 7.15042 20.514C6.3913 19.4787 5.69183 18.4009 5.05542 17.286Z" fill="#AFADB2"/>
<path d="M10.0464 21.6738C9.82392 21.6737 9.60162 21.662 9.38037 21.6388C9.44552 21.9883 9.45228 22.3461 9.40037 22.6978C10.2624 22.6484 11.1271 22.6792 11.9834 22.7898C11.9138 22.2473 11.9416 21.6966 12.0654 21.1638C11.446 21.5011 10.7516 21.6765 10.0464 21.6738Z" fill="#AFADB2"/>
<path d="M19.8912 19.7339C19.3422 19.4835 18.9077 19.0354 18.6742 18.4789C18.5612 17.9789 18.6612 17.5119 18.2742 17.2109C17.8872 16.9099 16.6152 17.4839 15.8652 17.3909C15.3392 17.3249 14.5552 16.5019 14.0202 16.8429C13.7022 17.0429 13.8682 17.8509 13.8802 18.2779C13.8656 19.1344 13.8028 19.9895 13.6922 20.8389C13.6042 21.3279 12.9262 22.8719 14.2442 23.7509C14.6547 23.9542 15.1222 24.0115 15.5696 23.9133C16.017 23.8151 16.4176 23.5674 16.7052 23.2109C17.251 22.6507 17.8822 22.1805 18.5752 21.8179C19.2014 21.5912 19.7711 21.2316 20.2452 20.7639C20.4442 20.4249 20.4192 20.0349 19.8912 19.7339Z" fill="#AFADB2"/>
</svg>
