<svg width="34" height="40" viewBox="0 0 34 40" fill="none" xmlns="http://www.w3.org/2000/svg">
<path d="M24.6233 25.4699C25.1934 25.6433 25.7405 25.8848 26.2529 26.189C26.3644 26.2505 26.4693 26.3155 26.5725 26.3687C26.8388 26.3438 27.27 26.2539 27.6262 26.179C28.265 26.0226 28.9182 25.9323 29.5754 25.9093C29.7986 25.9102 30.0213 25.9297 30.2412 25.9676C30.2724 25.3765 30.2602 24.784 30.2046 24.1948C29.8914 21.548 28.8268 19.0463 27.1368 16.9855C25.5688 15.2626 23.1568 12.7857 23.1568 10.9048V5.6863C23.1311 4.16939 22.5104 2.72331 21.4286 1.65967C20.3467 0.596037 18.8903 0 17.3732 0C15.8561 0 14.3997 0.596037 13.3178 1.65967C12.236 2.72331 11.6153 4.16939 11.5896 5.6863V13.2884C11.3383 14.6035 10.6807 14.73 9.64704 16.1715C8.62701 17.5278 7.81363 19.0278 7.2334 20.6226C6.75067 22.0708 5.72695 23.5989 5.25921 24.8024C5.38487 24.7633 5.51271 24.7316 5.64206 24.7075C5.82925 24.6778 6.01848 24.6627 6.20802 24.6625C6.87466 24.6676 7.52834 24.8473 8.10398 25.1835C8.82189 22.3017 10.0006 19.5547 11.5946 17.0487C12.5262 15.6102 12.9374 13.8961 12.7598 12.1915C13.3657 12.6742 13.97 14.1757 15.6212 14.1757C17.2725 14.1757 18.3761 12.8873 19.295 12.4212C19.5296 12.3035 19.7442 12.1496 19.9308 11.9651L20.089 12.0017C21.5221 14.6526 22.8004 17.3843 23.9175 20.1831C24.4072 21.902 24.6449 23.6828 24.6233 25.4699ZM15.2184 8.68255C14.9516 8.73621 14.6915 8.81881 14.4427 8.9289L14.3145 8.98883C14.0958 9.09016 13.8864 9.21047 13.6886 9.34838C13.3453 8.96985 13.1441 8.48386 13.1194 7.97343C13.0378 7.00798 13.4606 6.18234 14.0615 6.13241C14.6624 6.08247 15.2151 6.82487 15.2966 7.79699C15.3213 8.09448 15.2948 8.39399 15.2184 8.68255ZM19.2134 7.98675C19.1811 8.46431 19.0206 8.92432 18.749 9.31842C18.6541 9.26848 18.5492 9.21688 18.441 9.16527L18.3595 9.12532C18.2296 9.0654 18.0898 9.0088 17.94 8.95887H17.9233C17.5584 8.82532 17.18 8.7321 16.7948 8.68088C16.7282 8.38789 16.7069 8.08644 16.7315 7.787C16.8231 6.69836 17.4523 5.86274 18.1381 5.92101C18.8239 5.97927 19.3133 6.89478 19.2134 7.98675Z" fill="#FD3E72"/>
<path d="M8.16052 28.6775C7.59623 27.8219 6.82886 27.0479 6.04984 27.1794C5.27081 27.3109 4.73315 28.7058 4.23211 29.1236C3.73107 29.5415 1.80848 29.1653 1.22255 29.7895C0.636617 30.4137 1.18093 32.6509 1.07607 33.7179C0.971197 34.7849 0.410234 35.3475 0.345315 35.8486C0.280396 36.3496 0.450183 36.9139 1.39067 37.2485C2.33116 37.5831 5.84176 38.4603 7.05025 38.7316C8.25874 39.0029 11.1035 40.8007 12.4418 38.6284C12.8616 37.8919 13.0119 37.0323 12.8671 36.197C12.7222 35.3617 12.2911 34.6029 11.6478 34.0508C10.3842 32.3275 9.21988 30.5335 8.16052 28.6775Z" fill="#FD3E72"/>
<path d="M16.4682 35.9818C16.0979 35.9816 15.7279 35.9621 15.3596 35.9235C15.4681 36.5053 15.4793 37.1009 15.3929 37.6863C16.8278 37.604 18.2672 37.6553 19.6925 37.8395C19.5768 36.9363 19.623 36.0198 19.829 35.1329C18.7981 35.6943 17.6421 35.9863 16.4682 35.9818Z" fill="#FD3E72"/>
<path d="M32.8563 32.7521C31.9424 32.3352 31.2191 31.5894 30.8305 30.6631C30.6424 29.8308 30.8088 29.0534 30.1646 28.5524C29.5204 28.0514 27.4031 29.0068 26.1547 28.852C25.2791 28.7422 23.9741 27.3722 23.0835 27.9398C22.5542 28.2727 22.8305 29.6177 22.8505 30.3285C22.8261 31.7542 22.7216 33.1775 22.5375 34.5915C22.391 35.4055 21.2625 37.9756 23.4564 39.4388C24.1396 39.7771 24.9178 39.8724 25.6626 39.709C26.4073 39.5456 27.0741 39.1332 27.5529 38.5399C28.4614 37.6073 29.5121 36.8247 30.6657 36.2211C31.708 35.8437 32.6563 35.2452 33.4455 34.4667C33.7768 33.9024 33.7352 33.2532 32.8563 32.7521Z" fill="#FD3E72"/>
</svg>
