<svg width="100" height="27" fill="none" xmlns="http://www.w3.org/2000/svg"><rect width="100" height="27" rx="13.5" fill="#FFA800"/><path d="M26 10h-1.143V7.455c0-.844-.3-1.654-.837-2.25-.535-.597-1.262-.932-2.02-.932s-1.485.335-2.02.932c-.536.596-.837 1.406-.837 2.25V10H18V7.455c0-1.182.421-2.315 1.172-3.15C19.922 3.469 20.939 3 22 3c1.06 0 2.078.47 2.828 1.305S26 6.273 26 7.455V10z" fill="#fff"/><path d="M28.77 10H15.23c-.326 0-.639.122-.87.34-.23.216-.36.51-.36.818v8.684c0 .307.13.602.36.819.231.217.544.339.87.339h13.54c.326 0 .639-.122.87-.34.23-.216.36-.51.36-.818v-8.684c0-.307-.13-.602-.36-.819a1.271 1.271 0 00-.87-.339zm-6.155 6.865v1.82h-1.23v-1.82a2.465 2.465 0 01-1.422-.942 2.21 2.21 0 01-.405-1.592c.076-.56.365-1.073.815-1.446A2.553 2.553 0 0122 12.307c.6 0 1.178.206 1.627.578.45.373.74.887.815 1.446a2.21 2.21 0 01-.405 1.592 2.465 2.465 0 01-1.422.942zm14.53 3.251c.335 0 .664-.034.992-.102.321-.069.636-.185.943-.349.308-.164.581-.355.814-.588.232-.232.416-.52.56-.868.137-.349.212-.732.212-1.155 0-.41-.068-.766-.191-1.08-.206-.493-.623-.91-1.238-1.251-.273-.144-.82-.376-1.647-.704a7.123 7.123 0 01-1.08-.472 1.34 1.34 0 01-.342-.246.804.804 0 01-.185-.274.752.752 0 01-.068-.335.9.9 0 01.335-.731c.219-.178.506-.267.861-.267.643 0 1.367.329 2.167.978l1.135-1.484c-1.032-.847-2.146-1.264-3.35-1.25a3.72 3.72 0 00-1.613.39 2.89 2.89 0 00-1.155 1.018 2.557 2.557 0 00-.424 1.435 2.75 2.75 0 00.328 1.347c.096.178.226.342.383.499.157.157.315.294.478.403.158.11.35.226.568.335.219.11.417.205.608.274.185.075.397.157.643.239.267.096.485.17.65.24.163.068.32.143.471.225.15.082.267.17.349.253.082.089.143.191.191.3.041.117.068.247.068.39a.955.955 0 01-.157.547c-.11.157-.266.28-.485.37-.219.095-.479.136-.786.136-.205 0-.41-.02-.615-.075a2.955 2.955 0 01-.636-.226 3.185 3.185 0 01-.636-.39 3.448 3.448 0 01-.588-.553l-1.182 1.456a5.025 5.025 0 001.695 1.176c.622.26 1.264.39 1.927.39zM42.328 20h6.651v-1.757h-4.71V15.94h3.542v-1.737H44.27v-2.386h4.416v-1.763h-6.358V20zm12.736.102c.834 0 1.585-.17 2.262-.512.67-.342 1.237-.8 1.695-1.374l-1.442-1.238a3.45 3.45 0 01-1.114.916c-.438.233-.91.342-1.401.342-.588 0-1.108-.13-1.566-.403a2.799 2.799 0 01-1.066-1.135c-.253-.478-.376-1.025-.376-1.64 0-.28.02-.547.075-.807a3.25 3.25 0 01.219-.704c.095-.219.205-.417.341-.602a2.766 2.766 0 011.019-.834c.198-.095.41-.17.643-.225a3.41 3.41 0 01.71-.075c.493 0 .958.123 1.395.355.438.232.807.54 1.121.91l1.442-1.231a5.356 5.356 0 00-1.21-1.087 5.266 5.266 0 00-1.36-.63 5.35 5.35 0 00-1.388-.19c-.642 0-1.23.088-1.777.26a4.471 4.471 0 00-1.415.73 4.91 4.91 0 00-1.025 1.101 4.614 4.614 0 00-.636 1.409 5.98 5.98 0 00-.212 1.62c0 .642.089 1.237.267 1.784a4.47 4.47 0 00.731 1.415c.315.396.684.731 1.108 1.012.423.287.881.492 1.387.629.5.136 1.026.204 1.572.204zm9.378.014c.841 0 1.566-.17 2.174-.52a3.355 3.355 0 001.388-1.469c.314-.629.478-1.38.478-2.242v-5.831h-1.968v5.7c0 .78-.192 1.395-.575 1.847-.382.45-.881.67-1.497.67a1.89 1.89 0 01-1.107-.329 1.941 1.941 0 01-.697-.895c-.157-.376-.233-.807-.233-1.292v-5.701H60.43v5.83c0 .67.095 1.272.287 1.805.191.534.465.978.82 1.334a3.54 3.54 0 001.265.813c.492.191 1.039.28 1.64.28zM78.195 20l-2.454-3.61v-.027a3.012 3.012 0 001.087-.608c.3-.26.533-.595.697-.998.164-.403.253-.868.253-1.388 0-.485-.075-.93-.212-1.326a2.996 2.996 0 00-.622-1.046c-.273-.3-.635-.533-1.087-.697-.45-.164-.963-.246-1.544-.246h-3.76V20h1.941v-3.404h1.142L75.864 20h2.331zm-5.7-8.196h1.462c.56 0 .998.136 1.313.41.314.273.471.65.471 1.114 0 .472-.164.848-.485 1.121-.328.274-.786.41-1.381.41h-1.38v-3.055zM79.691 20h6.652v-1.757h-4.71V15.94h3.54v-1.737h-3.54v-2.386h4.416v-1.763h-6.358V20z" fill="#fff"/></svg>