<svg width="124" height="40" fill="none" xmlns="http://www.w3.org/2000/svg"><path d="M57.652 22.223H44.018c-.62 0-1.089.544-.976 1.144l.056.393c.094.526.244 1.032.451 1.538.32.77.826 1.445 1.521 2.045.676.6 1.634.881 2.855.881 1.22 0 2.16-.3 2.854-.881a5.822 5.822 0 001.277-1.557.986.986 0 01.845-.488h3.812a1 1 0 01.94 1.332 7.591 7.591 0 01-.62 1.37c-.432.768-.902 1.444-1.428 2.006a8.32 8.32 0 01-1.671 1.407c-.601.375-1.164.675-1.728.919-1.37.525-2.798.806-4.319.806-1.99-.037-3.756-.45-5.296-1.237a11.298 11.298 0 01-1.934-1.35c-.638-.545-1.202-1.239-1.69-2.064-.489-.825-.883-1.82-1.183-2.982-.3-1.163-.451-2.495-.451-4.051 0-1.538.15-2.889.45-4.052.301-1.163.695-2.157 1.184-3a8.28 8.28 0 011.69-2.101 10.466 10.466 0 011.934-1.37c1.521-.825 3.268-1.256 5.24-1.331h.112a12.96 12.96 0 014.526 1.013 9.954 9.954 0 011.803 1.05c.6.431 1.164.957 1.69 1.594.526.638.977 1.388 1.371 2.27.394.881.695 1.894.864 3.038.056.45.112.9.15 1.37.038.468.075.975.075 1.519.019-.038.132.769-.77.769zm-6.497-3.695c.713 0 1.22-.75.901-1.388 0 0 0-.019-.019-.019a4.67 4.67 0 00-.92-1.294 4.625 4.625 0 00-1.37-.92c-.527-.224-1.165-.337-1.86-.337-.714 0-1.333.113-1.86.338-.525.225-.995.525-1.37.919a4.857 4.857 0 00-.939 1.294v.019c-.32.656.188 1.406.901 1.406h6.536v-.018zM34.61.128a5.414 5.414 0 00-5.427 5.42v15.7c0 .656-.038 1.312-.113 2.006a5.1 5.1 0 01-.563 1.857c-.3.563-.751 1.031-1.352 1.407-.601.375-1.465.562-2.554.562-1.09 0-1.953-.187-2.554-.562-.601-.376-1.052-.844-1.352-1.407a5.101 5.101 0 01-.564-1.857 18.204 18.204 0 01-.112-2.007V5.061a5.415 5.415 0 00-5.427 5.42V21.23c0 .656-.038 1.312-.113 2.006a5.099 5.099 0 01-.563 1.857c-.301.563-.752 1.032-1.353 1.407-.6.375-1.464.563-2.554.563-1.089 0-1.953-.188-2.554-.563-.6-.375-1.051-.844-1.352-1.407a5.1 5.1 0 01-.563-1.857 18.224 18.224 0 01-.113-2.006V9.994A5.426 5.426 0 000 15.414v5.815c0 1.538.15 2.888.45 4.05.301 1.164.677 2.158 1.127 3.002.47.844.996 1.538 1.597 2.1.6.563 1.22 1.013 1.84 1.37 1.446.825 3.117 1.275 4.977 1.331 1.896-.056 3.568-.506 5.033-1.332a9.257 9.257 0 002.272-1.837c.15.168.3.318.45.468a9.989 9.989 0 001.84 1.37c1.447.825 3.118 1.275 4.977 1.331 1.897-.056 3.569-.506 5.033-1.332a9.251 9.251 0 001.822-1.369c.6-.562 1.127-1.256 1.596-2.1.47-.844.845-1.838 1.127-3.001.282-1.163.413-2.495.413-4.052l.056-21.1z" fill="#A12B52"/><path d="M74.873 31.713c-.15.431-.544.731-1.014.731H68.15c-.45 0-.864-.3-1.014-.731L60.507 11.4a1.055 1.055 0 011.014-1.388h3.212c.45 0 .863.3 1.014.732l4.244 12.96c.319.976 1.69.976 2.01 0l2.44-7.465 4.094-12.528C79.437.99 82.366-.51 85.09.39L74.873 31.713zm26.179-17.462a8.307 8.307 0 00-1.69-2.1 10.463 10.463 0 00-1.934-1.37c-1.54-.825-3.287-1.275-5.221-1.331-1.86 0-3.437.281-4.732.825-1.296.544-2.367 1.332-3.212 2.345-.845 1.012-1.446 2.25-1.84 3.713-.376 1.463-.582 3.114-.582 4.97V38.56c0 .731.582 1.313 1.314 1.313h2.63c.732 0 1.314-.582 1.314-1.313v-8.684c.282.394.601.731.939 1.032.77.656 1.521 1.125 2.254 1.406a8.54 8.54 0 002.553.563h.207c1.784-.038 3.38-.45 4.77-1.238a9.826 9.826 0 001.803-1.35c.582-.544 1.089-1.238 1.559-2.064.45-.825.826-1.819 1.108-2.963.281-1.144.413-2.494.413-4.032 0-1.538-.151-2.87-.47-4.033-.3-1.125-.695-2.12-1.183-2.945zm-3.962 9.134a6.39 6.39 0 01-.714 2.139 4.566 4.566 0 01-1.521 1.65c-.657.45-1.54.657-2.63.657-1.088 0-1.971-.226-2.628-.657-.658-.45-1.183-.994-1.559-1.65a6.024 6.024 0 01-.732-2.139 14.77 14.77 0 01-.17-2.119c0-.788.057-1.575.15-2.363.114-.788.32-1.482.658-2.12.338-.637.845-1.144 1.521-1.519.676-.375 1.596-.581 2.742-.581 1.09 0 1.972.225 2.63.656.656.45 1.182.994 1.52 1.65.357.657.582 1.389.714 2.139.113.769.169 1.482.169 2.12.019.656-.038 1.368-.15 2.137zm26.234-7.108c-.45-1.35-1.033-2.457-1.746-3.339-.714-.881-1.484-1.556-2.31-2.025-.826-.47-1.615-.825-2.348-1.032a8.678 8.678 0 00-1.934-.375c-.544-.037-.864-.037-.958-.037-.112 0-.45.018-.976.037a8.618 8.618 0 00-1.897.375c-.732.225-1.521.563-2.347 1.032-.826.469-1.596 1.144-2.31 2.025-.714.882-1.296 2.007-1.747 3.339-.45 1.35-.694 3-.694 4.97v10.016c0 .656.525 1.181 1.183 1.181h3.023c.657 0 1.183-.525 1.183-1.181v-9.997c0-.656.057-1.313.169-1.988a5.6 5.6 0 01.658-1.857 3.88 3.88 0 011.37-1.388c.583-.375 1.371-.544 2.348-.544.976 0 1.765.188 2.347.544.582.375 1.052.825 1.371 1.388a5.6 5.6 0 01.657 1.857c.113.675.17 1.35.17 1.988v9.997c0 .656.525 1.181 1.183 1.181h3.098c.657 0 1.183-.525 1.183-1.181v-9.997c0-1.988-.225-3.639-.676-4.989z" fill="#EF4273"/></svg>