<svg width="15" height="19" fill="none" xmlns="http://www.w3.org/2000/svg"><path d="M14.265 12.993c-.986-.404-1.646-1.376-1.72-2.534-.073-1.13.437-2.132 1.364-2.683l.771-.458-.55-.743c-.925-1.25-2.249-1.997-3.54-1.997-.896 0-1.518.254-2.017.46-.352.144-.63.257-.935.257-.348 0-.691-.132-1.089-.286-.522-.201-1.113-.43-1.872-.43-1.467 0-2.946.95-3.86 2.477-1.364 2.278-.99 6.183.89 9.287.746 1.23 1.79 2.643 3.27 2.657h.028c1.21 0 1.476-.7 2.652-.708 1.284.065 1.446.714 2.645.705 1.445-.015 2.487-1.416 3.315-2.786.49-.805.68-1.226 1.06-2.14l.323-.776-.735-.302zM9.656 2.57c.48-.667.842-1.608.71-2.57-.782.058-1.696.598-2.23 1.302-.485.638-.885 1.585-.73 2.506.854.029 1.737-.524 2.25-1.238z" fill="#FD3E72"/></svg>