<svg width="40" height="47" viewBox="0 0 40 47" fill="none" xmlns="http://www.w3.org/2000/svg">
<path d="M38.0406 31.9382C35.411 30.9437 33.6521 28.5559 33.4536 25.7082C33.259 22.9332 34.619 20.4687 37.0914 19.1146L39.1471 17.9885L37.679 16.1608C35.2125 13.089 31.6829 11.2534 28.2377 11.2534C25.8499 11.2534 24.1931 11.8784 22.8626 12.3815C21.9232 12.7372 21.1823 13.0163 20.3687 13.0163C19.441 13.0163 18.5252 12.6901 17.464 12.3127C16.0725 11.8175 14.4964 11.2554 12.4721 11.2554C8.56117 11.2554 4.61682 13.5902 2.17985 17.3439C-1.45791 22.943 -0.459539 32.5435 4.55393 40.1728C6.54084 43.1954 9.32567 46.6681 13.27 46.7034C13.2956 46.7034 13.3211 46.7034 13.3467 46.7034C16.5756 46.7034 17.2831 44.9818 20.4178 44.9622C23.8413 45.1233 24.2737 46.7172 27.4712 46.6956C31.3252 46.6602 34.1041 43.215 36.3131 39.8485C37.6181 37.8694 38.1231 36.8337 39.1392 34.5854L40 32.6791L38.0406 31.9382Z" fill="#FD3E72"/>
<path d="M25.7496 6.31646C27.027 4.6774 27.9959 2.36425 27.6441 0C25.557 0.143467 23.12 1.47004 21.6952 3.1995C20.402 4.76977 19.3349 7.09668 19.7495 9.3607C22.0253 9.43145 24.3817 8.07147 25.7496 6.31646Z" fill="#FD3E72"/>
</svg>
