<svg width="26" height="16" fill="none" xmlns="http://www.w3.org/2000/svg"><path d="M16.395 14.29h-6.98V1.71h6.98v12.58z" fill="#FF5F00"/><path d="M9.86 8a7.994 7.994 0 013.048-6.29A7.93 7.93 0 007.978 0C3.571 0 0 3.582 0 8s3.572 8 7.977 8a7.93 7.93 0 004.93-1.71A7.994 7.994 0 019.862 8z" fill="#EB001B"/><path d="M25.808 8c0 4.418-3.572 8-7.978 8a7.932 7.932 0 01-4.93-1.71A7.993 7.993 0 0015.946 8a7.993 7.993 0 00-3.048-6.29A7.933 7.933 0 0117.83 0c4.406 0 7.978 3.582 7.978 8z" fill="#F79E1B"/></svg>