<svg width="12" height="19" viewBox="0 0 12 19" fill="none" xmlns="http://www.w3.org/2000/svg">
<path d="M10.1919 13.7143L5.24211 18.6641C4.85179 19.0544 4.21822 19.0544 3.8279 18.6641C3.43758 18.2738 3.43758 17.6402 3.8279 17.2499L8.77765 12.3001C9.16797 11.9098 9.80154 11.9098 10.1919 12.3001C10.5822 12.6904 10.5822 13.324 10.1919 13.7143Z" fill="#EF4273"/>
<path d="M8.08346 1.70696L3.13371 6.6567C2.74339 7.04703 2.10982 7.04703 1.7195 6.6567C1.32918 6.26638 1.32918 5.63281 1.7195 5.24249L6.66925 0.292742C7.05957 -0.0975807 7.69314 -0.0975807 8.08346 0.292742C8.47449 0.683772 8.47378 1.31663 8.08346 1.70696Z" fill="#EF4273"/>
<path d="M11.6065 5.22906L1.70696 15.1286C1.31663 15.5189 0.683065 15.5189 0.292742 15.1286C-0.0975807 14.7382 -0.0975807 14.1047 0.292742 13.7143L10.1922 3.81484C10.5826 3.42452 11.2161 3.42452 11.6065 3.81484C11.9968 4.20517 11.9968 4.83873 11.6065 5.22906Z" fill="#EF4273"/>
</svg>
