<svg width="54" height="62" viewBox="0 0 54 62" fill="none" xmlns="http://www.w3.org/2000/svg">
<path d="M53 26C52.7348 26 52.4804 25.8946 52.2929 25.7071C52.1054 25.5196 52 25.2652 52 25C51.9934 18.9021 49.568 13.0558 45.2561 8.74385C40.9442 4.43195 35.0979 2.00662 29 2C28.7348 2 28.4804 1.89464 28.2929 1.70711C28.1054 1.51957 28 1.26522 28 1C28 0.734784 28.1054 0.48043 28.2929 0.292893C28.4804 0.105357 28.7348 0 29 0C35.6281 0.00741107 41.9827 2.64371 46.6695 7.33052C51.3563 12.0173 53.9926 18.3719 54 25C54 25.2652 53.8946 25.5196 53.7071 25.7071C53.5196 25.8946 53.2652 26 53 26Z" fill="#C562F3"/>
<path d="M32.9999 25.0001C32.9997 24.2091 32.765 23.4359 32.3255 22.7783C31.8859 22.1207 31.2613 21.6081 30.5305 21.3054C29.7997 21.0027 28.9956 20.9235 28.2197 21.0778C27.4439 21.2321 26.7313 21.6129 26.1719 22.1721L31.8279 27.8281C32.2 27.4573 32.4952 27.0165 32.6963 26.5312C32.8975 26.0458 33.0006 25.5255 32.9999 25.0001Z" fill="#C562F3"/>
<path d="M32.9999 25.0001C32.9997 24.2091 32.765 23.4359 32.3255 22.7783C31.8859 22.1207 31.2613 21.6081 30.5305 21.3054C29.7997 21.0027 28.9956 20.9235 28.2197 21.0778C27.4439 21.2321 26.7313 21.6129 26.1719 22.1721L31.8279 27.8281C32.2 27.4573 32.4952 27.0165 32.6963 26.5312C32.8975 26.0458 33.0006 25.5255 32.9999 25.0001Z" fill="#C562F3"/>
<path d="M44.42 43.2482L13.52 12.3482C10.5927 15.9143 8.99501 20.3865 9 25.0002C9 25.2654 8.89464 25.5197 8.70711 25.7073C8.51957 25.8948 8.26522 26.0002 8 26.0002C7.73478 26.0002 7.48043 25.8948 7.29289 25.7073C7.10536 25.5197 7 25.2654 7 25.0002C6.99503 19.8568 8.80052 14.8758 12.1 10.9302L10.75 9.58017C10.6496 9.47935 10.5289 9.4011 10.3959 9.35065C10.2629 9.3002 10.1207 9.27871 9.97872 9.2876C9.83675 9.2965 9.69831 9.33558 9.57264 9.40225C9.44698 9.46891 9.33698 9.56161 9.25 9.67417C5.99286 13.8627 4.15564 18.9804 4.00513 24.2842C3.85462 29.588 5.39864 34.8017 8.413 39.1682L0.293 47.2932C0.105451 47.4807 5.66374e-05 47.735 0 48.0002V61.0002C0 61.2654 0.105357 61.5197 0.292893 61.7073C0.48043 61.8948 0.734784 62.0002 1 62.0002H25C25.2652 62.0002 25.5196 61.8948 25.7071 61.7073C25.8946 61.5197 26 61.2654 26 61.0002V59.0002C26 58.735 25.8946 58.4806 25.7071 58.2931C25.5196 58.1055 25.2652 58.0002 25 58.0002H9V51.4142L14.832 45.5822C19.1985 48.5965 24.4122 50.1406 29.716 49.99C35.0197 49.8395 40.1375 48.0023 44.326 44.7452C44.4386 44.6582 44.5313 44.5482 44.5979 44.4225C44.6646 44.2969 44.7037 44.1584 44.7126 44.0165C44.7215 43.8745 44.7 43.7322 44.6495 43.5992C44.5991 43.4662 44.5208 43.3455 44.42 43.2452V43.2482Z" fill="#C562F3"/>
<path d="M46 26C45.7348 26 45.4804 25.8946 45.2929 25.7071C45.1054 25.5196 45 25.2652 45 25C44.995 20.7581 43.3076 16.6913 40.3082 13.6918C37.3087 10.6924 33.2419 9.00503 29 9C28.7348 9 28.4804 8.89464 28.2929 8.70711C28.1054 8.51957 28 8.26522 28 8C28 7.73478 28.1054 7.48043 28.2929 7.29289C28.4804 7.10536 28.7348 7 29 7C33.7722 7.00556 38.3473 8.90377 41.7218 12.2782C45.0962 15.6527 46.9944 20.2278 47 25C47 25.2652 46.8946 25.5196 46.7071 25.7071C46.5196 25.8946 46.2652 26 46 26Z" fill="#C562F3"/>
<path d="M39 26C38.7348 26 38.4804 25.8946 38.2929 25.7071C38.1054 25.5196 38 25.2652 38 25C37.9974 22.6139 37.0483 20.3262 35.361 18.639C33.6738 16.9517 31.3861 16.0026 29 16C28.7348 16 28.4804 15.8946 28.2929 15.7071C28.1054 15.5196 28 15.2652 28 15C28 14.7348 28.1054 14.4804 28.2929 14.2929C28.4804 14.1054 28.7348 14 29 14C31.9163 14.0034 34.7122 15.1635 36.7744 17.2256C38.8365 19.2878 39.9966 22.0837 40 25C40 25.2652 39.8946 25.5196 39.7071 25.7071C39.5196 25.8946 39.2652 26 39 26Z" fill="#C562F3"/>
</svg>
