<svg width="54" height="62" fill="none" xmlns="http://www.w3.org/2000/svg"><path d="M53 26a1 1 0 01-1-1A23.025 23.025 0 0029 2a1 1 0 110-2 25.028 25.028 0 0125 25 1 1 0 01-1 1zm-20-1a4 4 0 00-6.828-2.828l5.656 5.656A3.984 3.984 0 0033 25z" fill="#C562F3"/><path d="M33 25a4 4 0 00-6.828-2.828l5.656 5.656A3.984 3.984 0 0033 25zm11.42 18.248l-30.9-30.9A19.907 19.907 0 009 25a1 1 0 01-2 0 21.9 21.9 0 015.1-14.07l-1.35-1.35a1 1 0 00-1.5.094 24.953 24.953 0 00-.837 29.494l-8.12 8.125A1 1 0 000 48v13a1 1 0 001 1h24a1 1 0 001-1v-2a1 1 0 00-1-1H9v-6.586l5.832-5.832a24.953 24.953 0 0029.494-.837.999.999 0 00.094-1.5v.003zM46 26a1 1 0 01-1-1A16.02 16.02 0 0029 9a1 1 0 110-2 18.021 18.021 0 0118 18 1 1 0 01-1 1z" fill="#C562F3"/><path d="M39 26a1 1 0 01-1-1 9.01 9.01 0 00-9-9 1 1 0 010-2 11.013 11.013 0 0111 11 1 1 0 01-1 1z" fill="#C562F3"/></svg>