<svg width="44" height="44" fill="none" xmlns="http://www.w3.org/2000/svg"><path d="M40.587 33.47l-1.78.757a1.729 1.729 0 00-1.041 1.297l-.347 1.901c-.13.779-.803 1.362-1.584 1.427l-1.932.13a1.709 1.709 0 00-1.389.886l-.933 1.685a1.728 1.728 0 01-1.974.822l-1.866-.498a1.742 1.742 0 00-1.606.39l-1.432 1.296a1.768 1.768 0 01-2.127.151l-1.606-1.08a1.723 1.723 0 00-1.649-.151l-1.78.756a1.75 1.75 0 01-2.06-.54l-1.173-1.535c-.347-.475-.911-.713-1.497-.691l-1.931.13c-.803.064-1.52-.433-1.78-1.19l-.607-1.836a1.687 1.687 0 00-1.194-1.124l-1.866-.497a1.715 1.715 0 01-1.28-1.686l.022-1.923a1.81 1.81 0 00-.76-1.47l-1.606-1.08a1.74 1.74 0 01-.672-2.01l.65-1.816a1.681 1.681 0 00-.26-1.62L.355 22.815c-.477-.627-.477-1.513.022-2.118l1.215-1.513a1.742 1.742 0 00.304-1.62l-.608-1.838c-.26-.843.022-1.664.695-2.096l1.627-1.037c.5-.303.803-.843.803-1.448l.022-1.924c0-.8.564-1.47 1.324-1.664l1.888-.454a1.717 1.717 0 001.236-1.102l.651-1.815c.26-.757 1.02-1.21 1.801-1.146l1.932.195c.586.065 1.15-.195 1.519-.649L16 1.075a1.743 1.743 0 012.083-.497l1.758.8a1.6 1.6 0 001.67-.066L23.14.275a1.74 1.74 0 012.127.195l1.41 1.318c.434.41 1.02.562 1.606.432l1.888-.454a1.685 1.685 0 011.931.886l.89 1.708a1.77 1.77 0 001.367.929l1.931.173c.782.065 1.432.67 1.541 1.47l.282 1.901a1.7 1.7 0 00.998 1.319l1.758.8a1.753 1.753 0 01.998 1.88l-.347 1.901a1.666 1.666 0 00.52 1.556l1.411 1.319c.586.54.716 1.404.326 2.096l-.955 1.686c-.282.518-.304 1.123-.022 1.642l.912 1.707a1.72 1.72 0 01-.391 2.097l-1.454 1.275a1.747 1.747 0 00-.564 1.556l.304 1.902c.13.82-.282 1.577-1.02 1.902z" fill="#FD3E72"/><path d="M21.99 34.184c6.664 0 12.065-5.38 12.065-12.016 0-6.637-5.401-12.016-12.065-12.016-6.663 0-12.065 5.38-12.065 12.016s5.402 12.016 12.065 12.016z" fill="#F9F8F4"/><path d="M9.187 9.784l2.54 1.989-.392.497-1.584-1.232.608 1.47-.26.324-1.584-.238 1.584 1.232-.391.497-2.56-1.967.39-.497 2.062.346-.847-1.902.434-.519zm3.559 1.038a1.553 1.553 0 01-.63.043c-.216-.022-.39-.108-.585-.216a1.644 1.644 0 01-.5-.454 1.767 1.767 0 01-.303-.605 1.236 1.236 0 01-.044-.627 1.29 1.29 0 01.217-.583c.109-.195.26-.368.456-.497.195-.152.39-.238.586-.303.217-.065.412-.065.63-.043.195.021.39.086.585.216.196.108.37.26.5.454.151.194.26.389.303.605.065.216.065.432.043.627-.021.194-.108.389-.216.583-.109.195-.26.346-.456.497a1.68 1.68 0 01-.586.303zm.52-1.08a.726.726 0 00.11-.368c0-.13 0-.26-.044-.39a1.634 1.634 0 00-.196-.388c-.13-.152-.26-.281-.433-.346a.825.825 0 00-.5-.086 1.02 1.02 0 00-.477.194.921.921 0 00-.326.432.855.855 0 00-.043.519c.022.173.109.346.217.497a.97.97 0 00.434.346.864.864 0 00.52.086 1.01 1.01 0 00.5-.194c.087-.087.174-.195.239-.303zm2.952-4.496l1.324 2.94-.608.258-2.17-1.383.868 1.945-.586.26-1.324-2.94.586-.259 2.214 1.405-.89-1.988.586-.238zm1.172-.367l2.018-.454.13.562-1.41.302.173.757 1.129-.238.13.54-1.128.26.151.734 1.498-.324.13.562-2.127.476-.694-3.177zm5.663-.671l-1.02 1.837.044 1.427-.651.021-.043-1.426-1.129-1.772.738-.022.694 1.167.608-1.188.76-.044zm3.993 2.572c.087.173.087.346.043.562a.75.75 0 01-.151.324.924.924 0 01-.26.238c-.11.065-.218.086-.37.108-.152.022-.304 0-.456-.043l-1.302-.324.76-3.134 1.15.26c.326.086.564.215.716.388a.647.647 0 01.13.627.72.72 0 01-.108.26c-.044.086-.13.15-.217.216-.087.064-.195.086-.326.108.196.108.326.237.391.41zm-.933.605a.456.456 0 00.239-.086.315.315 0 00.13-.195.406.406 0 00-.065-.324.741.741 0 00-.39-.216l-.5-.13-.195.8.477.13c.109.021.217.021.304.021zm-.5-1.47l.457.109a.996.996 0 00.238.021.324.324 0 00.195-.086.227.227 0 00.109-.195.297.297 0 000-.194c-.022-.065-.065-.108-.13-.173a.853.853 0 00-.282-.108l-.413-.108-.173.735zm3.582 2.595l-1.129-.52-.477.498-.608-.281 2.452-2.42.564.259-.26 3.436-.607-.281.065-.692zm.065-.584l.13-1.34-.933.972.803.368zm1.41 2.182a1.217 1.217 0 01-.239-.432 1.227 1.227 0 01-.087-.475c0-.173.022-.324.087-.519a2.04 2.04 0 01.282-.519c.109-.15.24-.28.37-.389.13-.108.281-.194.433-.237.152-.065.326-.087.478-.087.152 0 .325.022.52.087.196.065.348.151.521.28.13.087.239.195.326.325.087.13.173.26.239.432.065.173.108.346.108.519l-.608.043a1.16 1.16 0 00-.108-.454.983.983 0 00-.304-.367.88.88 0 00-.195-.108 2.744 2.744 0 00-.217-.065c-.065-.022-.152-.022-.217-.022a.773.773 0 00-.217.043.772.772 0 00-.195.087c-.066.043-.13.086-.196.151-.065.065-.13.13-.173.195a1.128 1.128 0 00-.217.497.959.959 0 00.824 1.08c.152.022.326.022.478-.021l.13.605a1.595 1.595 0 01-.716.021 1.43 1.43 0 01-.695-.302 1.718 1.718 0 01-.412-.368zm3.277 1.232l-.5.022-.694.605-.434-.475 2.43-2.14.434.475-1.063.951 1.823-.108.543.605-1.867.065-.52 2.118-.521-.583.369-1.535zM9.99 35.07a1.5 1.5 0 01-.174-.584c-.021-.194 0-.41.087-.605.065-.216.195-.41.37-.605.151-.173.325-.303.52-.41.195-.109.39-.152.586-.174.195-.021.412 0 .607.087.217.065.413.194.586.346.174.15.326.345.434.562.109.216.152.453.174.691l-.586-.022a1.135 1.135 0 00-.39-.8 1.3 1.3 0 00-.326-.194c-.109-.043-.239-.065-.369-.043a.802.802 0 00-.369.108c-.13.065-.239.151-.347.281-.13.151-.217.303-.26.476a1.05 1.05 0 000 .518.891.891 0 00.303.454c.174.151.39.26.608.303l.304-.346-.543-.476.37-.41.997.886-.911 1.037c-.195 0-.39-.065-.608-.151a2.069 2.069 0 01-.607-.39 1.625 1.625 0 01-.456-.54zm2.908 2.226a1.16 1.16 0 01-.239-.93c.022-.172.109-.367.217-.562l.933-1.642.565.324-.934 1.621a.695.695 0 00-.13.39.693.693 0 00.044.367c.043.108.13.194.26.259a.56.56 0 00.52.043c.175-.065.326-.216.457-.432l.91-1.6.565.325-.933 1.642c-.13.238-.304.432-.499.562a1.08 1.08 0 01-.63.195c-.216 0-.455-.065-.694-.195a2.262 2.262 0 01-.412-.367zm4.405 1.318l-1.172-.389-.412.54-.63-.216 2.149-2.658.586.194.108 3.415-.629-.216v-.67zm-.022-.583v-1.34l-.803 1.058.803.282zm3.19 1.836l-.564-1.188-.369-.043-.152 1.08-.63-.086.413-3.177 1.215.151c.196.022.348.065.478.151a.96.96 0 01.325.26c.065.108.13.237.152.367.022.13.022.281.022.432a1.264 1.264 0 01-.13.433.658.658 0 01-.26.28c-.11.065-.24.13-.37.152l.63 1.253-.76-.065zm-.868-1.772l.434.065c.195.022.347 0 .456-.065.108-.064.173-.194.195-.345a.421.421 0 00-.108-.368c-.087-.108-.217-.173-.413-.194l-.477-.065-.087.972zm4.318 1.145l-1.237.087-.173.649-.673.043.977-3.264.607-.043 1.389 3.134-.673.043-.217-.648zm-.217-.54l-.52-1.231-.348 1.275.868-.044zm3.776-2.852l.846 3.09-.629.173-1.931-1.664.564 2.053-.607.173-.847-3.09.608-.173 1.953 1.707-.586-2.096.63-.173zm1.302 0l-.803.389-.26-.519 2.17-1.08.26.518-.803.39 1.172 2.355-.564.28-1.172-2.333zm1.345-1.362l1.65-1.21.347.454-1.15.843.455.626.933-.67.326.454-.933.67.434.605 1.237-.907.347.453-1.736 1.276-1.91-2.594zm2.019-1.513l1.432-1.47.412.39-.998 1.037.564.54.803-.82.412.388-.803.822.543.518 1.063-1.102.413.389-1.498 1.556-2.343-2.248z" fill="#fff"/><path d="M20.645 22.751c.26.39.39.843.39 1.362 0 .519-.13.994-.412 1.383-.282.41-.65.713-1.128.93a3.875 3.875 0 01-1.606.324c-.803 0-1.497-.195-2.083-.562a3.015 3.015 0 01-1.237-1.47l1.606-.67c.26.692.802 1.037 1.605 1.037.391 0 .716-.108.977-.345.26-.238.39-.52.39-.886 0-.346-.13-.649-.39-.886-.26-.238-.651-.346-1.129-.346h-.672V21.13h.824c.391 0 .695-.109.89-.303.195-.195.304-.476.304-.778a1.06 1.06 0 00-.347-.821 1.235 1.235 0 00-.868-.325c-.608 0-1.064.26-1.367.779l-1.476-.779c.217-.497.586-.886 1.085-1.188.52-.303 1.107-.454 1.78-.454.412 0 .802.065 1.171.173.37.108.673.26.955.475.26.216.477.476.63.778.151.325.238.67.238 1.06a2.5 2.5 0 01-.304 1.21c-.195.367-.499.648-.89.886v.043c.434.194.803.475 1.064.864zm3.754 3.674a3.17 3.17 0 01-1.15-.93c-.326-.41-.564-.907-.738-1.49-.174-.584-.26-1.275-.26-2.01a6.9 6.9 0 01.26-1.945c.174-.605.412-1.08.716-1.513a3.33 3.33 0 011.15-.973c.456-.237.955-.345 1.52-.345.542 0 1.04.108 1.475.324a3.17 3.17 0 011.15.93c.325.41.564.907.738 1.49.173.584.26 1.275.26 2.01 0 .951-.152 1.772-.434 2.486-.282.713-.716 1.275-1.259 1.664a3.256 3.256 0 01-1.93.605 3.102 3.102 0 01-1.498-.303zm2.777-2.16c.304-.52.456-1.276.456-2.249 0-.95-.152-1.685-.456-2.226-.303-.54-.737-.82-1.28-.82-.542 0-.976.259-1.28.799-.304.519-.478 1.275-.478 2.247 0 .627.065 1.168.196 1.621.13.454.347.8.607 1.06.26.237.586.367.933.367.565-.022.977-.281 1.302-.8z" fill="#353438"/><path d="M21.99 11.103l.477 1.448h1.541l-1.258.82.477 1.406-1.237-.908-1.259.886.478-1.383-1.237-.821h1.54l.478-1.448zm3.906 1.923l.325 1.038h1.107l-.89.54.348.994-.89-.67-.911.627.347-.951-.89-.54h1.107l.347-1.038zm-7.812 0l.326 1.038h1.106l-.89.54.348.994-.89-.67-.911.627.347-.951-.89-.54h1.107l.347-1.038z" fill="#FD3E72"/><path d="M17.94 31.02h.838a1.5 1.5 0 00.54-.091c.161-.06.295-.144.405-.255a1.1 1.1 0 00.253-.395c.058-.153.089-.321.089-.505 0-.182-.03-.352-.093-.507a1.144 1.144 0 00-.26-.397 1.178 1.178 0 00-.41-.258 1.487 1.487 0 00-.535-.093h-.826v2.501zm.489-.442v-1.615h.349a.78.78 0 01.399.104.72.72 0 01.274.29c.066.123.1.262.1.417 0 .113-.02.22-.058.318a.73.73 0 01-.416.425.866.866 0 01-.33.061h-.318zm3.556.442h.517l-.93-2.5h-.477l-.927 2.5h.518l.17-.5h.959l.17.5zm-.987-.923l.334-.981h.003l.335.981h-.672zm2.91-1.577l-.503.912h-.007l-.509-.913h-.567l.826 1.403v1.098h.5v-1.098l.832-1.403h-.572zm1.597 2.53c.084 0 .167-.01.25-.027a.899.899 0 00.44-.235.655.655 0 00.142-.218.789.789 0 00.005-.562.668.668 0 00-.311-.315 5.273 5.273 0 00-.414-.177 1.828 1.828 0 01-.272-.119.334.334 0 01-.086-.061.202.202 0 01-.046-.07.19.19 0 01-.018-.083c0-.078.03-.14.085-.184a.333.333 0 01.216-.067c.162 0 .344.082.545.245l.285-.372a1.277 1.277 0 00-.842-.315.935.935 0 00-.405.098.726.726 0 00-.29.256.643.643 0 00-.107.361.721.721 0 00.082.339.544.544 0 00.096.125.8.8 0 00.12.101 1.406 1.406 0 00.296.153c.047.02.1.04.162.06l.163.06c.041.018.08.037.119.058.038.02.067.042.087.063a.254.254 0 01.049.076.3.3 0 01.017.098.24.24 0 01-.04.137.264.264 0 01-.122.093.491.491 0 01-.197.034.737.737 0 01-.314-.076.8.8 0 01-.16-.097.87.87 0 01-.149-.14l-.297.367a1.263 1.263 0 00.91.393z" fill="#353438"/><path d="M6.04 23.054c.564 0 1.02-.455 1.02-1.016 0-.56-.456-1.016-1.02-1.016-.563 0-1.02.455-1.02 1.016 0 .561.457 1.016 1.02 1.016zm32.333 0c.564 0 1.02-.455 1.02-1.016 0-.56-.456-1.016-1.02-1.016-.563 0-1.02.455-1.02 1.016 0 .561.457 1.016 1.02 1.016z" fill="#fff"/></svg>