<svg width="44" height="44" viewBox="0 0 44 44" fill="none" xmlns="http://www.w3.org/2000/svg">
<path d="M40.5869 33.4705L38.8075 34.2269C38.265 34.4431 37.8744 34.9401 37.7659 35.5236L37.4187 37.4255C37.2885 38.2035 36.6158 38.787 35.8346 38.8518L33.9033 38.9815C33.3174 39.0247 32.7966 39.3489 32.5145 39.8676L31.5814 41.5533C31.1908 42.2449 30.3879 42.5906 29.6067 42.3745L27.7406 41.8775C27.1764 41.7262 26.5688 41.8775 26.1348 42.2665L24.7026 43.5632C24.1167 44.0818 23.227 44.1467 22.576 43.7145L20.9702 42.6339C20.4928 42.3097 19.8635 42.2449 19.321 42.4826L17.5416 43.239C16.8038 43.5416 15.9576 43.3254 15.4802 42.6987L14.3084 41.1643C13.9612 40.6888 13.397 40.4511 12.8111 40.4727L10.8798 40.6024C10.0769 40.6672 9.36081 40.1701 9.10041 39.4137L8.49282 37.5767C8.31922 37.0148 7.86352 36.6042 7.29932 36.4529L5.43314 35.9559C4.67365 35.7614 4.13115 35.0482 4.15285 34.2702L4.17455 32.3467C4.17455 31.7632 3.89245 31.2229 3.41506 30.8771L1.80927 29.7965C1.15827 29.3643 0.876176 28.5215 1.13657 27.7867L1.78757 25.9713C1.98287 25.431 1.89607 24.8043 1.52717 24.3504L0.35538 22.816C-0.122016 22.1892 -0.122016 21.3032 0.37708 20.698L1.59227 19.1852C1.96117 18.7314 2.06967 18.1263 1.89607 17.5644L1.28847 15.7274C1.02807 14.8845 1.31017 14.0633 1.98287 13.631L3.61035 12.5937C4.10945 12.2911 4.41325 11.7508 4.41325 11.1457L4.43495 9.22225C4.43495 8.42262 4.99914 7.75266 5.75864 7.55816L7.64652 7.10431C8.21072 6.97464 8.68811 6.56402 8.88341 6.00212L9.53441 4.18674C9.7948 3.43033 10.5543 2.97649 11.3355 3.04132L13.2668 3.23583C13.8527 3.30066 14.4169 3.04132 14.7858 2.58748L16.001 1.07466C16.5 0.447922 17.3463 0.253417 18.0841 0.577592L19.8418 1.37722C20.3843 1.67979 21.0136 1.63656 21.5127 1.31239L23.1402 0.275029C23.8129 -0.157204 24.6809 -0.0707574 25.2668 0.469534L26.6773 1.78784C27.1113 2.19847 27.6972 2.34975 28.2831 2.22008L30.1709 1.76623C30.9521 1.57173 31.755 1.93913 32.1022 2.65231L32.9919 4.35963C33.274 4.87831 33.7731 5.2241 34.359 5.28893L36.2903 5.46183C37.0715 5.52666 37.7225 6.13179 37.831 6.93142L38.1131 8.83324C38.1999 9.41676 38.5688 9.91383 39.1113 10.1516L40.869 10.9512C41.585 11.2754 41.9973 12.0534 41.8671 12.8314L41.5199 14.7332C41.4114 15.3167 41.6068 15.9003 42.0407 16.2893L43.4512 17.6076C44.0371 18.1479 44.1673 19.0123 43.7767 19.7039L42.8219 21.3896C42.5398 21.9083 42.5181 22.5134 42.8002 23.0321L43.7116 24.7394C44.0805 25.431 43.9286 26.2955 43.321 26.8357L41.8671 28.1108C41.4332 28.4998 41.2161 29.0834 41.3029 29.6669L41.6068 31.5687C41.7369 32.3899 41.3247 33.1464 40.5869 33.4705Z" fill="#FD3E72"/>
<path d="M21.9902 34.1837C28.6535 34.1837 34.0553 28.8039 34.0553 22.1676C34.0553 15.5313 28.6535 10.1516 21.9902 10.1516C15.3268 10.1516 9.92505 15.5313 9.92505 22.1676C9.92505 28.8039 15.3268 34.1837 21.9902 34.1837Z" fill="#F9F8F4"/>
<path d="M9.18725 9.78444L11.7261 11.7727L11.3355 12.2698L9.75144 11.0379L10.359 12.5075L10.0986 12.8317L8.51455 12.594L10.0986 13.8258L9.70804 14.3229L7.14746 12.3562L7.53806 11.8592L9.59954 12.2049L8.75325 10.3031L9.18725 9.78444Z" fill="white"/>
<path d="M12.7459 10.8217C12.5289 10.8866 12.3336 10.8866 12.1166 10.865C11.8996 10.8433 11.726 10.7569 11.5307 10.6488C11.3354 10.5408 11.1835 10.3895 11.0316 10.195C10.8797 10.0005 10.7929 9.80598 10.7278 9.58987C10.6627 9.37375 10.641 9.17925 10.6844 8.96313C10.7061 8.76862 10.7712 8.57412 10.9014 8.37961C11.0099 8.18511 11.1618 8.01222 11.3571 7.88255C11.5524 7.73127 11.7477 7.64482 11.943 7.57998C12.16 7.51515 12.3553 7.51515 12.5723 7.53676C12.7676 7.55837 12.9629 7.62321 13.1582 7.75288C13.3535 7.86093 13.5271 8.01222 13.6573 8.20672C13.8092 8.40123 13.9177 8.59573 13.9611 8.81185C14.0262 9.02796 14.0262 9.24408 14.0045 9.43859C13.9828 9.63309 13.896 9.8276 13.7875 10.0221C13.679 10.2166 13.5271 10.3679 13.3318 10.5192C13.1799 10.6488 12.9629 10.7569 12.7459 10.8217ZM13.2667 9.74115C13.3318 9.63309 13.3752 9.50342 13.3752 9.37375C13.3752 9.24408 13.3752 9.11441 13.3318 8.98474C13.2884 8.85507 13.2233 8.7254 13.1365 8.59573C13.0063 8.44445 12.8761 8.31478 12.7025 8.24994C12.5289 8.1635 12.377 8.14189 12.2034 8.1635C12.0298 8.18511 11.8779 8.24994 11.726 8.358C11.5741 8.46606 11.4656 8.61734 11.4005 8.79024C11.3354 8.96313 11.3137 9.13602 11.3571 9.30892C11.3788 9.48181 11.4656 9.6547 11.5741 9.80598C11.6826 9.95727 11.8345 10.0869 12.0081 10.1518C12.1817 10.2382 12.3336 10.2598 12.5289 10.2382C12.7242 10.2166 12.8761 10.1518 13.028 10.0437C13.1148 9.95727 13.2016 9.84921 13.2667 9.74115Z" fill="white"/>
<path d="M16.2179 5.24588L17.5416 8.18507L16.934 8.44441L14.764 7.06126L15.632 9.00631L15.0461 9.26565L13.7224 6.32646L14.3083 6.06712L16.5217 7.47188L15.632 5.48361L16.2179 5.24588Z" fill="white"/>
<path d="M17.3899 4.8786L19.408 4.42476L19.5382 4.98666L18.1277 5.28922L18.3013 6.04563L19.4297 5.8079L19.5599 6.3482L18.4315 6.60754L18.5834 7.34233L20.0807 7.01816L20.2109 7.58006L18.0843 8.05552L17.3899 4.8786Z" fill="white"/>
<path d="M23.0534 4.20844L22.0335 6.04543L22.0769 7.4718L21.4259 7.49341L21.3825 6.06704L20.2542 4.29488L20.9919 4.27327L21.6863 5.4403L22.2939 4.25166L23.0534 4.20844Z" fill="white"/>
<path d="M27.046 6.78023C27.1328 6.95312 27.1328 7.12601 27.0894 7.34213C27.0677 7.4718 27.0026 7.57986 26.9375 7.6663C26.8724 7.75275 26.7856 7.8392 26.6771 7.90403C26.5686 7.96887 26.4601 7.99048 26.3082 8.01209C26.1563 8.0337 26.0044 8.01209 25.8525 7.96887L24.5505 7.64469L25.31 4.511L26.4601 4.77034C26.7856 4.85679 27.0243 4.98646 27.1762 5.15935C27.3281 5.33224 27.3715 5.54836 27.3064 5.78609C27.2847 5.89415 27.2413 5.98059 27.1979 6.04543C27.1545 6.13188 27.0677 6.19671 26.9809 6.26155C26.8941 6.32638 26.7856 6.34799 26.6554 6.3696C26.8507 6.47766 26.9809 6.60733 27.046 6.78023ZM26.1129 7.38535C26.1997 7.38535 26.2865 7.34213 26.3516 7.29891C26.4167 7.25568 26.4601 7.19085 26.4818 7.1044C26.5035 6.97473 26.4818 6.86667 26.4167 6.78023C26.3299 6.69378 26.2214 6.60733 26.0261 6.56411L25.527 6.43444L25.3317 7.23407L25.8091 7.36374C25.9176 7.38535 26.0261 7.38535 26.1129 7.38535ZM25.6138 5.91576L26.0695 6.02382C26.1563 6.04543 26.2431 6.04543 26.3082 6.04543C26.3733 6.04543 26.4601 6.00221 26.5035 5.95898C26.5686 5.91576 26.612 5.85092 26.612 5.76448C26.6337 5.69964 26.6337 5.6132 26.612 5.56997C26.5903 5.50514 26.5469 5.46191 26.4818 5.39708C26.4167 5.35386 26.3082 5.31063 26.1997 5.28902L25.7874 5.18096L25.6138 5.91576Z" fill="white"/>
<path d="M29.1946 8.50926L28.0662 7.99058L27.5888 8.48765L26.9812 8.2067L29.4333 5.78619L29.9975 6.04553L29.7371 9.48179L29.1295 9.20083L29.1946 8.50926ZM29.2597 7.92575L29.3899 6.58582L28.4568 7.55835L29.2597 7.92575Z" fill="white"/>
<path d="M30.67 10.1085C30.5615 9.97883 30.4747 9.82755 30.4313 9.67627C30.3662 9.52499 30.3445 9.3521 30.3445 9.20081C30.3445 9.02792 30.3662 8.87664 30.4313 8.68213C30.4964 8.50924 30.5832 8.33635 30.7134 8.16346C30.8219 8.01217 30.9521 7.8825 31.0823 7.77445C31.2125 7.66639 31.3644 7.57994 31.5163 7.53672C31.6682 7.47188 31.8418 7.45027 31.9937 7.45027C32.1456 7.45027 32.3192 7.47188 32.5145 7.53672C32.7098 7.60155 32.8617 7.688 33.0353 7.81767C33.1655 7.90412 33.274 8.01217 33.3608 8.14184C33.4476 8.27151 33.5344 8.40118 33.5995 8.57408C33.6646 8.74697 33.708 8.91986 33.708 9.09276L33.1004 9.13598C33.1004 8.9847 33.057 8.83342 32.9919 8.68213C32.9268 8.53085 32.8183 8.4228 32.6881 8.31474C32.623 8.27151 32.5579 8.22829 32.4928 8.20668C32.4277 8.18507 32.3626 8.16346 32.2758 8.14184C32.2107 8.12023 32.1239 8.12023 32.0588 8.12023C31.9937 8.12023 31.9069 8.14184 31.8418 8.16346C31.7767 8.18507 31.7116 8.20668 31.6465 8.2499C31.5814 8.29313 31.5163 8.33635 31.4512 8.40118C31.3861 8.46602 31.321 8.53085 31.2776 8.59569C31.1691 8.74697 31.0823 8.91986 31.0606 9.09276C31.0389 9.26565 31.0606 9.43854 31.1257 9.58982C31.1908 9.74111 31.2993 9.89239 31.4512 10.0004C31.5814 10.0869 31.7333 10.1517 31.8852 10.1733C32.0371 10.195 32.2107 10.195 32.3626 10.1517L32.4928 10.7569C32.2541 10.8217 32.0371 10.8217 31.7767 10.7785C31.5163 10.7352 31.2993 10.6488 31.0823 10.4759C30.9087 10.3678 30.7785 10.2382 30.67 10.1085Z" fill="white"/>
<path d="M33.9466 11.3403L33.4475 11.3619L32.7531 11.967L32.3191 11.4916L34.7495 9.35202L35.1835 9.82748L34.1202 10.7784L35.943 10.6703L36.4855 11.2755L34.6193 11.3403L34.0985 13.4582L33.5777 12.8747L33.9466 11.3403Z" fill="white"/>
<path d="M9.99002 35.0696C9.88152 34.8751 9.83812 34.6806 9.81642 34.4861C9.79472 34.2916 9.81642 34.0755 9.90322 33.881C9.96832 33.6649 10.0985 33.4704 10.2721 33.2759C10.424 33.103 10.5976 32.9733 10.7929 32.8653C10.9882 32.7572 11.1835 32.714 11.3788 32.6924C11.5741 32.6708 11.7911 32.6924 11.9864 32.7788C12.2034 32.8436 12.3987 32.9733 12.5723 33.1246C12.7459 33.2759 12.8978 33.4704 13.0063 33.6865C13.1148 33.9026 13.1582 34.1403 13.1799 34.3781L12.594 34.3565C12.5723 34.0323 12.4421 33.7729 12.2034 33.5568C12.0949 33.4704 11.9864 33.4056 11.8779 33.3623C11.7694 33.3191 11.6392 33.2975 11.509 33.3191C11.3788 33.3191 11.2703 33.3623 11.1401 33.4272C11.0099 33.492 10.9014 33.5784 10.7929 33.7081C10.6627 33.8594 10.5759 34.0107 10.5325 34.1836C10.4891 34.3565 10.4891 34.5294 10.5325 34.7023C10.5759 34.8751 10.6844 35.0264 10.8363 35.1561C11.0099 35.3074 11.2269 35.4154 11.4439 35.4587L11.7477 35.1129L11.2052 34.6374L11.5741 34.2268L12.5723 35.1129L11.6609 36.1502C11.4656 36.1502 11.2703 36.0854 11.0533 35.999C10.8363 35.9125 10.641 35.7828 10.4457 35.6099C10.207 35.4154 10.0768 35.2425 9.99002 35.0696Z" fill="white"/>
<path d="M12.898 37.2957C12.7895 37.1661 12.7244 37.0148 12.681 36.8635C12.6376 36.7122 12.6376 36.5393 12.6593 36.3664C12.681 36.1935 12.7678 35.999 12.8763 35.8045L13.8094 34.162L14.3736 34.4862L13.4405 36.1071C13.3537 36.2368 13.3103 36.3664 13.3103 36.4961C13.2886 36.6258 13.3103 36.7554 13.3537 36.8635C13.3971 36.9716 13.4839 37.058 13.6141 37.1228C13.7877 37.2309 13.9613 37.2309 14.1349 37.1661C14.3085 37.1012 14.4604 36.9499 14.5906 36.7338L15.5019 35.1346L16.0661 35.4587L15.1331 37.1012C15.0029 37.339 14.8293 37.5335 14.634 37.6631C14.4387 37.7928 14.2434 37.8576 14.0047 37.8576C13.7877 37.8576 13.549 37.7928 13.3103 37.6631C13.1584 37.5551 13.0065 37.4254 12.898 37.2957Z" fill="white"/>
<path d="M17.303 38.614L16.1312 38.225L15.7189 38.7652L15.0896 38.5491L17.2379 35.8909L17.8238 36.0854L17.9323 39.5L17.303 39.2839V38.614ZM17.2813 38.0305V36.6905L16.4784 37.7495L17.2813 38.0305Z" fill="white"/>
<path d="M20.4711 39.8675L19.9069 38.6789L19.538 38.6357L19.3861 39.7162L18.7568 39.6298L19.1691 36.4529L20.3843 36.6042C20.5796 36.6258 20.7315 36.669 20.8617 36.7554C20.9919 36.8203 21.1004 36.9067 21.1872 37.0148C21.2523 37.1228 21.3174 37.2525 21.3391 37.3822C21.3608 37.5118 21.3608 37.6631 21.3608 37.8144C21.3391 37.9873 21.2957 38.117 21.2306 38.2466C21.1655 38.3763 21.0787 38.4628 20.9702 38.5276C20.8617 38.5924 20.7315 38.6573 20.6013 38.6789L21.2306 39.9324L20.4711 39.8675ZM19.6031 38.0954L20.0371 38.1602C20.2324 38.1818 20.3843 38.1602 20.4928 38.0954C20.6013 38.0305 20.6664 37.9009 20.6881 37.7496C20.7098 37.5983 20.6664 37.4686 20.5796 37.3822C20.4928 37.2741 20.3626 37.2093 20.1673 37.1877L19.6899 37.1228L19.6031 38.0954Z" fill="white"/>
<path d="M23.9213 39.2408L22.6844 39.3272L22.5108 39.9756L21.8381 40.0188L22.8146 36.7554L23.4222 36.7122L24.811 39.8459L24.1383 39.8891L23.9213 39.2408ZM23.7043 38.7005L23.1835 37.4686L22.8363 38.7437L23.7043 38.7005Z" fill="white"/>
<path d="M27.4802 35.8478L28.3265 38.9383L27.6972 39.1112L25.7659 37.4471L26.3301 39.5002L25.7225 39.6731L24.8762 36.5826L25.4838 36.4097L27.4368 38.117L26.8509 36.0207L27.4802 35.8478Z" fill="white"/>
<path d="M28.7823 35.8476L27.9794 36.2367L27.719 35.718L29.889 34.6374L30.1494 35.1561L29.3465 35.5451L30.5183 37.9007L29.9541 38.1817L28.7823 35.8476Z" fill="white"/>
<path d="M30.1274 34.4862L31.7766 33.2759L32.1238 33.7298L30.9737 34.5726L31.4294 35.1994L32.3625 34.5294L32.688 34.9833L31.7549 35.6532L32.1889 36.2584L33.4258 35.3507L33.773 35.8045L32.037 37.0796L30.1274 34.4862Z" fill="white"/>
<path d="M32.1458 32.9734L33.5779 31.5038L33.9902 31.8928L32.992 32.9302L33.5562 33.4705L34.3591 32.6492L34.7714 33.0382L33.9685 33.8595L34.511 34.3782L35.5743 33.276L35.9866 33.665L34.4893 35.221L32.1458 32.9734Z" fill="white"/>
<path d="M20.6448 22.7514C20.9052 23.1404 21.0354 23.5942 21.0354 24.1129C21.0354 24.6316 20.9052 25.107 20.6231 25.496C20.341 25.9067 19.9721 26.2092 19.4947 26.4253C19.0173 26.6414 18.4748 26.7495 17.8889 26.7495C17.086 26.7495 16.3916 26.555 15.8057 26.1876C15.2198 25.8202 14.8075 25.3231 14.5688 24.718L16.1746 24.048C16.435 24.7396 16.9775 25.0854 17.7804 25.0854C18.171 25.0854 18.4965 24.9774 18.7569 24.7396C19.0173 24.5019 19.1475 24.2209 19.1475 23.8535C19.1475 23.5078 19.0173 23.2052 18.7569 22.9675C18.4965 22.7297 18.1059 22.6217 17.6285 22.6217H16.9558V21.1305H17.7804C18.171 21.1305 18.4748 21.0224 18.6701 20.8279C18.8654 20.6334 18.9739 20.3525 18.9739 20.0499C18.9739 19.7257 18.8654 19.4448 18.6267 19.2287C18.388 19.0125 18.1059 18.9045 17.7587 18.9045C17.1511 18.9045 16.6954 19.1638 16.3916 19.6825L14.916 18.9045C15.133 18.4074 15.5019 18.0184 16.001 17.7158C16.5218 17.4133 17.1077 17.262 17.7804 17.262C18.1927 17.262 18.5833 17.3268 18.9522 17.4349C19.3211 17.5429 19.6249 17.6942 19.907 17.9103C20.1674 18.1265 20.3844 18.3858 20.5363 18.6884C20.6882 19.0125 20.775 19.3583 20.775 19.7473C20.775 20.2012 20.6665 20.5902 20.4712 20.9576C20.2759 21.325 19.9721 21.6059 19.5815 21.8437V21.8869C20.0155 22.0814 20.3844 22.3623 20.6448 22.7514Z" fill="#353438"/>
<path d="M24.3988 26.4252C23.9431 26.2091 23.5742 25.9065 23.2487 25.4959C22.9232 25.0853 22.6845 24.5882 22.5109 24.0047C22.3373 23.4212 22.2505 22.7296 22.2505 21.9948C22.2505 21.2816 22.3373 20.6549 22.5109 20.0498C22.6845 19.4447 22.9232 18.9692 23.227 18.537C23.5308 18.1263 23.9214 17.8022 24.3771 17.5644C24.8328 17.3267 25.3319 17.2187 25.8961 17.2187C26.4386 17.2187 26.9377 17.3267 27.3716 17.5428C27.8273 17.7589 28.1962 18.0615 28.5217 18.4721C28.8472 18.8828 29.0859 19.3798 29.2595 19.9633C29.4331 20.5469 29.5199 21.2384 29.5199 21.9732C29.5199 22.9241 29.368 23.7454 29.0859 24.4586C28.8038 25.1717 28.3698 25.7337 27.8273 26.1227C27.2849 26.5117 26.6339 26.7278 25.8961 26.7278C25.3319 26.7494 24.8545 26.6413 24.3988 26.4252ZM27.1764 24.2641C27.4801 23.7454 27.632 22.989 27.632 22.0164C27.632 21.0655 27.4801 20.3307 27.1764 19.7904C26.8726 19.2502 26.4386 18.9692 25.8961 18.9692C25.3536 18.9692 24.9196 19.2285 24.6158 19.7688C24.312 20.2875 24.1384 21.0439 24.1384 22.0164C24.1384 22.6432 24.2035 23.1835 24.3337 23.6373C24.4639 24.0912 24.6809 24.437 24.9413 24.6963C25.2017 24.934 25.5272 25.0637 25.8744 25.0637C26.4386 25.0421 26.8509 24.7827 27.1764 24.2641Z" fill="#353438"/>
<path d="M21.99 11.1026L22.4674 12.5506H24.0081L22.7495 13.3719L23.2269 14.7766L21.99 13.8689L20.7314 14.755L21.2088 13.3719L19.9719 12.5506H21.5126L21.99 11.1026Z" fill="#FD3E72"/>
<path d="M25.896 13.0262L26.2215 14.0636H27.3282L26.4385 14.6039L26.7857 15.598L25.896 14.928L24.9846 15.5548L25.3318 14.6039L24.4421 14.0636H25.5488L25.896 13.0262Z" fill="#FD3E72"/>
<path d="M18.084 13.0262L18.4095 14.0636H19.5162L18.6265 14.6039L18.9737 15.598L18.084 14.928L17.1726 15.5548L17.5198 14.6039L16.6301 14.0636H17.7368L18.084 13.0262Z" fill="#FD3E72"/>
<path d="M17.9407 31.02H18.7777C18.9754 31.02 19.1558 30.9908 19.3174 30.9289C19.479 30.8688 19.613 30.7845 19.723 30.6745C19.833 30.5645 19.9172 30.4339 19.9757 30.2792C20.0341 30.1263 20.065 29.9578 20.065 29.7739C20.065 29.5917 20.0341 29.4216 19.9722 29.2669C19.9104 29.1122 19.8244 28.9799 19.7127 28.8699C19.601 28.7599 19.4635 28.6739 19.3019 28.612C19.1404 28.5502 18.9616 28.5192 18.7674 28.5192H17.9407V31.02ZM18.4288 30.5783V28.9627H18.7777C18.9255 28.9627 19.0579 28.9988 19.1765 29.0675C19.2933 29.1363 19.3861 29.2325 19.4515 29.3563C19.5168 29.48 19.5511 29.6192 19.5511 29.7739C19.5511 29.8874 19.5305 29.9939 19.4927 30.0919C19.4549 30.1916 19.3999 30.2758 19.3311 30.348C19.2624 30.4202 19.1765 30.4752 19.0768 30.5164C18.9754 30.5577 18.8654 30.5783 18.7468 30.5783H18.4288Z" fill="#353438"/>
<path d="M21.9849 31.02H22.5022L21.5724 28.5192H21.0946L20.1682 31.02H20.6855L20.8557 30.5199H21.8147L21.9849 31.02ZM20.9983 30.097L21.3318 29.1156H21.3352L21.6704 30.097H20.9983Z" fill="#353438"/>
<path d="M23.9082 28.5192L23.4046 29.4319H23.3977L22.889 28.5192H22.3218L23.1485 29.9217V31.02H23.6486V29.9217L24.4805 28.5192H23.9082Z" fill="#353438"/>
<path d="M25.5049 31.0492C25.5891 31.0492 25.6716 31.0406 25.7541 31.0234C25.8349 31.0063 25.914 30.977 25.9913 30.9358C26.0686 30.8945 26.1374 30.8464 26.1958 30.788C26.2543 30.7295 26.3007 30.6574 26.3368 30.5697C26.3711 30.482 26.39 30.3858 26.39 30.2792C26.39 30.1761 26.3729 30.0867 26.3419 30.0077C26.2904 29.8839 26.1855 29.7791 26.0308 29.6931C25.9621 29.657 25.8246 29.5986 25.6166 29.5161C25.5513 29.492 25.498 29.4714 25.4602 29.4542C25.4224 29.437 25.3829 29.4181 25.345 29.3975C25.3072 29.3769 25.278 29.3563 25.2591 29.3356C25.2385 29.315 25.223 29.2927 25.2127 29.2669C25.2007 29.2428 25.1955 29.2136 25.1955 29.1827C25.1955 29.1053 25.2247 29.0434 25.2797 28.9988C25.3347 28.9541 25.4069 28.9317 25.4963 28.9317C25.6579 28.9317 25.84 29.0142 26.0411 29.1775L26.3265 28.8045C26.0669 28.5914 25.7868 28.4866 25.4843 28.49C25.3365 28.4934 25.2007 28.5261 25.0786 28.588C24.9549 28.6499 24.8586 28.7358 24.7882 28.8441C24.716 28.9541 24.6816 29.0744 24.6816 29.205C24.6816 29.2703 24.6885 29.3322 24.704 29.3906C24.7194 29.4491 24.74 29.4989 24.7641 29.5436C24.7882 29.5883 24.8208 29.6295 24.8604 29.6691C24.8999 29.7086 24.9394 29.743 24.9807 29.7705C25.0202 29.798 25.0683 29.8272 25.1233 29.8547C25.1783 29.8822 25.2282 29.9063 25.2763 29.9234C25.3227 29.9424 25.376 29.963 25.4379 29.9836C25.5049 30.0077 25.5599 30.0266 25.6011 30.0438C25.6424 30.0609 25.6819 30.0799 25.7197 30.1005C25.7575 30.1211 25.7868 30.1434 25.8074 30.1641C25.828 30.1864 25.8435 30.2122 25.8555 30.2397C25.8658 30.2689 25.8727 30.3016 25.8727 30.3377C25.8727 30.3909 25.859 30.4374 25.8332 30.4752C25.8057 30.5147 25.7661 30.5456 25.7111 30.568C25.6561 30.592 25.5908 30.6024 25.5135 30.6024C25.4619 30.6024 25.4104 30.5972 25.3588 30.5834C25.3055 30.5714 25.2522 30.5525 25.199 30.5267C25.1457 30.5027 25.0924 30.47 25.0391 30.4288C24.9858 30.3892 24.936 30.3428 24.8913 30.2895L24.594 30.6556C24.7211 30.788 24.8638 30.8859 25.0202 30.9513C25.1766 31.0166 25.3382 31.0492 25.5049 31.0492Z" fill="#353438"/>
<path d="M6.04064 23.0538C6.60391 23.0538 7.06054 22.5991 7.06054 22.0381C7.06054 21.4771 6.60391 21.0223 6.04064 21.0223C5.47737 21.0223 5.02075 21.4771 5.02075 22.0381C5.02075 22.5991 5.47737 23.0538 6.04064 23.0538Z" fill="white"/>
<path d="M38.3734 23.0538C38.9367 23.0538 39.3933 22.5991 39.3933 22.0381C39.3933 21.4771 38.9367 21.0223 38.3734 21.0223C37.8101 21.0223 37.3535 21.4771 37.3535 22.0381C37.3535 22.5991 37.8101 23.0538 38.3734 23.0538Z" fill="white"/>
</svg>
