<svg width="69" height="61" fill="none" xmlns="http://www.w3.org/2000/svg"><path d="M61 0A61 61 0 010 61V0h61z" fill="#DFF7F0"/><path d="M59 52c-5.383 0-10.369-3.79-14-7.211C41.369 48.21 36.383 52 31 52c-5.514 0-10-4.486-10-10s4.486-10 10-10c5.383 0 10.369 3.79 14 7.211C48.631 35.79 53.617 32 59 32c5.514 0 10 4.486 10 10s-4.486 10-10 10zM47.879 42c4.338 4.034 7.987 6 11.121 6 3.309 0 6-2.691 6-6s-2.691-6-6-6c-3.134 0-6.783 1.966-11.121 6zM31 36c-3.309 0-6 2.691-6 6s2.691 6 6 6c3.134 0 6.783-1.966 11.121-6-4.338-4.034-7.987-6-11.121-6z" fill="#08AE7E"/><path stroke="#93E7CF" stroke-width="3" d="M44.5 25V13m8.536 11.564l9.192-7.713m-26.07 7.713l-9.193-7.713"/></svg>