<svg width="122" height="122" viewBox="0 0 122 122" fill="none" xmlns="http://www.w3.org/2000/svg">
<path d="M122 61H61V122L122 61Z" fill="#FDF0EC"/>
<path d="M119.153 95.391C119.703 97.165 120 99.048 120 101C120 105.12 118.668 108.926 116.431 112.043C114.804 111.392 112.769 110.87 112.005 110.684C111.231 109.869 109.081 107.82 107.253 108.078C105.33 108.348 103.577 110.228 103.384 110.442C103.209 110.634 103.117 110.887 103.126 111.147C103.155 112.021 103.128 112.951 103.065 113.531C102.37 113.341 101.273 113.079 100.376 113.798C99.517 114.485 99.44 115.677 99.518 116.523C98.678 116.869 97.864 117.367 97.618 118.044C97.429 118.564 97.54 119.136 97.752 119.701C95.357 119.286 93.12 118.422 91.12 117.197C91.836 116.291 92.359 115.223 92.582 114.723C92.998 114.389 93.806 113.648 94.142 112.696C94.471 111.761 94.344 110.672 94.25 110.146C94.655 108.896 95.146 106.92 94.597 105.957C94.085 105.063 92.731 104.528 91.974 104.29C91.552 103.712 90.587 102.663 89.003 102.391C88.623 102.351 87.739 102.136 87.739 100.999C87.739 100.167 88.452 98.648 88.984 97.726C89.812 97.294 90.744 96.679 91.02 95.99C91.245 95.429 91.342 94.474 91.378 94.01C91.776 93.24 92.899 90.777 91.931 89.036C91.592 88.425 90.782 88.039 90.16 87.823L89.089 86.217C92.003 83.864 95.622 82.357 99.576 82.061C99.81 81.337 100.114 80.66 100.471 80.025C89.138 80.311 80 89.599 80 101C80 112.58 89.421 122 101 122C112.579 122 122 112.58 122 101C122 98.28 121.464 95.687 120.518 93.3C120.088 94.02 119.632 94.721 119.153 95.391Z" fill="#F47C5C"/>
<path d="M111 76C106.084 76 101 79.666 101 85.8C101 92.374 109.954 100.409 110.336 100.748C110.525 100.916 110.763 101 111 101C111.237 101 111.475 100.916 111.664 100.748C112.046 100.409 121 92.374 121 85.8C121 79.666 115.916 76 111 76ZM111 89C109.343 89 108 87.657 108 86C108 84.343 109.343 83 111 83C112.657 83 114 84.343 114 86C114 87.657 112.657 89 111 89Z" fill="#F6A18B"/>
</svg>
