<svg width="61" height="61" fill="none" xmlns="http://www.w3.org/2000/svg"><path d="M61 0A61 61 0 010 61V27.047A27.046 27.046 0 0027.047 0H61z" fill="#FFEDF2"/><path d="M55 40v4c0 8.272-6.729 15-15 15s-15-6.728-15-15v-4h-2v4c0 9.375 7.626 17 17 17 9.374 0 17-7.625 17-17v-4h-2z" fill="#FF91AF"/><path d="M60.9 21.566a1 1 0 00-.613-.523l-20-6a.985.985 0 00-.574 0l-20 6a1.001 1.001 0 00-.642 1.33L23 32.192V38h34v-5.808l3.929-9.821a1.001 1.001 0 00-.03-.806zM40 34a4 4 0 110-8 4 4 0 010 8z" fill="#FD3E72"/></svg>