<svg width="61" height="61" fill="none" xmlns="http://www.w3.org/2000/svg"><path d="M61 0H0v61L61 0z" fill="#FDF0EC"/><path d="M58.153 34.391c.55 1.774.847 3.657.847 5.609 0 4.12-1.332 7.926-3.569 11.043-1.627-.651-3.662-1.173-4.426-1.359-.774-.815-2.924-2.864-4.752-2.606-1.923.27-3.676 2.15-3.869 2.364a.994.994 0 00-.258.705c.029.874.002 1.804-.061 2.384-.695-.19-1.792-.452-2.689.267-.859.687-.936 1.879-.858 2.725-.84.346-1.654.844-1.9 1.521-.189.52-.078 1.092.134 1.657a18.835 18.835 0 01-6.632-2.504c.716-.906 1.239-1.974 1.462-2.474.416-.334 1.224-1.075 1.56-2.027.329-.935.202-2.024.108-2.55.405-1.25.896-3.226.347-4.189-.512-.894-1.866-1.429-2.623-1.667-.422-.578-1.387-1.627-2.971-1.899-.38-.04-1.264-.255-1.264-1.392 0-.832.713-2.351 1.245-3.273.828-.432 1.76-1.047 2.036-1.736.225-.561.322-1.516.358-1.98.398-.77 1.521-3.233.553-4.974-.339-.611-1.149-.997-1.771-1.213l-1.071-1.606a18.905 18.905 0 0110.487-4.156c.234-.724.538-1.401.895-2.036C28.138 19.311 19 28.599 19 40c0 11.58 9.421 21 21 21s21-9.42 21-21c0-2.72-.536-5.313-1.482-7.7-.43.72-.886 1.421-1.365 2.091z" fill="#F47C5C"/><path d="M50 15c-4.916 0-10 3.666-10 9.8 0 6.574 8.954 14.609 9.336 14.948a.998.998 0 001.328 0C51.046 39.409 60 31.374 60 24.8c0-6.134-5.084-9.8-10-9.8zm0 13a3 3 0 110-6 3 3 0 010 6z" fill="#F6A18B"/></svg>