<svg width="130" height="122" viewBox="0 0 130 122" fill="none" xmlns="http://www.w3.org/2000/svg">
<path d="M122 61C122 69.0106 120.422 76.9428 117.357 84.3437C114.291 91.7446 109.798 98.4691 104.134 104.134C98.4691 109.798 91.7445 114.291 84.3437 117.357C76.9428 120.422 69.0106 122 61 122L61 61H122Z" fill="#DFF7F0"/>
<path d="M120 113C114.617 113 109.631 109.21 106 105.789C102.369 109.21 97.383 113 92 113C86.486 113 82 108.514 82 103C82 97.486 86.486 93 92 93C97.383 93 102.369 96.79 106 100.211C109.631 96.79 114.617 93 120 93C125.514 93 130 97.486 130 103C130 108.514 125.514 113 120 113ZM108.879 103C113.217 107.034 116.866 109 120 109C123.309 109 126 106.309 126 103C126 99.691 123.309 97 120 97C116.866 97 113.217 98.966 108.879 103ZM92 97C88.691 97 86 99.691 86 103C86 106.309 88.691 109 92 109C95.134 109 98.783 107.034 103.121 103C98.783 98.966 95.134 97 92 97Z" fill="#62D5B4"/>
<line x1="105.5" y1="86" x2="105.5" y2="74" stroke="#93E7CF" stroke-width="3"/>
<line x1="114.036" y1="85.5644" x2="123.228" y2="77.8509" stroke="#93E7CF" stroke-width="3"/>
<line y1="-1.5" x2="12" y2="-1.5" transform="matrix(-0.766044 -0.642788 -0.642788 0.766044 96.1924 86.7134)" stroke="#93E7CF" stroke-width="3"/>
</svg>
