<svg width="122" height="122" viewBox="0 0 122 122" fill="none" xmlns="http://www.w3.org/2000/svg">
<path d="M122 61C122 69.0106 120.422 76.9428 117.357 84.3437C114.291 91.7446 109.798 98.4691 104.134 104.134C98.4691 109.798 91.7445 114.291 84.3437 117.357C76.9428 120.422 69.0106 122 61 122L61 88.047C64.5519 88.047 68.0689 87.3474 71.3504 85.9881C74.6319 84.6289 77.6135 82.6366 80.1251 80.1251C82.6366 77.6135 84.6289 74.6319 85.9881 71.3504C87.3474 68.0689 88.047 64.5519 88.047 61H122Z" fill="#FFEDF2"/>
<path d="M116 101.001V105.001C116 113.272 109.271 120.001 101 120.001C92.729 120.001 86 113.272 86 105.001V101.001H84V105.001C84 114.375 91.626 122.001 101 122.001C110.374 122.001 118 114.375 118 105.001V101.001H116Z" fill="#FF91AF"/>
<path d="M121.9 82.5658C121.778 82.3128 121.556 82.1237 121.287 82.0427L101.287 76.0428C101.099 75.9858 100.9 75.9858 100.713 76.0428L80.7129 82.0427C80.4429 82.1237 80.2219 82.3128 80.0999 82.5658C79.9779 82.8187 79.9669 83.1108 80.0709 83.3718L83.9999 93.1927V99.0007H118V93.1927L121.929 83.3718C122.033 83.1108 122.022 82.8187 121.9 82.5658ZM101 95.0007C98.7909 95.0007 96.9999 93.2097 96.9999 91.0007C96.9999 88.7917 98.7909 87.0007 101 87.0007C103.209 87.0007 105 88.7917 105 91.0007C105 93.2097 103.209 95.0007 101 95.0007Z" fill="#FD3E72"/>
</svg>
