<svg width="85" height="20" fill="none" xmlns="http://www.w3.org/2000/svg"><path d="M31.411 4.436H26.79c-.34 0-.612.198-.612.53l-1.903 11.588a.5.5 0 00.34.464h2.311c.34 0 .612-.199.612-.53l.475-3.112a.64.64 0 01.612-.53h1.495c3.058 0 4.825-1.457 5.3-4.305.205-1.258 0-2.251-.61-2.913-.68-.729-1.836-1.192-3.399-1.192zm.544 4.304c-.272 1.656-1.495 1.656-2.786 1.656h-.68l.476-3.047c0-.198.204-.33.407-.33h.34c.816 0 1.631 0 2.039.463.204.265.272.662.204 1.258zm13.388-.066H43.1c-.204 0-.34.132-.407.331l-.069.596-.135-.199c-.476-.662-1.563-.927-2.65-.927-2.447 0-4.554 1.788-4.962 4.371-.204 1.258.068 2.517.816 3.311.68.795 1.63 1.126 2.786 1.126 1.97 0 3.058-1.258 3.058-1.258l-.068.596c0 .198.136.397.34.463h2.107c.34 0 .611-.198.611-.53l1.224-7.417c0-.264-.136-.463-.408-.463zm-3.126 4.172c-.204 1.258-1.224 2.053-2.515 2.053-.68 0-1.155-.199-1.495-.596-.34-.397-.476-.927-.34-1.523.204-1.258 1.224-2.12 2.515-2.12.611 0 1.155.2 1.495.597.272.463.408.993.34 1.589zm14.95-4.172h-2.242c-.204 0-.407.132-.543.265l-3.059 4.437-1.29-4.239a.65.65 0 00-.613-.463h-2.174c-.204 0-.408.199-.408.397v.133l2.447 7.02-2.311 3.178c-.136.199-.068.397.068.53.068.066.136.066.204.066h2.242c.204 0 .408-.132.544-.265L57.508 9.27c.136-.199.068-.397-.068-.53-.136-.066-.204-.066-.272-.066z" fill="#253B80"/><path d="M64.575 4.436h-4.621c-.34 0-.612.198-.612.53L57.44 16.553a.5.5 0 00.34.464h2.446c.204 0 .408-.132.476-.397l.543-3.311a.64.64 0 01.612-.53h1.495c3.058 0 4.825-1.457 5.3-4.305.205-1.258 0-2.251-.61-2.914-.748-.662-1.904-1.125-3.467-1.125zm.544 4.304c-.272 1.656-1.495 1.656-2.786 1.656h-.68l.476-3.047c0-.198.204-.33.407-.33h.34c.816 0 1.631 0 2.039.463.204.265.272.662.204 1.258zm13.32-.066h-2.243c-.203 0-.34.132-.407.331l-.068.596-.136-.199c-.476-.662-1.563-.927-2.65-.927-2.447 0-4.554 1.788-4.962 4.371-.204 1.258.068 2.517.816 3.311.68.795 1.63 1.126 2.786 1.126 1.97 0 3.058-1.258 3.058-1.258l-.068.596c0 .198.136.397.34.463h2.038c.34 0 .612-.198.612-.53l1.224-7.417c.068-.264-.068-.463-.34-.463.068 0 .068 0 0 0zm-3.058 4.172c-.204 1.258-1.224 2.053-2.515 2.053-.611 0-1.155-.199-1.495-.596-.34-.397-.475-.927-.34-1.523.204-1.258 1.224-2.12 2.515-2.12.611 0 1.155.2 1.495.597.272.463.408.993.34 1.589zm5.708-8.08l-1.902 11.855c0 .198.136.397.34.463h1.97c.34 0 .612-.198.612-.53l1.903-11.589a.499.499 0 00-.34-.463h-2.243c-.136-.066-.34.132-.34.265zM15.643 5.1v.33c-.815 4.24-3.738 5.63-7.407 5.63H6.333a.877.877 0 00-.884.728l-.951 5.894-.272 1.656c-.068.265.136.463.408.53h3.398c.408 0 .747-.265.815-.663v-.132l.612-3.841.068-.199c.068-.397.408-.662.815-.662h.476c3.194 0 5.709-1.258 6.456-4.967.34-1.523.136-2.847-.68-3.708-.271-.199-.543-.464-.95-.596z" fill="#179BD7"/><path d="M14.829 4.767a1.847 1.847 0 00-.816-.199c-.544-.066-1.087-.132-1.63-.132h-5.03c-.408 0-.747.264-.815.662L5.45 11.654v.199c.068-.464.476-.729.884-.729h1.903c3.67 0 6.524-1.457 7.407-5.629v-.397c-.204-.133-.476-.199-.68-.265-.067-.066-.135-.066-.135-.066z" fill="#222D65"/><path d="M6.537 5.1c.068-.398.408-.663.816-.663h5.029c.611 0 1.155.066 1.63.132.34.067.68.133 1.02.265.272.067.476.199.68.265.272-1.523 0-2.583-.884-3.576C13.877.463 12.178 0 9.935 0H3.547c-.408 0-.816.331-.884.728L.013 17.152a.49.49 0 00.476.596h4.009l1.02-6.093L6.538 5.1z" fill="#253B80"/></svg>