<svg width="57" height="57" fill="none" xmlns="http://www.w3.org/2000/svg"><path d="M51.307 36.873a25.28 25.28 0 01-.994 2.995c4.322 7.108 5.03 11.613 3.6 13.043-.544.545-1.308.81-2.335.81h-.006c-2.837-.002-6.906-1.973-11.18-4.736 5.653-4.226 9.324-10.965 9.324-18.548 0-12.766-10.385-23.15-23.15-23.15-7.588 0-14.326 3.675-18.549 9.334-2.895-4.647-4.6-8.696-4.602-11.395-.001-.971.225-1.691.674-2.14 1.43-1.429 5.936-.721 13.048 3.603.971-.39 1.97-.724 2.995-.994C11.596.14 5.18-1.451 2.366 1.363 1.443 2.286.976 3.586.978 5.228c.006 6.69 7.986 19.125 19.85 30.94 5.161 5.182 21.887 19.98 30.741 19.99h.009c1.681 0 3.047-.513 4.059-1.524 2.814-2.816 1.223-9.228-4.33-17.761zm-14.994-6.436a2.437 2.437 0 110 4.874 2.437 2.437 0 010-4.874zm-9.747-13.403a3.655 3.655 0 110 7.31 3.655 3.655 0 010-7.31z" fill="#62D5B4"/><path d="M5.266 21.377a23.011 23.011 0 00-1.851 9.06c0 12.766 10.385 23.15 23.15 23.15 3.25 0 6.343-.68 9.152-1.894-8.682-5.974-16.49-13.678-16.616-13.805-5.628-5.605-10.338-11.282-13.835-16.511z" fill="#93E7CF"/></svg>