<svg width="54" height="54" fill="none" xmlns="http://www.w3.org/2000/svg"><path d="M25.714 0H2.571A2.571 2.571 0 000 2.571V51.43A2.571 2.571 0 002.571 54H25.73V0h-.016zm-6.428 29.571H6.429a1.286 1.286 0 110-2.571h12.857a1.286 1.286 0 010 2.571zm0-9H6.429a1.286 1.286 0 110-2.571h12.857a1.286 1.286 0 010 2.571zm0-9H6.429a1.286 1.286 0 110-2.571h12.857a1.286 1.286 0 010 2.571z" fill="#FD3E72"/><path d="M51.428 0H28.287v54h23.142A2.571 2.571 0 0054 51.429V2.57A2.572 2.572 0 0051.428 0zm-3.857 29.571H34.714a1.286 1.286 0 110-2.571h12.857a1.286 1.286 0 010 2.571zm0-9H34.714a1.286 1.286 0 110-2.571h12.857a1.286 1.286 0 010 2.571zm0-9H34.714a1.286 1.286 0 110-2.571h12.857a1.286 1.286 0 110 2.571z" fill="#FF91AF"/></svg>