<svg width="38" height="44" viewBox="0 0 38 44" fill="none" xmlns="http://www.w3.org/2000/svg">
<path d="M37.217 4.023L19.217 0.0229974C19.074 -0.00801166 18.926 -0.00801166 18.783 0.0229974L0.783 4.023C0.56077 4.0724 0.362047 4.19615 0.219677 4.37379C0.0773066 4.55144 -0.000188228 4.77234 3.43331e-07 5V25C3.43331e-07 30.0391 2.00178 34.8718 5.56497 38.435C9.12816 41.9982 13.9609 44 19 44C24.0391 44 28.8718 41.9982 32.435 38.435C35.9982 34.8718 38 30.0391 38 25V5C38.0002 4.77234 37.9227 4.55144 37.7803 4.37379C37.638 4.19615 37.4392 4.0724 37.217 4.023ZM28 31C28 31.2652 27.8946 31.5196 27.7071 31.7071C27.5196 31.8946 27.2652 32 27 32H11C10.7348 32 10.4804 31.8946 10.2929 31.7071C10.1054 31.5196 10 31.2652 10 31V21C10 20.7348 10.1054 20.4804 10.2929 20.2929C10.4804 20.1054 10.7348 20 11 20H14V15C14 13.6739 14.5268 12.4021 15.4645 11.4645C16.4021 10.5268 17.6739 10 19 10C20.3261 10 21.5979 10.5268 22.5355 11.4645C23.4732 12.4021 24 13.6739 24 15V20H27C27.2652 20 27.5196 20.1054 27.7071 20.2929C27.8946 20.4804 28 20.7348 28 21V31Z" fill="#62D5B4"/>
<path d="M19 12C18.2044 12 17.4413 12.3161 16.8787 12.8787C16.3161 13.4413 16 14.2044 16 15V20H22V15C22 14.2044 21.6839 13.4413 21.1213 12.8787C20.5587 12.3161 19.7956 12 19 12Z" fill="#62D5B4"/>
<path d="M19 28C20.1046 28 21 27.1046 21 26C21 24.8954 20.1046 24 19 24C17.8954 24 17 24.8954 17 26C17 27.1046 17.8954 28 19 28Z" fill="#62D5B4"/>
</svg>
