<svg width="691" height="416" viewBox="0 0 691 416" fill="none" xmlns="http://www.w3.org/2000/svg">
<path fill-rule="evenodd" clip-rule="evenodd" d="M113.341 85.1122H81.3527C79.2495 85.1122 77.5446 86.8193 77.5446 88.9249L88.9691 130.865C88.9691 132.971 90.674 134.678 92.7772 134.678H124.766C126.869 134.678 128.574 132.971 128.574 130.865L117.149 88.9249C117.149 86.8193 115.445 85.1122 113.341 85.1122Z" fill="url(#paint0_linear)"/>
<path fill-rule="evenodd" clip-rule="evenodd" d="M65.039 103.136H23.0148C20.2518 103.136 18.0119 105.378 18.0119 108.143L33.0206 163.215C33.0206 165.98 35.2605 168.222 38.0235 168.222H80.0476C82.8106 168.222 85.0505 165.98 85.0505 163.215L70.0418 108.143C70.0418 105.378 67.802 103.136 65.039 103.136Z" fill="url(#paint1_linear)"/>
<path fill-rule="evenodd" clip-rule="evenodd" d="M105.56 146.693H63.5363C60.7733 146.693 58.5334 148.935 58.5334 151.7L73.5421 206.773C73.5421 209.538 75.782 211.779 78.545 211.779H120.569C123.332 211.779 125.572 209.538 125.572 206.773L110.563 151.7C110.563 148.935 108.323 146.693 105.56 146.693Z" fill="url(#paint2_linear)"/>
<g opacity="0.2">
<path fill-rule="evenodd" clip-rule="evenodd" d="M82.5446 264.305H72.0386V400.572H82.5446V264.305Z" fill="#FF7BB6"/>
<path fill-rule="evenodd" clip-rule="evenodd" d="M117.566 400.528H37.0195V411.042H117.566V400.528Z" fill="#FF7BB6"/>
<path fill-rule="evenodd" clip-rule="evenodd" d="M147.083 253.835H7.00281V264.349H147.083V253.835Z" fill="#FF7BB6"/>
<mask id="mask0" mask-type="alpha" maskUnits="userSpaceOnUse" x="7" y="253" width="141" height="12">
<path fill-rule="evenodd" clip-rule="evenodd" d="M147.083 253.835H7.00281V264.349H147.083V253.835Z" fill="white"/>
</mask>
<g mask="url(#mask0)">
</g>
</g>
<path fill-rule="evenodd" clip-rule="evenodd" d="M105.558 253.835L90.8561 181.239L6.00072 182.741L20.509 253.835H105.558Z" fill="#221970"/>
<path fill-rule="evenodd" clip-rule="evenodd" d="M147.083 249.754H15.0192V254.335H143.081L147.083 249.754Z" fill="#221970"/>
<path fill-rule="evenodd" clip-rule="evenodd" d="M100.556 254.335L85.8545 181.239L0.999039 182.741L15.0071 254.335H100.556Z" fill="url(#paint3_linear)"/>
<mask id="mask1" mask-type="alpha" maskUnits="userSpaceOnUse" x="1" y="181" width="100" height="74">
<path fill-rule="evenodd" clip-rule="evenodd" d="M100.556 254.335L85.8545 181.239L0.999039 182.741L15.0071 254.335H100.556Z" fill="white"/>
</mask>
<g mask="url(#mask1)">
<path fill-rule="evenodd" clip-rule="evenodd" d="M50.0267 210.778C45.8821 210.778 42.5223 213.58 42.5223 217.036C42.5223 220.493 45.8821 223.295 50.0267 223.295C54.1712 223.295 57.5309 220.493 57.5309 217.036C57.5309 213.58 54.1712 210.778 50.0267 210.778Z" fill="#F493DE"/>
</g>
<g opacity="0.5">
<path fill-rule="evenodd" clip-rule="evenodd" d="M653.373 55.8094C760.367 184.566 603.136 366.688 507.733 229.88C347.019 -0.585846 210.163 172.587 210.163 172.587" fill="black" fill-opacity="0.01"/>
<path d="M653.373 55.8094C760.367 184.566 603.136 366.688 507.733 229.88C347.019 -0.585846 210.163 172.587 210.163 172.587" stroke="#F5BACA" stroke-width="2" stroke-linecap="round" stroke-dasharray="8 12"/>
</g>
<path fill-rule="evenodd" clip-rule="evenodd" d="M224.681 190.821L214.26 177.197L180.479 198.35L206.354 168.592L193.776 156.76L162.151 212.333L224.681 190.821Z" fill="url(#paint4_linear)"/>
<path fill-rule="evenodd" clip-rule="evenodd" d="M214.619 177.555L206.713 176.48L179.041 199.426L214.619 177.555Z" fill="#E1A846"/>
<path fill-rule="evenodd" clip-rule="evenodd" d="M207.073 176.48L205.994 168.592L179.761 198.709L207.073 176.48Z" fill="#E6B052"/>
<path fill-rule="evenodd" clip-rule="evenodd" d="M464.051 414.046C406.995 414.046 360.742 404.744 360.742 393.269C360.742 381.794 406.995 372.491 464.051 372.491C521.108 372.491 567.361 381.794 567.361 393.269C567.361 404.744 521.108 414.046 464.051 414.046Z" fill="url(#paint5_radial)"/>
<path fill-rule="evenodd" clip-rule="evenodd" d="M535.553 380.392C472.243 410.785 379.288 406.771 337.591 324.291C310.044 271.22 368.818 207.672 433.378 163.484C491.321 123.825 542.859 114.831 573.098 137.158C576.552 139.708 582.689 139.207 585.478 142.676C662.231 230.351 598.863 349.998 535.553 380.392Z" fill="url(#paint6_radial)"/>
<path fill-rule="evenodd" clip-rule="evenodd" d="M496.446 304.454C428.742 346.792 358.819 351.418 335.308 313.765C313.493 273.085 366.416 199.513 434.12 157.175C501.824 114.837 560.814 108.126 584.325 145.78C607.836 183.433 564.151 262.116 496.446 304.454Z" fill="url(#paint7_radial)"/>
<g filter="url(#filter0_f)">
<path fill-rule="evenodd" clip-rule="evenodd" d="M481.146 274.752C450.789 293.746 419.437 295.822 408.895 278.93C399.114 260.679 422.843 227.672 453.2 208.677C483.557 189.683 510.007 186.672 520.548 203.565C531.09 220.458 511.503 255.758 481.146 274.752Z" fill="#94B0D7"/>
</g>
<path fill-rule="evenodd" clip-rule="evenodd" d="M286.081 398.604C287.071 394.09 288.559 390.732 287.071 384.638C285.582 378.545 268.456 375.091 266.296 377.043C264.135 378.994 264.486 380.039 255.927 384.588C247.367 389.138 222.832 394.429 217.58 400.331C212.329 406.232 211.351 410.134 222.266 410.134C227.396 410.134 249.862 410.134 256.027 410.134C262.086 407.936 264.124 406.753 267.521 404.718C268.213 407.268 267.521 409.438 267.521 409.438H282.06C282.06 409.438 285.092 403.118 286.081 398.604Z" fill="url(#paint8_linear)"/>
<mask id="mask2" mask-type="alpha" maskUnits="userSpaceOnUse" x="213" y="376" width="75" height="35">
<path fill-rule="evenodd" clip-rule="evenodd" d="M286.081 398.604C287.071 394.09 288.559 390.732 287.071 384.638C285.582 378.545 268.456 375.091 266.296 377.043C264.135 378.994 264.486 380.039 255.927 384.588C247.367 389.138 222.832 394.429 217.58 400.331C212.329 406.232 211.351 410.134 222.266 410.134C227.396 410.134 249.862 410.134 256.027 410.134C262.086 407.936 264.124 406.753 267.521 404.718C268.213 407.268 267.521 409.438 267.521 409.438H282.06C282.06 409.438 285.092 403.118 286.081 398.604Z" fill="white"/>
</mask>
<g mask="url(#mask2)">
<g opacity="0.2">
<path fill-rule="evenodd" clip-rule="evenodd" d="M286.044 406.018C282.912 397.941 270.704 382.873 267.167 377.97C263.63 373.066 290.605 383.749 290.605 383.749C290.605 383.749 289.177 414.095 286.044 406.018Z" fill="#8F1BAF" style="mix-blend-mode:multiply"/>
</g>
</g>
<path fill-rule="evenodd" clip-rule="evenodd" d="M257.619 275.962C260.84 272.919 263.834 271.061 265.941 265.429C268.047 259.796 256.313 247.821 253.545 248.203C250.776 248.584 250.491 249.601 241.24 248.589C231.988 247.577 215.441 236.317 208.086 238.161C200.732 240.005 194.13 240.043 202.796 245.93C206.869 248.698 222.638 265.562 227.533 268.888C233.53 270.414 235.787 270.576 239.582 270.796C238.756 273.19 237.035 274.536 237.035 274.536L248.579 282.379C248.579 282.379 254.397 279.006 257.619 275.962Z" fill="url(#paint9_linear)"/>
<mask id="mask3" mask-type="alpha" maskUnits="userSpaceOnUse" x="198" y="237" width="69" height="46">
<path fill-rule="evenodd" clip-rule="evenodd" d="M257.619 275.962C260.84 272.919 263.834 271.061 265.941 265.429C268.047 259.796 256.313 247.821 253.545 248.203C250.776 248.584 250.491 249.601 241.24 248.589C231.988 247.577 215.441 236.317 208.086 238.161C200.732 240.005 194.13 240.043 202.796 245.93C206.869 248.698 222.638 265.562 227.533 268.888C233.53 270.414 235.787 270.576 239.582 270.796C238.756 273.19 237.035 274.536 237.035 274.536L248.579 282.379C248.579 282.379 254.397 279.006 257.619 275.962Z" fill="white"/>
</mask>
<g mask="url(#mask3)">
<g opacity="0.2">
<path fill-rule="evenodd" clip-rule="evenodd" d="M252.853 281.19C257.7 271.142 252.708 248.47 254.918 246.462C257.129 244.454 267.94 262.687 267.94 262.687C267.94 262.687 273.082 267.791 264.819 275.423C256.557 283.054 248.006 291.239 252.853 281.19Z" fill="#8F1BAF" style="mix-blend-mode:multiply"/>
</g>
</g>
<g filter="url(#filter1_i)">
<path fill-rule="evenodd" clip-rule="evenodd" d="M467.198 164.48C444.714 152.498 431.902 117.523 422.616 107.688C413.33 97.854 409.229 116.669 410.764 122.209C412.299 127.748 423.617 164.98 447.24 195.049C447.24 214.693 470.103 180.241 467.198 164.48Z" fill="url(#paint10_linear)"/>
</g>
<path fill-rule="evenodd" clip-rule="evenodd" d="M476.816 124.793C476.816 124.793 423.523 103.701 416.318 105.096C409.114 106.49 430.647 131.068 435.052 133.051C439.458 135.034 445.446 139.873 452.072 140.045C458.698 140.218 473.929 143.501 473.929 143.501L476.816 124.793Z" fill="url(#paint11_linear)"/>
<g filter="url(#filter2_i)">
<path fill-rule="evenodd" clip-rule="evenodd" d="M463.658 282.876C457.109 274.035 441.077 255.594 406.565 248.876C372.053 242.158 340.355 235.885 282.175 253.205C277.385 309.421 271.926 366.021 266.418 377.484C270.619 382.6 285.798 386.51 294.703 386.51C297.934 373.853 308.057 343.361 313.199 328.278C318.342 313.196 320.166 294.474 319.172 287.872C336.705 292.857 372.62 308.009 385.212 312.498C397.804 316.986 441.007 331.216 455.308 319.76C469.608 308.304 470.206 291.717 463.658 282.876Z" fill="url(#paint12_linear)"/>
</g>
<mask id="mask4" mask-type="alpha" maskUnits="userSpaceOnUse" x="266" y="242" width="202" height="145">
<path fill-rule="evenodd" clip-rule="evenodd" d="M463.658 282.876C457.109 274.035 441.077 255.594 406.565 248.876C372.053 242.158 340.355 235.885 282.175 253.205C277.385 309.421 271.926 366.021 266.418 377.484C270.619 382.6 285.798 386.51 294.703 386.51C297.934 373.853 308.057 343.361 313.199 328.278C318.342 313.196 320.166 294.474 319.172 287.872C336.705 292.857 372.62 308.009 385.212 312.498C397.804 316.986 441.007 331.216 455.308 319.76C469.608 308.304 470.206 291.717 463.658 282.876Z" fill="white"/>
</mask>
<g mask="url(#mask4)">
<g opacity="0.3" filter="url(#filter3_i)">
<path fill-rule="evenodd" clip-rule="evenodd" d="M344.7 298.13C344.7 290.296 324.878 248.949 319.57 244.529C314.262 240.109 330.025 240.766 330.025 240.766C330.025 240.766 365.936 278.066 370.652 298.13C375.367 318.194 344.7 305.964 344.7 298.13Z" fill="url(#paint13_linear)"/>
</g>
</g>
<path fill-rule="evenodd" clip-rule="evenodd" d="M506.855 169.302C508.591 160.589 511.939 145.318 512.608 142.055C513.276 138.792 480.89 150.063 480.89 150.063L476.818 171.425L472.156 207.553C472.156 207.553 505.119 178.014 506.855 169.302Z" fill="url(#paint14_linear)"/>
<mask id="mask5" mask-type="alpha" maskUnits="userSpaceOnUse" x="472" y="141" width="41" height="67">
<path fill-rule="evenodd" clip-rule="evenodd" d="M506.855 169.302C508.591 160.589 511.939 145.318 512.608 142.055C513.276 138.792 480.89 150.063 480.89 150.063L476.818 171.425L472.156 207.553C472.156 207.553 505.119 178.014 506.855 169.302Z" fill="white"/>
</mask>
<g mask="url(#mask5)">
<g opacity="0.2">
<path fill-rule="evenodd" clip-rule="evenodd" d="M510.842 142.963C510.842 146.243 498.552 160.269 491.913 164.114C485.274 167.959 473.312 167.602 473.312 167.602L475.134 148.715L510.842 139.692C510.842 139.692 510.842 139.683 510.842 142.963Z" fill="#A732A2" style="mix-blend-mode:multiply"/>
</g>
</g>
<path fill-rule="evenodd" clip-rule="evenodd" d="M478.615 161.862C478.615 161.862 466.318 163.865 465.471 165.404C457.474 171.217 449.78 188.516 446.495 197.478C443.21 206.44 436.911 215.695 431.232 222.891C425.553 230.087 422.829 231.571 415.389 236.896C407.948 242.22 405.215 246.444 409.426 250.413C413.637 254.382 437.885 252.841 455.146 274.424C470.226 280.611 470.207 282.873 474.687 269.505C479.168 256.137 516.008 222.714 521.983 218.003C527.958 213.292 525.65 208.765 527.156 194.335C528.662 179.906 539.527 168.206 530.388 168.206C523.187 170.888 516.172 165.404 513.006 165.404C501.47 168.279 498.843 179.641 494.054 177.258C489.265 174.875 486.199 174.875 486.199 174.875C485.081 177.144 484.722 181.03 483.604 183.298C482.487 185.567 477.812 190.117 475.734 194.335L479.407 182.061L478.382 174.721L478.615 161.862Z" fill="white"/>
<path fill-rule="evenodd" clip-rule="evenodd" d="M478.615 161.862C478.615 161.862 466.318 163.865 465.471 165.404C457.474 171.217 449.78 188.516 446.495 197.478C443.21 206.44 436.911 215.695 431.232 222.891C425.553 230.087 422.829 231.571 415.389 236.896C407.948 242.22 405.215 246.444 409.426 250.413C413.637 254.382 437.885 252.841 455.146 274.424C470.226 280.611 470.207 282.873 474.687 269.505C479.168 256.137 516.008 222.714 521.983 218.003C527.958 213.292 525.65 208.765 527.156 194.335C528.662 179.906 539.527 168.206 530.388 168.206C523.187 170.888 516.172 165.404 513.006 165.404C501.47 168.279 498.843 179.641 494.054 177.258C489.265 174.875 486.199 174.875 486.199 174.875C485.081 177.144 484.722 181.03 483.604 183.298C482.487 185.567 477.812 190.117 475.734 194.335L479.407 182.061L478.382 174.721L478.615 161.862Z" fill="url(#paint15_linear)"/>
<mask id="mask6" mask-type="alpha" maskUnits="userSpaceOnUse" x="407" y="161" width="128" height="119">
<path fill-rule="evenodd" clip-rule="evenodd" d="M478.615 161.862C478.615 161.862 466.318 163.865 465.471 165.404C457.474 171.217 449.78 188.516 446.495 197.478C443.21 206.44 436.911 215.695 431.232 222.891C425.553 230.087 422.829 231.571 415.389 236.896C407.948 242.22 405.215 246.444 409.426 250.413C413.637 254.382 437.885 252.841 455.146 274.424C470.226 280.611 470.207 282.873 474.687 269.505C479.168 256.137 516.008 222.714 521.983 218.003C527.958 213.292 525.65 208.765 527.156 194.335C528.662 179.906 539.527 168.206 530.388 168.206C523.187 170.888 516.172 165.404 513.006 165.404C501.47 168.279 498.843 179.641 494.054 177.258C489.265 174.875 486.199 174.875 486.199 174.875C485.081 177.144 484.722 181.03 483.604 183.298C482.487 185.567 477.812 190.117 475.734 194.335L479.407 182.061L478.382 174.721L478.615 161.862Z" fill="white"/>
<path fill-rule="evenodd" clip-rule="evenodd" d="M478.615 161.862C478.615 161.862 466.318 163.865 465.471 165.404C457.474 171.217 449.78 188.516 446.495 197.478C443.21 206.44 436.911 215.695 431.232 222.891C425.553 230.087 422.829 231.571 415.389 236.896C407.948 242.22 405.215 246.444 409.426 250.413C413.637 254.382 437.885 252.841 455.146 274.424C470.226 280.611 470.207 282.873 474.687 269.505C479.168 256.137 516.008 222.714 521.983 218.003C527.958 213.292 525.65 208.765 527.156 194.335C528.662 179.906 539.527 168.206 530.388 168.206C523.187 170.888 516.172 165.404 513.006 165.404C501.47 168.279 498.843 179.641 494.054 177.258C489.265 174.875 486.199 174.875 486.199 174.875C485.081 177.144 484.722 181.03 483.604 183.298C482.487 185.567 477.812 190.117 475.734 194.335L479.407 182.061L478.382 174.721L478.615 161.862Z" stroke="white"/>
</mask>
<g mask="url(#mask6)">
<g opacity="0.6">
<mask id="path-38-outside-1" maskUnits="userSpaceOnUse" x="420.311" y="191.754" width="62" height="64" fill="black">
<rect fill="white" x="420.311" y="191.754" width="62" height="64"/>
<path fill-rule="evenodd" clip-rule="evenodd" d="M477.81 194.256C476.724 196.436 464.829 217.292 462.301 220.291C459.774 223.289 451.489 231.646 448.293 234.81C445.098 237.973 425.513 250.43 425.28 254.335"/>
</mask>
<path fill-rule="evenodd" clip-rule="evenodd" d="M477.81 194.256C476.724 196.436 464.829 217.292 462.301 220.291C459.774 223.289 451.489 231.646 448.293 234.81C445.098 237.973 425.513 250.43 425.28 254.335" fill="black" fill-opacity="0.01"/>
<path d="M462.301 220.291L465.36 222.868L465.36 222.868L462.301 220.291ZM448.293 234.81L445.479 231.967L445.479 231.967L448.293 234.81ZM481.39 196.04C480.774 197.276 477.451 203.164 474.05 208.985C472.329 211.928 470.554 214.915 469.042 217.364C467.606 219.693 466.223 221.844 465.36 222.868L459.243 217.713C459.643 217.238 460.695 215.657 462.234 213.164C463.698 210.791 465.438 207.866 467.143 204.948C470.592 199.046 473.76 193.416 474.23 192.472L481.39 196.04ZM465.36 222.868C462.69 226.036 454.254 234.537 451.107 237.652L445.479 231.967C448.723 228.756 456.858 220.542 459.243 217.713L465.36 222.868ZM451.107 237.652C450.044 238.705 447.922 240.282 445.743 241.875C443.412 243.579 440.713 245.514 438.077 247.493C435.435 249.477 432.998 251.4 431.234 253.025C430.345 253.843 429.726 254.495 429.354 254.97C428.839 255.628 429.223 255.406 429.273 254.573L421.287 254.098C421.395 252.289 422.442 250.822 423.055 250.039C423.811 249.073 424.786 248.087 425.815 247.139C427.888 245.23 430.591 243.11 433.274 241.095C435.963 239.077 438.774 237.06 441.021 235.417C443.421 233.663 444.945 232.496 445.479 231.967L451.107 237.652Z" fill="#D9E8FF" mask="url(#path-38-outside-1)"/>
</g>
<path opacity="0.3" fill-rule="evenodd" clip-rule="evenodd" d="M492.866 190.343C492.866 190.343 487.406 180.405 484.226 180.405C481.047 180.405 485.339 170.742 485.339 170.742L495.254 178.245L492.866 190.343Z" fill="#CCDFFD"/>
</g>
<path fill-rule="evenodd" clip-rule="evenodd" d="M410.807 244.951C392.684 228.303 340.809 196.083 311.227 191.162C294.28 193.983 250.178 241.819 250.178 241.819C252.167 243.916 257.408 262.509 265.687 268.354C286.537 251.033 308.276 242.945 314.113 233.989C321.394 238.425 340.11 251.378 350.875 270.409C361.64 289.439 368.782 311.12 381.05 311.663C393.318 312.205 410.619 313.608 426.556 303.346C435.812 297.386 462.46 284.101 449.514 275.397C442.095 270.409 418.404 251.93 410.807 244.951Z" fill="#4B42DE"/>
<path fill-rule="evenodd" clip-rule="evenodd" d="M481.45 106.01C480.223 109.11 473.488 122.716 472.839 126.108C472.19 129.499 465.781 152.122 469.599 155.606C473.417 159.089 484.866 160.853 488.065 159.738C491.265 158.622 498.143 157.907 500.822 153.202C502.881 149.586 509.423 141.191 511.139 141.672C511.766 142.961 513.951 144.339 515.045 143.453C519.773 139.629 523.826 135.487 521.902 126.108C519.978 116.728 513.234 112.1 506.003 109.055C498.772 106.01 482.678 102.91 481.45 106.01Z" fill="url(#paint16_linear)"/>
<path fill-rule="evenodd" clip-rule="evenodd" d="M564.114 158.043C555.354 161.592 526.986 147.464 517.983 148.719C509.708 149.872 520.208 136.922 523.316 134.63C526.423 132.338 588.56 133.377 591.822 138.16C595.083 142.943 571.379 155.1 564.114 158.043Z" fill="url(#paint17_linear)"/>
<mask id="mask7" mask-type="alpha" maskUnits="userSpaceOnUse" x="514" y="133" width="79" height="26">
<path fill-rule="evenodd" clip-rule="evenodd" d="M564.114 158.043C555.354 161.592 526.986 147.464 517.983 148.719C509.708 149.872 520.208 136.922 523.316 134.63C526.423 132.338 588.56 133.377 591.822 138.16C595.083 142.943 571.379 155.1 564.114 158.043Z" fill="white"/>
</mask>
<g mask="url(#mask7)">
<path opacity="0.5" fill-rule="evenodd" clip-rule="evenodd" d="M581.36 138.606C579.518 139.276 542.157 155.569 532.913 153.313C523.67 151.056 555.948 161.844 555.948 161.844C555.948 161.844 583.202 137.935 581.36 138.606Z" fill="#C341A6"/>
</g>
<g filter="url(#filter4_i)">
<path fill-rule="evenodd" clip-rule="evenodd" d="M507.356 126.159C507.356 126.159 511.584 119.73 508.316 113.354C505.047 106.978 487.793 115.482 473.819 99.7616C459.845 84.041 472.262 62.826 486.627 66.9636C500.993 71.1012 497.471 78.5124 494.866 84.041C492.262 89.5695 505.662 91.6459 515.244 95.5376C524.826 99.4294 532.647 109.901 530.959 126.159C529.27 142.417 514.199 155.728 509.402 158.178C510.797 148.57 510.859 144.156 510.859 141.48C516.361 144.024 522.77 131.407 519.038 128.088C511.911 121.747 508.316 136.189 508.316 136.189C508.316 136.189 507.356 134.133 505.662 132.184C506.307 128.706 507.356 126.159 507.356 126.159Z" fill="url(#paint18_linear)"/>
</g>
<path fill-rule="evenodd" clip-rule="evenodd" d="M478.315 174.378C473.94 175.933 473.102 184.02 472.351 186.3C471.6 188.581 475.504 168.426 475.504 168.426C476.878 170.322 479.816 157.451 479.264 159.338C477.778 164.414 479.023 170.164 478.315 174.378Z" fill="#CCDFFD"/>
<path fill-rule="evenodd" clip-rule="evenodd" d="M492.59 194.753C492.59 187.59 489.744 178.197 486.231 174.846C491.326 175.161 506.313 166.2 507.913 161.205C509.512 156.21 509.81 155.496 509.81 155.496C509.81 155.496 512.895 161.47 512.895 165.259C510.712 173.479 500.973 187.749 492.59 194.753Z" fill="url(#paint19_linear)"/>
<g filter="url(#filter5_i)">
<path fill-rule="evenodd" clip-rule="evenodd" d="M536.382 166.238C551.178 158.098 580.736 134.956 588.504 136.845C596.273 138.734 594.257 142.243 594.257 150.291C594.257 158.339 553.656 185.517 547.404 198.966C544.728 204.722 537.872 218.943 525.6 216.626C513.328 214.309 517.051 202.105 519.696 192.262C522.805 180.692 527.27 171.251 536.382 166.238Z" fill="url(#paint20_linear)"/>
</g>
<path fill-rule="evenodd" clip-rule="evenodd" d="M496.598 126.45C494.009 127.139 490.772 126.635 489.041 124.745L496.598 126.45Z" fill="black" fill-opacity="0.01"/>
<path d="M496.598 126.45C494.009 127.139 490.772 126.635 489.041 124.745" stroke="#143B8C" stroke-width="2" stroke-linecap="round"/>
<path fill-rule="evenodd" clip-rule="evenodd" d="M475.82 120.943C473.583 121.632 470.787 121.128 469.293 119.237L475.82 120.943Z" fill="black" fill-opacity="0.01"/>
<path d="M475.82 120.943C473.583 121.632 470.787 121.128 469.293 119.237" stroke="#143B8C" stroke-width="2" stroke-linecap="round"/>
<path fill-rule="evenodd" clip-rule="evenodd" d="M502.323 122.389L499.541 134.685L484.044 130.962L486.378 118.156L502.323 122.389Z" fill="black" fill-opacity="0.01" stroke="#143B8C" stroke-width="2"/>
<path fill-rule="evenodd" clip-rule="evenodd" d="M479.675 116.106L477.151 128.67L465.547 125.339L467.665 112.767L479.675 116.106Z" fill="black" fill-opacity="0.01" stroke="#143B8C" stroke-width="2"/>
<path fill-rule="evenodd" clip-rule="evenodd" d="M502.635 123.936L511.772 126.439L510.245 129.491L500.369 131.824L502.635 123.936Z" fill="#143B8C"/>
<path fill-rule="evenodd" clip-rule="evenodd" d="M485.863 122.033L478.891 119.884L478.123 123.567L485.363 125.587L485.863 122.033Z" fill="#143B8C"/>
<path fill-rule="evenodd" clip-rule="evenodd" d="M496.446 304.454C428.742 346.792 358.819 351.418 335.308 313.765C307.072 258.875 403.889 282.625 471.594 240.288C539.298 197.95 537.625 162.61 584.325 145.779C607.836 183.433 564.151 262.116 496.446 304.454Z" fill="black" fill-opacity="0.01"/>
<mask id="mask8" mask-type="alpha" maskUnits="userSpaceOnUse" x="330" y="145" width="261" height="195">
<path fill-rule="evenodd" clip-rule="evenodd" d="M496.446 304.454C428.742 346.792 358.819 351.418 335.308 313.765C307.072 258.875 403.889 282.625 471.594 240.288C539.298 197.95 537.625 162.61 584.325 145.779C607.836 183.433 564.151 262.116 496.446 304.454Z" fill="white"/>
</mask>
<g mask="url(#mask8)">
<g filter="url(#filter6_i)">
<path fill-rule="evenodd" clip-rule="evenodd" d="M617.554 251.007C582.216 273.973 541.736 274.355 527.139 251.861C512.542 229.367 529.356 192.514 564.694 169.548C600.032 146.582 640.513 146.2 655.11 168.694C669.707 191.188 652.893 228.041 617.554 251.007Z" fill="#FBE6EB"/>
</g>
<g filter="url(#filter7_i)">
<path fill-rule="evenodd" clip-rule="evenodd" d="M493.58 342.545C467.537 330.392 459.44 292.607 475.496 258.149C491.552 223.692 525.68 205.61 551.723 217.763C577.766 229.916 585.862 267.702 569.807 302.159C553.751 336.617 519.623 354.698 493.58 342.545Z" fill="#FBE6EB"/>
</g>
<g filter="url(#filter8_i)">
<path fill-rule="evenodd" clip-rule="evenodd" d="M426.041 400.622C399.998 388.469 391.901 350.683 407.957 316.226C424.013 281.768 458.141 263.687 484.184 275.84C510.227 287.993 518.323 325.778 502.268 360.236C486.212 394.694 452.084 412.775 426.041 400.622Z" fill="#FBE6EB"/>
</g>
<g filter="url(#filter9_i)">
<path fill-rule="evenodd" clip-rule="evenodd" d="M299.968 420.148C273.925 407.994 265.829 370.209 281.885 335.751C297.941 301.294 332.069 283.213 358.112 295.366C384.155 307.519 392.251 345.304 376.195 379.762C360.139 414.219 326.011 432.301 299.968 420.148Z" fill="#FBE6EB"/>
</g>
<g filter="url(#filter10_i)">
<path fill-rule="evenodd" clip-rule="evenodd" d="M389.175 381.961C360.654 385.466 335.363 370.619 332.686 348.8C330.009 326.981 350.96 306.452 379.481 302.948C408.002 299.443 433.293 314.29 435.97 336.109C438.647 357.928 417.696 378.457 389.175 381.961Z" fill="#FBE6EB"/>
</g>
</g>
<path fill-rule="evenodd" clip-rule="evenodd" d="M467.65 197.035C467.65 197.035 455.809 194.794 454.389 193.2C452.969 191.606 444.95 210.019 444.95 210.019L448.844 214.443H458.125L467.65 197.035Z" fill="url(#paint21_linear)"/>
<path fill-rule="evenodd" clip-rule="evenodd" d="M603.883 399.026C583.99 399.026 567.863 402.501 567.863 406.787C567.863 411.072 583.99 414.547 603.883 414.547C623.777 414.547 639.904 411.072 639.904 406.787C639.904 402.501 623.777 399.026 603.883 399.026Z" fill="#FBD0E3"/>
<path fill-rule="evenodd" clip-rule="evenodd" d="M570.384 368.672C568.126 372.632 566.861 377.068 566.861 381.754C566.861 398.482 582.988 412.044 602.881 412.044C622.775 412.044 638.902 398.482 638.902 381.754C638.902 376.796 637.486 372.116 634.974 367.985C619.017 370.513 587.256 370.35 570.384 368.672Z" fill="url(#paint22_linear)"/>
<path fill-rule="evenodd" clip-rule="evenodd" d="M602.633 361.977C584.535 361.977 569.864 365.452 569.864 369.738C569.864 374.024 584.535 377.498 602.633 377.498C620.731 377.498 635.402 374.024 635.402 369.738C635.402 365.452 620.731 361.977 602.633 361.977Z" fill="url(#paint23_linear)"/>
<g filter="url(#filter11_i)">
<path fill-rule="evenodd" clip-rule="evenodd" d="M605.384 362.979C607.173 350.586 612.096 332.689 626.896 313.413C635.614 302.059 635.643 274.407 636.902 271.358C630.061 273.712 617.772 279.781 605.384 296.892C592.398 314.829 600.636 351.409 605.384 362.979Z" fill="url(#paint24_linear)"/>
</g>
<mask id="mask9" mask-type="alpha" maskUnits="userSpaceOnUse" x="598" y="271" width="39" height="92">
<path fill-rule="evenodd" clip-rule="evenodd" d="M605.384 362.979C607.173 350.586 612.096 332.689 626.896 313.413C635.614 302.059 635.643 274.407 636.902 271.358C630.061 273.712 617.772 279.781 605.384 296.892C592.398 314.829 600.636 351.409 605.384 362.979Z" fill="white"/>
</mask>
<g mask="url(#mask9)">
<g style="mix-blend-mode:multiply" opacity="0.5">
<path d="M607.127 349.83L616.666 304.657C610.192 317.3 607.32 331.201 607.127 349.83Z" fill="black" fill-opacity="0.01"/>
<path d="M607.127 349.83L616.666 304.657C610.192 317.3 607.32 331.201 607.127 349.83Z" stroke="#3E6145" stroke-width="3"/>
</g>
</g>
<g filter="url(#filter12_i)">
<path fill-rule="evenodd" clip-rule="evenodd" d="M605.329 375.7C610.857 366.85 620.626 354.857 638.394 345.133C648.861 339.405 658.171 318.328 660.156 316.425C654.145 315.921 642.729 316.417 627.528 325.301C611.594 334.614 605.592 365.28 605.329 375.7Z" fill="url(#paint25_linear)"/>
</g>
<mask id="mask10" mask-type="alpha" maskUnits="userSpaceOnUse" x="605" y="316" width="56" height="60">
<path fill-rule="evenodd" clip-rule="evenodd" d="M605.329 375.7C610.857 366.85 620.626 354.857 638.394 345.133C648.861 339.405 658.171 318.328 660.156 316.425C654.145 315.921 642.729 316.417 627.528 325.301C611.594 334.614 605.592 365.28 605.329 375.7Z" fill="white"/>
</mask>
<g mask="url(#mask10)">
<g style="mix-blend-mode:multiply" opacity="0.5">
<path d="M612.404 363.982L632.169 336.48C624.28 343.294 618.124 351.916 612.404 363.982Z" fill="black" fill-opacity="0.01"/>
<path d="M612.404 363.982L632.169 336.48C624.28 343.294 618.124 351.916 612.404 363.982Z" stroke="#3E6145" stroke-width="3"/>
</g>
</g>
<g filter="url(#filter13_i)">
<path fill-rule="evenodd" clip-rule="evenodd" d="M601.358 376.912C596.999 367.387 588.824 354.185 572.387 342.209C562.704 335.155 556.164 312.966 554.433 310.816C560.486 311.089 571.793 313.056 585.782 323.864C600.446 335.194 602.447 366.503 601.358 376.912Z" fill="url(#paint26_linear)"/>
</g>
<mask id="mask11" mask-type="alpha" maskUnits="userSpaceOnUse" x="554" y="310" width="48" height="67">
<path fill-rule="evenodd" clip-rule="evenodd" d="M601.358 376.912C596.999 367.387 588.824 354.185 572.387 342.209C562.704 335.155 556.164 312.966 554.433 310.816C560.486 311.089 571.793 313.056 585.782 323.864C600.446 335.194 602.447 366.503 601.358 376.912Z" fill="white"/>
</mask>
<g mask="url(#mask11)">
<g style="mix-blend-mode:multiply" opacity="0.5">
<path d="M581.344 334.209L597.529 364.263C593.384 351.448 588.353 342.036 581.344 334.209Z" fill="black" fill-opacity="0.01"/>
<path d="M581.344 334.209L597.529 364.263C593.384 351.448 588.353 342.036 581.344 334.209Z" stroke="#3E6145" stroke-width="3"/>
</g>
</g>
<g opacity="0.6">
<path fill-rule="evenodd" clip-rule="evenodd" d="M612.89 0.500659C595.759 0.500659 581.872 14.3982 581.872 31.5416C581.872 48.685 595.759 62.5826 612.89 62.5826C630.02 62.5826 643.908 48.685 643.908 31.5416C643.908 14.3982 630.02 0.500659 612.89 0.500659Z" fill="url(#paint27_linear)"/>
<mask id="mask12" mask-type="alpha" maskUnits="userSpaceOnUse" x="581" y="0" width="63" height="63">
<path fill-rule="evenodd" clip-rule="evenodd" d="M612.89 0.500659C595.759 0.500659 581.872 14.3982 581.872 31.5416C581.872 48.685 595.759 62.5826 612.89 62.5826C630.02 62.5826 643.908 48.685 643.908 31.5416C643.908 14.3982 630.02 0.500659 612.89 0.500659Z" fill="white"/>
</mask>
<g mask="url(#mask12)">
</g>
<mask id="path-80-inside-2" fill="white">
<path fill-rule="evenodd" clip-rule="evenodd" d="M612.51 10.3429V32.6773L602.297 42.8981"/>
</mask>
<path d="M610.51 10.3429C610.51 9.23837 611.406 8.34294 612.51 8.34294C613.615 8.34294 614.51 9.23837 614.51 10.3429H610.51ZM612.51 32.6773H614.51C614.51 33.2074 614.3 33.7159 613.925 34.0909L612.51 32.6773ZM603.712 44.3117C602.931 45.0931 601.665 45.0935 600.883 44.3128C600.102 43.532 600.102 42.2657 600.882 41.4844L603.712 44.3117ZM614.51 10.3429V32.6773H610.51V10.3429H614.51ZM613.925 34.0909L603.712 44.3117L600.882 41.4844L611.096 31.2636L613.925 34.0909Z" fill="white" mask="url(#path-80-inside-2)"/>
</g>
<defs>
<filter id="filter0_f" x="306.68" y="92.5102" width="316.73" height="297.872" filterUnits="userSpaceOnUse" color-interpolation-filters="sRGB">
<feFlood flood-opacity="0" result="BackgroundImageFix"/>
<feBlend mode="normal" in="SourceGraphic" in2="BackgroundImageFix" result="shape"/>
<feGaussianBlur stdDeviation="49.9909" result="effect1_foregroundBlur"/>
</filter>
<filter id="filter1_i" x="410.449" y="104.89" width="57.0038" height="97.0521" filterUnits="userSpaceOnUse" color-interpolation-filters="sRGB">
<feFlood flood-opacity="0" result="BackgroundImageFix"/>
<feBlend mode="normal" in="SourceGraphic" in2="BackgroundImageFix" result="shape"/>
<feColorMatrix in="SourceAlpha" type="matrix" values="0 0 0 0 0 0 0 0 0 0 0 0 0 0 0 0 0 0 127 0" result="hardAlpha"/>
<feOffset dy="1"/>
<feGaussianBlur stdDeviation="6"/>
<feComposite in2="hardAlpha" operator="arithmetic" k2="-1" k3="1"/>
<feColorMatrix type="matrix" values="0 0 0 0 0.898039 0 0 0 0 0.941176 0 0 0 0 1 0 0 0 1 0"/>
<feBlend mode="normal" in2="shape" result="effect1_innerShadow"/>
</filter>
<filter id="filter2_i" x="266.418" y="242.011" width="217.252" height="148.499" filterUnits="userSpaceOnUse" color-interpolation-filters="sRGB">
<feFlood flood-opacity="0" result="BackgroundImageFix"/>
<feBlend mode="normal" in="SourceGraphic" in2="BackgroundImageFix" result="shape"/>
<feColorMatrix in="SourceAlpha" type="matrix" values="0 0 0 0 0 0 0 0 0 0 0 0 0 0 0 0 0 0 127 0" result="hardAlpha"/>
<feOffset dx="16" dy="4"/>
<feGaussianBlur stdDeviation="14"/>
<feComposite in2="hardAlpha" operator="arithmetic" k2="-1" k3="1"/>
<feColorMatrix type="matrix" values="0 0 0 0 0.103708 0 0 0 0 0.317385 0 0 0 0 0.809604 0 0 0 1 0"/>
<feBlend mode="normal" in2="shape" result="effect1_innerShadow"/>
</filter>
<filter id="filter3_i" x="318.479" y="240.731" width="68.667" height="72.3231" filterUnits="userSpaceOnUse" color-interpolation-filters="sRGB">
<feFlood flood-opacity="0" result="BackgroundImageFix"/>
<feBlend mode="normal" in="SourceGraphic" in2="BackgroundImageFix" result="shape"/>
<feColorMatrix in="SourceAlpha" type="matrix" values="0 0 0 0 0 0 0 0 0 0 0 0 0 0 0 0 0 0 127 0" result="hardAlpha"/>
<feOffset dx="16" dy="4"/>
<feGaussianBlur stdDeviation="14"/>
<feComposite in2="hardAlpha" operator="arithmetic" k2="-1" k3="1"/>
<feColorMatrix type="matrix" values="0 0 0 0 0.103708 0 0 0 0 0.317385 0 0 0 0 0.809604 0 0 0 1 0"/>
<feBlend mode="normal" in2="shape" result="effect1_innerShadow"/>
</filter>
<filter id="filter4_i" x="467.703" y="66.439" width="76.4855" height="103.739" filterUnits="userSpaceOnUse" color-interpolation-filters="sRGB">
<feFlood flood-opacity="0" result="BackgroundImageFix"/>
<feBlend mode="normal" in="SourceGraphic" in2="BackgroundImageFix" result="shape"/>
<feColorMatrix in="SourceAlpha" type="matrix" values="0 0 0 0 0 0 0 0 0 0 0 0 0 0 0 0 0 0 127 0" result="hardAlpha"/>
<feOffset dx="13" dy="12"/>
<feGaussianBlur stdDeviation="9"/>
<feComposite in2="hardAlpha" operator="arithmetic" k2="-1" k3="1"/>
<feColorMatrix type="matrix" values="0 0 0 0 0 0 0 0 0 0 0 0 0 0 0 0 0 0 0.139889 0"/>
<feBlend mode="normal" in2="shape" result="effect1_innerShadow"/>
</filter>
<filter id="filter5_i" x="517.023" y="128.736" width="89.4689" height="88.1425" filterUnits="userSpaceOnUse" color-interpolation-filters="sRGB">
<feFlood flood-opacity="0" result="BackgroundImageFix"/>
<feBlend mode="normal" in="SourceGraphic" in2="BackgroundImageFix" result="shape"/>
<feColorMatrix in="SourceAlpha" type="matrix" values="0 0 0 0 0 0 0 0 0 0 0 0 0 0 0 0 0 0 127 0" result="hardAlpha"/>
<feOffset dx="18" dy="-8"/>
<feGaussianBlur stdDeviation="6"/>
<feComposite in2="hardAlpha" operator="arithmetic" k2="-1" k3="1"/>
<feColorMatrix type="matrix" values="0 0 0 0 0.898039 0 0 0 0 0.941176 0 0 0 0 1 0 0 0 1 0"/>
<feBlend mode="normal" in2="shape" result="effect1_innerShadow"/>
</filter>
<filter id="filter6_i" x="503.077" y="152.07" width="157.295" height="119.014" filterUnits="userSpaceOnUse" color-interpolation-filters="sRGB">
<feFlood flood-opacity="0" result="BackgroundImageFix"/>
<feBlend mode="normal" in="SourceGraphic" in2="BackgroundImageFix" result="shape"/>
<feColorMatrix in="SourceAlpha" type="matrix" values="0 0 0 0 0 0 0 0 0 0 0 0 0 0 0 0 0 0 127 0" result="hardAlpha"/>
<feOffset dx="-18.8" dy="2.6"/>
<feGaussianBlur stdDeviation="10.5"/>
<feComposite in2="hardAlpha" operator="arithmetic" k2="-1" k3="1"/>
<feColorMatrix type="matrix" values="0 0 0 0 1 0 0 0 0 0.632617 0 0 0 0 0.732638 0 0 0 0.43 0"/>
<feBlend mode="normal" in2="shape" result="effect1_innerShadow"/>
</filter>
<filter id="filter7_i" x="448.448" y="213.978" width="129.608" height="134.952" filterUnits="userSpaceOnUse" color-interpolation-filters="sRGB">
<feFlood flood-opacity="0" result="BackgroundImageFix"/>
<feBlend mode="normal" in="SourceGraphic" in2="BackgroundImageFix" result="shape"/>
<feColorMatrix in="SourceAlpha" type="matrix" values="0 0 0 0 0 0 0 0 0 0 0 0 0 0 0 0 0 0 127 0" result="hardAlpha"/>
<feOffset dx="-18.8" dy="2.6"/>
<feGaussianBlur stdDeviation="10.5"/>
<feComposite in2="hardAlpha" operator="arithmetic" k2="-1" k3="1"/>
<feColorMatrix type="matrix" values="0 0 0 0 1 0 0 0 0 0.632617 0 0 0 0 0.732638 0 0 0 0.43 0"/>
<feBlend mode="normal" in2="shape" result="effect1_innerShadow"/>
</filter>
<filter id="filter8_i" x="380.909" y="272.055" width="129.608" height="134.952" filterUnits="userSpaceOnUse" color-interpolation-filters="sRGB">
<feFlood flood-opacity="0" result="BackgroundImageFix"/>
<feBlend mode="normal" in="SourceGraphic" in2="BackgroundImageFix" result="shape"/>
<feColorMatrix in="SourceAlpha" type="matrix" values="0 0 0 0 0 0 0 0 0 0 0 0 0 0 0 0 0 0 127 0" result="hardAlpha"/>
<feOffset dx="-18.8" dy="2.6"/>
<feGaussianBlur stdDeviation="10.5"/>
<feComposite in2="hardAlpha" operator="arithmetic" k2="-1" k3="1"/>
<feColorMatrix type="matrix" values="0 0 0 0 1 0 0 0 0 0.632617 0 0 0 0 0.732638 0 0 0 0.43 0"/>
<feBlend mode="normal" in2="shape" result="effect1_innerShadow"/>
</filter>
<filter id="filter9_i" x="254.837" y="291.581" width="129.608" height="134.952" filterUnits="userSpaceOnUse" color-interpolation-filters="sRGB">
<feFlood flood-opacity="0" result="BackgroundImageFix"/>
<feBlend mode="normal" in="SourceGraphic" in2="BackgroundImageFix" result="shape"/>
<feColorMatrix in="SourceAlpha" type="matrix" values="0 0 0 0 0 0 0 0 0 0 0 0 0 0 0 0 0 0 127 0" result="hardAlpha"/>
<feOffset dx="-18.8" dy="2.6"/>
<feGaussianBlur stdDeviation="10.5"/>
<feComposite in2="hardAlpha" operator="arithmetic" k2="-1" k3="1"/>
<feColorMatrix type="matrix" values="0 0 0 0 1 0 0 0 0 0.632617 0 0 0 0 0.732638 0 0 0 0.43 0"/>
<feBlend mode="normal" in2="shape" result="effect1_innerShadow"/>
</filter>
<filter id="filter10_i" x="313.655" y="302.435" width="122.545" height="82.6386" filterUnits="userSpaceOnUse" color-interpolation-filters="sRGB">
<feFlood flood-opacity="0" result="BackgroundImageFix"/>
<feBlend mode="normal" in="SourceGraphic" in2="BackgroundImageFix" result="shape"/>
<feColorMatrix in="SourceAlpha" type="matrix" values="0 0 0 0 0 0 0 0 0 0 0 0 0 0 0 0 0 0 127 0" result="hardAlpha"/>
<feOffset dx="-18.8" dy="2.6"/>
<feGaussianBlur stdDeviation="10.5"/>
<feComposite in2="hardAlpha" operator="arithmetic" k2="-1" k3="1"/>
<feColorMatrix type="matrix" values="0 0 0 0 1 0 0 0 0 0.632617 0 0 0 0 0.732638 0 0 0 0.43 0"/>
<feBlend mode="normal" in2="shape" result="effect1_innerShadow"/>
</filter>
<filter id="filter11_i" x="598.406" y="261.358" width="38.4955" height="101.621" filterUnits="userSpaceOnUse" color-interpolation-filters="sRGB">
<feFlood flood-opacity="0" result="BackgroundImageFix"/>
<feBlend mode="normal" in="SourceGraphic" in2="BackgroundImageFix" result="shape"/>
<feColorMatrix in="SourceAlpha" type="matrix" values="0 0 0 0 0 0 0 0 0 0 0 0 0 0 0 0 0 0 127 0" result="hardAlpha"/>
<feOffset dy="-10"/>
<feGaussianBlur stdDeviation="6.5"/>
<feComposite in2="hardAlpha" operator="arithmetic" k2="-1" k3="1"/>
<feColorMatrix type="matrix" values="0 0 0 0 0.639216 0 0 0 0 0.764706 0 0 0 0 0.466667 0 0 0 1 0"/>
<feBlend mode="normal" in2="shape" result="effect1_innerShadow"/>
</filter>
<filter id="filter12_i" x="605.328" y="306.29" width="54.8273" height="69.4094" filterUnits="userSpaceOnUse" color-interpolation-filters="sRGB">
<feFlood flood-opacity="0" result="BackgroundImageFix"/>
<feBlend mode="normal" in="SourceGraphic" in2="BackgroundImageFix" result="shape"/>
<feColorMatrix in="SourceAlpha" type="matrix" values="0 0 0 0 0 0 0 0 0 0 0 0 0 0 0 0 0 0 127 0" result="hardAlpha"/>
<feOffset dy="-10"/>
<feGaussianBlur stdDeviation="6.5"/>
<feComposite in2="hardAlpha" operator="arithmetic" k2="-1" k3="1"/>
<feColorMatrix type="matrix" values="0 0 0 0 0.639216 0 0 0 0 0.764706 0 0 0 0 0.466667 0 0 0 1 0"/>
<feBlend mode="normal" in2="shape" result="effect1_innerShadow"/>
</filter>
<filter id="filter13_i" x="554.434" y="300.816" width="47.1744" height="76.0968" filterUnits="userSpaceOnUse" color-interpolation-filters="sRGB">
<feFlood flood-opacity="0" result="BackgroundImageFix"/>
<feBlend mode="normal" in="SourceGraphic" in2="BackgroundImageFix" result="shape"/>
<feColorMatrix in="SourceAlpha" type="matrix" values="0 0 0 0 0 0 0 0 0 0 0 0 0 0 0 0 0 0 127 0" result="hardAlpha"/>
<feOffset dy="-10"/>
<feGaussianBlur stdDeviation="6.5"/>
<feComposite in2="hardAlpha" operator="arithmetic" k2="-1" k3="1"/>
<feColorMatrix type="matrix" values="0 0 0 0 0.639216 0 0 0 0 0.764706 0 0 0 0 0.466667 0 0 0 1 0"/>
<feBlend mode="normal" in2="shape" result="effect1_innerShadow"/>
</filter>
<linearGradient id="paint0_linear" x1="136.654" y1="98.2273" x2="108.537" y2="144.712" gradientUnits="userSpaceOnUse">
<stop stop-color="#FAD0E4" stop-opacity="0.15"/>
<stop offset="1" stop-color="#F8B2D5"/>
</linearGradient>
<linearGradient id="paint1_linear" x1="95.5356" y1="120.363" x2="59.5698" y2="181.023" gradientUnits="userSpaceOnUse">
<stop stop-color="#FAD0E4" stop-opacity="0.15"/>
<stop offset="1" stop-color="#F8B2D5"/>
</linearGradient>
<linearGradient id="paint2_linear" x1="136.057" y1="164.057" x2="99.6912" y2="224.934" gradientUnits="userSpaceOnUse">
<stop stop-color="#FAD0E4" stop-opacity="0.15"/>
<stop offset="1" stop-color="#F8B2D5"/>
</linearGradient>
<linearGradient id="paint3_linear" x1="-27.8174" y1="233.758" x2="10.3695" y2="171.274" gradientUnits="userSpaceOnUse">
<stop stop-color="#221970"/>
<stop offset="1" stop-color="#6039C8"/>
</linearGradient>
<linearGradient id="paint4_linear" x1="220.493" y1="226.838" x2="153.372" y2="216.345" gradientUnits="userSpaceOnUse">
<stop stop-color="#FDAE6B"/>
<stop offset="1" stop-color="#FAE539"/>
</linearGradient>
<radialGradient id="paint5_radial" cx="0" cy="0" r="1" gradientUnits="userSpaceOnUse" gradientTransform="translate(464.301 377.832) rotate(90) scale(36.7144 592.396)">
<stop stop-color="#0C0A28"/>
<stop offset="1" stop-color="#3429C0"/>
</radialGradient>
<radialGradient id="paint6_radial" cx="0" cy="0" r="1" gradientUnits="userSpaceOnUse" gradientTransform="translate(514.167 249.586) rotate(-112.218) scale(125.702 220.374)">
<stop stop-color="#A05CE8"/>
<stop offset="1" stop-color="#261FB6"/>
</radialGradient>
<radialGradient id="paint7_radial" cx="0" cy="0" r="1" gradientUnits="userSpaceOnUse" gradientTransform="translate(451.836 177.22) rotate(71.5465) scale(132.713 609.313)">
<stop stop-color="#FFDFEF"/>
<stop offset="1" stop-color="#FFBDDD"/>
</radialGradient>
<linearGradient id="paint8_linear" x1="266.374" y1="378.447" x2="271.478" y2="416.663" gradientUnits="userSpaceOnUse">
<stop stop-color="#F39EFE"/>
<stop offset="1" stop-color="#C45BD6"/>
</linearGradient>
<linearGradient id="paint9_linear" x1="246.734" y1="240.955" x2="255.594" y2="289.975" gradientUnits="userSpaceOnUse">
<stop stop-color="#F39EFE"/>
<stop offset="1" stop-color="#C45BD6"/>
</linearGradient>
<linearGradient id="paint10_linear" x1="435.975" y1="98.8292" x2="481.409" y2="150.512" gradientUnits="userSpaceOnUse">
<stop stop-color="#F5F8FF"/>
<stop offset="1" stop-color="white"/>
</linearGradient>
<linearGradient id="paint11_linear" x1="443.039" y1="156.997" x2="424.541" y2="106.776" gradientUnits="userSpaceOnUse">
<stop stop-color="#DA54BD"/>
<stop offset="1" stop-color="#F281D5"/>
</linearGradient>
<linearGradient id="paint12_linear" x1="321.5" y1="347" x2="281.353" y2="296.46" gradientUnits="userSpaceOnUse">
<stop stop-color="#19128F"/>
<stop offset="1" stop-color="#5934E5"/>
</linearGradient>
<linearGradient id="paint13_linear" x1="337.559" y1="291.98" x2="315.246" y2="279.098" gradientUnits="userSpaceOnUse">
<stop stop-color="#1F1794"/>
<stop offset="1" stop-color="#3D18C8"/>
</linearGradient>
<linearGradient id="paint14_linear" x1="505.364" y1="149.661" x2="505.364" y2="191.845" gradientUnits="userSpaceOnUse">
<stop stop-color="#B53FB7"/>
<stop offset="1" stop-color="#F175D1"/>
</linearGradient>
<linearGradient id="paint15_linear" x1="420.66" y1="260.97" x2="430.96" y2="231.587" gradientUnits="userSpaceOnUse">
<stop stop-color="#F6A7E2"/>
<stop offset="1" stop-color="white" stop-opacity="0.01"/>
</linearGradient>
<linearGradient id="paint16_linear" x1="463.114" y1="104.271" x2="505.805" y2="126.708" gradientUnits="userSpaceOnUse">
<stop stop-color="#FAD3F2"/>
<stop offset="0.701101" stop-color="#F6A5E4"/>
<stop offset="1" stop-color="#F493DE"/>
</linearGradient>
<linearGradient id="paint17_linear" x1="552.354" y1="171.741" x2="543.492" y2="131.253" gradientUnits="userSpaceOnUse">
<stop stop-color="#DA54BD"/>
<stop offset="1" stop-color="#F281D5"/>
</linearGradient>
<linearGradient id="paint18_linear" x1="463.296" y1="34.1848" x2="537.307" y2="52.3685" gradientUnits="userSpaceOnUse">
<stop stop-color="#3C2BBA"/>
<stop offset="1" stop-color="#231A6D"/>
</linearGradient>
<linearGradient id="paint19_linear" x1="503.64" y1="183.336" x2="493.978" y2="177.163" gradientUnits="userSpaceOnUse">
<stop stop-color="#EEF5FF"/>
<stop offset="1" stop-color="#ADC8F2"/>
</linearGradient>
<linearGradient id="paint20_linear" x1="549.788" y1="135.41" x2="575.384" y2="189.739" gradientUnits="userSpaceOnUse">
<stop stop-color="#F5F8FF"/>
<stop offset="1" stop-color="white"/>
</linearGradient>
<linearGradient id="paint21_linear" x1="462.172" y1="187.619" x2="468.555" y2="212.086" gradientUnits="userSpaceOnUse">
<stop stop-color="#EEF5FF"/>
<stop offset="1" stop-color="#D9E8FF"/>
</linearGradient>
<linearGradient id="paint22_linear" x1="548.1" y1="396.128" x2="582.954" y2="357.359" gradientUnits="userSpaceOnUse">
<stop stop-color="#FAD9F9"/>
<stop offset="1" stop-color="#FCE4FA"/>
</linearGradient>
<linearGradient id="paint23_linear" x1="636.402" y1="361.477" x2="636.402" y2="377.999" gradientUnits="userSpaceOnUse">
<stop stop-color="#F499E7"/>
<stop offset="1" stop-color="#F6B2EE"/>
</linearGradient>
<linearGradient id="paint24_linear" x1="643.433" y1="296.211" x2="589.621" y2="352.514" gradientUnits="userSpaceOnUse">
<stop stop-color="#F5FCAF"/>
<stop offset="0.444207" stop-color="#BECD82"/>
<stop offset="1" stop-color="#66A464"/>
</linearGradient>
<linearGradient id="paint25_linear" x1="668.404" y1="332.046" x2="639.976" y2="388.358" gradientUnits="userSpaceOnUse">
<stop stop-color="#F5FCAF"/>
<stop offset="0.444207" stop-color="#BECD82"/>
<stop offset="1" stop-color="#66A464"/>
</linearGradient>
<linearGradient id="paint26_linear" x1="609.943" y1="328.311" x2="574.497" y2="383.902" gradientUnits="userSpaceOnUse">
<stop stop-color="#F5FCAF"/>
<stop offset="0.444207" stop-color="#BECD82"/>
<stop offset="1" stop-color="#66A464"/>
</linearGradient>
<linearGradient id="paint27_linear" x1="616.984" y1="17.6795" x2="635.623" y2="54.3327" gradientUnits="userSpaceOnUse">
<stop stop-color="#FACEEA"/>
<stop offset="1" stop-color="#F7ACDD"/>
</linearGradient>
</defs>
</svg>
