<svg width="691" height="416" fill="none" xmlns="http://www.w3.org/2000/svg"><path fill-rule="evenodd" clip-rule="evenodd" d="M113.341 85.112H81.353a3.81 3.81 0 00-3.808 3.813l11.424 41.94a3.81 3.81 0 003.808 3.813h31.989a3.81 3.81 0 003.808-3.813l-11.425-41.94a3.81 3.81 0 00-3.808-3.813z" fill="url(#paint0_linear)"/><path fill-rule="evenodd" clip-rule="evenodd" d="M65.039 103.136H23.015a5.005 5.005 0 00-5.003 5.007l15.009 55.072a5.005 5.005 0 005.002 5.007h42.025a5.005 5.005 0 005.002-5.007l-15.008-55.072a5.005 5.005 0 00-5.003-5.007z" fill="url(#paint1_linear)"/><path fill-rule="evenodd" clip-rule="evenodd" d="M105.56 146.693H63.536a5.005 5.005 0 00-5.003 5.007l15.01 55.073a5.004 5.004 0 005.002 5.006h42.024a5.004 5.004 0 005.003-5.006L110.563 151.7a5.005 5.005 0 00-5.003-5.007z" fill="url(#paint2_linear)"/><g opacity=".2" fill-rule="evenodd" clip-rule="evenodd" fill="#FF7BB6"><path d="M82.545 264.305H72.039v136.267h10.506V264.305z"/><path d="M117.566 400.528H37.019v10.514h80.547v-10.514zm29.517-146.693H7.003v10.514h140.08v-10.514z"/></g><path fill-rule="evenodd" clip-rule="evenodd" d="M105.558 253.835l-14.702-72.596-84.855 1.502 14.508 71.094h85.049z" fill="#221970"/><path fill-rule="evenodd" clip-rule="evenodd" d="M147.083 249.754H15.019v4.581h128.062l4.002-4.581z" fill="#221970"/><path fill-rule="evenodd" clip-rule="evenodd" d="M100.556 254.335l-14.701-73.096-84.856 1.502 14.008 71.594h85.549z" fill="url(#paint3_linear)"/><mask id="a" maskUnits="userSpaceOnUse" x="1" y="181" width="100" height="74"><path fill-rule="evenodd" clip-rule="evenodd" d="M100.556 254.335l-14.701-73.096-84.856 1.502 14.008 71.594h85.549z" fill="#fff"/></mask><g mask="url(#a)"><path fill-rule="evenodd" clip-rule="evenodd" d="M50.027 210.778c-4.145 0-7.505 2.802-7.505 6.258 0 3.457 3.36 6.259 7.505 6.259 4.144 0 7.504-2.802 7.504-6.259 0-3.456-3.36-6.258-7.504-6.258z" fill="#F493DE"/></g><g opacity=".5"><path fill-rule="evenodd" clip-rule="evenodd" d="M653.373 55.81c106.994 128.756-50.237 310.878-145.64 174.07-160.714-230.466-297.57-57.293-297.57-57.293" fill="#000" fill-opacity=".01"/><path d="M653.373 55.81c106.994 128.756-50.237 310.878-145.64 174.07-160.714-230.466-297.57-57.293-297.57-57.293" stroke="#F5BACA" stroke-width="2" stroke-linecap="round" stroke-dasharray="8 12"/></g><path fill-rule="evenodd" clip-rule="evenodd" d="M224.681 190.821l-10.421-13.624-33.781 21.153 25.875-29.758-12.578-11.832-31.625 55.573 62.53-21.512z" fill="url(#paint4_linear)"/><path fill-rule="evenodd" clip-rule="evenodd" d="M214.619 177.555l-7.906-1.075-27.672 22.946 35.578-21.871z" fill="#E1A846"/><path fill-rule="evenodd" clip-rule="evenodd" d="M207.073 176.48l-1.079-7.888-26.233 30.117 27.312-22.229z" fill="#E6B052"/><path fill-rule="evenodd" clip-rule="evenodd" d="M464.051 414.046c-57.056 0-103.309-9.302-103.309-20.777 0-11.475 46.253-20.778 103.309-20.778 57.057 0 103.31 9.303 103.31 20.778 0 11.475-46.253 20.777-103.31 20.777z" fill="url(#paint5_radial)"/><path fill-rule="evenodd" clip-rule="evenodd" d="M535.553 380.392c-63.31 30.393-156.265 26.379-197.962-56.101-27.547-53.071 31.227-116.619 95.787-160.807 57.943-39.659 109.481-48.653 139.72-26.326 3.454 2.55 9.591 2.049 12.38 5.518 76.753 87.675 13.385 207.322-49.925 237.716z" fill="url(#paint6_radial)"/><path fill-rule="evenodd" clip-rule="evenodd" d="M496.446 304.454c-67.704 42.338-137.627 46.964-161.138 9.311-21.815-40.68 31.108-114.252 98.812-156.59 67.704-42.338 126.694-49.049 150.205-11.395 23.511 37.653-20.174 116.336-87.879 158.674z" fill="url(#paint7_radial)"/><g filter="url(#filter0_f)"><path fill-rule="evenodd" clip-rule="evenodd" d="M481.146 274.752c-30.357 18.994-61.709 21.07-72.251 4.178-9.781-18.251 13.948-51.258 44.305-70.253 30.357-18.994 56.807-22.005 67.348-5.112 10.542 16.893-9.045 52.193-39.402 71.187z" fill="#94B0D7"/></g><path fill-rule="evenodd" clip-rule="evenodd" d="M286.081 398.604c.99-4.514 2.478-7.872.99-13.966-1.489-6.093-18.615-9.547-20.775-7.595-2.161 1.951-1.81 2.996-10.369 7.545-8.56 4.55-33.095 9.841-38.347 15.743-5.251 5.901-6.229 9.803 4.686 9.803h33.761c6.059-2.198 8.097-3.381 11.494-5.416.692 2.55 0 4.72 0 4.72h14.539s3.032-6.32 4.021-10.834z" fill="url(#paint8_linear)"/><mask id="b" maskUnits="userSpaceOnUse" x="213" y="376" width="75" height="35"><path fill-rule="evenodd" clip-rule="evenodd" d="M286.081 398.604c.99-4.514 2.478-7.872.99-13.966-1.489-6.093-18.615-9.547-20.775-7.595-2.161 1.951-1.81 2.996-10.369 7.545-8.56 4.55-33.095 9.841-38.347 15.743-5.251 5.901-6.229 9.803 4.686 9.803h33.761c6.059-2.198 8.097-3.381 11.494-5.416.692 2.55 0 4.72 0 4.72h14.539s3.032-6.32 4.021-10.834z" fill="#fff"/></mask><g mask="url(#b)"><path fill-rule="evenodd" clip-rule="evenodd" d="M286.044 406.018c-3.132-8.077-15.34-23.145-18.877-28.048-3.537-4.904 23.438 5.779 23.438 5.779s-1.428 30.346-4.561 22.269z" fill="#8F1BAF" style="mix-blend-mode:multiply" opacity=".2"/></g><path fill-rule="evenodd" clip-rule="evenodd" d="M257.619 275.962c3.221-3.043 6.215-4.901 8.322-10.533 2.106-5.633-9.628-17.608-12.396-17.226-2.769.381-3.054 1.398-12.305.386-9.252-1.012-25.799-12.272-33.154-10.428-7.354 1.844-13.956 1.882-5.29 7.769 4.073 2.768 19.842 19.632 24.737 22.958 5.997 1.526 8.254 1.688 12.049 1.908-.826 2.394-2.547 3.74-2.547 3.74l11.544 7.843s5.818-3.373 9.04-6.417z" fill="url(#paint9_linear)"/><mask id="c" maskUnits="userSpaceOnUse" x="198" y="237" width="69" height="46"><path fill-rule="evenodd" clip-rule="evenodd" d="M257.619 275.962c3.221-3.043 6.215-4.901 8.322-10.533 2.106-5.633-9.628-17.608-12.396-17.226-2.769.381-3.054 1.398-12.305.386-9.252-1.012-25.799-12.272-33.154-10.428-7.354 1.844-13.956 1.882-5.29 7.769 4.073 2.768 19.842 19.632 24.737 22.958 5.997 1.526 8.254 1.688 12.049 1.908-.826 2.394-2.547 3.74-2.547 3.74l11.544 7.843s5.818-3.373 9.04-6.417z" fill="#fff"/></mask><g mask="url(#c)"><path fill-rule="evenodd" clip-rule="evenodd" d="M252.853 281.19c4.847-10.048-.145-32.72 2.065-34.728 2.211-2.008 13.022 16.225 13.022 16.225s5.142 5.104-3.121 12.736c-8.262 7.631-16.813 15.816-11.966 5.767z" fill="#8F1BAF" style="mix-blend-mode:multiply" opacity=".2"/></g><g filter="url(#filter1_i)"><path fill-rule="evenodd" clip-rule="evenodd" d="M467.198 164.48c-22.484-11.982-35.296-46.957-44.582-56.792-9.286-9.834-13.387 8.981-11.852 14.521 1.535 5.539 12.853 42.771 36.476 72.84 0 19.644 22.863-14.808 19.958-30.569z" fill="url(#paint10_linear)"/></g><path fill-rule="evenodd" clip-rule="evenodd" d="M476.816 124.793s-53.293-21.092-60.498-19.697c-7.204 1.394 14.329 25.972 18.734 27.955 4.406 1.983 10.394 6.822 17.02 6.994 6.626.173 21.857 3.456 21.857 3.456l2.887-18.708z" fill="url(#paint11_linear)"/><g filter="url(#filter2_i)"><path fill-rule="evenodd" clip-rule="evenodd" d="M463.658 282.876c-6.549-8.841-22.581-27.282-57.093-34s-66.21-12.991-124.39 4.329c-4.79 56.216-10.249 112.816-15.757 124.279 4.201 5.116 19.38 9.026 28.285 9.026 3.231-12.657 13.354-43.149 18.496-58.232 5.143-15.082 6.967-33.804 5.973-40.406 17.533 4.985 53.448 20.137 66.04 24.626 12.592 4.488 55.795 18.718 70.096 7.262 14.3-11.456 14.898-28.043 8.35-36.884z" fill="url(#paint12_linear)"/></g><mask id="d" maskUnits="userSpaceOnUse" x="266" y="242" width="202" height="145"><path fill-rule="evenodd" clip-rule="evenodd" d="M463.658 282.876c-6.549-8.841-22.581-27.282-57.093-34s-66.21-12.991-124.39 4.329c-4.79 56.216-10.249 112.816-15.757 124.279 4.201 5.116 19.38 9.026 28.285 9.026 3.231-12.657 13.354-43.149 18.496-58.232 5.143-15.082 6.967-33.804 5.973-40.406 17.533 4.985 53.448 20.137 66.04 24.626 12.592 4.488 55.795 18.718 70.096 7.262 14.3-11.456 14.898-28.043 8.35-36.884z" fill="#fff"/></mask><g opacity=".3" filter="url(#filter3_i)" mask="url(#d)"><path fill-rule="evenodd" clip-rule="evenodd" d="M344.7 298.13c0-7.834-19.822-49.181-25.13-53.601-5.308-4.42 10.455-3.763 10.455-3.763s35.911 37.3 40.627 57.364c4.715 20.064-25.952 7.834-25.952 0z" fill="url(#paint13_linear)"/></g><path fill-rule="evenodd" clip-rule="evenodd" d="M506.855 169.302c1.736-8.713 5.084-23.984 5.753-27.247.668-3.263-31.718 8.008-31.718 8.008l-4.072 21.362-4.662 36.128s32.963-29.539 34.699-38.251z" fill="url(#paint14_linear)"/><mask id="e" maskUnits="userSpaceOnUse" x="472" y="141" width="41" height="67"><path fill-rule="evenodd" clip-rule="evenodd" d="M506.855 169.302c1.736-8.713 5.084-23.984 5.753-27.247.668-3.263-31.718 8.008-31.718 8.008l-4.072 21.362-4.662 36.128s32.963-29.539 34.699-38.251z" fill="#fff"/></mask><g mask="url(#e)"><path fill-rule="evenodd" clip-rule="evenodd" d="M510.842 142.963c0 3.28-12.29 17.306-18.929 21.151-6.639 3.845-18.601 3.488-18.601 3.488l1.822-18.887 35.708-9.023v3.271z" fill="#A732A2" style="mix-blend-mode:multiply" opacity=".2"/></g><path fill-rule="evenodd" clip-rule="evenodd" d="M478.615 161.862s-12.297 2.003-13.144 3.542c-7.997 5.813-15.691 23.112-18.976 32.074-3.285 8.962-9.584 18.217-15.263 25.413-5.679 7.196-8.403 8.68-15.843 14.005-7.441 5.324-10.174 9.548-5.963 13.517 4.211 3.969 28.459 2.428 45.72 24.011 15.08 6.187 15.061 8.449 19.541-4.919 4.481-13.368 41.321-46.791 47.296-51.502 5.975-4.711 3.667-9.238 5.173-23.668 1.506-14.429 12.371-26.129 3.232-26.129-7.201 2.682-14.216-2.802-17.382-2.802-11.536 2.875-14.163 14.237-18.952 11.854-4.789-2.383-7.855-2.383-7.855-2.383-1.118 2.269-1.477 6.155-2.595 8.423-1.117 2.269-5.792 6.819-7.87 11.037l3.673-12.274-1.025-7.34.233-12.859z" fill="#fff"/><path fill-rule="evenodd" clip-rule="evenodd" d="M478.615 161.862s-12.297 2.003-13.144 3.542c-7.997 5.813-15.691 23.112-18.976 32.074-3.285 8.962-9.584 18.217-15.263 25.413-5.679 7.196-8.403 8.68-15.843 14.005-7.441 5.324-10.174 9.548-5.963 13.517 4.211 3.969 28.459 2.428 45.72 24.011 15.08 6.187 15.061 8.449 19.541-4.919 4.481-13.368 41.321-46.791 47.296-51.502 5.975-4.711 3.667-9.238 5.173-23.668 1.506-14.429 12.371-26.129 3.232-26.129-7.201 2.682-14.216-2.802-17.382-2.802-11.536 2.875-14.163 14.237-18.952 11.854-4.789-2.383-7.855-2.383-7.855-2.383-1.118 2.269-1.477 6.155-2.595 8.423-1.117 2.269-5.792 6.819-7.87 11.037l3.673-12.274-1.025-7.34.233-12.859z" fill="url(#paint15_linear)"/><mask id="f" maskUnits="userSpaceOnUse" x="407" y="161" width="128" height="119"><path fill-rule="evenodd" clip-rule="evenodd" d="M478.615 161.862s-12.297 2.003-13.144 3.542c-7.997 5.813-15.691 23.112-18.976 32.074-3.285 8.962-9.584 18.217-15.263 25.413-5.679 7.196-8.403 8.68-15.843 14.005-7.441 5.324-10.174 9.548-5.963 13.517 4.211 3.969 28.459 2.428 45.72 24.011 15.08 6.187 15.061 8.449 19.541-4.919 4.481-13.368 41.321-46.791 47.296-51.502 5.975-4.711 3.667-9.238 5.173-23.668 1.506-14.429 12.371-26.129 3.232-26.129-7.201 2.682-14.216-2.802-17.382-2.802-11.536 2.875-14.163 14.237-18.952 11.854-4.789-2.383-7.855-2.383-7.855-2.383-1.118 2.269-1.477 6.155-2.595 8.423-1.117 2.269-5.792 6.819-7.87 11.037l3.673-12.274-1.025-7.34.233-12.859z" fill="#fff"/><path fill-rule="evenodd" clip-rule="evenodd" d="M478.615 161.862s-12.297 2.003-13.144 3.542c-7.997 5.813-15.691 23.112-18.976 32.074-3.285 8.962-9.584 18.217-15.263 25.413-5.679 7.196-8.403 8.68-15.843 14.005-7.441 5.324-10.174 9.548-5.963 13.517 4.211 3.969 28.459 2.428 45.72 24.011 15.08 6.187 15.061 8.449 19.541-4.919 4.481-13.368 41.321-46.791 47.296-51.502 5.975-4.711 3.667-9.238 5.173-23.668 1.506-14.429 12.371-26.129 3.232-26.129-7.201 2.682-14.216-2.802-17.382-2.802-11.536 2.875-14.163 14.237-18.952 11.854-4.789-2.383-7.855-2.383-7.855-2.383-1.118 2.269-1.477 6.155-2.595 8.423-1.117 2.269-5.792 6.819-7.87 11.037l3.673-12.274-1.025-7.34.233-12.859z" stroke="#fff"/></mask><g mask="url(#f)"><g opacity=".6"><mask id="g" maskUnits="userSpaceOnUse" x="420.311" y="191.754" width="62" height="64" fill="#000"><path fill="#fff" d="M420.311 191.754h62v64h-62z"/><path fill-rule="evenodd" clip-rule="evenodd" d="M477.81 194.256c-1.086 2.18-12.981 23.036-15.509 26.035-2.527 2.998-10.812 11.355-14.008 14.519-3.195 3.163-22.78 15.62-23.013 19.525"/></mask><path fill-rule="evenodd" clip-rule="evenodd" d="M477.81 194.256c-1.086 2.18-12.981 23.036-15.509 26.035-2.527 2.998-10.812 11.355-14.008 14.519-3.195 3.163-22.78 15.62-23.013 19.525" fill="#000" fill-opacity=".01"/><path d="M462.301 220.291l3.059 2.577-3.059-2.577zm-14.008 14.519l-2.814-2.843 2.814 2.843zm33.097-38.77c-.616 1.236-3.939 7.124-7.34 12.945a428.293 428.293 0 01-5.008 8.379c-1.436 2.329-2.819 4.48-3.682 5.504l-6.117-5.155c.4-.475 1.452-2.056 2.991-4.549a419.378 419.378 0 004.909-8.216c3.449-5.902 6.617-11.532 7.087-12.476l7.16 3.568zm-16.03 26.828c-2.67 3.168-11.106 11.669-14.253 14.784l-5.628-5.685c3.244-3.211 11.379-11.425 13.764-14.254l6.117 5.155zm-14.253 14.784c-1.063 1.053-3.185 2.63-5.364 4.223-2.331 1.704-5.03 3.639-7.666 5.618-2.642 1.984-5.079 3.907-6.843 5.532-.889.818-1.508 1.47-1.88 1.945-.515.658-.131.436-.081-.397l-7.986-.475c.108-1.809 1.155-3.276 1.768-4.059.756-.966 1.731-1.952 2.76-2.9 2.073-1.909 4.776-4.029 7.459-6.044 2.689-2.018 5.5-4.035 7.747-5.678 2.4-1.754 3.924-2.921 4.458-3.45l5.628 5.685z" fill="#D9E8FF" mask="url(#g)"/></g><path opacity=".3" fill-rule="evenodd" clip-rule="evenodd" d="M492.866 190.343s-5.46-9.938-8.64-9.938c-3.179 0 1.113-9.663 1.113-9.663l9.915 7.503-2.388 12.098z" fill="#CCDFFD"/></g><path fill-rule="evenodd" clip-rule="evenodd" d="M410.807 244.951c-18.123-16.648-69.998-48.868-99.58-53.789-16.947 2.821-61.049 50.657-61.049 50.657 1.989 2.097 7.23 20.69 15.509 26.535 20.85-17.321 42.589-25.409 48.426-34.365 7.281 4.436 25.997 17.389 36.762 36.42 10.765 19.03 17.907 40.711 30.175 41.254 12.268.542 29.569 1.945 45.506-8.317 9.256-5.96 35.904-19.245 22.958-27.949-7.419-4.988-31.11-23.467-38.707-30.446z" fill="#4B42DE"/><path fill-rule="evenodd" clip-rule="evenodd" d="M481.45 106.01c-1.227 3.1-7.962 16.706-8.611 20.098-.649 3.391-7.058 26.014-3.24 29.498 3.818 3.483 15.267 5.247 18.466 4.132 3.2-1.116 10.078-1.831 12.757-6.536 2.059-3.616 8.601-12.011 10.317-11.53.627 1.289 2.812 2.667 3.906 1.781 4.728-3.824 8.781-7.966 6.857-17.345-1.924-9.38-8.668-14.008-15.899-17.053-7.231-3.045-23.325-6.145-24.553-3.045z" fill="url(#paint16_linear)"/><path fill-rule="evenodd" clip-rule="evenodd" d="M564.114 158.043c-8.76 3.549-37.128-10.579-46.131-9.324-8.275 1.153 2.225-11.797 5.333-14.089 3.107-2.292 65.244-1.253 68.506 3.53 3.261 4.783-20.443 16.94-27.708 19.883z" fill="url(#paint17_linear)"/><mask id="h" maskUnits="userSpaceOnUse" x="514" y="133" width="79" height="26"><path fill-rule="evenodd" clip-rule="evenodd" d="M564.114 158.043c-8.76 3.549-37.128-10.579-46.131-9.324-8.275 1.153 2.225-11.797 5.333-14.089 3.107-2.292 65.244-1.253 68.506 3.53 3.261 4.783-20.443 16.94-27.708 19.883z" fill="#fff"/></mask><g mask="url(#h)"><path opacity=".5" fill-rule="evenodd" clip-rule="evenodd" d="M581.36 138.606c-1.842.67-39.203 16.963-48.447 14.707-9.243-2.257 23.035 8.531 23.035 8.531s27.254-23.909 25.412-23.238z" fill="#C341A6"/></g><g filter="url(#filter4_i)"><path fill-rule="evenodd" clip-rule="evenodd" d="M507.356 126.159s4.228-6.429.96-12.805c-3.269-6.376-20.523 2.128-34.497-13.592-13.974-15.721-1.557-36.936 12.808-32.798 14.366 4.137 10.844 11.548 8.239 17.077-2.604 5.529 10.796 7.605 20.378 11.497 9.582 3.891 17.403 14.363 15.715 30.621-1.689 16.258-16.76 29.569-21.557 32.019 1.395-9.608 1.457-14.022 1.457-16.698 5.502 2.544 11.911-10.073 8.179-13.392-7.127-6.341-10.722 8.101-10.722 8.101s-.96-2.056-2.654-4.005c.645-3.478 1.694-6.025 1.694-6.025z" fill="url(#paint18_linear)"/></g><path fill-rule="evenodd" clip-rule="evenodd" d="M478.315 174.378c-4.375 1.555-5.213 9.642-5.964 11.922-.751 2.281 3.153-17.874 3.153-17.874 1.374 1.896 4.312-10.975 3.76-9.088-1.486 5.076-.241 10.826-.949 15.04z" fill="#CCDFFD"/><path fill-rule="evenodd" clip-rule="evenodd" d="M492.59 194.753c0-7.163-2.846-16.556-6.359-19.907 5.095.315 20.082-8.646 21.682-13.641 1.599-4.995 1.897-5.709 1.897-5.709s3.085 5.974 3.085 9.763c-2.183 8.22-11.922 22.49-20.305 29.494z" fill="url(#paint19_linear)"/><g filter="url(#filter5_i)"><path fill-rule="evenodd" clip-rule="evenodd" d="M536.382 166.238c14.796-8.14 44.354-31.282 52.122-29.393 7.769 1.889 5.753 5.398 5.753 13.446s-40.601 35.226-46.853 48.675c-2.676 5.756-9.532 19.977-21.804 17.66-12.272-2.317-8.549-14.521-5.904-24.364 3.109-11.57 7.574-21.011 16.686-26.024z" fill="url(#paint20_linear)"/></g><path fill-rule="evenodd" clip-rule="evenodd" d="M496.598 126.45c-2.589.689-5.826.185-7.557-1.705l7.557 1.705z" fill="#000" fill-opacity=".01"/><path d="M496.598 126.45c-2.589.689-5.826.185-7.557-1.705" stroke="#143B8C" stroke-width="2" stroke-linecap="round"/><path fill-rule="evenodd" clip-rule="evenodd" d="M475.82 120.943c-2.237.689-5.033.185-6.527-1.706l6.527 1.706z" fill="#000" fill-opacity=".01"/><path d="M475.82 120.943c-2.237.689-5.033.185-6.527-1.706" stroke="#143B8C" stroke-width="2" stroke-linecap="round"/><path fill-rule="evenodd" clip-rule="evenodd" d="M502.323 122.389l-2.782 12.296-15.497-3.723 2.334-12.806 15.945 4.233zm-22.648-6.283l-2.524 12.564-11.604-3.331 2.118-12.572 12.01 3.339z" fill="#000" fill-opacity=".01" stroke="#143B8C" stroke-width="2"/><path fill-rule="evenodd" clip-rule="evenodd" d="M502.635 123.936l9.137 2.503-1.527 3.052-9.876 2.333 2.266-7.888zm-16.772-1.903l-6.972-2.149-.768 3.683 7.24 2.02.5-3.554z" fill="#143B8C"/><path fill-rule="evenodd" clip-rule="evenodd" d="M496.446 304.454c-67.704 42.338-137.627 46.964-161.138 9.311-28.236-54.89 68.581-31.14 136.286-73.477 67.704-42.338 66.031-77.678 112.731-94.509 23.511 37.654-20.174 116.337-87.879 158.675z" fill="#000" fill-opacity=".01"/><mask id="i" maskUnits="userSpaceOnUse" x="330" y="145" width="261" height="195"><path fill-rule="evenodd" clip-rule="evenodd" d="M496.446 304.454c-67.704 42.338-137.627 46.964-161.138 9.311-28.236-54.89 68.581-31.14 136.286-73.477 67.704-42.338 66.031-77.678 112.731-94.509 23.511 37.654-20.174 116.337-87.879 158.675z" fill="#fff"/></mask><g mask="url(#i)"><g filter="url(#filter6_i)"><path fill-rule="evenodd" clip-rule="evenodd" d="M617.554 251.007c-35.338 22.966-75.818 23.348-90.415.854-14.597-22.494 2.217-59.347 37.555-82.313s75.819-23.348 90.416-.854c14.597 22.494-2.217 59.347-37.556 82.313z" fill="#FBE6EB"/></g><g filter="url(#filter7_i)"><path fill-rule="evenodd" clip-rule="evenodd" d="M493.58 342.545c-26.043-12.153-34.14-49.938-18.084-84.396 16.056-34.457 50.184-52.539 76.227-40.386 26.043 12.153 34.139 49.939 18.084 84.396-16.056 34.458-50.184 52.539-76.227 40.386z" fill="#FBE6EB"/></g><g filter="url(#filter8_i)"><path fill-rule="evenodd" clip-rule="evenodd" d="M426.041 400.622c-26.043-12.153-34.14-49.939-18.084-84.396 16.056-34.458 50.184-52.539 76.227-40.386 26.043 12.153 34.139 49.938 18.084 84.396-16.056 34.458-50.184 52.539-76.227 40.386z" fill="#FBE6EB"/></g><g filter="url(#filter9_i)"><path fill-rule="evenodd" clip-rule="evenodd" d="M299.968 420.148c-26.043-12.154-34.139-49.939-18.083-84.397 16.056-34.457 50.184-52.538 76.227-40.385 26.043 12.153 34.139 49.938 18.083 84.396-16.056 34.457-50.184 52.539-76.227 40.386z" fill="#FBE6EB"/></g><g filter="url(#filter10_i)"><path fill-rule="evenodd" clip-rule="evenodd" d="M389.175 381.961c-28.521 3.505-53.812-11.342-56.489-33.161-2.677-21.819 18.274-42.348 46.795-45.852 28.521-3.505 53.812 11.342 56.489 33.161 2.677 21.819-18.274 42.348-46.795 45.852z" fill="#FBE6EB"/></g></g><path fill-rule="evenodd" clip-rule="evenodd" d="M467.65 197.035s-11.841-2.241-13.261-3.835c-1.42-1.594-9.439 16.819-9.439 16.819l3.894 4.424h9.281l9.525-17.408z" fill="url(#paint21_linear)"/><path fill-rule="evenodd" clip-rule="evenodd" d="M603.883 399.026c-19.893 0-36.02 3.475-36.02 7.761 0 4.285 16.127 7.76 36.02 7.76 19.894 0 36.021-3.475 36.021-7.76 0-4.286-16.127-7.761-36.021-7.761z" fill="#FBD0E3"/><path fill-rule="evenodd" clip-rule="evenodd" d="M570.384 368.672c-2.258 3.96-3.523 8.396-3.523 13.082 0 16.728 16.127 30.29 36.02 30.29 19.894 0 36.021-13.562 36.021-30.29 0-4.958-1.416-9.638-3.928-13.769-15.957 2.528-47.718 2.365-64.59.687z" fill="url(#paint22_linear)"/><path fill-rule="evenodd" clip-rule="evenodd" d="M602.633 361.977c-18.098 0-32.769 3.475-32.769 7.761s14.671 7.76 32.769 7.76 32.769-3.474 32.769-7.76-14.671-7.761-32.769-7.761z" fill="url(#paint23_linear)"/><g filter="url(#filter11_i)"><path fill-rule="evenodd" clip-rule="evenodd" d="M605.384 362.979c1.789-12.393 6.712-30.29 21.512-49.566 8.718-11.354 8.747-39.006 10.006-42.055-6.841 2.354-19.13 8.423-31.518 25.534-12.986 17.937-4.748 54.517 0 66.087z" fill="url(#paint24_linear)"/></g><mask id="j" maskUnits="userSpaceOnUse" x="598" y="271" width="39" height="92"><path fill-rule="evenodd" clip-rule="evenodd" d="M605.384 362.979c1.789-12.393 6.712-30.29 21.512-49.566 8.718-11.354 8.747-39.006 10.006-42.055-6.841 2.354-19.13 8.423-31.518 25.534-12.986 17.937-4.748 54.517 0 66.087z" fill="#fff"/></mask><g style="mix-blend-mode:multiply" opacity=".5" mask="url(#j)"><path d="M607.127 349.83l9.539-45.173c-6.474 12.643-9.346 26.544-9.539 45.173z" fill="#000" fill-opacity=".01"/><path d="M607.127 349.83l9.539-45.173c-6.474 12.643-9.346 26.544-9.539 45.173z" stroke="#3E6145" stroke-width="3"/></g><g filter="url(#filter12_i)"><path fill-rule="evenodd" clip-rule="evenodd" d="M605.329 375.7c5.528-8.85 15.297-20.843 33.065-30.567 10.467-5.728 19.777-26.805 21.762-28.708-6.011-.504-17.427-.008-32.628 8.876-15.934 9.313-21.936 39.979-22.199 50.399z" fill="url(#paint25_linear)"/></g><mask id="k" maskUnits="userSpaceOnUse" x="605" y="316" width="56" height="60"><path fill-rule="evenodd" clip-rule="evenodd" d="M605.329 375.7c5.528-8.85 15.297-20.843 33.065-30.567 10.467-5.728 19.777-26.805 21.762-28.708-6.011-.504-17.427-.008-32.628 8.876-15.934 9.313-21.936 39.979-22.199 50.399z" fill="#fff"/></mask><g style="mix-blend-mode:multiply" opacity=".5" mask="url(#k)"><path d="M612.404 363.982l19.765-27.502c-7.889 6.814-14.045 15.436-19.765 27.502z" fill="#000" fill-opacity=".01"/><path d="M612.404 363.982l19.765-27.502c-7.889 6.814-14.045 15.436-19.765 27.502z" stroke="#3E6145" stroke-width="3"/></g><g filter="url(#filter13_i)"><path fill-rule="evenodd" clip-rule="evenodd" d="M601.358 376.912c-4.359-9.525-12.534-22.727-28.971-34.703-9.683-7.054-16.223-29.243-17.954-31.393 6.053.273 17.36 2.24 31.349 13.048 14.664 11.33 16.665 42.639 15.576 53.048z" fill="url(#paint26_linear)"/></g><mask id="l" maskUnits="userSpaceOnUse" x="554" y="310" width="48" height="67"><path fill-rule="evenodd" clip-rule="evenodd" d="M601.358 376.912c-4.359-9.525-12.534-22.727-28.971-34.703-9.683-7.054-16.223-29.243-17.954-31.393 6.053.273 17.36 2.24 31.349 13.048 14.664 11.33 16.665 42.639 15.576 53.048z" fill="#fff"/></mask><g style="mix-blend-mode:multiply" opacity=".5" mask="url(#l)"><path d="M581.344 334.209l16.185 30.054c-4.145-12.815-9.176-22.227-16.185-30.054z" fill="#000" fill-opacity=".01"/><path d="M581.344 334.209l16.185 30.054c-4.145-12.815-9.176-22.227-16.185-30.054z" stroke="#3E6145" stroke-width="3"/></g><g opacity=".6"><path fill-rule="evenodd" clip-rule="evenodd" d="M612.89.5c-17.131 0-31.018 13.898-31.018 31.042 0 17.143 13.887 31.04 31.018 31.04 17.13 0 31.018-13.897 31.018-31.04C643.908 14.398 630.02.5 612.89.5z" fill="url(#paint27_linear)"/><mask id="m" fill="#fff"><path fill-rule="evenodd" clip-rule="evenodd" d="M612.51 10.343v22.334l-10.213 10.221"/></mask><path d="M610.51 10.343a2 2 0 014 0h-4zm2 22.334h2a2 2 0 01-.585 1.414l-1.415-1.414zm-8.798 11.635a2 2 0 01-2.83-2.828l2.83 2.828zm10.798-33.97v22.335h-4V10.343h4zm-.585 23.749l-10.213 10.22-2.83-2.827 10.214-10.22 2.829 2.827z" fill="#fff" mask="url(#m)"/></g><defs><linearGradient id="paint27_linear" x1="616.984" y1="17.68" x2="635.623" y2="54.333" gradientUnits="userSpaceOnUse"><stop stop-color="#FACEEA"/><stop offset="1" stop-color="#F7ACDD"/></linearGradient><linearGradient id="paint21_linear" x1="462.172" y1="187.619" x2="468.555" y2="212.086" gradientUnits="userSpaceOnUse"><stop stop-color="#EEF5FF"/><stop offset="1" stop-color="#D9E8FF"/></linearGradient><linearGradient id="paint1_linear" x1="95.536" y1="120.363" x2="59.57" y2="181.023" gradientUnits="userSpaceOnUse"><stop stop-color="#FAD0E4" stop-opacity=".15"/><stop offset="1" stop-color="#F8B2D5"/></linearGradient><linearGradient id="paint2_linear" x1="136.057" y1="164.057" x2="99.691" y2="224.934" gradientUnits="userSpaceOnUse"><stop stop-color="#FAD0E4" stop-opacity=".15"/><stop offset="1" stop-color="#F8B2D5"/></linearGradient><linearGradient id="paint3_linear" x1="-27.817" y1="233.758" x2="10.37" y2="171.274" gradientUnits="userSpaceOnUse"><stop stop-color="#221970"/><stop offset="1" stop-color="#6039C8"/></linearGradient><linearGradient id="paint4_linear" x1="220.493" y1="226.838" x2="153.372" y2="216.345" gradientUnits="userSpaceOnUse"><stop stop-color="#FDAE6B"/><stop offset="1" stop-color="#FAE539"/></linearGradient><linearGradient id="paint26_linear" x1="609.943" y1="328.311" x2="574.497" y2="383.902" gradientUnits="userSpaceOnUse"><stop stop-color="#F5FCAF"/><stop offset=".444" stop-color="#BECD82"/><stop offset="1" stop-color="#66A464"/></linearGradient><linearGradient id="paint25_linear" x1="668.404" y1="332.046" x2="639.976" y2="388.358" gradientUnits="userSpaceOnUse"><stop stop-color="#F5FCAF"/><stop offset=".444" stop-color="#BECD82"/><stop offset="1" stop-color="#66A464"/></linearGradient><linearGradient id="paint8_linear" x1="266.374" y1="378.447" x2="271.478" y2="416.663" gradientUnits="userSpaceOnUse"><stop stop-color="#F39EFE"/><stop offset="1" stop-color="#C45BD6"/></linearGradient><linearGradient id="paint9_linear" x1="246.734" y1="240.955" x2="255.594" y2="289.975" gradientUnits="userSpaceOnUse"><stop stop-color="#F39EFE"/><stop offset="1" stop-color="#C45BD6"/></linearGradient><linearGradient id="paint10_linear" x1="435.975" y1="98.829" x2="481.409" y2="150.512" gradientUnits="userSpaceOnUse"><stop stop-color="#F5F8FF"/><stop offset="1" stop-color="#fff"/></linearGradient><linearGradient id="paint11_linear" x1="443.039" y1="156.997" x2="424.541" y2="106.776" gradientUnits="userSpaceOnUse"><stop stop-color="#DA54BD"/><stop offset="1" stop-color="#F281D5"/></linearGradient><linearGradient id="paint0_linear" x1="136.654" y1="98.227" x2="108.537" y2="144.712" gradientUnits="userSpaceOnUse"><stop stop-color="#FAD0E4" stop-opacity=".15"/><stop offset="1" stop-color="#F8B2D5"/></linearGradient><linearGradient id="paint13_linear" x1="337.559" y1="291.98" x2="315.246" y2="279.098" gradientUnits="userSpaceOnUse"><stop stop-color="#1F1794"/><stop offset="1" stop-color="#3D18C8"/></linearGradient><linearGradient id="paint14_linear" x1="505.364" y1="149.661" x2="505.364" y2="191.845" gradientUnits="userSpaceOnUse"><stop stop-color="#B53FB7"/><stop offset="1" stop-color="#F175D1"/></linearGradient><linearGradient id="paint15_linear" x1="420.66" y1="260.97" x2="430.96" y2="231.587" gradientUnits="userSpaceOnUse"><stop stop-color="#F6A7E2"/><stop offset="1" stop-color="#fff" stop-opacity=".01"/></linearGradient><linearGradient id="paint16_linear" x1="463.114" y1="104.271" x2="505.805" y2="126.708" gradientUnits="userSpaceOnUse"><stop stop-color="#FAD3F2"/><stop offset=".701" stop-color="#F6A5E4"/><stop offset="1" stop-color="#F493DE"/></linearGradient><linearGradient id="paint17_linear" x1="552.354" y1="171.741" x2="543.492" y2="131.253" gradientUnits="userSpaceOnUse"><stop stop-color="#DA54BD"/><stop offset="1" stop-color="#F281D5"/></linearGradient><linearGradient id="paint18_linear" x1="463.296" y1="34.185" x2="537.307" y2="52.368" gradientUnits="userSpaceOnUse"><stop stop-color="#3C2BBA"/><stop offset="1" stop-color="#231A6D"/></linearGradient><linearGradient id="paint19_linear" x1="503.64" y1="183.336" x2="493.978" y2="177.163" gradientUnits="userSpaceOnUse"><stop stop-color="#EEF5FF"/><stop offset="1" stop-color="#ADC8F2"/></linearGradient><linearGradient id="paint20_linear" x1="549.788" y1="135.41" x2="575.384" y2="189.739" gradientUnits="userSpaceOnUse"><stop stop-color="#F5F8FF"/><stop offset="1" stop-color="#fff"/></linearGradient><linearGradient id="paint12_linear" x1="321.5" y1="347" x2="281.353" y2="296.46" gradientUnits="userSpaceOnUse"><stop stop-color="#19128F"/><stop offset="1" stop-color="#5934E5"/></linearGradient><linearGradient id="paint22_linear" x1="548.1" y1="396.128" x2="582.954" y2="357.359" gradientUnits="userSpaceOnUse"><stop stop-color="#FAD9F9"/><stop offset="1" stop-color="#FCE4FA"/></linearGradient><linearGradient id="paint23_linear" x1="636.402" y1="361.477" x2="636.402" y2="377.999" gradientUnits="userSpaceOnUse"><stop stop-color="#F499E7"/><stop offset="1" stop-color="#F6B2EE"/></linearGradient><linearGradient id="paint24_linear" x1="643.433" y1="296.211" x2="589.621" y2="352.514" gradientUnits="userSpaceOnUse"><stop stop-color="#F5FCAF"/><stop offset=".444" stop-color="#BECD82"/><stop offset="1" stop-color="#66A464"/></linearGradient><filter id="filter12_i" x="605.328" y="306.29" width="54.827" height="69.409" filterUnits="userSpaceOnUse" color-interpolation-filters="sRGB"><feFlood flood-opacity="0" result="BackgroundImageFix"/><feBlend in="SourceGraphic" in2="BackgroundImageFix" result="shape"/><feColorMatrix in="SourceAlpha" values="0 0 0 0 0 0 0 0 0 0 0 0 0 0 0 0 0 0 127 0" result="hardAlpha"/><feOffset dy="-10"/><feGaussianBlur stdDeviation="6.5"/><feComposite in2="hardAlpha" operator="arithmetic" k2="-1" k3="1"/><feColorMatrix values="0 0 0 0 0.639216 0 0 0 0 0.764706 0 0 0 0 0.466667 0 0 0 1 0"/><feBlend in2="shape" result="effect1_innerShadow"/></filter><filter id="filter6_i" x="503.077" y="152.07" width="157.295" height="119.014" filterUnits="userSpaceOnUse" color-interpolation-filters="sRGB"><feFlood flood-opacity="0" result="BackgroundImageFix"/><feBlend in="SourceGraphic" in2="BackgroundImageFix" result="shape"/><feColorMatrix in="SourceAlpha" values="0 0 0 0 0 0 0 0 0 0 0 0 0 0 0 0 0 0 127 0" result="hardAlpha"/><feOffset dx="-18.8" dy="2.6"/><feGaussianBlur stdDeviation="10.5"/><feComposite in2="hardAlpha" operator="arithmetic" k2="-1" k3="1"/><feColorMatrix values="0 0 0 0 1 0 0 0 0 0.632617 0 0 0 0 0.732638 0 0 0 0.43 0"/><feBlend in2="shape" result="effect1_innerShadow"/></filter><filter id="filter13_i" x="554.434" y="300.816" width="47.174" height="76.097" filterUnits="userSpaceOnUse" color-interpolation-filters="sRGB"><feFlood flood-opacity="0" result="BackgroundImageFix"/><feBlend in="SourceGraphic" in2="BackgroundImageFix" result="shape"/><feColorMatrix in="SourceAlpha" values="0 0 0 0 0 0 0 0 0 0 0 0 0 0 0 0 0 0 127 0" result="hardAlpha"/><feOffset dy="-10"/><feGaussianBlur stdDeviation="6.5"/><feComposite in2="hardAlpha" operator="arithmetic" k2="-1" k3="1"/><feColorMatrix values="0 0 0 0 0.639216 0 0 0 0 0.764706 0 0 0 0 0.466667 0 0 0 1 0"/><feBlend in2="shape" result="effect1_innerShadow"/></filter><filter id="filter0_f" x="306.68" y="92.51" width="316.73" height="297.872" filterUnits="userSpaceOnUse" color-interpolation-filters="sRGB"><feFlood flood-opacity="0" result="BackgroundImageFix"/><feBlend in="SourceGraphic" in2="BackgroundImageFix" result="shape"/><feGaussianBlur stdDeviation="49.991" result="effect1_foregroundBlur"/></filter><filter id="filter2_i" x="266.418" y="242.011" width="217.252" height="148.499" filterUnits="userSpaceOnUse" color-interpolation-filters="sRGB"><feFlood flood-opacity="0" result="BackgroundImageFix"/><feBlend in="SourceGraphic" in2="BackgroundImageFix" result="shape"/><feColorMatrix in="SourceAlpha" values="0 0 0 0 0 0 0 0 0 0 0 0 0 0 0 0 0 0 127 0" result="hardAlpha"/><feOffset dx="16" dy="4"/><feGaussianBlur stdDeviation="14"/><feComposite in2="hardAlpha" operator="arithmetic" k2="-1" k3="1"/><feColorMatrix values="0 0 0 0 0.103708 0 0 0 0 0.317385 0 0 0 0 0.809604 0 0 0 1 0"/><feBlend in2="shape" result="effect1_innerShadow"/></filter><filter id="filter3_i" x="318.479" y="240.731" width="68.667" height="72.323" filterUnits="userSpaceOnUse" color-interpolation-filters="sRGB"><feFlood flood-opacity="0" result="BackgroundImageFix"/><feBlend in="SourceGraphic" in2="BackgroundImageFix" result="shape"/><feColorMatrix in="SourceAlpha" values="0 0 0 0 0 0 0 0 0 0 0 0 0 0 0 0 0 0 127 0" result="hardAlpha"/><feOffset dx="16" dy="4"/><feGaussianBlur stdDeviation="14"/><feComposite in2="hardAlpha" operator="arithmetic" k2="-1" k3="1"/><feColorMatrix values="0 0 0 0 0.103708 0 0 0 0 0.317385 0 0 0 0 0.809604 0 0 0 1 0"/><feBlend in2="shape" result="effect1_innerShadow"/></filter><filter id="filter4_i" x="467.703" y="66.439" width="76.486" height="103.739" filterUnits="userSpaceOnUse" color-interpolation-filters="sRGB"><feFlood flood-opacity="0" result="BackgroundImageFix"/><feBlend in="SourceGraphic" in2="BackgroundImageFix" result="shape"/><feColorMatrix in="SourceAlpha" values="0 0 0 0 0 0 0 0 0 0 0 0 0 0 0 0 0 0 127 0" result="hardAlpha"/><feOffset dx="13" dy="12"/><feGaussianBlur stdDeviation="9"/><feComposite in2="hardAlpha" operator="arithmetic" k2="-1" k3="1"/><feColorMatrix values="0 0 0 0 0 0 0 0 0 0 0 0 0 0 0 0 0 0 0.139889 0"/><feBlend in2="shape" result="effect1_innerShadow"/></filter><filter id="filter5_i" x="517.023" y="128.736" width="89.469" height="88.142" filterUnits="userSpaceOnUse" color-interpolation-filters="sRGB"><feFlood flood-opacity="0" result="BackgroundImageFix"/><feBlend in="SourceGraphic" in2="BackgroundImageFix" result="shape"/><feColorMatrix in="SourceAlpha" values="0 0 0 0 0 0 0 0 0 0 0 0 0 0 0 0 0 0 127 0" result="hardAlpha"/><feOffset dx="18" dy="-8"/><feGaussianBlur stdDeviation="6"/><feComposite in2="hardAlpha" operator="arithmetic" k2="-1" k3="1"/><feColorMatrix values="0 0 0 0 0.898039 0 0 0 0 0.941176 0 0 0 0 1 0 0 0 1 0"/><feBlend in2="shape" result="effect1_innerShadow"/></filter><filter id="filter11_i" x="598.406" y="261.358" width="38.495" height="101.621" filterUnits="userSpaceOnUse" color-interpolation-filters="sRGB"><feFlood flood-opacity="0" result="BackgroundImageFix"/><feBlend in="SourceGraphic" in2="BackgroundImageFix" result="shape"/><feColorMatrix in="SourceAlpha" values="0 0 0 0 0 0 0 0 0 0 0 0 0 0 0 0 0 0 127 0" result="hardAlpha"/><feOffset dy="-10"/><feGaussianBlur stdDeviation="6.5"/><feComposite in2="hardAlpha" operator="arithmetic" k2="-1" k3="1"/><feColorMatrix values="0 0 0 0 0.639216 0 0 0 0 0.764706 0 0 0 0 0.466667 0 0 0 1 0"/><feBlend in2="shape" result="effect1_innerShadow"/></filter><filter id="filter7_i" x="448.448" y="213.978" width="129.608" height="134.952" filterUnits="userSpaceOnUse" color-interpolation-filters="sRGB"><feFlood flood-opacity="0" result="BackgroundImageFix"/><feBlend in="SourceGraphic" in2="BackgroundImageFix" result="shape"/><feColorMatrix in="SourceAlpha" values="0 0 0 0 0 0 0 0 0 0 0 0 0 0 0 0 0 0 127 0" result="hardAlpha"/><feOffset dx="-18.8" dy="2.6"/><feGaussianBlur stdDeviation="10.5"/><feComposite in2="hardAlpha" operator="arithmetic" k2="-1" k3="1"/><feColorMatrix values="0 0 0 0 1 0 0 0 0 0.632617 0 0 0 0 0.732638 0 0 0 0.43 0"/><feBlend in2="shape" result="effect1_innerShadow"/></filter><filter id="filter1_i" x="410.449" y="104.89" width="57.004" height="97.052" filterUnits="userSpaceOnUse" color-interpolation-filters="sRGB"><feFlood flood-opacity="0" result="BackgroundImageFix"/><feBlend in="SourceGraphic" in2="BackgroundImageFix" result="shape"/><feColorMatrix in="SourceAlpha" values="0 0 0 0 0 0 0 0 0 0 0 0 0 0 0 0 0 0 127 0" result="hardAlpha"/><feOffset dy="1"/><feGaussianBlur stdDeviation="6"/><feComposite in2="hardAlpha" operator="arithmetic" k2="-1" k3="1"/><feColorMatrix values="0 0 0 0 0.898039 0 0 0 0 0.941176 0 0 0 0 1 0 0 0 1 0"/><feBlend in2="shape" result="effect1_innerShadow"/></filter><filter id="filter8_i" x="380.909" y="272.055" width="129.608" height="134.952" filterUnits="userSpaceOnUse" color-interpolation-filters="sRGB"><feFlood flood-opacity="0" result="BackgroundImageFix"/><feBlend in="SourceGraphic" in2="BackgroundImageFix" result="shape"/><feColorMatrix in="SourceAlpha" values="0 0 0 0 0 0 0 0 0 0 0 0 0 0 0 0 0 0 127 0" result="hardAlpha"/><feOffset dx="-18.8" dy="2.6"/><feGaussianBlur stdDeviation="10.5"/><feComposite in2="hardAlpha" operator="arithmetic" k2="-1" k3="1"/><feColorMatrix values="0 0 0 0 1 0 0 0 0 0.632617 0 0 0 0 0.732638 0 0 0 0.43 0"/><feBlend in2="shape" result="effect1_innerShadow"/></filter><filter id="filter9_i" x="254.837" y="291.581" width="129.608" height="134.952" filterUnits="userSpaceOnUse" color-interpolation-filters="sRGB"><feFlood flood-opacity="0" result="BackgroundImageFix"/><feBlend in="SourceGraphic" in2="BackgroundImageFix" result="shape"/><feColorMatrix in="SourceAlpha" values="0 0 0 0 0 0 0 0 0 0 0 0 0 0 0 0 0 0 127 0" result="hardAlpha"/><feOffset dx="-18.8" dy="2.6"/><feGaussianBlur stdDeviation="10.5"/><feComposite in2="hardAlpha" operator="arithmetic" k2="-1" k3="1"/><feColorMatrix values="0 0 0 0 1 0 0 0 0 0.632617 0 0 0 0 0.732638 0 0 0 0.43 0"/><feBlend in2="shape" result="effect1_innerShadow"/></filter><filter id="filter10_i" x="313.655" y="302.435" width="122.545" height="82.639" filterUnits="userSpaceOnUse" color-interpolation-filters="sRGB"><feFlood flood-opacity="0" result="BackgroundImageFix"/><feBlend in="SourceGraphic" in2="BackgroundImageFix" result="shape"/><feColorMatrix in="SourceAlpha" values="0 0 0 0 0 0 0 0 0 0 0 0 0 0 0 0 0 0 127 0" result="hardAlpha"/><feOffset dx="-18.8" dy="2.6"/><feGaussianBlur stdDeviation="10.5"/><feComposite in2="hardAlpha" operator="arithmetic" k2="-1" k3="1"/><feColorMatrix values="0 0 0 0 1 0 0 0 0 0.632617 0 0 0 0 0.732638 0 0 0 0.43 0"/><feBlend in2="shape" result="effect1_innerShadow"/></filter><radialGradient id="paint6_radial" cx="0" cy="0" r="1" gradientUnits="userSpaceOnUse" gradientTransform="matrix(-47.5319 -116.36886 204.01164 -83.33038 514.167 249.586)"><stop stop-color="#A05CE8"/><stop offset="1" stop-color="#261FB6"/></radialGradient><radialGradient id="paint5_radial" cx="0" cy="0" r="1" gradientUnits="userSpaceOnUse" gradientTransform="matrix(0 36.7144 -592.396 0 464.301 377.832)"><stop stop-color="#0C0A28"/><stop offset="1" stop-color="#3429C0"/></radialGradient><radialGradient id="paint7_radial" cx="0" cy="0" r="1" gradientUnits="userSpaceOnUse" gradientTransform="matrix(42.0083 125.88901 -577.98265 192.86884 451.836 177.22)"><stop stop-color="#FFDFEF"/><stop offset="1" stop-color="#FFBDDD"/></radialGradient></defs></svg>