<svg width="83" height="61" fill="none" xmlns="http://www.w3.org/2000/svg"><path d="M0 61A61 61 0 0161 0v33.953A27.047 27.047 0 0033.953 61H0z" fill="#FFEDF2"/><path d="M61 19H43a2 2 0 00-2 2v38a2 2 0 002 2h18.012V19H61zm-5 23H46a1 1 0 010-2h10a1 1 0 010 2zm0-7H46a1 1 0 010-2h10a1 1 0 010 2zm0-7H46a1 1 0 010-2h10a1 1 0 010 2z" fill="#FD3E72"/><path d="M81 19H63v42h18a2 2 0 002-2V21a2 2 0 00-2-2zm-3 23H68a1 1 0 010-2h10a1 1 0 010 2zm0-7H68a1 1 0 010-2h10a1 1 0 010 2zm0-7H68a1 1 0 010-2h10a1 1 0 010 2z" fill="#FF91AF"/></svg>