<svg width="122" height="122" viewBox="0 0 122 122" fill="none" xmlns="http://www.w3.org/2000/svg">
<path d="M122 61C122 69.0106 120.422 76.9428 117.357 84.3437C114.291 91.7446 109.798 98.4691 104.134 104.134C98.4691 109.798 91.7445 114.291 84.3437 117.357C76.9428 120.422 69.0106 122 61 122L61 61H122Z" fill="#DFF7F0"/>
<path d="M116.306 105.282C116.084 106.123 115.811 106.943 115.49 107.74C119.037 113.574 119.618 117.271 118.445 118.445C117.998 118.892 117.371 119.11 116.528 119.11C116.526 119.11 116.525 119.11 116.523 119.11C114.195 119.108 110.855 117.49 107.348 115.223C111.987 111.754 115 106.224 115 99.9999C115 89.5229 106.477 80.9999 96 80.9999C89.773 80.9999 84.243 84.0169 80.777 88.6609C78.401 84.8469 77.002 81.5239 77 79.3089C76.999 78.5119 77.185 77.9209 77.553 77.5529C78.727 76.3799 82.425 76.9609 88.262 80.5099C89.059 80.1899 89.879 79.9159 90.72 79.6939C83.714 75.1349 78.449 73.8289 76.139 76.1389C75.382 76.8959 74.999 77.9629 75 79.3109C75.005 84.8009 81.554 95.0069 91.291 104.704C95.527 108.957 109.254 121.101 116.521 121.109C116.523 121.109 116.526 121.109 116.528 121.109C117.908 121.109 119.029 120.689 119.859 119.859C122.169 117.548 120.863 112.285 116.306 105.282ZM104 99.9999C105.104 99.9999 106 100.895 106 102C106 103.104 105.105 104 104 104C102.896 104 102 103.105 102 102C102.001 100.896 102.896 99.9999 104 99.9999ZM96 88.9999C97.657 88.9999 99 90.3429 99 91.9999C99 93.6569 97.657 94.9999 96 94.9999C94.343 94.9999 93 93.6569 93 91.9999C93.001 90.3429 94.344 88.9999 96 88.9999Z" fill="#62D5B4"/>
<path d="M78.519 92.564C77.543 94.849 77 97.362 77 100C77 110.477 85.523 119 96 119C98.667 119 101.205 118.442 103.511 117.445C96.385 112.542 89.977 106.219 89.874 106.115C85.255 101.515 81.389 96.856 78.519 92.564Z" fill="#93E7CF"/>
</svg>
