<svg width="61" height="61" fill="none" xmlns="http://www.w3.org/2000/svg"><path d="M61 0A61 61 0 010 61V0h61z" fill="#DFF7F0"/><path d="M55.306 44.282a20.757 20.757 0 01-.816 2.458c3.547 5.834 4.128 9.53 2.955 10.705-.447.447-1.074.665-1.917.665h-.005c-2.328-.002-5.668-1.62-9.175-3.887C50.987 50.753 54 45.223 54 39c0-10.477-8.523-19-19-19-6.227 0-11.757 3.017-15.223 7.66-2.376-3.813-3.775-7.136-3.777-9.351-.001-.797.185-1.388.553-1.756 1.174-1.173 4.872-.592 10.709 2.957a20.94 20.94 0 012.458-.816c-7.006-4.56-12.271-5.865-14.581-3.555-.757.757-1.14 1.824-1.139 3.172.005 5.49 6.554 15.696 16.291 25.393 4.236 4.253 17.963 16.397 25.23 16.405h.007c1.38 0 2.501-.42 3.331-1.25 2.31-2.311 1.004-7.574-3.553-14.577zM43 39a2 2 0 110 4 2 2 0 010-4zm-8-11a3 3 0 110 6 3 3 0 010-6z" fill="#08AE7E"/><path d="M17.519 31.564A18.886 18.886 0 0016 39c0 10.477 8.523 19 19 19a18.88 18.88 0 007.511-1.555c-7.126-4.903-13.534-11.226-13.637-11.33-4.619-4.6-8.485-9.259-11.355-13.551z" fill="#93E7CF"/></svg>