<svg width="62" height="63" viewBox="0 0 62 63" fill="none" xmlns="http://www.w3.org/2000/svg">
<path d="M61 0H0V61L61 0Z" fill="#FDF0EC"/>
<path d="M36.3192 22.1425C30.2602 20.9015 23.8022 23.5445 19.2162 29.3835C19.0651 29.5758 18.9897 29.8169 19.0042 30.061C19.0188 30.3052 19.1223 30.5356 19.2952 30.7085L24.0532 35.4675C27.243 30.2754 31.4084 25.7504 36.3192 22.1425Z" fill="#FF9579"/>
<path d="M41.5112 52.9255L46.2952 57.7085C46.4682 57.8814 46.6986 57.9849 46.9427 57.9995C47.1869 58.0141 47.4279 57.9386 47.6202 57.7875C53.4952 53.1715 56.1402 46.6655 54.8412 40.5745C51.229 45.5063 46.7038 49.6992 41.5112 52.9255Z" fill="#FF9579"/>
<path d="M60.7102 16.3016C60.6128 16.1995 60.4944 16.1198 60.3631 16.068C60.2319 16.0162 60.091 15.9936 59.9502 16.0016C32.5082 17.4346 23.1582 41.4066 23.0662 41.6486C22.9984 41.8286 22.9839 42.0243 23.0245 42.2123C23.0651 42.4003 23.1591 42.5726 23.2952 42.7086L34.2952 53.7086C34.4827 53.8961 34.737 54.0015 35.0022 54.0016C35.1246 54.002 35.246 53.9796 35.3602 53.9356C35.6022 53.8426 59.4492 44.3756 61.0022 17.0586C61.0091 16.919 60.9867 16.7795 60.9364 16.6491C60.8861 16.5187 60.809 16.4003 60.7102 16.3016ZM41.0022 40.0016C40.211 40.0016 39.4377 39.767 38.7799 39.3275C38.1221 38.8879 37.6094 38.2632 37.3067 37.5323C37.0039 36.8014 36.9247 35.9971 37.079 35.2212C37.2334 34.4453 37.6143 33.7326 38.1737 33.1731C38.7332 32.6137 39.4459 32.2328 40.2218 32.0784C40.9977 31.9241 41.802 32.0033 42.5329 32.3061C43.2638 32.6088 43.8885 33.1215 44.328 33.7793C44.7676 34.4371 45.0022 35.2105 45.0022 36.0016C45.0022 37.0624 44.5807 38.0799 43.8306 38.83C43.0805 39.5801 42.063 40.0016 41.0022 40.0016Z" fill="#F47C5C"/>
<path d="M26.2452 50.7585C25.1191 49.6348 23.5932 49.0037 22.0022 49.0037C20.4113 49.0037 18.8854 49.6348 17.7592 50.7585C15.6022 52.9145 15.0592 60.1195 15.0022 60.9345C14.9931 61.0713 15.0121 61.2086 15.0582 61.3378C15.1044 61.4669 15.1766 61.5852 15.2704 61.6853C15.3641 61.7854 15.4775 61.8651 15.6034 61.9195C15.7293 61.9739 15.8651 62.0018 16.0022 62.0015H16.0692C16.8842 61.9455 24.0892 61.4015 26.2452 59.2465C27.3696 58.1202 28.0011 56.5939 28.0011 55.0025C28.0011 53.4111 27.3696 51.8847 26.2452 50.7585Z" fill="#FFB6A3"/>
</svg>
