<svg width="62" height="63" fill="none" xmlns="http://www.w3.org/2000/svg"><path d="M61 0H0v61L61 0z" fill="#FDF0EC"/><path d="M36.319 22.142c-6.06-1.24-12.517 1.402-17.103 7.242a1 1 0 00.079 1.325l4.758 4.759a47.178 47.178 0 0112.266-13.326zm5.193 30.783l4.784 4.784a1 1 0 001.325.078c5.875-4.615 8.52-11.121 7.22-17.212a47.78 47.78 0 01-13.33 12.35z" fill="#FF9579"/><path d="M60.71 16.302a.973.973 0 00-.76-.3c-27.442 1.433-36.792 25.405-36.884 25.647a1 1 0 00.23 1.06l11 11a1 1 0 001.064.227c.242-.093 24.09-9.56 25.642-36.877a1 1 0 00-.292-.757zm-19.708 23.7a4 4 0 110-8 4 4 0 010 8z" fill="#F47C5C"/><path d="M26.245 50.758a6.007 6.007 0 00-8.486 0c-2.157 2.156-2.7 9.361-2.757 10.176a1.002 1.002 0 001 1.068h.067c.815-.056 8.02-.6 10.176-2.756a6.007 6.007 0 000-8.488z" fill="#FFB6A3"/></svg>