<svg width="24" height="18" fill="none" xmlns="http://www.w3.org/2000/svg"><path d="M.5.5h23v17H.5V.5z" fill="#fff" stroke="#F5F2E9"/><path fill-rule="evenodd" clip-rule="evenodd" d="M1 1h22v9H1V1z" fill="#DF0000"/><path fill-rule="evenodd" clip-rule="evenodd" d="M6.342 1.508a3.165 3.165 0 00.03 6.195A3.225 3.225 0 012.374 5.49a3.225 3.225 0 012.213-3.975 3.085 3.085 0 011.758-.007h-.003z" fill="#fff"/><path fill-rule="evenodd" clip-rule="evenodd" d="M5.854 4.125l.184.562-.488-.345-.48.353.177-.57-.48-.349.596-.007.187-.563.188.563h.592l-.476.356zm.656 1.95l.188.566-.488-.345-.483.349.18-.566-.48-.353.596-.004.184-.566.187.563h.6l-.484.356zm2.194-.015l.184.57-.488-.35-.48.349.177-.566-.48-.35.596-.007.187-.562.188.562h.592l-.476.353zm.653-1.935l.183.566-.487-.345-.48.349.18-.566-.484-.353.6-.004.18-.566.188.563h.6l-.48.356zM7.62 2.839l.188.57-.488-.35-.483.353.18-.57-.48-.352.592-.004.188-.566.187.562h.6l-.484.357z" fill="#fff"/></svg>