<svg width="57" height="57" fill="none" xmlns="http://www.w3.org/2000/svg"><path d="M25.954 7.478c-7.376-1.51-15.238 1.707-20.821 8.815a1.217 1.217 0 00.096 1.613l5.792 5.794A57.436 57.436 0 0125.954 7.477zm6.32 37.475l5.824 5.823a1.217 1.217 0 001.613.096c7.153-5.62 10.373-13.54 8.791-20.955a58.164 58.164 0 01-16.228 15.036z" fill="#FF9579"/><path d="M55.647.367a1.186 1.186 0 00-.926-.365C21.314 1.746 9.931 30.93 9.82 31.224a1.217 1.217 0 00.28 1.29l13.39 13.392a1.217 1.217 0 001.297.276C25.08 46.07 54.11 34.544 56.002 1.29a1.218 1.218 0 00-.355-.922zM31.654 29.22a4.87 4.87 0 110-9.74 4.87 4.87 0 010 9.74z" fill="#F47C5C"/><path d="M13.69 42.315a7.313 7.313 0 00-10.33 0C.732 44.939.071 53.71.002 54.703a1.218 1.218 0 001.217 1.299h.082c.992-.069 9.763-.73 12.388-3.354a7.313 7.313 0 000-10.334z" fill="#FFB6A3"/></svg>