<svg width="28" height="28" fill="none" xmlns="http://www.w3.org/2000/svg"><path d="M14 28c7.732 0 14-6.268 14-14S21.732 0 14 0 0 6.268 0 14s6.268 14 14 14z" fill="#E50915"/><path d="M22.501 10.318c-.782-.546-1.618-1.127-2.436-1.705a.667.667 0 00-.058-.04 1.099 1.099 0 00-.321-.18l-.01-.005c-2.186-.528-4.41-1.07-6.56-1.593l-5.852-1.42c-.05-.014-.1-.028-.154-.041-.176-.05-.38-.104-.596-.077a.416.416 0 00-.168.063l-.054.045a.662.662 0 00-.153.244l-.014.036v.208l.009.031c1.234 3.45 2.499 6.951 3.719 10.339.94 2.607 1.916 5.309 2.87 7.961.058.18.225.298.433.316h.045a.51.51 0 00.452-.248l3.58-5.21c.871-1.268 1.743-2.54 2.616-3.807.357-.519.713-1.042 1.07-1.56.588-.858 1.193-1.742 1.794-2.603l.032-.045v-.055c.014-.158.018-.482-.244-.654zm-4.193 1.9c-.84.437-1.7.888-2.563 1.335l1.51-1.615c.628-.677 1.283-1.376 1.925-2.062l.013-.013c.054-.072.122-.14.195-.212.05-.05.103-.1.153-.158.335.23.674.464.999.694.235.167.474.334.718.501-.994.505-1.988 1.024-2.95 1.53zM16.148 12c-.647.699-1.315 1.416-1.98 2.124a1163.9 1163.9 0 00-3.877-4.673l-1.74-2.088-.004-.005c-.131-.149-.258-.311-.384-.464-.081-.104-.167-.203-.253-.307a70.27 70.27 0 001.572.383c.457.109.931.221 1.397.339l7.867 1.908c-.872.929-1.749 1.872-2.598 2.783zm-2.273 8.791c.05-.473.104-.96.149-1.439.04-.383.081-.776.122-1.15.063-.6.13-1.222.185-1.831l.014-.109c.045-.388.09-.789.117-1.19.05-.027.104-.055.163-.077.068-.032.135-.059.203-.1 1.044-.545 2.088-1.09 3.136-1.632 1.044-.541 2.115-1.1 3.177-1.656a903.13 903.13 0 00-2.879 4.186c-.809 1.178-1.64 2.391-2.467 3.586-.325.479-.664.966-.985 1.435-.361.523-.732 1.06-1.094 1.596.046-.54.1-1.087.159-1.619zm-6.3-13.14c-.058-.162-.121-.329-.176-.487 1.22 1.47 2.45 2.95 3.647 4.385.619.744 1.238 1.484 1.857 2.232.122.14.244.29.362.434.153.184.307.378.474.563-.054.465-.1.934-.149 1.385-.032.316-.063.632-.1.952v.004c-.013.203-.04.406-.063.605l-.104.897-.004.032c-.082.911-.18 1.831-.276 2.725-.04.37-.077.748-.117 1.127-.023-.067-.05-.135-.073-.198-.067-.18-.135-.37-.198-.555l-.484-1.34c-1.532-4.253-3.064-8.502-4.595-12.76z" fill="#fff" stroke="#fff" stroke-width=".5"/></svg>