<svg width="48" height="40" fill="none" xmlns="http://www.w3.org/2000/svg"><path d="M48 5.113a19.686 19.686 0 01-5.656 1.551 9.876 9.876 0 004.33-5.448 19.716 19.716 0 01-6.254 2.39 9.835 9.835 0 00-7.188-3.11c-5.438 0-9.848 4.409-9.848 9.847 0 .772.087 1.524.255 2.244-8.184-.41-15.44-4.33-20.297-10.289A9.801 9.801 0 002.008 7.25a9.844 9.844 0 004.381 8.197 9.808 9.808 0 01-4.46-1.232l-.001.124c0 4.771 3.394 8.752 7.9 9.656a9.869 9.869 0 01-4.448.169 9.858 9.858 0 009.2 6.839 19.76 19.76 0 01-12.23 4.215c-.796 0-1.58-.046-2.35-.137a27.874 27.874 0 0015.096 4.424c18.113 0 28.019-15.005 28.019-28.019 0-.427-.01-.852-.029-1.274A20.013 20.013 0 0048 5.113z" fill="#69ACE0"/></svg>