<svg width="24" height="21" fill="none" xmlns="http://www.w3.org/2000/svg"><path d="M24 3.166c-.897.384-1.794.692-2.841.77 1.047-.616 1.794-1.616 2.168-2.77-.972.615-2.019 1-3.14 1.23-.897-1-2.168-1.615-3.514-1.615-2.692 0-4.935 2.231-4.935 5.077 0 .385.075.77.15 1.154-4.112-.23-7.701-2.23-10.168-5.308a4.948 4.948 0 00-.673 2.539c0 1.769.897 3.307 2.168 4.23a4.47 4.47 0 01-2.243-.615v.077c0 2.462 1.72 4.462 3.963 4.923-.449.077-.823.154-1.271.154-.3 0-.599 0-.898-.077.598 2 2.468 3.462 4.561 3.539-1.645 1.384-3.813 2.153-6.13 2.153-.375 0-.823 0-1.197-.076 2.243 1.384 4.86 2.23 7.626 2.23 9.047 0 13.982-7.692 13.982-14.384V5.78c.897-.769 1.72-1.615 2.392-2.615z" fill="#1DA1F2"/></svg>