<svg width="26" height="16" fill="none" xmlns="http://www.w3.org/2000/svg"><path d="M23.808.008h-6.182c-.843.027-1.9.707-2.092 1.544l-2.916 12.905c-.192.844.33 1.537 1.173 1.544h6.477c.83-.041 1.633-.714 1.825-1.544L25.01 1.552c.192-.851-.343-1.544-1.2-1.544z" fill="#01798A"/><path d="M12.61 14.45l2.916-12.906C15.718.707 16.775.027 17.619 0H10.75C9.9.02 8.829.7 8.637 1.544L5.728 14.449c-.192.844.33 1.537 1.174 1.544h6.888c-.844-.007-1.372-.693-1.18-1.544z" fill="#024381"/><path d="M5.729 14.45l2.916-12.9C8.837.708 9.907.02 10.758.008L5.098 0C4.24 0 3.149.693 2.95 1.55L.034 14.45c-.02.075-.027.157-.034.233v.24c.055.617.528 1.063 1.208 1.077h5.694c-.844-.014-1.365-.7-1.173-1.55z" fill="#DD0228"/><path d="M10.875 9.405h.11c.096 0 .164-.034.199-.096l.281-.418h.748l-.158.274h.892l-.117.419h-1.063c-.124.185-.275.267-.453.26h-.556l.117-.439zm-.124.597h1.956l-.124.453h-.782l-.123.44h.768l-.123.452h-.769l-.178.652c-.041.11.014.157.171.144h.625l-.117.425h-1.2c-.227 0-.303-.13-.234-.39l.226-.831h-.487l.124-.453h.487l.117-.439h-.467l.13-.453zm3.13-1.118l-.028.267s.37-.274.706-.274h1.242l-.473 1.715c-.041.2-.206.295-.508.295h-1.406l-.33 1.208c-.02.061.007.096.076.096h.274l-.103.377h-.707c-.267 0-.384-.082-.336-.247l.933-3.43h.66v-.007zm1.049.487h-1.105l-.13.46s.185-.13.494-.138c.309-.006.659 0 .659 0l.082-.322zm-.405 1.07c.082.014.13-.02.13-.096l.069-.247h-1.105l-.096.343h1.002zm-.748.556h.638l-.013.274h.171c.09 0 .13-.027.13-.082l.048-.178h.529l-.069.26c-.062.22-.22.33-.48.343h-.343v.474c-.007.075.062.117.206.117h.322l-.103.377h-.768c-.213.007-.323-.09-.316-.309l.048-1.276zM6.037 6.6c-.089.425-.288.748-.596.981-.31.227-.707.343-1.194.343-.46 0-.796-.116-1.009-.35-.15-.164-.22-.377-.22-.631 0-.103.014-.22.042-.343l.521-2.504h.782l-.521 2.477a.965.965 0 00-.02.192c0 .123.027.233.095.308.096.124.247.179.453.179.24 0 .44-.062.597-.179a.852.852 0 00.302-.5l.515-2.477h.782L6.037 6.6zm3.293-.988h.618l-.48 2.237h-.617l.48-2.237zm.2-.81h.617l-.116.543h-.618l.117-.542zm.96 2.874c-.158-.151-.24-.364-.24-.625 0-.048 0-.096.007-.15l.02-.165c.076-.364.227-.652.467-.865.24-.212.528-.322.864-.322.275 0 .494.075.652.233.158.158.24.364.24.631 0 .048-.006.096-.006.158-.007.055-.014.11-.028.165-.068.357-.226.645-.466.85-.24.213-.529.316-.858.316-.274.007-.494-.068-.652-.226zm1.173-.44c.11-.116.186-.294.234-.535a3.93 3.93 0 00.02-.116c.007-.041.007-.076.007-.103a.467.467 0 00-.103-.323.387.387 0 00-.295-.116.55.55 0 00-.418.178c-.11.117-.186.302-.234.542l-.02.11c-.007.034-.007.069-.007.103 0 .137.034.24.103.316.068.075.171.11.302.11a.49.49 0 00.411-.165z" fill="#fff"/><path d="M17.639 0h-2.47l2.456.007L17.64 0z" fill="#E02F41"/><path d="M16.494 9.422l.151-.522h.748l-.034.193s.384-.193.658-.193h.927l-.144.522h-.145l-.7 2.456h.145l-.138.487h-.143l-.062.213h-.728l.062-.213h-1.434l.137-.487h.144l.7-2.456h-.144zm.81 0l-.192.665s.33-.123.604-.157c.061-.234.144-.508.144-.508h-.556zm-.281.981l-.192.7s.363-.178.61-.192c.069-.268.144-.501.144-.501h-.562v-.007zm.137 1.482l.144-.508h-.556l-.144.508h.556zm1.811-3.012h.707l.027.26c-.007.07.035.097.117.097h.123l-.123.439h-.515c-.199.007-.302-.069-.308-.226l-.028-.57zm-.206.94h2.278l-.137.473h-.727l-.124.44h.734l-.137.473h-.81l-.185.274h.398l.09.556c.013.055.061.082.143.082h.124l-.13.453h-.433c-.226.014-.343-.062-.35-.226l-.102-.508-.357.535c-.083.151-.213.22-.391.213h-.666l.13-.453h.206a.284.284 0 00.22-.116l.563-.817h-.728l.137-.473h.79l.123-.44h-.79l.131-.466zm-12-4.201h.556l-.062.322.083-.09a.86.86 0 01.651-.287c.234 0 .398.068.508.205.103.138.13.323.083.57l-.302 1.523h-.57l.275-1.379c.027-.144.02-.247-.021-.316-.041-.068-.123-.103-.247-.103a.55.55 0 00-.37.138.67.67 0 00-.2.377l-.253 1.283h-.583l.452-2.243zm6.346 0h.556l-.062.322.075-.09a.863.863 0 01.66-.287c.232 0 .404.068.507.205.103.138.13.323.082.57l-.302 1.523h-.57l.275-1.379c.028-.144.02-.247-.02-.316-.048-.068-.124-.103-.247-.103a.55.55 0 00-.37.138.67.67 0 00-.2.377l-.254 1.283h-.57l.44-2.243zm2.745-1.385h1.613c.308 0 .548.068.713.205.165.138.247.337.247.597v.007c0 .048 0 .103-.007.165-.007.062-.02.123-.034.185a1.39 1.39 0 01-1.393 1.146h-.871l-.268 1.31h-.748l.748-3.615zm.398 1.687h.714c.185 0 .336-.04.439-.13.11-.09.178-.22.22-.398.006-.034.006-.062.013-.09 0-.027.007-.054.007-.075 0-.13-.048-.22-.137-.28-.09-.063-.234-.09-.433-.09h-.61l-.213 1.063zM21.77 8.28c-.233.501-.46.796-.596.933-.13.138-.398.446-1.03.426l.055-.384c.529-.165.817-.9.982-1.229l-.193-2.408.412-.007h.343l.035 1.51.644-1.51h.652l-1.303 2.67zm-1.831-2.481l-.261.178c-.274-.212-.521-.343-.995-.123-.652.302-1.194 2.62.597 1.86l.103.123.707.02.466-2.106-.617.048zm-.405 1.153c-.117.336-.364.555-.563.494-.199-.062-.267-.385-.15-.72.116-.337.37-.557.562-.495.199.062.268.384.15.72z" fill="#fff"/></svg>