<svg width="24" height="18" fill="none" xmlns="http://www.w3.org/2000/svg"><path fill-rule="evenodd" clip-rule="evenodd" d="M0 0h24v1.385H0V0zm0 2.77h24v1.385H0V2.77zm0 2.767h24v1.389H0V5.537zm0 2.77h24v1.386H0V8.307zm0 2.77h24v1.386H0v-1.385zm0 2.768h24v1.385H0v-1.386zm0 2.77h24V18H0v-1.385z" fill="#BD3D44"/><path fill-rule="evenodd" clip-rule="evenodd" d="M0 0h13.292v9.712H0V0z" fill="#192F5D"/><path fill-rule="evenodd" clip-rule="evenodd" d="M1.107.416L1.23.8h.39l-.315.236.12.387-.318-.24-.314.237.12-.384L.594.8H.99l.116-.384zm2.217 0l.12.384h.393l-.318.236.12.387-.315-.24-.318.237.12-.384L2.812.8h.39l.122-.384zm2.214 0L5.66.8h.386l-.315.236.12.387-.318-.24-.314.237.12-.384L5.022.8h.393l.123-.384zm2.217 0l.12.384h.392l-.318.236.123.387-.317-.24-.318.237.123-.384L7.242.8h.39l.123-.384zm2.213 0l.123.384h.39l-.315.236.12.387-.318-.24-.314.237.12-.384L9.458.8h.39l.12-.384zm2.217 0l.12.384h.393l-.318.236.123.387-.318-.24-.318.237.123-.384L11.674.8h.393l.12-.384zm-9.968.972l.12.384h.393l-.318.236.116.384-.307-.236-.318.236.113-.384-.308-.236h.39l.12-.384zm2.214 0l.123.384h.39l-.318.236.123.384-.318-.236-.318.236.123-.384-.318-.236h.393l.12-.384zm2.217 0l.12.384h.392l-.317.236.12.384-.315-.236-.318.236.12-.384-.315-.236h.39l.123-.384zm2.213 0l.123.384h.39l-.318.236.123.384-.318-.236-.314.236.12-.384-.318-.236h.396l.116-.384zm2.217 0l.12.384h.393l-.318.236.12.384-.315-.236-.317.236.12-.384-.315-.236h.39l.122-.384zm-9.97.969l.122.39h.39l-.315.237.12.384-.318-.24-.314.24.12-.388-.318-.236H.99l.116-.387zm2.216 0l.12.387h.393l-.318.236.12.384-.315-.24-.318.24.12-.387-.314-.236h.39l.122-.384zm2.214 0l.123.387h.386l-.315.236.12.384-.318-.24-.314.24.12-.387-.318-.236h.393l.123-.384zm2.217 0l.12.387h.392l-.318.236.123.384-.317-.24-.318.24.123-.387-.318-.236h.39l.123-.384zm2.213 0l.123.387h.39l-.315.236.12.384-.318-.24-.314.24.12-.387-.315-.236h.39l.12-.384zm2.217 0l.12.387h.393l-.318.236.123.384-.318-.24-.318.24.123-.387-.317-.236h.393l.12-.384zm-9.968.972l.12.384h.393l-.318.236.12.388-.315-.24-.317.236.12-.384-.315-.236h.39l.122-.384zm2.214 0l.123.384h.39l-.318.236.123.388-.318-.24-.318.236.123-.384-.318-.236h.393l.12-.384zm2.217 0l.12.384h.392l-.317.236.12.388-.315-.24-.318.236.12-.384-.315-.236h.39l.123-.384zm2.213 0l.123.384h.39l-.314.236.12.388-.319-.24-.314.236.12-.384-.318-.236h.396l.116-.384zm2.217 0l.12.384h.393l-.318.236.12.388-.315-.24-.317.236.12-.384-.315-.236h.39l.122-.384zm-9.97.972l.122.384h.39l-.315.236.12.388-.318-.24-.314.236.12-.384-.318-.236H.99l.116-.384zm2.216 0l.12.384h.393l-.318.236.12.384-.315-.236-.318.236.12-.384-.314-.236h.39l.122-.384zm2.214 0l.123.384h.386l-.315.236.12.388-.318-.24-.314.236.12-.384-.318-.236h.393l.123-.384zm2.217 0l.12.384h.392l-.318.236.123.388-.317-.24-.318.236.123-.384-.318-.236h.39l.123-.384zm2.213 0l.123.384h.39l-.315.236.12.388-.318-.24-.314.236.12-.384-.315-.236h.39l.12-.384zm2.217 0l.12.384h.393l-.318.236.123.388-.318-.24-.318.236.123-.384-.317-.236h.393l.12-.384zm-9.968.973l.12.384h.393l-.318.236.12.384-.315-.24-.317.24.12-.388-.315-.236h.39l.122-.38zm2.214 0l.123.384h.39l-.318.236.123.384-.318-.24-.318.24.123-.388-.318-.236h.393l.12-.38zm2.217 0l.12.384h.392l-.317.236.12.384-.315-.24-.318.24.12-.388-.315-.236h.39l.123-.38zm2.213 0l.123.384h.39l-.314.236.12.384-.319-.24-.314.24.12-.388-.318-.236h.396l.116-.38zm2.217 0l.12.384h.393l-.318.236.12.384-.315-.24-.317.24.12-.388-.315-.236h.39l.122-.38zm-9.97.968l.122.388h.39l-.315.236.12.38-.318-.236-.314.236.12-.384-.318-.236H.99l.116-.384zm2.216 0l.12.388h.393l-.318.236.123.38-.318-.236-.318.236.123-.384-.317-.236h.39l.122-.384zm2.214 0l.123.388h.386l-.315.236.12.38-.318-.236-.314.236.12-.384-.318-.236h.393l.123-.384zm2.217 0l.12.388h.392l-.318.236.123.38-.317-.236-.318.236.123-.384-.318-.236h.39l.123-.384zm2.213 0l.123.388h.39l-.315.236.12.38-.318-.236-.314.236.12-.384-.315-.236h.39l.12-.384zm2.217 0l.12.388h.393l-.318.236.123.38-.318-.236-.318.236.123-.384-.317-.236h.393l.12-.384zm-9.968.973l.12.384h.393l-.318.236.12.387-.315-.24-.317.237.12-.384-.315-.236h.39l.122-.384zm2.214 0l.123.384h.39l-.318.236.123.387-.318-.24-.318.237.123-.384-.318-.236h.393l.12-.384zm2.217 0l.12.384h.392l-.317.236.12.387-.315-.24-.318.237.12-.384-.315-.236h.39l.123-.384zm2.213 0l.123.384h.39l-.314.236.12.387-.319-.24-.314.237.12-.384-.318-.236h.396l.116-.384zm2.217 0l.12.384h.393l-.318.236.12.387-.315-.24-.317.237.12-.384-.315-.236h.39l.122-.384zm-9.97.972l.122.384h.39l-.315.236.12.384-.318-.236-.314.236.12-.388-.318-.236H.99l.116-.38zm2.216 0l.12.384h.393l-.318.236.123.384-.318-.236-.318.236.123-.388-.317-.236h.39l.122-.38zm2.214 0l.123.384h.386l-.308.236.12.384-.318-.236-.314.236.12-.388-.318-.236h.393l.116-.38zm2.217 0l.12.384h.392l-.318.236.123.384-.317-.236-.318.236.123-.388-.318-.236h.39l.123-.38zm2.213 0l.123.384h.39l-.315.236.12.384-.318-.236-.314.236.12-.388-.315-.236h.39l.12-.38zm2.217 0l.12.384h.393l-.318.236.123.384-.318-.236-.318.236.123-.388-.317-.236h.393l.12-.38z" fill="#fff"/></svg>