<svg width="62" height="52" fill="none" xmlns="http://www.w3.org/2000/svg"><path d="M31 24a3 3 0 100-6 3 3 0 000 6z" fill="#6CA9F0"/><path d="M31 0C15.972 0 0 3.154 0 9v36c0 2.569 2.935 4.719 8.723 6.387A1 1 0 0010 50.426V40.347A85.327 85.327 0 0131 38c7.07-.09 14.124.698 21 2.347v10.079a1 1 0 001.277.961C59.065 49.719 62 47.569 62 45V9c0-5.846-15.972-9-31-9zm21.723 13.465a1 1 0 00-.723.961V38.28A87.36 87.36 0 0031 36a87.36 87.36 0 00-21 2.28V14.426a1 1 0 00-.723-.961C3.912 11.919 2 10.145 2 9c0-2.923 11.032-7 29-7s29 4.077 29 7c0 1.145-1.912 2.919-7.277 4.465z" fill="#6CA9F0"/><path d="M45.8 20.4c-.257-.343-6.4-8.4-14.8-8.4s-14.543 8.057-14.8 8.4a1 1 0 000 1.2c.257.343 6.4 8.4 14.8 8.4s14.543-8.057 14.8-8.4a1 1 0 000-1.2zM31 27a6 6 0 110-12 6 6 0 010 12z" fill="#6CA9F0"/></svg>