<svg width="38" height="12" fill="none" xmlns="http://www.w3.org/2000/svg"><mask id="a" maskUnits="userSpaceOnUse" x="0" y="0" width="38" height="12"><path d="M0 11.959V0h38v11.959H0z" fill="#fff"/></mask><g mask="url(#a)"><path fill-rule="evenodd" clip-rule="evenodd" d="M18.815.211l-2.539 11.567h-3.07L15.746.211h3.07zm12.92 7.469l1.615-4.343.93 4.343h-2.546zm3.425 4.098H38L35.522.211H32.9a1.4 1.4 0 00-1.307.849l-4.607 10.718h3.225l.64-1.727h3.94l.37 1.726v.001zm-8.014-3.777c.014-3.052-4.332-3.22-4.302-4.584.009-.416.415-.856 1.302-.969.44-.056 1.653-.1 3.028.517l.539-2.452A8.43 8.43 0 0024.84 0c-3.034 0-5.17 1.573-5.189 3.824-.019 1.665 1.525 2.593 2.689 3.147 1.196.567 1.598.93 1.593 1.437-.008.777-.954 1.119-1.837 1.133-1.545.023-2.44-.407-3.154-.731l-.557 2.534c.717.321 2.041.6 3.415.615 3.226 0 5.336-1.554 5.346-3.958zM14.428.211L9.453 11.778H6.207L3.759 2.547c-.149-.569-.278-.777-.73-1.016C2.292 1.14 1.072.775 0 .547L.073.21h5.225c.665 0 1.264.432 1.416 1.18l1.293 6.693L11.203.211h3.225z" fill="#293789"/></g></svg>