<svg width="58" height="60" fill="none" xmlns="http://www.w3.org/2000/svg"><path d="M49 13H9a4 4 0 00-4 4v15a4 4 0 004 4h13a1 1 0 00.843-.462l3.1-4.868a3.634 3.634 0 016.106 0l3.1 4.868A1 1 0 0036 36h13a4 4 0 004-4V17a4 4 0 00-4-4zm-4 9H13a1 1 0 010-2h32a1 1 0 010 2zm1.827-11a19.946 19.946 0 00-35.654 0h35.654zm9.441 47.036l-12.142-3.373A7.018 7.018 0 0139 47.919v-1.2a17.387 17.387 0 01-10 3.28 17.387 17.387 0 01-10-3.277v1.2a7.018 7.018 0 01-5.126 6.744l-12.142 3.37A1 1 0 002 60h54a1 1 0 00.268-1.964z" fill="#776CF0"/><path d="M36 38a2.986 2.986 0 01-2.529-1.387l-3.1-4.867a1.621 1.621 0 00-2.734 0l-3.1 4.867A2.986 2.986 0 0122 38h-8.271C17.5 44.31 23.059 48 29 48c5.941 0 11.5-3.69 15.271-10H36z" fill="#776CF0"/></svg>