<svg width="48" height="34" fill="none" xmlns="http://www.w3.org/2000/svg"><path d="M47.52 7.403s-.468-3.308-1.908-4.764C43.787.727 41.742.718 40.803.606 34.086.12 24.01.12 24.01.12h-.02S13.914.12 7.197.606c-.938.112-2.984.121-4.81 2.033C.949 4.095.48 7.403.48 7.403S0 11.288 0 15.172v3.641c0 3.885.48 7.769.48 7.769s.468 3.308 1.908 4.764c1.825 1.912 4.224 1.852 5.292 2.052 3.84.368 16.32.482 16.32.482s10.086-.015 16.803-.5c.938-.112 2.984-.122 4.81-2.034 1.439-1.456 1.908-4.764 1.908-4.764S48 22.698 48 18.813v-3.641c0-3.885-.48-7.769-.48-7.769z" fill="#DC2217"/><path d="M19.046 23.227L19.044 9.74l12.97 6.767-12.968 6.72z" fill="#fff"/></svg>