<svg width="28" height="28" fill="none" xmlns="http://www.w3.org/2000/svg"><path d="M14.146 25.735c-6.38 0-11.587-5.213-11.587-11.587 0-6.38 5.212-11.587 11.587-11.587 6.38 0 11.587 5.212 11.587 11.587 0 6.38-5.208 11.587-11.587 11.587z" fill="url(#paint0_linear)"/><path d="M14 28C6.3 28 0 21.7 0 14S6.3 0 14 0s14 6.3 14 14-6.3 14-14 14zm0-24.887C8.013 3.113 3.113 8.013 3.113 14S8.013 24.887 14 24.887 24.887 19.987 24.887 14 19.987 3.113 14 3.113z" fill="#000"/><path d="M13.676 17.791h6.067v3.034h-3.58v2.566h-3.112v-2.487H9.317c0-1.013-.153-2.02.08-2.953.08-.467.62-.934 1.013-1.4 1.166-1.4 2.333-2.8 3.58-4.2.466-.547.933-1.013 1.479-1.634H9.635V7.684h3.421V5.117h3.033v2.487h3.734c0 1.013.153 2.02-.08 2.954-.08.467-.62.933-1.013 1.4-1.166 1.4-2.333 2.8-3.58 4.2a29.3 29.3 0 01-1.474 1.633z" fill="#000"/><defs><linearGradient id="paint0_linear" x1="6.216" y1="22.078" x2="22.212" y2="6.081" gradientUnits="userSpaceOnUse"><stop stop-color="#CF8724"/><stop offset="1" stop-color="#FDCE58"/></linearGradient></defs></svg>