<svg width="18" height="18" viewBox="0 0 18 18" fill="none" xmlns="http://www.w3.org/2000/svg">
<path d="M9 0C4.03725 0 0 4.03725 0 9C0 13.9628 4.03725 18 9 18C13.9628 18 18 13.9628 18 9C18 4.03725 13.9628 0 9 0ZM9 16.5C7.125 16.5 5.41275 15.8032 4.0965 14.6617C4.1025 14.652 4.11075 14.6437 4.116 14.634C5.355 12.558 4.57575 11.2898 4.0005 10.7183C3.849 10.5675 3.67575 10.4302 3.49725 10.2922C3.03075 9.93 2.72175 9.69075 2.72175 9C2.72175 8.6745 2.90325 8.547 3.7995 8.241C4.416 8.03025 5.11425 7.79175 5.565 7.209C6.61125 5.856 5.46075 3.7695 5.21925 3.3645C5.0955 3.15675 4.96125 2.96175 4.82175 2.775C5.949 2.016 7.2945 1.563 8.7405 1.51275C8.9745 1.9095 9.36075 2.244 9.74025 2.57025C10.0642 2.84925 10.5788 2.96625 10.8435 3.29625C10.995 3.48525 10.9215 3.84975 10.9268 4.08825C10.9373 4.5615 11.2238 5.24775 12.1898 5.24775C12.2325 5.24775 12.2768 5.24625 12.3225 5.24325C12.696 5.217 13.8615 4.95 15.033 4.563C15.951 5.808 16.5 7.3395 16.5 9C16.5 13.1355 13.1355 16.5 9 16.5Z" fill="#FD3E72"/>
<path d="M11.6358 6.67578C10.4538 6.67578 9.24705 7.23753 8.63355 8.07303C8.2218 8.63403 8.1018 9.28278 8.2953 9.90003C8.68155 11.1315 8.71905 11.8575 8.47755 12.6713C8.26305 13.3943 8.24205 14.4428 9.4668 14.9423C9.6978 15.0368 9.9513 15.0848 10.2183 15.0848C11.1288 15.0848 12.2066 14.5215 13.1763 13.5383C14.3418 12.357 15.0273 10.9095 15.0108 9.66453C14.9883 7.98903 13.5056 6.67578 11.6358 6.67578Z" fill="#FD3E72"/>
</svg>
